<?xml version="1.0" standalone="no"?>
<!DOCTYPE svg PUBLIC "-//W3C//DTD SVG 1.1//EN" "http://www.w3.org/Graphics/SVG/1.1/DTD/svg11.dtd">
<svg width="70" height="99" viewBox="5 -99 70 99" xmlns="http://www.w3.org/2000/svg" version="1.1">
<title>OpenSCAD Model</title>
<path d="
M 56.4745,-75.5968 L 54.1272,-80.0115 L 62.9566,-84.7063 L 65.304,-80.2915 L 74.1335,-84.9862 L 67.0914,-98.2304
 L 12.4671,-98.4652 L 5.42506,-85.221 L 14.2545,-80.5262 L 16.6019,-84.941 L 25.4314,-80.2463 L 23.084,-75.8315
 L 31.9135,-71.1368 L 34.2608,-75.5515 L 45.2977,-75.3168 L 47.645,-70.9021 z
M 56.033,-40.3621 L 53.6857,-44.7768 L 62.5152,-49.4715 L 64.8625,-45.0568 L 73.692,-49.7515 L 66.6499,-62.9957
 L 12.4671,-63.4652 L 5.42506,-50.221 L 14.2545,-45.5262 L 16.6019,-49.941 L 25.4314,-45.2463 L 23.084,-40.8315
 L 31.9135,-36.1368 L 34.2608,-40.5515 L 44.8562,-40.0821 L 47.2036,-35.6674 z
M 56.033,-5.36208 L 53.6857,-9.77679 L 62.5152,-14.4715 L 64.8625,-10.0568 L 73.692,-14.7515 L 66.6499,-27.9957
 L 12.9086,-28.2304 L 5.86653,-14.9862 L 14.696,-10.2915 L 17.0434,-14.7063 L 25.8728,-10.0115 L 23.5255,-5.5968
 L 32.355,-0.902084 L 34.7023,-5.31682 L 44.8562,-5.08209 L 47.2036,-0.667358 z
" stroke="black" fill="lightgray" stroke-width="0.5"/></svg>
