<?xml version="1.0" standalone="no"?>
<!DOCTYPE svg PUBLIC "-//W3C//DTD SVG 1.1//EN" "http://www.w3.org/Graphics/SVG/1.1/DTD/svg11.dtd">
<svg width="212" height="120" viewBox="0 -120 212 120" xmlns="http://www.w3.org/2000/svg" version="1.1">
<title>OpenSCAD Model</title>
<path d="
M 211.866,-108.056 L 202.627,-111.883 L 200.714,-107.263 L 191.475,-111.09 L 193.388,-115.709 L 184.15,-119.536
 L 182.236,-114.917 L 169.764,-114.917 L 167.85,-119.536 L 158.612,-115.709 L 160.525,-111.09 L 151.286,-107.263
 L 149.373,-111.883 L 140.134,-108.056 L 145.874,-94.1976 L 206.126,-94.1976 z
M 140.323,-106.192 L 131.297,-110.497 L 129.144,-105.984 L 120.118,-110.289 L 122.271,-114.802 L 113.245,-119.107
 L 111.092,-114.594 L 98.9076,-114.594 L 96.755,-119.107 L 87.7292,-114.802 L 89.8817,-110.289 L 80.8559,-105.984
 L 78.7033,-110.497 L 69.6774,-106.192 L 76.1351,-92.6529 L 133.865,-92.6529 z
M 69.6823,-104.358 L 60.8941,-109.13 L 58.5083,-104.736 L 49.7202,-109.508 L 52.106,-113.902 L 43.3178,-118.673
 L 40.932,-114.279 L 29.068,-114.279 L 26.6822,-118.673 L 17.894,-113.902 L 20.2798,-109.508 L 11.4917,-104.736
 L 9.10587,-109.13 L 0.317688,-104.358 L 7.47505,-91.1763 L 62.5249,-91.1762 z
M 52.106,-66.0983 L 49.7202,-70.4924 L 58.5083,-75.264 L 60.8941,-70.8699 L 69.6823,-75.6415 L 62.5249,-88.8237
 L 7.47508,-88.8238 L 0.317703,-75.6415 L 9.10587,-70.8699 L 11.4917,-75.264 L 20.2798,-70.4924 L 17.894,-66.0983
 L 26.6822,-61.3268 L 29.068,-65.7208 L 40.932,-65.7208 L 43.3178,-61.3268 z
M 98.9076,-65.406 L 111.092,-65.406 L 113.245,-60.8931 L 122.271,-65.1982 L 120.118,-69.7111 L 129.144,-74.0162
 L 131.297,-69.5033 L 140.323,-73.8084 L 133.865,-87.3471 L 76.1351,-87.3471 L 69.6774,-73.8084 L 78.7033,-69.5033
 L 80.8559,-74.0162 L 89.8817,-69.7111 L 87.7292,-65.1982 L 96.755,-60.893 z
M 193.388,-64.2906 L 191.475,-68.91 L 200.714,-72.7368 L 202.627,-68.1174 L 211.866,-71.9442 L 206.126,-85.8024
 L 145.874,-85.8024 L 140.134,-71.9442 L 149.373,-68.1174 L 151.286,-72.7368 L 160.525,-68.91 L 158.612,-64.2906
 L 167.85,-60.4637 L 169.764,-65.0831 L 182.236,-65.0831 L 184.15,-60.4637 z
M 211.606,-47.1201 L 202.471,-51.1875 L 200.437,-46.6198 L 191.302,-50.6872 L 193.336,-55.2549 L 184.2,-59.3222
 L 182.166,-54.7545 L 169.834,-54.7545 L 167.8,-59.3222 L 158.664,-55.2549 L 160.698,-50.6871 L 151.563,-46.6198
 L 149.529,-51.1875 L 140.394,-47.1201 L 146.495,-33.417 L 205.505,-33.417 z
M 140.014,-45.2709 L 131.104,-49.8108 L 128.834,-45.3558 L 119.924,-49.8956 L 122.194,-54.3507 L 113.284,-58.8906
 L 111.014,-54.4355 L 98.9857,-54.4356 L 96.7158,-58.8906 L 87.8057,-54.3507 L 90.0757,-49.8956 L 81.1656,-45.3557
 L 78.8956,-49.8108 L 69.9856,-45.2709 L 76.7954,-31.9058 L 133.205,-31.9058 z
M 69.3264,-43.4551 L 60.6662,-48.4551 L 58.1662,-44.125 L 49.5059,-49.125 L 52.0059,-53.4551 L 43.3456,-58.4551
 L 40.8457,-54.125 L 29.1543,-54.125 L 26.6543,-58.4551 L 17.9941,-53.4551 L 20.4941,-49.125 L 11.8338,-44.125
 L 9.33383,-48.4551 L 0.673584,-43.4551 L 8.17357,-30.4648 L 61.8264,-30.4647 z
M 52.0059,-6.54489 L 49.5059,-10.875 L 58.1662,-15.875 L 60.6662,-11.5449 L 69.3264,-16.5449 L 61.8264,-29.5352
 L 8.17358,-29.5353 L 0.673584,-16.5449 L 9.33385,-11.5449 L 11.8338,-15.875 L 20.4941,-10.875 L 17.9941,-6.54489
 L 26.6544,-1.54489 L 29.1543,-5.875 L 40.8457,-5.875 L 43.3457,-1.54489 z
M 122.194,-5.64932 L 119.924,-10.1044 L 128.834,-14.6443 L 131.104,-10.1892 L 140.014,-14.7291 L 133.205,-28.0942
 L 76.7954,-28.0942 L 69.9856,-14.7291 L 78.8956,-10.1892 L 81.1656,-14.6442 L 90.0757,-10.1044 L 87.8057,-5.64932
 L 96.7158,-1.10942 L 98.9857,-5.56445 L 111.014,-5.56444 L 113.284,-1.10942 z
M 193.336,-4.74513 L 191.302,-9.31285 L 200.437,-13.3802 L 202.471,-8.8125 L 211.606,-12.8799 L 205.505,-26.583
 L 146.495,-26.583 L 140.394,-12.8799 L 149.529,-8.81248 L 151.563,-13.3802 L 160.698,-9.31284 L 158.664,-4.74512
 L 167.8,-0.677765 L 169.834,-5.24548 L 182.166,-5.24548 L 184.2,-0.677765 z
" stroke="black" fill="lightgray" stroke-width="0.5"/></svg>
