<?xml version="1.0" standalone="no"?>
<!DOCTYPE svg PUBLIC "-//W3C//DTD SVG 1.1//EN" "http://www.w3.org/Graphics/SVG/1.1/DTD/svg11.dtd">
<svg width="153" height="178" viewBox="4 -179 153 178" xmlns="http://www.w3.org/2000/svg" version="1.1">
<title>OpenSCAD Model</title>
<path d="
M 75.8966,-165.555 L 66.9087,-169.939 L 64.7168,-165.445 L 55.7289,-169.828 L 57.9207,-174.322 L 48.9328,-178.706
 L 46.7409,-174.212 L 33.259,-174.212 L 31.0672,-178.706 L 22.0793,-174.322 L 24.2711,-169.828 L 15.2832,-165.445
 L 13.0913,-169.939 L 4.10338,-165.555 L 10.6789,-152.073 L 69.321,-152.073 z
M 156.346,-165.336 L 147.358,-169.72 L 145.166,-165.226 L 136.178,-169.609 L 138.37,-174.103 L 129.382,-178.487
 L 127.19,-173.993 L 112.81,-173.993 L 110.618,-178.487 L 101.63,-174.103 L 103.822,-169.609 L 94.8338,-165.226
 L 92.6419,-169.72 L 83.654,-165.336 L 90.2295,-151.854 L 149.77,-151.854 z
M 138.37,-125.897 L 136.178,-130.391 L 145.166,-134.774 L 147.358,-130.28 L 156.346,-134.664 L 149.77,-148.146
 L 90.2296,-148.146 L 83.654,-134.664 L 92.6419,-130.28 L 94.8338,-134.774 L 103.822,-130.391 L 101.63,-125.897
 L 110.618,-121.513 L 112.81,-126.007 L 127.19,-126.007 L 129.382,-121.513 z
M 33.2591,-125.788 L 46.741,-125.788 L 48.9328,-121.294 L 57.9207,-125.678 L 55.7289,-130.172 L 64.7168,-134.555
 L 66.9087,-130.061 L 75.8966,-134.445 L 69.3211,-147.927 L 10.679,-147.927 L 4.10339,-134.445 L 13.0913,-130.061
 L 15.2832,-134.555 L 24.2711,-130.172 L 22.0793,-125.678 L 31.0672,-121.294 z
M 75.6827,-104.93 L 66.7726,-109.47 L 64.5027,-105.015 L 55.5926,-109.555 L 57.8625,-114.01 L 48.9525,-118.55
 L 46.6825,-114.095 L 33.3175,-114.095 L 31.0475,-118.55 L 22.1375,-114.01 L 24.4074,-109.555 L 15.4973,-105.015
 L 13.2274,-109.47 L 4.31732,-104.93 L 11.1272,-91.5653 L 68.8728,-91.5653 z
M 156.128,-104.703 L 147.218,-109.243 L 144.948,-104.788 L 136.038,-109.328 L 138.308,-113.783 L 129.398,-118.323
 L 127.128,-113.868 L 112.872,-113.868 L 110.602,-118.323 L 101.692,-113.783 L 103.962,-109.328 L 95.0518,-104.788
 L 92.7819,-109.243 L 83.8718,-104.703 L 90.6817,-91.3383 L 149.318,-91.3383 z
M 138.308,-66.2168 L 136.038,-70.6718 L 144.948,-75.2117 L 147.218,-70.7567 L 156.128,-75.2966 L 149.318,-88.6617
 L 90.6817,-88.6617 L 83.8718,-75.2966 L 92.7819,-70.7567 L 95.0518,-75.2117 L 103.962,-70.6718 L 101.692,-66.2168
 L 110.602,-61.6769 L 112.872,-66.1319 L 127.128,-66.1319 L 129.398,-61.6769 z
M 33.3175,-65.9049 L 46.6825,-65.9049 L 48.9525,-61.4499 L 57.8625,-65.9898 L 55.5926,-70.4448 L 64.5027,-74.9847
 L 66.7726,-70.5297 L 75.6827,-75.0696 L 68.8728,-88.4347 L 11.1272,-88.4347 L 4.31732,-75.0696 L 13.2274,-70.5297
 L 15.4973,-74.9847 L 24.4074,-70.4448 L 22.1375,-65.9898 L 31.0475,-61.4499 z
M 75.4579,-44.3095 L 66.6284,-49.0043 L 64.2811,-44.5895 L 55.4516,-49.2842 L 57.7989,-53.699 L 48.9694,-58.3937
 L 46.6221,-53.979 L 33.3779,-53.979 L 31.0305,-58.3937 L 22.2011,-53.699 L 24.5484,-49.2842 L 15.7189,-44.5895
 L 13.3716,-49.0042 L 4.54213,-44.3095 L 11.5842,-31.0654 L 68.4158,-31.0653 z
M 155.899,-44.0748 L 147.07,-48.7695 L 144.723,-44.3548 L 135.893,-49.0495 L 138.24,-53.4642 L 129.411,-58.159
 L 127.064,-53.7442 L 112.936,-53.7442 L 110.589,-58.159 L 101.76,-53.4642 L 104.107,-49.0495 L 95.2775,-44.3548
 L 92.9301,-48.7695 L 84.1006,-44.0748 L 91.1427,-30.8306 L 148.857,-30.8306 z
M 138.24,-6.53577 L 135.893,-10.9505 L 144.723,-15.6452 L 147.07,-11.2305 L 155.899,-15.9252 L 148.857,-29.1694
 L 91.1427,-29.1694 L 84.1007,-15.9252 L 92.9301,-11.2305 L 95.2775,-15.6452 L 104.107,-10.9505 L 101.76,-6.53577
 L 110.589,-1.84105 L 112.936,-6.25578 L 127.064,-6.25578 L 129.411,-1.84105 z
M 33.3779,-6.02104 L 46.6221,-6.02104 L 48.9695,-1.60632 L 57.7989,-6.30104 L 55.4516,-10.7158 L 64.2811,-15.4105
 L 66.6284,-10.9958 L 75.4579,-15.6905 L 68.4158,-28.9346 L 11.5842,-28.9347 L 4.54214,-15.6905 L 13.3716,-10.9957
 L 15.7189,-15.4105 L 24.5484,-10.7158 L 22.2011,-6.30103 L 31.0306,-1.60631 z
" stroke="black" fill="lightgray" stroke-width="0.5"/></svg>
