<?xml version="1.0" standalone="no"?>
<!DOCTYPE svg PUBLIC "-//W3C//DTD SVG 1.1//EN" "http://www.w3.org/Graphics/SVG/1.1/DTD/svg11.dtd">
<svg width="31mm" height="18mm" viewBox="33 -26 31 18" xmlns="http://www.w3.org/2000/svg" version="1.1">
<title>OpenSCAD Model</title>
<path d="
M 63.138,-21.1602 L 63.1507,-21.0393 L 63.2394,-20.9508 L 63.3521,-20.9361 L 63.4313,-20.9725 L 63.5003,-21.0896
 L 63.4839,-21.1978 L 63.4002,-21.283 L 63.3835,-21.2907 L 63.2206,-21.274 z
M 45.3618,-13.4934 L 45.2358,-13.2335 L 45.2559,-12.9121 L 45.4051,-12.6043 L 45.5618,-12.4213 L 45.7289,-12.3197
 L 45.883,-12.2961 L 46.0602,-12.347 L 46.2519,-12.5105 L 46.3502,-12.7533 L 46.3553,-12.7837 L 46.4629,-12.5578
 L 46.7084,-12.096 L 46.915,-12.2059 L 46.0606,-13.8128 L 45.9033,-13.7864 L 45.5181,-13.6286 z
M 45.9254,-13.5688 L 46.2329,-12.9904 L 46.1275,-12.6639 L 46.0185,-12.5562 L 45.874,-12.5249 L 45.7488,-12.5777
 L 45.6332,-12.6969 L 45.4929,-12.945 L 45.4465,-13.1419 L 45.4682,-13.2931 L 45.5202,-13.3839 L 45.7465,-13.5301
 z
M 51.6686,-16.6632 L 52.0235,-16.852 L 52.8235,-15.3474 L 53.385,-15.646 L 53.2949,-15.8155 L 52.9417,-15.6278
 L 52.2319,-16.9628 L 52.6239,-17.1712 L 52.5324,-17.3434 L 51.577,-16.8354 z
M 47.6819,-14.7428 L 47.7762,-14.5654 L 48.0976,-14.7757 L 48.2547,-14.7871 L 48.3704,-14.7145 L 48.4277,-14.6309
 L 48.7493,-14.026 L 48.2143,-13.7416 L 48.3063,-13.5685 L 48.8413,-13.853 L 49.0437,-13.4724 L 49.2221,-13.6353
 L 49.0479,-13.9628 L 49.3808,-14.1398 L 49.2888,-14.3129 L 48.9559,-14.1359 L 48.5595,-14.8611 L 48.4455,-14.9683
 L 48.3237,-15.0161 L 48.173,-15.0134 L 48.161,-15.011 L 47.9229,-14.9134 z
M 38.8116,-10.0103 L 38.7112,-9.76007 L 38.7237,-9.47461 L 38.859,-9.10775 L 39.1592,-8.68966 L 39.4242,-8.52908
 L 39.6884,-8.52203 L 39.9614,-8.65794 L 40.1194,-8.86961 L 40.1588,-9.01393 L 40.1509,-9.26561 L 40.0009,-9.67999
 L 39.7064,-10.0846 L 39.4373,-10.2433 L 39.2982,-10.2622 L 39.0143,-10.1828 z
M 39.7535,-9.64043 L 39.9123,-9.27647 L 39.9357,-9.00943 L 39.8848,-8.87301 L 39.7663,-8.76609 L 39.6083,-8.72551
 L 39.4021,-8.79871 L 39.3132,-8.87515 L 39.7115,-9.70872 z
M 39.2578,-10.0452 L 39.3917,-10.0161 L 39.5666,-9.88761 L 39.1688,-9.05093 L 38.9818,-9.41388 L 38.9287,-9.6735
 L 38.981,-9.89037 L 38.9838,-9.89484 L 39.1183,-10.0114 z
M 41.2188,-11.081 L 41.5658,-11.2655 L 42.2916,-9.90043 L 42.4744,-9.99761 L 42.8299,-10.5196 L 42.6605,-10.655
 L 42.3963,-10.2551 L 41.7945,-11.3871 L 42.1927,-11.5988 L 42.0903,-11.7913 L 41.1164,-11.2734 z
M 62.0884,-21.2058 L 62.2906,-20.8149 L 62.0905,-21.0166 L 61.5569,-21.494 L 61.4112,-21.4165 L 61.5098,-20.6773
 L 61.5524,-20.4225 L 60.7974,-21.738 L 60.5908,-21.6282 L 61.4894,-20.1171 L 61.7472,-20.2542 L 61.6567,-20.9547
 L 61.6174,-21.1864 L 61.7892,-21.0252 L 62.3087,-20.5528 L 62.5586,-20.6857 L 61.8102,-22.2765 L 61.6106,-22.1704
 z
M 46.7178,-14.1669 L 46.6529,-14.0122 L 46.5626,-14.1692 L 46.3781,-14.0711 L 46.8886,-13.1414 L 47.0512,-13.0322
 L 47.2501,-13.0202 L 47.4838,-13.104 L 47.8643,-13.4037 L 47.7653,-13.5901 L 47.5059,-13.3483 L 47.2721,-13.2405
 L 47.174,-13.2437 L 47.05,-13.3219 L 47.0132,-13.3771 L 46.9578,-13.4812 L 47.3664,-13.7148 L 47.5023,-13.8509
 L 47.5682,-13.9875 L 47.5792,-14.1167 L 47.5373,-14.2588 L 47.3917,-14.4324 L 47.2434,-14.4806 L 47.1835,-14.4804
 L 46.9217,-14.3852 z
M 47.2025,-14.2508 L 47.2964,-14.1813 L 47.3462,-14.0367 L 47.3202,-13.9397 L 47.1867,-13.8082 L 47.1361,-13.7787
 L 46.8738,-13.6393 L 46.7616,-13.8503 L 46.8226,-13.9933 L 47.0276,-14.2227 z
M 59.7637,-21.1036 L 59.6988,-20.9488 L 59.6085,-21.1059 L 59.424,-21.0077 L 59.9345,-20.078 L 60.0971,-19.9688
 L 60.296,-19.9568 L 60.5297,-20.0406 L 60.9102,-20.3404 L 60.8112,-20.5267 L 60.5518,-20.2849 L 60.318,-20.1771
 L 60.2199,-20.1804 L 60.0959,-20.2585 L 60.0591,-20.3137 L 60.0037,-20.4179 L 60.4123,-20.6514 L 60.5482,-20.7875
 L 60.6141,-20.9241 L 60.6251,-21.0533 L 60.5832,-21.1954 L 60.4376,-21.3691 L 60.2892,-21.4172 L 60.2294,-21.417
 L 59.9676,-21.3218 z
M 60.2484,-21.1875 L 60.3423,-21.118 L 60.3921,-20.9733 L 60.366,-20.8763 L 60.2326,-20.7448 L 60.182,-20.7153
 L 59.9197,-20.5759 L 59.8075,-20.7869 L 59.8685,-20.9299 L 60.0735,-21.1594 z
M 55.8499,-19.0226 L 55.785,-18.8679 L 55.6947,-19.0249 L 55.5102,-18.9267 L 56.0208,-17.997 L 56.1833,-17.8878
 L 56.3822,-17.8758 L 56.6159,-17.9596 L 56.9965,-18.2594 L 56.8974,-18.4457 L 56.6381,-18.2039 L 56.4042,-18.0961
 L 56.3061,-18.0994 L 56.1822,-18.1775 L 56.1454,-18.2327 L 56.09,-18.3369 L 56.4985,-18.5704 L 56.6344,-18.7065
 L 56.7004,-18.8431 L 56.7113,-18.9723 L 56.6695,-19.1144 L 56.5238,-19.2881 L 56.3755,-19.3362 L 56.3157,-19.336
 L 56.0539,-19.2408 z
M 56.3346,-19.1065 L 56.4285,-19.037 L 56.4783,-18.8924 L 56.4523,-18.7953 L 56.3188,-18.6638 L 56.2682,-18.6344
 L 56.0059,-18.4949 L 55.8937,-18.706 L 55.9547,-18.8489 L 56.1597,-19.0784 z
M 50.3167,-16.1245 L 50.4068,-15.955 L 50.6676,-16.1545 L 50.8975,-16.2635 L 51.0539,-16.2776 L 51.1837,-16.2348
 L 51.3033,-16.1267 L 51.358,-16.0406 L 50.5229,-15.5934 L 50.6694,-15.3325 L 50.8686,-15.1597 L 51.0705,-15.1036
 L 51.3735,-15.1726 L 51.5969,-15.3536 L 51.7075,-15.6458 L 51.6609,-15.9741 L 51.5285,-16.2221 L 51.2803,-16.4482
 L 51.0285,-16.4984 L 50.6782,-16.3845 z
M 51.4425,-15.8816 L 51.4934,-15.6713 L 51.4611,-15.5006 L 51.3541,-15.3751 L 51.1985,-15.3114 L 51.0464,-15.3228
 L 50.9199,-15.4014 L 50.8165,-15.5488 z
M 58.2165,-20.3356 L 58.1676,-20.2831 L 58.2695,-20.0915 L 58.3959,-20.2338 L 58.6066,-20.3642 L 58.7698,-20.3999
 L 58.9127,-20.3752 L 59.0326,-20.2995 L 59.1555,-20.1408 L 59.2294,-19.9588 L 59.2287,-19.7351 L 59.1623,-19.5931
 L 59.0176,-19.4677 L 58.8347,-19.3957 L 58.6521,-19.3719 L 58.7568,-19.175 L 59.0912,-19.2817 L 59.2498,-19.3845
 L 59.3836,-19.5363 L 59.4785,-19.8243 L 59.4231,-20.1503 L 59.3114,-20.3534 L 59.1914,-20.4894 L 59.0687,-20.5726
 L 58.9333,-20.6177 L 58.789,-20.6247 L 58.6612,-20.6012 L 58.4081,-20.4863 z
M 52.8389,-18.0826 L 52.7062,-17.8043 L 52.7244,-17.656 L 52.7993,-17.5243 L 52.9252,-17.4449 L 53.0928,-17.4331
 L 53.3214,-17.507 L 53.7534,-17.6919 L 53.8556,-17.6378 L 53.8752,-17.5635 L 53.871,-17.481 L 53.6914,-17.4499
 L 53.501,-17.3468 L 53.3731,-17.212 L 53.302,-17.0395 L 53.3022,-16.8853 L 53.4097,-16.6604 L 53.5365,-16.5658
 L 53.3458,-16.4644 L 53.4354,-16.2957 L 54.126,-16.6445 L 54.2804,-16.8157 L 54.3321,-16.9634 L 54.313,-17.1724
 L 54.2221,-17.337 L 54.0964,-17.4331 L 54.0493,-17.4545 L 54.0677,-17.6719 L 54.0097,-17.8157 L 53.9022,-17.8977
 L 53.811,-17.9111 L 53.867,-18.0838 L 53.8539,-18.2176 L 53.78,-18.3444 L 53.6742,-18.4132 L 53.5306,-18.4313
 L 53.4065,-18.4119 L 53.019,-18.2349 z
M 53.8385,-17.2911 L 53.9841,-17.2407 L 54.0905,-17.0966 L 54.1085,-16.9617 L 54.06,-16.835 L 53.9078,-16.7225
 L 53.787,-16.7039 L 53.643,-16.7589 L 53.5344,-16.9208 L 53.5378,-17.0947 L 53.571,-17.1586 L 53.7222,-17.2717
 z
M 53.5233,-18.2145 L 53.6063,-18.1609 L 53.633,-17.9485 L 53.596,-17.8682 L 53.0751,-17.6571 L 52.9748,-17.7094
 L 52.9403,-17.852 L 52.9891,-17.96 L 53.322,-18.1828 z
M 55.3692,-17.8381 L 55.2712,-17.5195 L 55.1597,-17.413 L 55.0188,-17.385 L 54.8955,-17.4541 L 54.8085,-17.5785
 L 54.4043,-18.3387 L 54.1985,-18.2293 L 54.6904,-17.3281 L 54.816,-17.2084 L 54.9417,-17.1586 L 55.084,-17.1641
 L 55.3427,-17.3087 L 55.46,-17.5132 L 55.4941,-17.6373 L 55.6053,-17.4495 L 55.789,-17.5471 L 55.1557,-18.7382
 L 54.949,-18.6284 z
M 42.9881,-10.7408 L 43.2151,-10.8614 L 43.0882,-11.7986 L 43.048,-12.0298 L 43.2139,-11.8711 L 43.9241,-11.2384
 L 44.1589,-11.3633 L 43.0594,-12.3065 L 42.8219,-12.1803 z
M 62.1053,-22.2125 L 62.4602,-22.4013 L 63.002,-21.3823 L 63.5635,-21.6809 L 63.4729,-21.8513 L 63.1198,-21.6636
 L 62.6686,-22.5121 L 63.0606,-22.7205 L 62.9691,-22.8927 L 62.0137,-22.3847 z
M 40.2114,-10.7284 L 40.2292,-10.5854 L 40.359,-10.4717 L 40.4735,-10.4636 L 40.5858,-10.522 L 40.6498,-10.6443
 L 40.6192,-10.8007 L 40.5371,-10.8791 L 40.4506,-10.9053 L 40.292,-10.8582 z
M 33.4894,-10.7824 L 33.5308,-10.3988 L 33.6694,-10.0331 L 33.7461,-9.90407 L 33.8341,-9.78446 L 33.9335,-9.67426
 L 34.0441,-9.57345 L 34.166,-9.48203 L 34.2992,-9.39999 L 34.4652,-9.31775 L 34.646,-9.24778 L 34.8163,-9.19663
 L 34.8732,-9.38995 L 34.6676,-9.46212 L 34.4986,-9.54152 L 34.345,-9.63462 L 34.2067,-9.7414 L 34.0966,-9.84783
 L 33.9985,-9.96507 L 33.9027,-10.1099 L 33.7754,-10.3944 L 33.7138,-10.6969 L 33.7192,-11.0291 L 33.8014,-11.4057
 L 33.6165,-11.4637 z
M 43.5209,-16.568 L 43.8857,-16.4205 L 44.1657,-16.2354 L 44.3785,-16.0184 L 44.5184,-15.8038 L 44.5899,-15.648
 L 44.637,-15.5047 L 44.6685,-15.357 L 44.6844,-15.2049 L 44.6838,-15.0285 L 44.6634,-14.8465 L 44.6234,-14.6589
 L 44.5927,-14.5522 L 44.778,-14.4933 L 44.8735,-14.8475 L 44.8792,-15.4843 L 44.7794,-15.8099 L 44.7108,-15.9507
 L 44.6332,-16.077 L 44.5443,-16.1939 L 44.4439,-16.3016 L 44.3322,-16.4001 L 44.2092,-16.4893 L 44.0546,-16.58
 L 43.8852,-16.6586 L 43.7009,-16.725 L 43.5782,-16.7604 z
M 49.5853,-18.0962 L 49.5237,-17.9394 L 49.5251,-17.7727 L 49.6045,-17.5879 L 49.7296,-17.4623 L 49.9247,-17.4
 L 50.0991,-17.428 L 50.2825,-17.5301 L 50.4082,-17.6891 L 50.4501,-17.8453 L 50.431,-18.0129 L 50.3262,-18.2002
 L 50.1941,-18.3024 L 50.0505,-18.339 L 49.9575,-18.3344 L 49.7487,-18.2542 z
M 50.0176,-18.1428 L 50.1562,-18.0629 L 50.2336,-17.9256 L 50.231,-17.7574 L 50.132,-17.6447 L 49.9748,-17.5949
 L 49.8497,-17.6405 L 49.7299,-17.8287 L 49.7366,-17.9835 L 49.7441,-17.9997 L 49.8609,-18.1088 z
M 56.2321,-20.6991 L 56.429,-20.8038 L 56.215,-23.1681 L 56.0181,-23.0634 z
M 47.1,-15.8435 L 47.2969,-15.9482 L 47.0829,-18.3125 L 46.886,-18.2078 z
M 51.4821,-20.0717 L 52.2361,-20.4726 L 51.9864,-19.5886 L 51.9996,-19.3405 L 52.13,-19.0832 L 52.2746,-18.9644
 L 52.4174,-18.9179 L 52.7098,-18.9634 L 52.9608,-19.1402 L 53.0638,-19.2938 L 53.1209,-19.4412 L 52.9347,-19.5167
 L 52.7803,-19.2464 L 52.5984,-19.1486 L 52.4543,-19.1553 L 52.3348,-19.2366 L 52.219,-19.4669 L 52.2487,-19.8049
 L 52.3084,-20.015 L 52.4976,-20.6263 L 52.399,-20.8118 L 51.3774,-20.2686 z
M 52.7976,-20.7768 L 53.1446,-20.9613 L 53.8704,-19.5963 L 54.0532,-19.6934 L 54.4087,-20.2155 L 54.2393,-20.3508
 L 53.9751,-19.951 L 53.3733,-21.0829 L 53.7715,-21.2946 L 53.6691,-21.4871 L 52.6952,-20.9693 z
M 50.443,-19.3323 L 50.1782,-19.1915 L 50.2749,-19.0096 L 50.5397,-19.1504 L 51.0853,-18.1244 L 51.3819,-18.2822
 L 51.4969,-19.6593 L 51.4001,-19.8412 L 50.6541,-19.4445 L 50.4719,-19.7871 L 50.2609,-19.6749 z
M 51.2903,-19.5495 L 51.1907,-18.4353 L 50.7508,-19.2626 z
M 60.8922,-25.2707 L 60.7572,-24.9716 L 60.7851,-24.7101 L 60.9395,-24.4891 L 61.0962,-24.4121 L 61.3117,-24.4057
 L 61.6105,-24.5105 L 61.7705,-24.5953 L 62.0019,-24.16 L 61.3609,-23.8191 L 61.4567,-23.639 L 62.2919,-24.0831
 L 61.8708,-24.8751 L 61.3881,-24.6417 L 61.2139,-24.63 L 61.1083,-24.6787 L 61.0191,-24.7973 L 60.9841,-24.9478
 L 61.0214,-25.0969 L 61.1381,-25.2389 L 61.3751,-25.3779 L 61.5944,-25.461 L 61.4949,-25.6481 L 61.1415,-25.486
 z
M 42.4654,-15.413 L 42.4239,-15.1018 L 42.4761,-14.9353 L 42.6036,-14.7539 L 42.7751,-14.6441 L 42.9911,-14.6243
 L 43.2017,-14.696 L 43.4397,-14.8745 L 43.5386,-14.9998 L 43.6128,-14.7528 L 43.5933,-14.5496 L 43.4467,-14.3282
 L 43.2466,-14.1876 L 43.0763,-14.0971 L 43.1721,-13.9169 L 43.6472,-14.2421 L 43.7649,-14.4205 L 43.8214,-14.6279
 L 43.8098,-14.8778 L 43.704,-15.1965 L 43.4079,-15.6388 L 43.158,-15.7813 L 42.995,-15.7913 L 42.9875,-15.7904
 L 42.6359,-15.6322 z
M 43.0558,-15.5798 L 43.1876,-15.518 L 43.4452,-15.1755 L 43.2885,-14.9814 L 43.0834,-14.8556 L 42.8874,-14.8522
 L 42.7519,-14.956 L 42.6532,-15.1531 L 42.6511,-15.3137 L 42.7223,-15.4505 L 42.7265,-15.4552 L 42.8742,-15.5546
 z
M 34.8004,-11.3974 L 34.6654,-11.0983 L 34.6933,-10.8368 L 34.8477,-10.6158 L 35.0044,-10.5389 L 35.2199,-10.5324
 L 35.5187,-10.6372 L 35.6787,-10.722 L 35.9101,-10.2867 L 35.2691,-9.94589 L 35.3649,-9.76576 L 36.2001,-10.2099
 L 35.779,-11.0019 L 35.2963,-10.7685 L 35.1221,-10.7568 L 35.0165,-10.8055 L 34.9273,-10.924 L 34.8923,-11.0745
 L 34.9296,-11.2237 L 35.0463,-11.3657 L 35.2833,-11.5047 L 35.5026,-11.5877 L 35.4031,-11.7749 L 35.0497,-11.6128
 z
M 40.0188,-14.1721 L 39.8838,-13.873 L 39.9117,-13.6115 L 40.0661,-13.3905 L 40.2228,-13.3135 L 40.4383,-13.3071
 L 40.737,-13.4119 L 40.897,-13.4967 L 41.1285,-13.0614 L 40.4875,-12.7205 L 40.5832,-12.5404 L 41.4185,-12.9845
 L 40.9974,-13.7765 L 40.5147,-13.5431 L 40.3405,-13.5314 L 40.2348,-13.5801 L 40.1456,-13.6987 L 40.1107,-13.8492
 L 40.1479,-13.9983 L 40.2646,-14.1403 L 40.5017,-14.2793 L 40.721,-14.3624 L 40.6215,-14.5495 L 40.268,-14.3874
 z
M 37.2471,-12.6383 L 37.2056,-12.3271 L 37.2577,-12.1606 L 37.3853,-11.9793 L 37.5568,-11.8695 L 37.7728,-11.8496
 L 37.9834,-11.9214 L 38.2214,-12.0999 L 38.3203,-12.2251 L 38.3944,-11.9781 L 38.375,-11.7749 L 38.2283,-11.5536
 L 38.0282,-11.4129 L 37.858,-11.3224 L 37.9537,-11.1423 L 38.4288,-11.4674 L 38.5465,-11.6458 L 38.603,-11.8533
 L 38.5914,-12.1032 L 38.4857,-12.4218 L 38.1895,-12.8641 L 37.9396,-13.0067 L 37.7766,-13.0167 L 37.7692,-13.0157
 L 37.4175,-12.8575 z
M 37.8374,-12.8051 L 37.9692,-12.7433 L 38.2269,-12.4008 L 38.0702,-12.2068 L 37.865,-12.081 L 37.6691,-12.0775
 L 37.5335,-12.1813 L 37.4348,-12.3784 L 37.4328,-12.5391 L 37.5039,-12.6759 L 37.5081,-12.6806 L 37.6558,-12.7799
 z
M 60.5117,-24.1434 L 60.4815,-23.7819 L 60.4091,-23.7526 L 60.2742,-23.9234 L 59.8283,-24.762 L 59.6394,-24.6615
 L 60.0464,-23.896 L 60.0274,-23.5553 L 59.9304,-23.5082 L 59.8197,-23.6534 L 59.3621,-24.5141 L 59.1723,-24.4132
 L 59.6849,-23.4594 L 59.7622,-23.3656 L 59.8302,-23.3153 L 59.894,-23.2926 L 59.9597,-23.2919 L 60.0274,-23.3132
 L 60.1252,-23.3924 L 60.1755,-23.5415 L 60.1765,-23.7217 L 60.314,-23.5612 L 60.4418,-23.5432 L 60.5834,-23.6293
 L 60.6424,-23.8212 L 60.6403,-23.957 L 60.7698,-23.7347 L 60.9278,-23.8188 L 60.2945,-25.0099 L 60.1047,-24.9089
 z
M 59.2071,-23.4498 L 59.1769,-23.0882 L 59.1045,-23.0589 L 58.9696,-23.2297 L 58.5237,-24.0683 L 58.3348,-23.9679
 L 58.7418,-23.2024 L 58.7228,-22.8617 L 58.6258,-22.8145 L 58.5152,-22.9598 L 58.0575,-23.8205 L 57.8677,-23.7195
 L 58.3803,-22.7658 L 58.4576,-22.672 L 58.5256,-22.6216 L 58.5894,-22.599 L 58.6551,-22.5983 L 58.7228,-22.6196
 L 58.8206,-22.6987 L 58.8709,-22.8479 L 58.8719,-23.028 L 59.0094,-22.8676 L 59.1372,-22.8496 L 59.2788,-22.9357
 L 59.3378,-23.1276 L 59.3357,-23.2633 L 59.4652,-23.0411 L 59.6232,-23.1251 L 58.9899,-24.3162 L 58.8001,-24.2153
 z
M 38.8271,-14.0769 L 38.7056,-13.9021 L 38.6566,-13.6817 L 38.6909,-13.4901 L 38.8322,-13.2783 L 38.9269,-13.2261
 L 39.0444,-13.2261 L 39.1753,-13.3407 L 39.1732,-13.4658 L 39.1046,-13.5539 L 38.9256,-13.6671 L 38.8878,-13.7816
 L 38.944,-13.9245 L 39.0708,-14.0361 L 39.1163,-14.0607 L 39.0294,-14.224 z
M 41.3535,-14.8749 L 41.3713,-14.7319 L 41.501,-14.6182 L 41.6156,-14.6102 L 41.7279,-14.6685 L 41.7919,-14.7908
 L 41.7613,-14.9473 L 41.6792,-15.0256 L 41.5927,-15.0518 L 41.4341,-15.0047 z
M 36.1352,-12.1003 L 36.1529,-11.9573 L 36.2827,-11.8435 L 36.3973,-11.8355 L 36.5095,-11.8939 L 36.5735,-12.0161
 L 36.543,-12.1726 L 36.4608,-12.251 L 36.3743,-12.2772 L 36.2157,-12.2301 z
" stroke="black" fill="lightgray" stroke-width="0.5"/></svg>
