<?xml version="1.0" encoding="UTF-8" standalone="no"?>
<svg
   width="70mm"
   height="28mm"
   viewBox="0 -29 70 28"
   version="1.1"
   id="svg6"
   sodipodi:docname="top_rad_angle_tab_versions_set3_print.svg"
   inkscape:version="1.1 (c68e22c387, 2021-05-23)"
   xmlns:inkscape="http://www.inkscape.org/namespaces/inkscape"
   xmlns:sodipodi="http://sodipodi.sourceforge.net/DTD/sodipodi-0.dtd"
   xmlns="http://www.w3.org/2000/svg"
   xmlns:svg="http://www.w3.org/2000/svg"
   xmlns:rdf="http://www.w3.org/1999/02/22-rdf-syntax-ns#"
   xmlns:cc="http://creativecommons.org/ns#"
   xmlns:dc="http://purl.org/dc/elements/1.1/">
  <defs
     id="defs10" />
  <sodipodi:namedview
     id="namedview8"
     pagecolor="#ffffff"
     bordercolor="#666666"
     borderopacity="1.0"
     inkscape:pageshadow="2"
     inkscape:pageopacity="0.0"
     inkscape:pagecheckerboard="0"
     inkscape:document-units="mm"
     showgrid="false"
     inkscape:zoom="4.429881"
     inkscape:cx="132.28346"
     inkscape:cy="52.93596"
     inkscape:window-width="1920"
     inkscape:window-height="1017"
     inkscape:window-x="754"
     inkscape:window-y="847"
     inkscape:window-maximized="1"
     inkscape:current-layer="svg6" />
  <title
     id="title2">OpenSCAD Model</title>
  <path
     d=" M 49.5686,-10.2463 L 58.3981,-14.941 L 60.7455,-10.5263 L 69.5749,-15.221 L 62.5329,-28.4652 L 7.46713,-28.4652  L 0.425076,-15.221 L 9.25454,-10.5263 L 11.6019,-14.941 L 20.4314,-10.2463 L 18.084,-5.83154 L 26.9135,-1.13683  L 29.2608,-5.55156 L 40.7392,-5.55157 L 43.0865,-1.13684 L 51.916,-5.83156 z "
     stroke="black"
     fill="lightgray"
     stroke-width="0.5"
     id="path4"
     style="fill:none;stroke:#ff0000;stroke-opacity:1;stroke-width:0.01;stroke-miterlimit:4;stroke-dasharray:none" />
  <metadata
     id="metadata927">
    <rdf:RDF>
      <cc:Work
         rdf:about="">
        <dc:title>OpenSCAD Model</dc:title>
      </cc:Work>
    </rdf:RDF>
  </metadata>
  <path
     d="m 63.067047,-22.526217 0.0127,0.1209 0.0887,0.0885 0.1127,0.0147 0.0792,-0.0364 0.069,-0.1171 -0.0164,-0.1082 -0.0837,-0.0852 -0.0167,-0.0077 -0.1629,0.0167 z m -17.7762,7.6668 -0.126,0.2599 0.0201,0.3214 0.1492,0.3078 0.1567,0.183 0.1671,0.1016 0.1541,0.0236 0.1772,-0.0509 0.1917,-0.1635 0.0983,-0.2428 0.0051,-0.0304 0.1076,0.2259 0.2455,0.4618 0.2066,-0.1099 -0.8544,-1.6069 -0.1573,0.0264 -0.3852,0.1578 z m 0.5636,-0.0754 0.3075,0.5784 -0.1054,0.3265 -0.109,0.1077 -0.1445,0.0313 -0.1252,-0.0528 -0.1156,-0.1192 -0.1403,-0.2481 -0.0464,-0.1969 0.0217,-0.1512 0.052,-0.0908 0.2263,-0.1462 z m 5.7432,-3.0944 0.3549,-0.1888 0.8,1.5046 0.5615,-0.2986 -0.0901,-0.1695 -0.3532,0.1877 -0.7098,-1.335 0.392,-0.2084 -0.0915,-0.1722 -0.9554,0.508 z m -3.9867,1.9204 0.0943,0.1774 0.3214,-0.2103 0.1571,-0.0114 0.1157,0.0726 0.0573,0.0836 0.3216,0.6049 -0.535,0.2844 0.092,0.1731 0.535,-0.2845 0.2024,0.3806 0.1784,-0.1629 -0.1742,-0.3275 0.3329,-0.177 -0.092,-0.1731 -0.3329,0.177 -0.3964,-0.7252 -0.114,-0.1072 -0.1218,-0.0478 -0.1507,0.0027 -0.012,0.0024 -0.2381,0.0976 z m -8.8703,4.7325 -0.1004,0.25023 0.0125,0.28546 0.1353,0.36686 0.3002,0.41809 0.265,0.1605803 0.2642,0.007 0.273,-0.1359103 0.158,-0.21167 0.0394,-0.14432 -0.0079,-0.25168 -0.15,-0.41438 -0.2945,-0.40461 -0.2691,-0.1587 -0.1391,-0.0189 -0.2839,0.0794 z m 0.9419,0.36987 0.1588,0.36396 0.0234,0.26704 -0.0509,0.13642 -0.1185,0.10692 -0.158,0.04058 -0.2062,-0.0732 -0.0889,-0.07644 0.3983,-0.83357 z m -0.4957,-0.40477 0.1339,0.0291 0.1749,0.12849 -0.3978,0.83668 -0.187,-0.36295 -0.0531,-0.25962 0.0523,-0.21687 0.0028,-0.0045 0.1345,-0.11656 z m 1.961,-1.0358 0.347,-0.1845 0.7258,1.36507 0.1828,-0.09718 0.3555,-0.52199 -0.1694,-0.1354 -0.2642,0.3999 -0.6018,-1.132 0.3982,-0.2117 -0.1024,-0.1925 -0.9739,0.5179 z m 20.8696,-10.1248 0.2022,0.3909 -0.2001,-0.2017 -0.5336,-0.4774 -0.1457,0.0775 0.0986,0.7392 0.0426,0.2548 -0.755,-1.3155 -0.2066,0.1098 0.8986,1.5111 0.2578,-0.1371 -0.0905,-0.7005 -0.0393,-0.2317 0.1718,0.1612 0.5195,0.4724 0.2499,-0.1329 -0.7484,-1.5908 -0.1996,0.1061 z m -15.3706,7.0389 -0.0649,0.1547 -0.0903,-0.157 -0.1845,0.0981 0.5105,0.9297 0.1626,0.1092 0.1989,0.012 0.2337,-0.0838 0.3805,-0.2997 -0.099,-0.1864 -0.2594,0.2418 -0.2338,0.1078 -0.0981,-0.0032 -0.124,-0.0782 -0.0368,-0.0552 -0.0554,-0.1041 0.4086,-0.2336 0.1359,-0.1361 0.0659,-0.1366 0.011,-0.1292 -0.0419,-0.1421 -0.1456,-0.1736 -0.1483,-0.0482 -0.0599,2e-4 -0.2618,0.0952 z m 0.4847,-0.0839 0.0939,0.0695 0.0498,0.1446 -0.026,0.097 -0.1335,0.1315 -0.0506,0.0295 -0.2623,0.1394 -0.1122,-0.211 0.061,-0.143 0.205,-0.2294 z m 12.5612,-6.8528 -0.0649,0.1548 -0.0903,-0.1571 -0.1845,0.0982 0.5105,0.9297 0.1626,0.1092 0.1989,0.012 0.2337,-0.0838 0.3805,-0.2998 -0.099,-0.1863 -0.2594,0.2418 -0.2338,0.1078 -0.0981,-0.0033 -0.124,-0.0781 -0.0368,-0.0552 -0.0554,-0.1042 0.4086,-0.2335 0.1359,-0.1361 0.0659,-0.1366 0.011,-0.1292 -0.0419,-0.1421 -0.1456,-0.1737 -0.1484,-0.0481 -0.0598,2e-4 -0.2618,0.0952 z m 0.4847,-0.0839 0.0939,0.0695 0.0498,0.1447 -0.0261,0.097 -0.1334,0.1315 -0.0506,0.0295 -0.2623,0.1394 -0.1122,-0.211 0.061,-0.143 0.205,-0.2295 z m -4.3985,2.1649 -0.0649,0.1547 -0.0903,-0.157 -0.1845,0.0982 0.5106,0.9297 0.1625,0.1092 0.1989,0.012 0.2337,-0.0838 0.3806,-0.2998 -0.0991,-0.1863 -0.2593,0.2418 -0.2339,0.1078 -0.0981,-0.0033 -0.1239,-0.0781 -0.0368,-0.0552 -0.0554,-0.1042 0.4085,-0.2335 0.1359,-0.1361 0.066,-0.1366 0.0109,-0.1292 -0.0418,-0.1421 -0.1457,-0.1737 -0.1483,-0.0481 -0.0598,2e-4 -0.2618,0.0952 z m 0.4847,-0.0839 0.0939,0.0695 0.0498,0.1446 -0.026,0.0971 -0.1335,0.1315 -0.0506,0.0294 -0.2623,0.1395 -0.1122,-0.2111 0.061,-0.1429 0.205,-0.2295 z m -6.0179,2.982 0.0901,0.1695 0.2608,-0.1995 0.2299,-0.109 0.1564,-0.0141 0.1298,0.0428 0.1196,0.1081 0.0547,0.0861 -0.8351,0.4472 0.1465,0.2609 0.1992,0.1728 0.2019,0.0561 0.303,-0.069 0.2234,-0.181 0.1106,-0.2922 -0.0466,-0.3283 -0.1324,-0.248 -0.2482,-0.2261 -0.2518,-0.0502 -0.3503,0.1139 z m 1.1258,0.2429 0.0509,0.2103 -0.0323,0.1707 -0.107,0.1255 -0.1556,0.0637 -0.1521,-0.0114 -0.1265,-0.0786 -0.1034,-0.1474 z m 6.774,-4.454 -0.0489,0.0525 0.1019,0.1916 0.1264,-0.1423 0.2107,-0.1304 0.1632,-0.0357 0.1429,0.0247 0.1199,0.0757 0.1229,0.1587 0.0739,0.182 -7e-4,0.2237 -0.0664,0.142 -0.1447,0.1254 -0.1829,0.072 -0.1826,0.0238 0.1047,0.1969 0.3344,-0.1067 0.1586,-0.1028 0.1338,-0.1518 0.0949,-0.288 -0.0554,-0.326 -0.1117,-0.2031 -0.12,-0.136 -0.1227,-0.0832 -0.1354,-0.0451 -0.1443,-0.007 -0.1278,0.0235 -0.2531,0.1149 z m -5.3776,2.253 -0.1327,0.2783 0.0182,0.1483 0.0749,0.1317 0.1259,0.0794 0.1676,0.0118 0.2286,-0.0739 0.432,-0.1849 0.1022,0.0541 0.0196,0.0743 -0.0042,0.0825 -0.1796,0.0311 -0.1904,0.1031 -0.1279,0.1348 -0.0711,0.1725 2e-4,0.1542 0.1075,0.2249 0.1268,0.0946 -0.1907,0.1014 0.0896,0.1687 0.6906,-0.3488 0.1544,-0.1712 0.0517,-0.1477 -0.0191,-0.209 -0.0909,-0.1646 -0.1257,-0.0961 -0.0471,-0.0214 0.0184,-0.2174 -0.058,-0.1438 -0.1075,-0.082 -0.0912,-0.0134 0.056,-0.1727 -0.0131,-0.1338 -0.0739,-0.1268 -0.1058,-0.0688 -0.1436,-0.0181 -0.1241,0.0194 -0.3875,0.177 z m 0.9996,0.7915 0.1456,0.0504 0.1064,0.1441 0.018,0.1349 -0.0485,0.1267 -0.1522,0.1125 -0.1208,0.0186 -0.144,-0.055 -0.1086,-0.1619 0.0034,-0.1739 0.0332,-0.0639 0.1512,-0.1131 z m -0.3152,-0.9234 0.083,0.0536 0.0267,0.2124 -0.037,0.0803 -0.5209,0.2111 -0.1003,-0.0523 -0.0345,-0.1426 0.0488,-0.108 0.3329,-0.2228 z m 1.8459,0.3764 -0.098,0.3186 -0.1115,0.1065 -0.1409,0.028 -0.1233,-0.0691 -0.087,-0.1244 -0.4042,-0.7602 -0.2058,0.1094 0.4919,0.9012 0.1256,0.1197 0.1257,0.0498 0.1423,-0.0055 0.2587,-0.1446 0.1173,-0.2045 0.0341,-0.1241 0.1112,0.1878 0.1837,-0.0976 -0.6333,-1.1911 -0.2067,0.1098 z m -12.3811,7.0973 0.227,-0.1206 -0.1269,-0.9372 -0.0402,-0.2312 0.1659,0.1587 0.7102,0.6327 0.2348,-0.1249 -1.0995,-0.9432 -0.2375,0.1262 z m 19.1172,-11.4717 0.3549,-0.1888 0.5418,1.019 0.5615,-0.2986 -0.0906,-0.1704 -0.3531,0.1877 -0.4512,-0.8485 0.392,-0.2084 -0.0915,-0.1722 -0.9554,0.508 z m -21.8939,11.4841 0.0178,0.143 0.1298,0.1137 0.1145,0.0081 0.1123,-0.0584 0.064,-0.1223 -0.0306,-0.1564 -0.0821,-0.0784 -0.0865,-0.0262 -0.1586,0.0471 z m -6.722,-0.054 0.0414,0.3836 0.1386,0.3657 0.0767,0.12903 0.088,0.11961 0.0994,0.1102 0.1106,0.10081 0.1219,0.09142 0.1332,0.08204 0.166,0.08224 0.1808,0.06997 0.1703,0.05115 0.0569,-0.19332 -0.2056,-0.07217 -0.169,-0.0794 -0.1536,-0.0931 -0.1383,-0.10678 -0.1101,-0.10643 -0.0981,-0.11724 -0.0958,-0.14483 -0.1273,-0.2845 -0.0616,-0.3025 0.0054,-0.3322 0.0822,-0.3766 -0.1849,-0.058 z m 10.0315,-5.7856 0.3648,0.1475 0.28,0.1851 0.2128,0.217 0.1399,0.2146 0.0715,0.1558 0.0471,0.1433 0.0315,0.1477 0.0159,0.1521 -6e-4,0.1764 -0.0204,0.182 -0.04,0.1876 -0.0307,0.1067 0.1853,0.0589 0.0955,-0.3542 0.0057,-0.6368 -0.0998,-0.3256 -0.0686,-0.1408 -0.0776,-0.1263 -0.0889,-0.1169 -0.1004,-0.1077 -0.1117,-0.0985 -0.123,-0.0892 -0.1546,-0.0907 -0.1694,-0.0786 -0.1843,-0.0664 -0.1227,-0.0354 z m 6.0644,-1.5282 -0.0616,0.1568 0.0014,0.1667 0.0794,0.1848 0.1251,0.1256 0.1951,0.0623 0.1744,-0.028 0.1834,-0.1021 0.1257,-0.159 0.0419,-0.1562 -0.0191,-0.1676 -0.1048,-0.1873 -0.1321,-0.1022 -0.1436,-0.0366 -0.093,0.0046 -0.2088,0.0802 z m 0.4323,-0.0466 0.1386,0.0799 0.0774,0.1373 -0.0026,0.1682 -0.099,0.1127 -0.1572,0.0498 -0.1251,-0.0456 -0.1198,-0.1882 0.0067,-0.1548 0.0075,-0.0162 0.1168,-0.1091 z m 6.2145,-2.5563 0.1969,-0.1047 -0.214,-2.3643 -0.1969,0.1047 z m -9.1321,4.8556 0.1969,-0.1047 -0.214,-2.3643 -0.1969,0.1047 z m 4.3821,-4.2282 0.754,-0.4009 -0.2497,0.884 0.0132,0.2481 0.1304,0.2573 0.1446,0.1188 0.1428,0.0465 0.2924,-0.0455 0.251,-0.1768 0.103,-0.1536 0.0571,-0.1474 -0.1862,-0.0755 -0.1544,0.2703 -0.1819,0.0978 -0.1441,-0.0067 -0.1195,-0.0813 -0.1158,-0.2303 0.0297,-0.338 0.0597,-0.2101 0.1892,-0.6113 -0.0986,-0.1855 -1.0216,0.5432 z m 1.3155,-0.7051 0.347,-0.1845 0.7258,1.365 0.1828,-0.0971 0.3555,-0.5221 -0.1694,-0.1353 -0.2642,0.3998 -0.6018,-1.1319 0.3982,-0.2117 -0.1024,-0.1925 -0.9739,0.5178 z m -2.3546,1.4445 -0.2648,0.1408 0.0967,0.1819 0.2648,-0.1408 0.5456,1.026 0.2966,-0.1578 0.115,-1.3771 -0.0968,-0.1819 -0.746,0.3967 -0.1822,-0.3426 -0.211,0.1122 z m 0.8473,-0.2172 -0.0996,1.1142 -0.4399,-0.8273 z m 9.6019,-5.7212 -0.135,0.2991 0.0279,0.2615 0.1544,0.221 0.1567,0.077 0.2155,0.0064 0.2988,-0.1048 0.16,-0.0848 0.2314,0.4353 -0.641,0.3409 0.0958,0.1801 0.8352,-0.4441 -0.4211,-0.792 -0.4827,0.2334 -0.1742,0.0117 -0.1056,-0.0487 -0.0892,-0.1186 -0.035,-0.1505 0.0373,-0.1491 0.1167,-0.142 0.237,-0.139 0.2193,-0.0831 -0.0995,-0.1871 -0.3534,0.1621 z m -18.4268,9.8577 -0.0415,0.3112 0.0522,0.1665 0.1275,0.1814 0.1715,0.1098 0.216,0.0198 0.2106,-0.0717 0.238,-0.1785 0.0989,-0.1253 0.0742,0.247 -0.0195,0.2032 -0.1466,0.2214 -0.2001,0.1406 -0.1703,0.0905 0.0958,0.1802 0.4751,-0.3252 0.1177,-0.1784 0.0565,-0.2074 -0.0116,-0.2499 -0.1058,-0.3187 -0.2961,-0.4423 -0.2499,-0.1425 -0.163,-0.01 -0.0075,9e-4 -0.3516,0.1582 z m 0.5904,-0.1668 0.1318,0.0618 0.2576,0.3425 -0.1567,0.1941 -0.2051,0.1258 -0.196,0.0034 -0.1355,-0.1038 -0.0987,-0.1971 -0.0021,-0.1606 0.0712,-0.1368 0.0042,-0.0047 0.1477,-0.0994 z m -8.2554,4.1824 -0.135,0.2991 0.0279,0.2615 0.1544,0.221 0.1567,0.0769 0.2155,0.0065 0.2988,-0.1048 0.16,-0.0848 0.2314,0.4353 -0.641,0.34081 0.0958,0.18013 0.8352,-0.44414 -0.4211,-0.792 -0.4827,0.2334 -0.1742,0.0117 -0.1056,-0.0487 -0.0892,-0.1185 -0.035,-0.1505 0.0373,-0.1492 0.1167,-0.142 0.237,-0.139 0.2193,-0.083 -0.0995,-0.1872 -0.3534,0.1621 z m 5.2184,-2.7747 -0.135,0.2991 0.0279,0.2615 0.1544,0.221 0.1567,0.077 0.2155,0.0064 0.2987,-0.1048 0.16,-0.0848 0.2315,0.4353 -0.641,0.3409 0.0957,0.1801 0.8353,-0.4441 -0.4211,-0.792 -0.4827,0.2334 -0.1742,0.0117 -0.1057,-0.0487 -0.0892,-0.1186 -0.0349,-0.1505 0.0372,-0.1491 0.1167,-0.142 0.2371,-0.139 0.2193,-0.0831 -0.0995,-0.1871 -0.3535,0.1621 z m -2.7717,1.5338 -0.0415,0.3112 0.0521,0.1665 0.1276,0.1813 0.1715,0.1098 0.216,0.0199 0.2106,-0.0718 0.238,-0.1785 0.0989,-0.1252 0.0741,0.247 -0.0194,0.2032 -0.1467,0.2213 -0.2001,0.1407 -0.1702,0.0905 0.0957,0.1801 0.4751,-0.3251 0.1177,-0.1784 0.0565,-0.2075 -0.0116,-0.2499 -0.1057,-0.3186 -0.2962,-0.4423 -0.2499,-0.1426 -0.163,-0.01 -0.0074,10e-4 -0.3517,0.1582 z m 0.5903,-0.1668 0.1318,0.0618 0.2577,0.3425 -0.1567,0.194 -0.2052,0.1258 -0.1959,0.0035 -0.1356,-0.1038 -0.0987,-0.1971 -0.002,-0.1607 0.0711,-0.1368 0.0042,-0.0047 0.1477,-0.0993 z m 22.6743,-11.3383 -0.0302,0.3615 -0.0724,0.0293 -0.1349,-0.1708 -0.4459,-0.8386 -0.1889,0.1005 0.407,0.7655 -0.019,0.3407 -0.097,0.0471 -0.1107,-0.1452 -0.4576,-0.8607 -0.1898,0.1009 0.5126,0.9538 0.0773,0.0938 0.068,0.0503 0.0638,0.0227 0.0657,7e-4 0.0677,-0.0213 0.0978,-0.0792 0.0503,-0.1491 0.001,-0.1802 0.1375,0.1605 0.1278,0.018 0.1416,-0.0861 0.059,-0.1919 -0.0021,-0.1358 0.1295,0.2223 0.158,-0.0841 -0.6333,-1.1911 -0.1898,0.101 z m -1.3046,0.6936 -0.0302,0.3616 -0.0724,0.0293 -0.1349,-0.1708 -0.4459,-0.8386 -0.1889,0.1004 0.407,0.7655 -0.019,0.3407 -0.097,0.0472 -0.1106,-0.1453 -0.4577,-0.8607 -0.1898,0.101 0.5126,0.9537 0.0773,0.0938 0.068,0.0504 0.0638,0.0226 0.0657,7e-4 0.0677,-0.0213 0.0978,-0.0791 0.0503,-0.1492 10e-4,-0.1801 0.1375,0.1604 0.1278,0.018 0.1416,-0.0861 0.059,-0.1919 -0.0021,-0.1357 0.1295,0.2222 0.158,-0.084 -0.6333,-1.1911 -0.1898,0.1009 z m -20.38,9.3729 -0.1215,0.1748 -0.049,0.2204 0.0343,0.1916 0.1413,0.2118 0.0947,0.0522 h 0.1175 l 0.1309,-0.1146 -0.0021,-0.1251 -0.0686,-0.0881 -0.179,-0.1132 -0.0378,-0.1145 0.0562,-0.1429 0.1268,-0.1116 0.0455,-0.0246 -0.0869,-0.1633 z m 2.5264,-0.798 0.0178,0.143 0.1297,0.1137 0.1146,0.008 0.1123,-0.0583 0.064,-0.1223 -0.0306,-0.1565 -0.0821,-0.0783 -0.0865,-0.0262 -0.1586,0.0471 z m -5.2183,2.7746 0.0177,0.143 0.1298,0.1138 0.1146,0.008 0.1122,-0.0584 0.064,-0.1222 -0.0305,-0.1565 -0.0822,-0.0784 -0.0865,-0.0262 -0.1586,0.0471 z"
     stroke="#000000"
     fill="#d3d3d3"
     stroke-width="0.5"
     id="path977"
     style="fill:#000000;fill-opacity:1;stroke:none" />
</svg>
