<?xml version="1.0" encoding="UTF-8" standalone="no"?>
<svg
   width="70mm"
   height="99mm"
   viewBox="5 -99 70 99"
   version="1.1"
   id="svg6"
   sodipodi:docname="top_rad_angle_tab_versions_set2_print.svg"
   inkscape:version="1.1 (c68e22c387, 2021-05-23)"
   xmlns:inkscape="http://www.inkscape.org/namespaces/inkscape"
   xmlns:sodipodi="http://sodipodi.sourceforge.net/DTD/sodipodi-0.dtd"
   xmlns="http://www.w3.org/2000/svg"
   xmlns:svg="http://www.w3.org/2000/svg"
   xmlns:rdf="http://www.w3.org/1999/02/22-rdf-syntax-ns#"
   xmlns:cc="http://creativecommons.org/ns#"
   xmlns:dc="http://purl.org/dc/elements/1.1/">
  <defs
     id="defs10" />
  <sodipodi:namedview
     id="namedview8"
     pagecolor="#ffffff"
     bordercolor="#666666"
     borderopacity="1.0"
     inkscape:pageshadow="2"
     inkscape:pageopacity="0.0"
     inkscape:pagecheckerboard="0"
     inkscape:document-units="mm"
     showgrid="false"
     inkscape:zoom="2.0124369"
     inkscape:cx="132.17806"
     inkscape:cy="187.08661"
     inkscape:window-width="1920"
     inkscape:window-height="1017"
     inkscape:window-x="754"
     inkscape:window-y="847"
     inkscape:window-maximized="1"
     inkscape:current-layer="svg6" />
  <title
     id="title2">OpenSCAD Model</title>
  <path
     d=" M 56.4745,-75.5968 L 54.1272,-80.0115 L 62.9566,-84.7063 L 65.304,-80.2915 L 74.1335,-84.9862 L 67.0914,-98.2304  L 12.4671,-98.4652 L 5.42506,-85.221 L 14.2545,-80.5262 L 16.6019,-84.941 L 25.4314,-80.2463 L 23.084,-75.8315  L 31.9135,-71.1368 L 34.2608,-75.5515 L 45.2977,-75.3168 L 47.645,-70.9021 z M 56.033,-40.3621 L 53.6857,-44.7768 L 62.5152,-49.4715 L 64.8625,-45.0568 L 73.692,-49.7515 L 66.6499,-62.9957  L 12.4671,-63.4652 L 5.42506,-50.221 L 14.2545,-45.5262 L 16.6019,-49.941 L 25.4314,-45.2463 L 23.084,-40.8315  L 31.9135,-36.1368 L 34.2608,-40.5515 L 44.8562,-40.0821 L 47.2036,-35.6674 z M 56.033,-5.36208 L 53.6857,-9.77679 L 62.5152,-14.4715 L 64.8625,-10.0568 L 73.692,-14.7515 L 66.6499,-27.9957  L 12.9086,-28.2304 L 5.86653,-14.9862 L 14.696,-10.2915 L 17.0434,-14.7063 L 25.8728,-10.0115 L 23.5255,-5.5968  L 32.355,-0.902084 L 34.7023,-5.31682 L 44.8562,-5.08209 L 47.2036,-0.667358 z "
     stroke="black"
     fill="lightgray"
     stroke-width="0.5"
     id="path4"
     style="fill:none;stroke:#ff0000;stroke-opacity:1;stroke-width:0.01;stroke-miterlimit:4;stroke-dasharray:none" />
  <metadata
     id="metadata827">
    <rdf:RDF>
      <cc:Work
         rdf:about="">
        <dc:title>OpenSCAD Model</dc:title>
      </cc:Work>
    </rdf:RDF>
  </metadata>
  <path
     d="m 66.246528,-94.401864 -0.4211,-0.792 -0.4826,0.2334 -0.1742,0.0117 -0.1057,-0.0487 -0.0892,-0.1185 -0.035,-0.1506 0.0373,-0.1491 0.1167,-0.142 0.237,-0.139 0.2193,-0.083 -0.0995,-0.1872 -0.3534,0.1621 -0.2493,0.2154 -0.135,0.2991 0.0279,0.2615 0.1544,0.221 0.1567,0.0769 0.2156,0.0065 0.2987,-0.1049 0.16,-0.0847 0.2314,0.4353 -0.641,0.3408 0.0958,0.1801 z m -2.2645,0.7699 0.0979,-0.0791 0.0502,-0.1492 0.001,-0.1801 0.1375,0.1604 0.1278,0.018 0.1416,-0.0861 0.059,-0.1919 -0.0021,-0.1357 0.1295,0.2222 0.158,-0.084 -0.6333,-1.1911 -0.1898,0.1009 0.407,0.7655 -0.0302,0.3616 -0.0724,0.0293 -0.1349,-0.1709 -0.4459,-0.8386 -0.1889,0.1005 0.407,0.7655 -0.019,0.3407 -0.097,0.0471 -0.1106,-0.1452 -0.4577,-0.8607 -0.1898,0.101 0.5126,0.9537 0.0773,0.0938 0.068,0.0503 0.0638,0.0227 0.0657,7e-4 z m -1.3046,0.6937 0.0979,-0.0792 0.0502,-0.1491 0.001,-0.1802 0.1375,0.1605 0.1278,0.018 0.1417,-0.0861 0.0589,-0.1919 -0.0021,-0.1358 0.1295,0.2223 0.1581,-0.0841 -0.6334,-1.1911 -0.1898,0.101 0.407,0.7655 -0.0302,0.3615 -0.0723,0.0293 -0.135,-0.1708 -0.4459,-0.8386 -0.1889,0.1005 0.407,0.7655 -0.019,0.3407 -0.097,0.0471 -0.1106,-0.1452 -0.4577,-0.8607 -0.1898,0.1009 0.5126,0.9538 0.0773,0.0938 0.068,0.0503 0.0638,0.0227 0.0657,7e-4 z m -2.2937,1.8157 -0.214,-2.3642 -0.1969,0.1046 0.214,2.3643 z m 7.1345,-0.8771 -0.0907,-0.1704 -0.3531,0.1878 -0.4512,-0.8485 0.392,-0.2085 -0.0915,-0.1722 -0.9554,0.508 0.0916,0.1722 0.3549,-0.1887 0.5418,1.0189 z m -1.8164,1.4267 -0.0905,-0.7005 -0.0393,-0.2316 0.1718,0.1612 0.5196,0.4723 0.2498,-0.1328 -0.7484,-1.5908 -0.1996,0.106 0.4778,0.9647 0.2022,0.3908 -0.2001,-0.2017 -0.5336,-0.4773 -0.1457,0.0774 0.0986,0.7393 0.0426,0.2548 -0.755,-1.3156 -0.2066,0.1099 0.8986,1.511 z m -7.694,0.5608 0.3555,-0.522 -0.1693,-0.1353 -0.2643,0.3998 -0.6018,-1.132 0.3982,-0.2117 -0.1024,-0.1925 -0.9738,0.5179 0.1023,0.1924 0.347,-0.1845 0.7258,1.3651 z m 6.4765,-0.3472 0.3806,-0.2997 -0.0991,-0.1863 -0.2593,0.2417 -0.2339,0.1079 -0.0981,-0.0033 -0.124,-0.0782 -0.0367,-0.0551 -0.0554,-0.1042 0.4085,-0.2335 0.1359,-0.1362 0.0659,-0.1366 0.011,-0.1292 -0.0418,-0.142 -0.1457,-0.1737 -0.1483,-0.0482 -0.0598,3e-4 -0.2619,0.0951 -0.2039,0.2183 -0.0649,0.1547 -0.0903,-0.157 -0.1845,0.0981 0.5106,0.9298 0.1625,0.1091 0.1989,0.012 z m -0.7222,-0.7463 0.061,-0.143 0.205,-0.2294 0.1749,-0.0281 0.0939,0.0695 0.0498,0.1446 -0.026,0.097 -0.1335,0.1315 -0.0506,0.0295 -0.2623,0.1394 z m 3.6238,-0.1856 0.069,-0.117 -0.0164,-0.1083 -0.0836,-0.0852 -0.0168,-0.0077 -0.1629,0.0168 -0.0825,0.1137 0.0126,0.1209 0.0887,0.0885 0.1127,0.0147 z m -10.7215,2.0091 0.251,-0.1767 0.103,-0.1536 0.0571,-0.1475 -0.1862,-0.0754 -0.1544,0.2702 -0.1818,0.0978 -0.1442,-0.0066 -0.1195,-0.0814 -0.1158,-0.2302 0.0297,-0.3381 0.0598,-0.21 0.1891,-0.6114 -0.0986,-0.1854 -1.0216,0.5432 0.1047,0.1969 0.7541,-0.401 -0.2497,0.8841 0.0131,0.2481 0.1304,0.2573 0.1446,0.1188 0.1428,0.0465 z m 6.3814,-0.3182 0.1586,-0.1028 0.1338,-0.1519 0.0949,-0.2879 -0.0554,-0.3261 -0.1117,-0.203 -0.12,-0.136 -0.1226,-0.0832 -0.1355,-0.0451 -0.1443,-0.007 -0.1278,0.0234 -0.253,0.115 -0.1917,0.1507 -0.0489,0.0525 0.1019,0.1916 0.1265,-0.1423 0.2107,-0.1305 0.1631,-0.0357 0.143,0.0247 0.1198,0.0758 0.123,0.1586 0.0738,0.1821 -7e-4,0.2237 -0.0664,0.1419 -0.1446,0.1254 -0.183,0.0721 -0.1826,0.0238 0.1047,0.1969 z m -7.7092,0.9995 0.1149,-1.3772 -0.0967,-0.1819 -0.7461,0.3967 -0.1822,-0.3426 -0.211,0.1122 0.1822,0.3426 -0.2649,0.1408 0.0967,0.1819 0.2649,-0.1408 0.5455,1.026 z m -0.6312,-0.9805 0.5395,-0.2868 -0.0996,1.1141 z m 5.8651,1.303 0.3806,-0.2997 -0.0991,-0.1863 -0.2593,0.2417 -0.2339,0.1079 -0.098,-0.0033 -0.124,-0.0782 -0.0368,-0.0551 -0.0554,-0.1042 0.4085,-0.2335 0.1359,-0.1362 0.066,-0.1366 0.011,-0.1292 -0.0419,-0.1421 -0.1456,-0.1736 -0.1484,-0.0482 -0.0598,2e-4 -0.2618,0.0952 -0.2039,0.2183 -0.065,0.1547 -0.0902,-0.157 -0.1846,0.0981 0.5106,0.9297 0.1626,0.1092 0.1988,0.012 z m -0.7221,-0.7463 0.0609,-0.143 0.205,-0.2294 0.175,-0.0281 0.0939,0.0695 0.0497,0.1446 -0.026,0.097 -0.1335,0.1315 -0.0506,0.0295 -0.2622,0.1394 z m -0.8098,1.5418 0.2587,-0.1445 0.1173,-0.2046 0.0342,-0.124 0.1111,0.1878 0.1837,-0.0977 -0.6333,-1.1911 -0.2066,0.1099 0.4201,0.7902 -0.098,0.3186 -0.1115,0.1065 -0.1409,0.028 -0.1233,-0.069 -0.087,-0.1244 -0.4042,-0.7603 -0.2058,0.1094 0.4919,0.9013 0.1256,0.1196 0.1257,0.0498 z m -0.9579,0.5196 0.1543,-0.1712 0.0517,-0.1476 -0.019,-0.2091 -0.091,-0.1646 -0.1257,-0.0961 -0.0471,-0.0214 0.0185,-0.2174 -0.058,-0.1438 -0.1076,-0.0819 -0.0912,-0.0135 0.0561,-0.1726 -0.0132,-0.1338 -0.0739,-0.1268 -0.1058,-0.0689 -0.1436,-0.0181 -0.1241,0.0195 -0.3875,0.177 -0.1801,0.1523 -0.1327,0.2783 0.0182,0.1482 0.075,0.1317 0.1258,0.0795 0.1677,0.0118 0.2286,-0.0739 0.4319,-0.1849 0.1022,0.0541 0.0196,0.0742 -0.0042,0.0826 -0.1795,0.0311 -0.1904,0.1031 -0.128,0.1348 -0.0711,0.1724 2e-4,0.1543 0.1075,0.2248 0.1268,0.0947 -0.1907,0.1014 0.0897,0.1686 z m -1.1513,-1.0649 -0.0345,-0.1426 0.0488,-0.108 0.3329,-0.2227 0.2013,-0.0318 0.083,0.0537 0.0267,0.2123 -0.037,0.0804 -0.5209,0.211 z m 0.6682,0.9505 -0.1086,-0.1619 0.0034,-0.1738 0.0332,-0.064 0.1512,-0.1131 0.1163,-0.0194 0.1456,0.0504 0.1065,0.1441 0.0179,0.1349 -0.0485,0.1267 -0.1522,0.1125 -0.1207,0.0187 z m -3.5438,-0.6691 0.1833,-0.102 0.1257,-0.1591 0.0419,-0.1561 -0.019,-0.1677 -0.1049,-0.1872 -0.132,-0.1023 -0.1436,-0.0365 -0.0931,0.0046 -0.2087,0.0802 -0.1635,0.1579 -0.0616,0.1568 0.0015,0.1668 0.0794,0.1847 0.125,0.1257 0.1951,0.0622 z m -0.2495,-0.2125 -0.1197,-0.1881 0.0066,-0.1549 0.0075,-0.0162 0.1169,-0.1091 0.1566,-0.0339 0.1386,0.0798 0.0774,0.1373 -0.0026,0.1683 -0.099,0.1127 -0.1572,0.0497 z m -2.5528,1.6923 -0.214,-2.3642 -0.1969,0.1047 0.214,2.3643 z m 6.0881,0.3022 -0.0901,-0.1695 -0.3532,0.1878 -0.7098,-1.335 0.392,-0.2085 -0.0915,-0.1722 -0.9554,0.508 0.0916,0.1722 0.3549,-0.1887 0.8,1.5045 z m -8.5115,0.7985 0.0057,-0.6367 -0.0998,-0.3256 -0.0686,-0.1409 -0.0776,-0.1262 -0.0889,-0.117 -0.1003,-0.1077 -0.1118,-0.0985 -0.123,-0.0892 -0.1546,-0.0906 -0.1694,-0.0786 -0.1842,-0.0665 -0.1228,-0.0354 -0.0573,0.1924 0.3648,0.1475 0.28,0.1851 0.2128,0.2171 0.1399,0.2145 0.0715,0.1559 0.0471,0.1432 0.0315,0.1477 0.016,0.1521 -7e-4,0.1764 -0.0203,0.182 -0.0401,0.1877 -0.0307,0.1066 0.1853,0.0589 z m 6.5,-0.3251 0.2235,-0.1809 0.1105,-0.2922 -0.0466,-0.3284 -0.1324,-0.248 -0.2482,-0.226 -0.2517,-0.0502 -0.3504,0.1138 -0.3615,0.26 0.0901,0.1696 0.2608,-0.1995 0.2299,-0.109 0.1564,-0.0142 0.1298,0.0428 0.1196,0.1082 0.0547,0.0861 -0.8351,0.4471 0.1465,0.2609 0.1993,0.1728 0.2018,0.0562 z m -0.3271,-0.1501 -0.1265,-0.0786 -0.1034,-0.1474 0.626,-0.3329 0.0509,0.2103 -0.0323,0.1708 -0.107,0.1254 -0.1556,0.0637 z m -7.3992,1.0807 0.1177,-0.1784 0.0565,-0.2075 -0.0116,-0.2499 -0.1057,-0.3186 -0.2962,-0.4423 -0.2499,-0.1426 -0.163,-0.01 -0.0074,10e-4 -0.3517,0.1582 -0.1705,0.2192 -0.0414,0.3112 0.0521,0.1665 0.1275,0.1813 0.1715,0.1098 0.2161,0.0199 0.2105,-0.0718 0.238,-0.1785 0.099,-0.1252 0.0741,0.247 -0.0194,0.2032 -0.1467,0.2213 -0.2001,0.1406 -0.1703,0.0906 0.0958,0.1801 z m -0.8953,-0.7139 -0.0987,-0.1972 -0.0021,-0.1606 0.0712,-0.1368 0.0042,-0.0047 0.1477,-0.0993 0.1816,-0.0252 0.1318,0.0618 0.2576,0.3425 -0.1566,0.194 -0.2052,0.1258 -0.196,0.0035 z m -0.9674,0.2279 -0.0021,-0.1251 -0.0686,-0.0881 -0.179,-0.1132 -0.0378,-0.1145 0.0562,-0.1429 0.1268,-0.1116 0.0455,-0.0245 -0.0869,-0.1634 -0.2023,0.1471 -0.1215,0.1748 -0.049,0.2204 0.0343,0.1916 0.1413,0.2119 0.0947,0.0521 0.1175,1e-4 z m 7.4376,1.0928 -0.1741,-0.3276 0.3328,-0.177 -0.092,-0.1731 -0.3328,0.177 -0.3965,-0.7251 -0.114,-0.1073 -0.1218,-0.0478 -0.1507,0.0027 -0.012,0.0025 -0.2381,0.0975 -0.241,0.1706 0.0943,0.1775 0.3215,-0.2104 0.157,-0.0114 0.1157,0.0727 0.0573,0.0836 0.3216,0.6048 -0.535,0.2845 0.092,0.173 0.535,-0.2844 0.2024,0.3805 z m -1.7383,0.5312 0.3806,-0.2997 -0.0991,-0.1863 -0.2593,0.2417 -0.2339,0.1079 -0.0981,-0.0033 -0.1239,-0.0782 -0.0368,-0.0551 -0.0554,-0.1042 0.4085,-0.2335 0.1359,-0.1361 0.0659,-0.1367 0.011,-0.1292 -0.0418,-0.142 -0.1457,-0.1737 -0.1483,-0.0481 -0.0598,2e-4 -0.2618,0.0952 -0.204,0.2182 -0.0649,0.1547 -0.0903,-0.157 -0.1845,0.0981 0.5106,0.9298 0.1625,0.1091 0.1989,0.0121 z m -0.7222,-0.7463 0.061,-0.143 0.205,-0.2294 0.1749,-0.0281 0.0939,0.0695 0.0498,0.1446 -0.026,0.0971 -0.1335,0.1314 -0.0506,0.0295 -0.2623,0.1395 z m -5.7236,0.9956 0.1177,-0.1784 0.0565,-0.2075 -0.0116,-0.2498 -0.1057,-0.3187 -0.2962,-0.4423 -0.2499,-0.1426 -0.163,-0.01 -0.0074,0.001 -0.3517,0.1582 -0.1704,0.2192 -0.0415,0.3112 0.0521,0.1665 0.1276,0.1813 0.1715,0.1099 0.216,0.0198 0.2105,-0.0718 0.2381,-0.1785 0.0989,-0.1252 0.0741,0.247 -0.0194,0.2032 -0.1467,0.2213 -0.2001,0.1407 -0.1702,0.0905 0.0957,0.1801 z m -0.8953,-0.7139 -0.0987,-0.1971 -0.0021,-0.1607 0.0712,-0.1368 0.0042,-0.0046 0.1477,-0.0994 0.1816,-0.0252 0.1318,0.0618 0.2576,0.3425 -0.1566,0.1941 -0.2052,0.1258 -0.1959,0.0034 z m 6.7724,1.3628 -0.8545,-1.607 -0.1572,0.0265 -0.3852,0.1577 -0.1564,0.1353 -0.126,0.2598 0.0201,0.3214 0.1492,0.3079 0.1567,0.1829 0.1672,0.1017 0.154,0.0235 0.1772,-0.0509 0.1917,-0.1634 0.0983,-0.2429 0.0051,-0.0304 0.1076,0.2259 0.2456,0.4618 z m -1.1662,-0.3719 -0.1157,-0.1192 -0.1403,-0.2481 -0.0464,-0.1968 0.0217,-0.1513 0.052,-0.0908 0.2263,-0.1461 0.1789,-0.0387 0.3075,0.5783 -0.1054,0.3265 -0.109,0.1078 -0.1445,0.0313 z m -6.6302,-0.7034 0.064,-0.1223 -0.0305,-0.1565 -0.0822,-0.0783 -0.0865,-0.0263 -0.1586,0.0471 -0.0805,0.1298 0.0177,0.143 0.1298,0.1138 0.1146,0.008 z m -0.3094,1.6839 -0.4211,-0.792 -0.4826,0.2334 -0.1743,0.0117 -0.1056,-0.0486 -0.0892,-0.1186 -0.035,-0.1505 0.0373,-0.1492 0.1167,-0.1419 0.237,-0.1391 0.2193,-0.083 -0.0995,-0.1872 -0.3534,0.1621 -0.2493,0.2154 -0.135,0.2991 0.0279,0.2615 0.1544,0.221 0.1567,0.0769 0.2155,0.0065 0.2988,-0.1048 0.16,-0.0848 0.2314,0.4353 -0.641,0.3408 0.0958,0.1802 z m -1.3269,0.82 -0.2056,-0.0722 -0.169,-0.0794 -0.1536,-0.0931 -0.1383,-0.1068 -0.110101,-0.1064 -0.0981,-0.1172 -0.0958,-0.1449 -0.1273,-0.2844 -0.0616,-0.3026 0.0054,-0.3322 0.0822,-0.3766 -0.1849,-0.058 -0.1271,0.6813 0.0414,0.3837 0.1386,0.3657 0.0767,0.1289 0.088,0.1197 0.0994,0.1102 0.1105,0.1008 0.122001,0.0914 0.1332,0.082 0.166,0.0823 0.1808,0.0699 0.1703,0.0512 z m 5.7327,-0.0842 -0.1268,-0.9372 -0.0403,-0.2311 0.1659,0.1586 0.7102,0.6327 0.2348,-0.1249 -1.0995,-0.9432 -0.2375,0.1263 0.1662,1.4395 z m -0.7407,0.8638 0.3555,-0.522 -0.1693,-0.1353 -0.2643,0.3998 -0.6018,-1.1319 0.3982,-0.2117 -0.1024,-0.1925 -0.9738,0.5178 0.1023,0.1925 0.347,-0.1845 0.7258,1.365 z m -1.8886,-0.5243 0.064,-0.1223 -0.0305,-0.1565 -0.0822,-0.0783 -0.0865,-0.0262 -0.1586,0.047 -0.0805,0.1298 0.0177,0.143 0.1298,0.1138 0.1146,0.008 z m -0.6244,1.864 0.158,-0.2117 0.0394,-0.1443 -0.0079,-0.2517 -0.15,-0.4144 -0.2945,-0.4045 -0.2691,-0.1587 -0.139,-0.019 -0.284,0.0794 -0.2026,0.1725 -0.1005,0.2503 0.0125,0.2854 0.1353,0.3669 0.3003,0.4181 0.2649,0.1606 0.2642,0.007 z m -0.9796,-0.7559 -0.0531,-0.2597 0.0523,-0.2168 0.0028,-0.0045 0.1345,-0.1165 0.1396,-0.0339 0.1338,0.0291 0.1749,0.1285 -0.3978,0.8367 z m 0.4204,0.6151 -0.089,-0.0764 0.3983,-0.8336 0.042,0.0683 0.1588,0.364 0.0234,0.267 -0.0508,0.1364 -0.1186,0.1069 -0.158,0.0406 z m 22.4483,19.9504 -0.4211,-0.7921 -0.4827,0.2334 -0.1742,0.0117 -0.1057,-0.0486 -0.0892,-0.1186 -0.0349,-0.1505 0.0372,-0.1492 0.1167,-0.1419 0.237,-0.139 0.2194,-0.0831 -0.0996,-0.1872 -0.3534,0.1622 -0.2493,0.2153 -0.135,0.2991 0.028,0.2615 0.1544,0.221 0.1567,0.077 0.2155,0.0064 0.2987,-0.1048 0.16,-0.0848 0.2314,0.4353 -0.641,0.3408 0.0958,0.1802 z m -2.2646,0.7698 0.0979,-0.0791 0.0502,-0.1491 10e-4,-0.1802 0.1376,0.1604 0.1277,0.018 0.1417,-0.0861 0.0589,-0.1918 -0.0021,-0.1358 0.1295,0.2222 0.1581,-0.084 -0.6334,-1.1911 -0.1898,0.1009 0.407,0.7655 -0.0302,0.3616 -0.0723,0.0293 -0.1349,-0.1708 -0.4459,-0.8386 -0.189,0.1004 0.407,0.7656 -0.019,0.3407 -0.097,0.0471 -0.1106,-0.1453 -0.4576,-0.8606 -0.1899,0.1009 0.5127,0.9538 0.0773,0.0937 0.0679,0.0504 0.0638,0.0226 0.0658,7e-4 z m -1.3046,0.6937 0.0979,-0.0791 0.0502,-0.1492 10e-4,-0.1801 0.1376,0.1604 0.1277,0.018 0.1417,-0.0861 0.0589,-0.1919 -0.0021,-0.1357 0.1295,0.2222 0.1581,-0.084 -0.6333,-1.1911 -0.1899,0.1009 0.407,0.7655 -0.0302,0.3616 -0.0723,0.0293 -0.1349,-0.1709 -0.4459,-0.8386 -0.189,0.1005 0.407,0.7655 -0.019,0.3407 -0.097,0.0471 -0.1106,-0.1452 -0.4576,-0.8607 -0.1899,0.101 0.5127,0.9537 0.0773,0.0938 0.0679,0.0503 0.0638,0.0227 0.0658,7e-4 z m -2.2937,1.8157 -0.214,-2.3642 -0.1969,0.1047 0.214,2.3642 z m 7.1345,-0.877 -0.0906,-0.1705 -0.3532,0.1878 -0.4512,-0.8485 0.3921,-0.2084 -0.0916,-0.1722 -0.9553,0.5079 0.0915,0.1722 0.355,-0.1887 0.5417,1.0189 z m -1.8164,1.4267 -0.0904,-0.7006 -0.0394,-0.2316 0.1718,0.1612 0.5196,0.4724 0.2499,-0.1329 -0.7485,-1.5908 -0.1995,0.1061 0.4777,0.9646 0.2022,0.3908 -0.2001,-0.2016 -0.5336,-0.4774 -0.1457,0.0775 0.0986,0.7392 0.0426,0.2548 -0.7549,-1.3155 -0.2066,0.1098 0.8985,1.5111 z m -7.694,0.5607 0.3555,-0.522 -0.1693,-0.1353 -0.2642,0.3998 -0.6019,-1.1319 0.3982,-0.2117 -0.1023,-0.1925 -0.9739,0.5178 0.1023,0.1925 0.347,-0.1845 0.7258,1.365 z m 6.4765,-0.3472 0.3806,-0.2997 -0.0991,-0.1863 -0.2593,0.2418 -0.2339,0.1078 -0.098,-0.0033 -0.124,-0.0781 -0.0368,-0.0552 -0.0554,-0.1042 0.4085,-0.2335 0.1359,-0.1361 0.066,-0.1367 0.0109,-0.1291 -0.0418,-0.1421 -0.1457,-0.1737 -0.1483,-0.0481 -0.0598,2e-4 -0.2618,0.0952 -0.2039,0.2182 -0.065,0.1547 -0.0903,-0.157 -0.1845,0.0981 0.5106,0.9298 0.1626,0.1092 0.1988,0.012 z m -0.7222,-0.7463 0.061,-0.1429 0.205,-0.2295 0.1749,-0.0281 0.094,0.0695 0.0497,0.1446 -0.026,0.0971 -0.1334,0.1314 -0.0507,0.0295 -0.2622,0.1395 z m 3.6238,-0.1856 0.069,-0.117 -0.0164,-0.1083 -0.0836,-0.0851 -0.0168,-0.0078 -0.1629,0.0168 -0.0825,0.1137 0.0126,0.121 0.0887,0.0884 0.1128,0.0147 z m -10.7215,2.0092 0.2511,-0.1768 0.1029,-0.1536 0.0571,-0.1475 -0.1862,-0.0754 -0.1543,0.2703 -0.1819,0.0977 -0.1441,-0.0066 -0.1196,-0.0813 -0.1158,-0.2303 0.0298,-0.338 0.0597,-0.2101 0.1891,-0.6114 -0.0986,-0.1854 -1.0216,0.5432 0.1047,0.1969 0.7541,-0.4009 -0.2497,0.884 0.0131,0.2481 0.1304,0.2573 0.1446,0.1188 0.1429,0.0465 z m 6.3814,-0.3183 0.1586,-0.1028 0.1338,-0.1519 0.0949,-0.2879 -0.0553,-0.3261 -0.1117,-0.203 -0.1201,-0.136 -0.1226,-0.0832 -0.1354,-0.0451 -0.1443,-0.007 -0.1279,0.0235 -0.253,0.1149 -0.1916,0.1507 -0.049,0.0525 0.1019,0.1916 0.1265,-0.1423 0.2107,-0.1304 0.1631,-0.0357 0.143,0.0247 0.1198,0.0757 0.123,0.1587 0.0738,0.182 -6e-4,0.2237 -0.0664,0.1419 -0.1447,0.1255 -0.183,0.072 -0.1826,0.0238 0.1047,0.1969 z m -7.7092,0.9995 0.1149,-1.3772 -0.0967,-0.1818 -0.7461,0.3966 -0.1822,-0.3425 -0.211,0.1122 0.1822,0.3425 -0.2649,0.1409 0.0967,0.1819 0.2649,-0.1409 0.5455,1.026 z m -0.6312,-0.9805 0.5395,-0.2868 -0.0996,1.1142 z m 5.8651,1.303 0.3806,-0.2997 -0.099,-0.1863 -0.2594,0.2417 -0.2338,0.1079 -0.0981,-0.0033 -0.124,-0.0782 -0.0368,-0.0551 -0.0554,-0.1042 0.4085,-0.2335 0.1359,-0.1361 0.066,-0.1367 0.011,-0.1292 -0.0419,-0.142 -0.1456,-0.1737 -0.1484,-0.0481 -0.0598,2e-4 -0.2618,0.0952 -0.2039,0.2182 -0.0649,0.1547 -0.0903,-0.157 -0.1846,0.0981 0.5106,0.9298 0.1626,0.1091 0.1988,0.0121 z m -0.7221,-0.7463 0.0609,-0.143 0.205,-0.2294 0.175,-0.0281 0.0939,0.0695 0.0498,0.1446 -0.0261,0.097 -0.1334,0.1315 -0.0507,0.0295 -0.2622,0.1395 z m -0.8098,1.5419 0.2587,-0.1446 0.1173,-0.2045 0.0342,-0.1241 0.1112,0.1878 0.1836,-0.0976 -0.6333,-1.1912 -0.2066,0.1099 0.4202,0.7902 -0.0981,0.3187 -0.1115,0.1065 -0.1409,0.028 -0.1233,-0.0691 -0.087,-0.1244 -0.4042,-0.7602 -0.2057,0.1094 0.4918,0.9012 0.1256,0.1197 0.1258,0.0498 z m -0.9579,0.5196 0.1543,-0.1713 0.0517,-0.1476 -0.019,-0.209 -0.091,-0.1646 -0.1257,-0.0961 -0.0471,-0.0215 0.0185,-0.2173 -0.058,-0.1439 -0.1076,-0.0819 -0.0911,-0.0135 0.056,-0.1726 -0.0131,-0.1338 -0.074,-0.1268 -0.1058,-0.0688 -0.1436,-0.0181 -0.1241,0.0194 -0.3875,0.177 -0.1801,0.1523 -0.1327,0.2783 0.0182,0.1482 0.075,0.1318 0.1259,0.0794 0.1676,0.0118 0.2286,-0.0739 0.4319,-0.1849 0.1022,0.0541 0.0196,0.0742 -0.0041,0.0826 -0.1796,0.0311 -0.1904,0.1031 -0.128,0.1348 -0.071,0.1725 2e-4,0.1542 0.1074,0.2249 0.1268,0.0946 -0.1907,0.1014 0.0897,0.1687 z m -1.1513,-1.0649 -0.0345,-0.1426 0.0488,-0.108 0.333,-0.2228 0.2013,-0.0317 0.083,0.0536 0.0267,0.2124 -0.037,0.0803 -0.521,0.2111 z m 0.6683,0.9504 -0.1087,-0.1618 0.0035,-0.1739 0.0331,-0.0639 0.1512,-0.1131 0.1163,-0.0194 0.1456,0.0503 0.1065,0.1442 0.0179,0.1348 -0.0485,0.1268 -0.1522,0.1124 -0.1207,0.0187 z m -3.5439,-0.669 0.1834,-0.1021 0.1256,-0.159 0.042,-0.1562 -0.0191,-0.1676 -0.1048,-0.1873 -0.1321,-0.1022 -0.1436,-0.0366 -0.0931,0.0046 -0.2087,0.0802 -0.1635,0.158 -0.0616,0.1567 0.0015,0.1668 0.0794,0.1847 0.125,0.1257 0.1951,0.0622 z m -0.2494,-0.2125 -0.1198,-0.1882 0.0067,-0.1549 0.0074,-0.0161 0.1169,-0.1091 0.1566,-0.034 0.1387,0.0799 0.0773,0.1373 -0.0026,0.1682 -0.0989,0.1127 -0.1573,0.0497 z m -2.5528,1.6923 -0.214,-2.3643 -0.1969,0.1047 0.214,2.3643 z m 6.0881,0.3022 -0.0902,-0.1696 -0.3531,0.1878 -0.7099,-1.335 0.3921,-0.2084 -0.0916,-0.1722 -0.9554,0.5079 0.0916,0.1722 0.3549,-0.1887 0.8,1.5045 z m -8.5116,0.7984 0.0058,-0.6367 -0.0998,-0.3256 -0.0687,-0.1408 -0.0776,-0.1263 -0.0889,-0.1169 -0.1003,-0.1078 -0.1117,-0.0984 -0.1231,-0.0893 -0.1545,-0.0906 -0.1695,-0.0786 -0.1842,-0.0665 -0.1227,-0.0354 -0.0574,0.1925 0.3648,0.1475 0.2801,0.1851 0.2128,0.217 0.1398,0.2145 0.0716,0.1559 0.047,0.1433 0.0315,0.1476 0.016,0.1521 -7e-4,0.1765 -0.0203,0.182 -0.04,0.1876 -0.0308,0.1067 0.1853,0.0588 z m 6.5001,-0.3251 0.2234,-0.1809 0.1106,-0.2922 -0.0466,-0.3283 -0.1324,-0.248 -0.2483,-0.2261 -0.2517,-0.0502 -0.3504,0.1138 -0.3615,0.2601 0.0902,0.1695 0.2607,-0.1995 0.23,-0.109 0.1564,-0.0142 0.1297,0.0428 0.1196,0.1082 0.0547,0.0861 -0.835,0.4472 0.1465,0.2608 0.1992,0.1729 0.2018,0.0561 z m -0.3272,-0.1501 -0.1265,-0.0786 -0.1034,-0.1474 0.626,-0.3329 0.0509,0.2104 -0.0322,0.1707 -0.1071,0.1254 -0.1555,0.0638 z m -7.0187,0.9509 -0.4211,-0.792 -0.4827,0.2334 -0.1742,0.0117 -0.1057,-0.0487 -0.0892,-0.1185 -0.0349,-0.1505 0.0373,-0.1492 0.1167,-0.142 0.237,-0.139 0.2193,-0.083 -0.0995,-0.1872 -0.3534,0.1621 -0.2493,0.2154 -0.135,0.2991 0.0279,0.2615 0.1544,0.221 0.1567,0.0769 0.2155,0.0065 0.2988,-0.1048 0.1599,-0.0848 0.2315,0.4353 -0.641,0.3408 0.0957,0.1801 z m -2.2998,-0.2966 0.064,-0.1223 -0.0305,-0.1565 -0.0822,-0.0783 -0.0865,-0.0263 -0.1586,0.0471 -0.0805,0.1298 0.0177,0.143 0.1298,0.1138 0.1146,0.008 z m 7.4943,1.0332 -0.1742,-0.3276 0.3329,-0.177 -0.0921,-0.173 -0.3328,0.177 -0.3965,-0.7252 -0.114,-0.1072 -0.1218,-0.0479 -0.1507,0.0028 -0.012,0.0024 -0.2381,0.0976 -0.241,0.1706 0.0944,0.1774 0.3214,-0.2103 0.157,-0.0115 0.1157,0.0727 0.0574,0.0836 0.3215,0.6048 -0.535,0.2845 0.092,0.1731 0.5351,-0.2845 0.2023,0.3805 z m -7.8037,0.6508 -0.4211,-0.7921 -0.4827,0.2334 -0.1741,0.0117 -0.1057,-0.0486 -0.0892,-0.1186 -0.0349,-0.1505 0.0372,-0.1492 0.1167,-0.1419 0.237,-0.139 0.2193,-0.0831 -0.0995,-0.1872 -0.3534,0.1622 -0.2493,0.2153 -0.135,0.2991 0.0279,0.2615 0.1544,0.221 0.1567,0.0769 0.2155,0.0065 0.2988,-0.1048 0.16,-0.0848 0.2314,0.4353 -0.641,0.3408 0.0958,0.1802 z m 6.0653,-0.1195 0.3806,-0.2998 -0.0991,-0.1863 -0.2593,0.2418 -0.2339,0.1078 -0.098,-0.0032 -0.124,-0.0782 -0.0368,-0.0552 -0.0554,-0.1041 0.4085,-0.2336 0.1359,-0.1361 0.066,-0.1366 0.0109,-0.1292 -0.0418,-0.1421 -0.1457,-0.1737 -0.1483,-0.0481 -0.0598,2e-4 -0.2618,0.0952 -0.2039,0.2182 -0.065,0.1548 -0.0902,-0.1571 -0.1846,0.0982 0.5106,0.9297 0.1626,0.1092 0.1988,0.012 z m -0.7222,-0.7463 0.061,-0.143 0.205,-0.2295 0.175,-0.0281 0.0939,0.0695 0.0497,0.1447 -0.026,0.097 -0.1334,0.1315 -0.0507,0.0295 -0.2622,0.1394 z m -7.5863,0.5095 -0.0021,-0.125 -0.0686,-0.0881 -0.179,-0.1132 -0.0378,-0.1145 0.0563,-0.143 0.1267,-0.1115 0.0455,-0.0246 -0.0868,-0.1633 -0.2024,0.1471 -0.1214,0.1748 -0.0491,0.2203 0.0344,0.1917 0.1413,0.2118 0.0946,0.0521 0.1175,1e-4 z m 7.7398,1.1349 -0.8544,-1.607 -0.1573,0.0265 -0.3852,0.1578 -0.1564,0.1352 -0.126,0.2598 0.0202,0.3215 0.1491,0.3078 0.1567,0.183 0.1672,0.1016 0.154,0.0236 0.1772,-0.051 0.1917,-0.1634 0.0983,-0.2428 0.0051,-0.0304 0.1077,0.2259 0.2455,0.4617 z m -1.1662,-0.3719 -0.1156,-0.1191 -0.1404,-0.2481 -0.0464,-0.1969 0.0217,-0.1513 0.052,-0.0907 0.2263,-0.1462 0.1789,-0.0387 0.3075,0.5783 -0.1053,0.3265 -0.109,0.1078 -0.1446,0.0313 z m -7.32,1.1104 0.1177,-0.1784 0.0565,-0.2075 -0.0116,-0.2499 -0.1058,-0.3186 -0.2961,-0.4423 -0.2499,-0.1426 -0.163,-0.01 -0.0075,9e-4 -0.3516,0.1583 -0.1705,0.2192 -0.0415,0.3112 0.0521,0.1665 0.1276,0.1813 0.1715,0.1098 0.216,0.0199 0.2106,-0.0718 0.238,-0.1785 0.0989,-0.1252 0.0742,0.247 -0.0195,0.2032 -0.1466,0.2213 -0.2001,0.1406 -0.1703,0.0906 0.0958,0.1801 z m -0.8954,-0.714 -0.0986,-0.1971 -0.0021,-0.1606 0.0712,-0.1368 0.0042,-0.0047 0.1477,-0.0993 0.1816,-0.0252 0.1318,0.0618 0.2576,0.3425 -0.1567,0.194 -0.2051,0.1258 -0.196,0.0035 z m 5.6816,1.3199 -0.1268,-0.9371 -0.0402,-0.2312 0.1658,0.1587 0.7102,0.6326 0.2349,-0.1248 -1.0995,-0.9433 -0.2376,0.1263 0.1663,1.4395 z m -6.705501,-1.0324 0.064,-0.1223 -0.0306,-0.1564 -0.0822,-0.0784 -0.0864,-0.0262 -0.1587,0.0471 -0.0805,0.1298 0.0177,0.143 0.1298,0.1137 0.1146,0.008 z m 5.964801,1.8963 0.3555,-0.5221 -0.1693,-0.1353 -0.2642,0.3999 -0.6019,-1.132 0.3982,-0.2117 -0.1023,-0.1925 -0.9739,0.5178 0.1023,0.1925 0.347,-0.1845 0.7258,1.365 z m -6.274201,-0.2123 -0.4211,-0.792 -0.4827,0.2334 -0.1742,0.0117 -0.105701,-0.0487 -0.0892,-0.1185 -0.0349,-0.1506 0.0372,-0.1491 0.1167,-0.142 0.237001,-0.139 0.2194,-0.083 -0.0995,-0.1872 -0.353501,0.1621 -0.2493,0.2154 -0.135,0.299 0.028,0.2616 0.1544,0.2209 0.1567,0.077 0.215501,0.0064 0.2987,-0.1048 0.16,-0.0847 0.2315,0.4353 -0.6411,0.3408 0.0958,0.1801 z m -1.327001,0.8199 -0.2056,-0.0721 -0.1689,-0.0794 -0.1536,-0.0931 -0.1384,-0.1068 -0.1101,-0.1064 -0.098,-0.1173 -0.0958,-0.1448 -0.1273,-0.2845 -0.0616,-0.3026 0.0053,-0.3321 0.0822,-0.3766 -0.1848,-0.058 -0.1272,0.6813 0.0415,0.3836 0.1385,0.3657 0.0768,0.129 0.088,0.1196 0.0993,0.1102 0.1106,0.1008 0.1219,0.0915 0.1332,0.082 0.1661,0.0822 0.1808,0.07 0.1702,0.0512 z m 5.712602,-1.132 0.064,-0.1223 -0.0305,-0.1564 -0.0822,-0.0784 -0.0865,-0.0262 -0.1586,0.0471 -0.0805,0.1298 0.0177,0.143 0.1298,0.1137 0.1146,0.008 z m -0.6244,1.864 0.158,-0.2116 0.0395,-0.1443 -0.0079,-0.2517 -0.1501,-0.4144 -0.2945,-0.4046 -0.269,-0.1587 -0.1391,-0.0189 -0.284,0.0794 -0.2026,0.1725 -0.1005,0.2502 0.0125,0.2855 0.1354,0.3668 0.3002,0.4181 0.265,0.1606 0.2641,0.007 z m -0.9796,-0.7559 -0.0531,-0.2596 0.0524,-0.2169 0.0028,-0.0045 0.1345,-0.1165 0.1395,-0.0338 0.1338,0.0291 0.1749,0.1285 -0.3978,0.8366 z m 0.4204,0.6152 -0.0889,-0.0765 0.3983,-0.8335 0.0419,0.0683 0.1588,0.3639 0.0234,0.267 -0.0508,0.1365 -0.1186,0.1069 -0.1579,0.0406 z m 22.8898,19.7156 -0.4211,-0.7921 -0.4827,0.2334 -0.1742,0.0117 -0.1057,-0.0486 -0.0892,-0.1186 -0.0349,-0.1505 0.0372,-0.1492 0.1167,-0.1419 0.237,-0.139 0.2194,-0.0831 -0.0996,-0.1872 -0.3534,0.1622 -0.2493,0.2153 -0.135,0.2991 0.028,0.2615 0.1544,0.221 0.1567,0.077 0.2155,0.0064 0.2987,-0.1048 0.16,-0.0848 0.2314,0.4353 -0.641,0.3408 0.0958,0.1802 z m -2.2646,0.7698 0.0979,-0.0791 0.0502,-0.1491 10e-4,-0.1802 0.1376,0.1604 0.1277,0.018 0.1417,-0.0861 0.0589,-0.1918 -0.0021,-0.1358 0.1295,0.2222 0.1581,-0.084 -0.6334,-1.1911 -0.1898,0.1009 0.407,0.7655 -0.0302,0.3616 -0.0723,0.0293 -0.1349,-0.1708 -0.4459,-0.8386 -0.189,0.1004 0.407,0.7656 -0.019,0.3407 -0.097,0.0471 -0.1106,-0.1453 -0.4576,-0.8606 -0.1899,0.1009 0.5127,0.9538 0.0773,0.0937 0.0679,0.0504 0.0638,0.0226 0.0658,7e-4 z m -1.3046,0.6937 0.0979,-0.0791 0.0502,-0.1492 10e-4,-0.1801 0.1376,0.1604 0.1277,0.018 0.1417,-0.0861 0.0589,-0.1919 -0.0021,-0.1357 0.1295,0.2222 0.1581,-0.084 -0.6333,-1.1911 -0.1899,0.1009 0.407,0.7655 -0.0302,0.3616 -0.0723,0.0293 -0.1349,-0.1709 -0.4459,-0.8386 -0.189,0.1005 0.407,0.7655 -0.019,0.3407 -0.097,0.0471 -0.1106,-0.1452 -0.4576,-0.8607 -0.1899,0.101 0.5127,0.9537 0.0773,0.0938 0.0679,0.0503 0.0638,0.0227 0.0658,7e-4 z m -2.2937,1.8157 -0.214,-2.3642 -0.1969,0.1047 0.214,2.3642 z m 7.1345,-0.877 -0.0906,-0.1705 -0.3532,0.1878 -0.4512,-0.8485 0.3921,-0.2084 -0.0916,-0.1722 -0.9553,0.5079 0.0915,0.1722 0.355,-0.1887 0.5417,1.0189 z m -1.8164,1.4267 -0.0904,-0.7006 -0.0394,-0.2316 0.1718,0.1612 0.5196,0.4724 0.2499,-0.1329 -0.7485,-1.5908 -0.1995,0.1061 0.4777,0.9646 0.2022,0.3908 -0.2001,-0.2016 -0.5336,-0.4774 -0.1457,0.0775 0.0986,0.7392 0.0426,0.2548 -0.7549,-1.3155 -0.2066,0.1098 0.8985,1.5111 z m -7.694,0.5607 0.3555,-0.522 -0.1693,-0.1353 -0.2642,0.3998 -0.6019,-1.1319 0.3982,-0.2117 -0.1023,-0.1925 -0.9739,0.5178 0.1023,0.1925 0.347,-0.1845 0.7258,1.365 z m 6.4765,-0.3472 0.3806,-0.2997 -0.0991,-0.1863 -0.2593,0.2418 -0.2339,0.1078 -0.098,-0.0033 -0.124,-0.0781 -0.0368,-0.0552 -0.0554,-0.1042 0.4085,-0.2335 0.1359,-0.1361 0.066,-0.1367 0.0109,-0.1291 -0.0418,-0.1421 -0.1457,-0.1737 -0.1483,-0.0481 -0.0598,2e-4 -0.2618,0.0952 -0.2039,0.2182 -0.065,0.1547 -0.0903,-0.157 -0.1845,0.0981 0.5106,0.9298 0.1626,0.1092 0.1988,0.012 z m -0.7222,-0.7463 0.061,-0.1429 0.205,-0.2295 0.1749,-0.0281 0.094,0.0695 0.0497,0.1446 -0.026,0.0971 -0.1334,0.1314 -0.0507,0.0295 -0.2622,0.1395 z m 3.6238,-0.1856 0.069,-0.117 -0.0164,-0.1083 -0.0836,-0.0851 -0.0168,-0.0078 -0.1629,0.0168 -0.0825,0.1137 0.0126,0.121 0.0887,0.0884 0.1128,0.0147 z m -10.7215,2.0092 0.2511,-0.1768 0.1029,-0.1536 0.0571,-0.1475 -0.1862,-0.0754 -0.1543,0.2703 -0.1819,0.0977 -0.1441,-0.0066 -0.1196,-0.0813 -0.1158,-0.2303 0.0298,-0.338 0.0597,-0.2101 0.1891,-0.6114 -0.0986,-0.1854 -1.0216,0.5432 0.1047,0.1969 0.7541,-0.4009 -0.2497,0.884 0.0131,0.2481 0.1304,0.2573 0.1446,0.1188 0.1429,0.0465 z m 6.3814,-0.3183 0.1586,-0.1028 0.1338,-0.1519 0.0949,-0.2879 -0.0553,-0.3261 -0.1117,-0.203 -0.1201,-0.136 -0.1226,-0.0832 -0.1354,-0.0451 -0.1443,-0.007 -0.1279,0.0235 -0.253,0.1149 -0.1916,0.1507 -0.049,0.0525 0.1019,0.1916 0.1265,-0.1423 0.2107,-0.1304 0.1631,-0.0357 0.143,0.0247 0.1198,0.0757 0.123,0.1587 0.0738,0.182 -6e-4,0.2237 -0.0664,0.1419 -0.1447,0.1255 -0.183,0.072 -0.1826,0.0238 0.1047,0.1969 z m -7.7092,0.9995 0.1149,-1.3772 -0.0967,-0.1818 -0.7461,0.3966 -0.1822,-0.3425 -0.211,0.1122 0.1822,0.3425 -0.2649,0.1409 0.0967,0.1819 0.2649,-0.1409 0.5455,1.026 z m -0.6312,-0.9805 0.5395,-0.2868 -0.0996,1.1142 z m 5.8651,1.303 0.3806,-0.2997 -0.099,-0.1863 -0.2594,0.2417 -0.2338,0.1079 -0.0981,-0.0033 -0.124,-0.0782 -0.0368,-0.0551 -0.0554,-0.1042 0.4085,-0.2335 0.1359,-0.1361 0.066,-0.1367 0.011,-0.1292 -0.0419,-0.142 -0.1456,-0.1737 -0.1484,-0.0481 -0.0598,2e-4 -0.2618,0.0952 -0.2039,0.2182 -0.0649,0.1547 -0.0903,-0.157 -0.1846,0.0981 0.5106,0.9298 0.1626,0.1091 0.1988,0.0121 z m -0.7221,-0.7463 0.0609,-0.143 0.205,-0.2294 0.175,-0.0281 0.0939,0.0695 0.0498,0.1446 -0.0261,0.097 -0.1334,0.1315 -0.0507,0.0295 -0.2622,0.1395 z m -0.8098,1.5419 0.2587,-0.1446 0.1173,-0.2045 0.0342,-0.1241 0.1112,0.1878 0.1836,-0.0976 -0.6333,-1.1912 -0.2066,0.1099 0.4202,0.7902 -0.0981,0.3187 -0.1115,0.1065 -0.1409,0.028 -0.1233,-0.0691 -0.087,-0.1244 -0.4042,-0.7602 -0.2057,0.1094 0.4918,0.9012 0.1256,0.1197 0.1258,0.0498 z m -0.9579,0.5196 0.1543,-0.1713 0.0517,-0.1476 -0.019,-0.209 -0.091,-0.1646 -0.1257,-0.0961 -0.0471,-0.0215 0.0185,-0.2173 -0.058,-0.1439 -0.1076,-0.0819 -0.0911,-0.0135 0.056,-0.1726 -0.0131,-0.1338 -0.074,-0.1268 -0.1058,-0.0688 -0.1436,-0.0181 -0.1241,0.0194 -0.3875,0.177 -0.1801,0.1523 -0.1327,0.2783 0.0182,0.1482 0.075,0.1318 0.1259,0.0794 0.1676,0.0118 0.2286,-0.0739 0.4319,-0.1849 0.1022,0.0541 0.0196,0.0742 -0.0041,0.0826 -0.1796,0.0311 -0.1904,0.1031 -0.128,0.1348 -0.071,0.1725 2e-4,0.1542 0.1074,0.2249 0.1268,0.0946 -0.1907,0.1014 0.0897,0.1687 z m -1.1513,-1.0649 -0.0345,-0.1426 0.0488,-0.108 0.333,-0.2228 0.2013,-0.0317 0.083,0.0536 0.0267,0.2124 -0.037,0.0803 -0.521,0.2111 z m 0.6683,0.9504 -0.1087,-0.1618 0.0035,-0.1739 0.0331,-0.0639 0.1512,-0.1131 0.1163,-0.0194 0.1456,0.0503 0.1065,0.1442 0.0179,0.1348 -0.0485,0.1268 -0.1522,0.1124 -0.1207,0.0187 z m -3.5439,-0.669 0.1834,-0.1021 0.1256,-0.159 0.042,-0.1562 -0.0191,-0.1676 -0.1048,-0.1873 -0.1321,-0.1022 -0.1436,-0.0366 -0.0931,0.0046 -0.2087,0.0802 -0.1635,0.158 -0.0616,0.1567 0.0015,0.1668 0.0794,0.1847 0.125,0.1257 0.1951,0.0622 z m -0.2494,-0.2125 -0.1198,-0.1882 0.0067,-0.1549 0.0074,-0.0161 0.1169,-0.1091 0.1566,-0.034 0.1387,0.0799 0.0773,0.1373 -0.0026,0.1682 -0.0989,0.1127 -0.1573,0.0497 z m -2.5528,1.6923 -0.214,-2.3643 -0.1969,0.1047 0.214,2.3643 z m 6.0881,0.3022 -0.0902,-0.1696 -0.3531,0.1878 -0.7099,-1.335 0.3921,-0.2084 -0.0916,-0.1722 -0.9554,0.5079 0.0916,0.1722 0.3549,-0.1887 0.8,1.5045 z m -8.5116,0.7984 0.0058,-0.6367 -0.0998,-0.3256 -0.0687,-0.1408 -0.0776,-0.1263 -0.0889,-0.1169 -0.1003,-0.1078 -0.1117,-0.0984 -0.1231,-0.0893 -0.1545,-0.0906 -0.1695,-0.0786 -0.1842,-0.0665 -0.1227,-0.0354 -0.0574,0.1925 0.3648,0.1475 0.2801,0.1851 0.2128,0.217 0.1398,0.2145 0.0716,0.1559 0.047,0.1433 0.0315,0.1476 0.016,0.1521 -7e-4,0.1765 -0.0203,0.182 -0.04,0.1876 -0.0308,0.1067 0.1853,0.0588 z m 6.5001,-0.3251 0.2234,-0.1809 0.1106,-0.2922 -0.0466,-0.3283 -0.1324,-0.248 -0.2483,-0.2261 -0.2517,-0.0502 -0.3504,0.1138 -0.3615,0.2601 0.0902,0.1695 0.2607,-0.1995 0.23,-0.109 0.1564,-0.0142 0.1297,0.0428 0.1196,0.1082 0.0547,0.0861 -0.835,0.4472 0.1465,0.2608 0.1992,0.1729 0.2018,0.0561 z m -0.3272,-0.1501 -0.1265,-0.0786 -0.1034,-0.1474 0.626,-0.3329 0.0509,0.2104 -0.0322,0.1707 -0.1071,0.1254 -0.1555,0.0638 z m -7.0187,0.9509 -0.4211,-0.792 -0.4827,0.2334 -0.1742,0.0117 -0.1057,-0.0487 -0.0892,-0.1185 -0.0349,-0.1505 0.0373,-0.1492 0.1167,-0.142 0.237,-0.139 0.2193,-0.083 -0.0995,-0.1872 -0.3534,0.1621 -0.2493,0.2154 -0.135,0.2991 0.0279,0.2615 0.1544,0.221 0.1567,0.0769 0.2155,0.0065 0.2988,-0.1048 0.1599,-0.0848 0.2315,0.4353 -0.641,0.3408 0.0957,0.1801 z m -2.2998,-0.2966 0.064,-0.1223 -0.0305,-0.1565 -0.0822,-0.0783 -0.0865,-0.0263 -0.1586,0.0471 -0.0805,0.1298 0.0177,0.143 0.1298,0.1138 0.1146,0.008 z m 7.4943,1.0332 -0.1742,-0.3276 0.3329,-0.177 -0.0921,-0.173 -0.3328,0.177 -0.3965,-0.7252 -0.114,-0.1072 -0.1218,-0.0479 -0.1507,0.0028 -0.012,0.0024 -0.2381,0.0976 -0.241,0.1706 0.0944,0.1774 0.3214,-0.2103 0.157,-0.0115 0.1157,0.0727 0.0574,0.0836 0.3215,0.6048 -0.535,0.2845 0.092,0.1731 0.5351,-0.2845 0.2023,0.3805 z m -7.8037,0.6508 -0.4211,-0.7921 -0.4827,0.2334 -0.1741,0.0117 -0.1057,-0.0486 -0.0892,-0.1186 -0.0349,-0.1505 0.0372,-0.1492 0.1167,-0.1419 0.237,-0.139 0.2193,-0.0831 -0.0995,-0.1872 -0.3534,0.1622 -0.2493,0.2153 -0.135,0.2991 0.0279,0.2615 0.1544,0.221 0.1567,0.0769 0.2155,0.0065 0.2988,-0.1048 0.16,-0.0848 0.2314,0.4353 -0.641,0.3408 0.0958,0.1802 z m 6.0653,-0.1195 0.3806,-0.2998 -0.0991,-0.1863 -0.2593,0.2418 -0.2339,0.1078 -0.098,-0.0032 -0.124,-0.0782 -0.0368,-0.0552 -0.0554,-0.1041 0.4085,-0.2336 0.1359,-0.1361 0.066,-0.1366 0.0109,-0.1292 -0.0418,-0.1421 -0.1457,-0.1737 -0.1483,-0.0481 -0.0598,2e-4 -0.2618,0.0952 -0.2039,0.2182 -0.065,0.1548 -0.0902,-0.1571 -0.1846,0.0982 0.5106,0.9297 0.1626,0.1092 0.1988,0.012 z m -0.7222,-0.7463 0.061,-0.143 0.205,-0.2295 0.175,-0.0281 0.0939,0.0695 0.0497,0.1447 -0.026,0.097 -0.1334,0.1315 -0.0507,0.0295 -0.2622,0.1394 z m -7.5863,0.5095 -0.0021,-0.125 -0.0686,-0.0881 -0.179,-0.1132 -0.0378,-0.1145 0.0563,-0.143 0.1267,-0.1115 0.0455,-0.0246 -0.0868,-0.1633 -0.2024,0.1471 -0.1214,0.1748 -0.0491,0.2203 0.0344,0.1917 0.1413,0.2118 0.0946,0.0521 0.1175,10e-5 z m 7.7398,1.1349 -0.8544,-1.607 -0.1573,0.0265 -0.3852,0.1578 -0.1564,0.1352 -0.126,0.2598 0.0202,0.3215 0.1491,0.3078 0.1567,0.183 0.1672,0.1016 0.154,0.0236 0.1772,-0.051 0.1917,-0.1634 0.0983,-0.2428 0.0051,-0.0304 0.1077,0.2259 0.2455,0.4617 z m -1.1662,-0.3719 -0.1156,-0.1191 -0.1404,-0.2481 -0.0464,-0.1969 0.0217,-0.1513 0.052,-0.0907 0.2263,-0.1462 0.1789,-0.0387 0.3075,0.5783 -0.1053,0.3265 -0.109,0.1078 -0.1446,0.0313 z m -7.32,1.1104 0.1177,-0.1784 0.0565,-0.2075 -0.0116,-0.2499 -0.1058,-0.3186 -0.2961,-0.4423 -0.2499,-0.1426 -0.163,-0.01 -0.0075,9e-4 -0.3516,0.1583 -0.1705,0.2192 -0.0415,0.3112 0.0521,0.1665 0.1276,0.1813 0.1715,0.1098 0.216,0.0199 0.2106,-0.0718 0.238,-0.1785 0.0989,-0.1252 0.0742,0.247 -0.0195,0.2032 -0.1466,0.2213 -0.2001,0.1406 -0.1703,0.0906 0.0958,0.1801 z m -0.8954,-0.714 -0.0986,-0.1971 -0.0021,-0.1606 0.0712,-0.1368 0.0042,-0.0047 0.1477,-0.0993 0.1816,-0.0252 0.1318,0.0618 0.2576,0.3425 -0.1567,0.194 -0.2051,0.1258 -0.196,0.0035 z m -0.0511,1.4041 -0.2056,-0.0722 -0.168901,-0.0794 -0.1537,-0.0931 -0.1383,-0.1068 -0.1101,-0.1064 -0.098,-0.1172 -0.0959,-0.1448 -0.1273,-0.2845 -0.0616,-0.3026 0.0054,-0.3321 0.0822,-0.3767 -0.1848,-0.058 -0.127201,0.6814 0.0414,0.3836 0.1386,0.3657 0.0767,0.129 0.088,0.1196 0.0994,0.1102 0.110599,0.1008 0.1219,0.0914 0.1332,0.0821 0.166,0.0822 0.180901,0.07 0.1702,0.0511 z m 5.7327,-0.0842 -0.1268,-0.9371 -0.0402,-0.2312 0.1658,0.1587 0.7102,0.6326 0.2349,-0.1248 -1.0995,-0.9433 -0.2376,0.1263 0.1663,1.4395 z m -0.7407,0.86388 0.3555,-0.52208 -0.1693,-0.1353 -0.2642,0.39986 -0.6019,-1.13196 0.3982,-0.2117 -0.1023,-0.1925 -0.9739,0.5178 0.1023,0.1925 0.347,-0.1845 0.7258,1.3650497 z m -1.8886,-0.52438 0.064,-0.1223 -0.0305,-0.1564 -0.0822,-0.0784 -0.0865,-0.0262 -0.1586,0.0471 -0.0805,0.1298 0.0177,0.143 0.1298,0.1137 0.1146,0.008 z m -0.6244,1.8640397 0.158,-0.21167 0.0395,-0.14432 -0.0079,-0.25168 -0.1501,-0.41438 -0.2945,-0.4045697 -0.269,-0.15871 -0.1391,-0.01893 -0.284,0.07939 -0.2026,0.1725 -0.1005,0.2502397 0.0125,0.28546 0.1354,0.36685 0.3002,0.4181 0.265,0.16058 0.2641,0.00705 z m -0.9796,-0.75594 -0.0531,-0.25963 0.0524,-0.21687 0.0028,-0.0044 0.1345,-0.1165497 0.1395,-0.03383 0.1338,0.0291 0.1749,0.1285097 -0.3978,0.83667 z m 0.4204,0.61516 -0.0889,-0.07643 0.3983,-0.83357 0.0419,0.0683 0.1588,0.36395 0.0234,0.26703 -0.0508,0.13643 -0.1186,0.10691 -0.1579,0.04059 z"
     stroke="#000000"
     fill="#d3d3d3"
     stroke-width="0.5"
     id="path904"
     style="fill:#000000;fill-opacity:1;stroke:none" />
</svg>
