<?xml version="1.0" standalone="no"?>
<!DOCTYPE svg PUBLIC "-//W3C//DTD SVG 1.1//EN" "http://www.w3.org/Graphics/SVG/1.1/DTD/svg11.dtd">
<svg width="32mm" height="88mm" viewBox="37 -96 32 88" xmlns="http://www.w3.org/2000/svg" version="1.1">
<title>OpenSCAD Model</title>
<path d="
M 66.8504,-93.8484 L 66.4293,-94.6404 L 65.9467,-94.407 L 65.7725,-94.3953 L 65.6668,-94.444 L 65.5776,-94.5625
 L 65.5426,-94.7131 L 65.5799,-94.8622 L 65.6966,-95.0042 L 65.9336,-95.1432 L 66.1529,-95.2262 L 66.0534,-95.4134
 L 65.7,-95.2513 L 65.4507,-95.0359 L 65.3157,-94.7368 L 65.3436,-94.4753 L 65.498,-94.2543 L 65.6547,-94.1774
 L 65.8703,-94.1709 L 66.169,-94.2758 L 66.329,-94.3605 L 66.5604,-93.9252 L 65.9194,-93.5844 L 66.0152,-93.4043
 z
M 64.5859,-93.0785 L 64.6838,-93.1576 L 64.734,-93.3068 L 64.735,-93.4869 L 64.8725,-93.3265 L 65.0003,-93.3085
 L 65.1419,-93.3946 L 65.2009,-93.5865 L 65.1988,-93.7222 L 65.3283,-93.5 L 65.4863,-93.584 L 64.853,-94.7751
 L 64.6632,-94.6742 L 65.0702,-93.9087 L 65.04,-93.5471 L 64.9676,-93.5178 L 64.8327,-93.6887 L 64.3868,-94.5273
 L 64.1979,-94.4268 L 64.6049,-93.6613 L 64.5859,-93.3206 L 64.4889,-93.2735 L 64.3783,-93.4187 L 63.9206,-94.2794
 L 63.7308,-94.1784 L 64.2434,-93.2247 L 64.3207,-93.1309 L 64.3887,-93.0806 L 64.4525,-93.0579 L 64.5182,-93.0572
 z
M 63.2813,-92.3848 L 63.3792,-92.464 L 63.4294,-92.6131 L 63.4304,-92.7933 L 63.5679,-92.6328 L 63.6957,-92.6148
 L 63.8374,-92.7009 L 63.8963,-92.8928 L 63.8942,-93.0286 L 64.0237,-92.8063 L 64.1818,-92.8904 L 63.5484,-94.0815
 L 63.3586,-93.9805 L 63.7656,-93.215 L 63.7354,-92.8535 L 63.6631,-92.8242 L 63.5281,-92.995 L 63.0822,-93.8336
 L 62.8933,-93.7331 L 63.3003,-92.9676 L 63.2813,-92.6269 L 63.1843,-92.5798 L 63.0737,-92.725 L 62.616,-93.5857
 L 62.4262,-93.4848 L 62.9388,-92.531 L 63.0161,-92.4372 L 63.0841,-92.3869 L 63.1479,-92.3642 L 63.2136,-92.3635
 z
M 60.9876,-90.5691 L 60.7736,-92.9333 L 60.5767,-92.8287 L 60.7907,-90.4644 z
M 68.1221,-91.4462 L 68.0314,-91.6166 L 67.6783,-91.4288 L 67.2271,-92.2773 L 67.6191,-92.4858 L 67.5276,-92.658
 L 66.5722,-92.15 L 66.6638,-91.9778 L 67.0187,-92.1665 L 67.5605,-91.1476 z
M 66.3057,-90.0195 L 66.2152,-90.72 L 66.1759,-90.9516 L 66.3477,-90.7904 L 66.8673,-90.3181 L 67.1171,-90.4509
 L 66.3687,-92.0417 L 66.1691,-91.9357 L 66.6469,-90.971 L 66.8491,-90.5802 L 66.649,-90.7819 L 66.1154,-91.2592
 L 65.9697,-91.1818 L 66.0683,-90.4425 L 66.1109,-90.1877 L 65.3559,-91.5033 L 65.1493,-91.3934 L 66.0479,-89.8824
 z
M 58.6117,-89.4587 L 58.9672,-89.9807 L 58.7979,-90.116 L 58.5336,-89.7162 L 57.9318,-90.8482 L 58.33,-91.0599
 L 58.2276,-91.2524 L 57.2538,-90.7345 L 57.3561,-90.5421 L 57.7031,-90.7266 L 58.4289,-89.3615 z
M 65.0882,-89.8059 L 65.4688,-90.1056 L 65.3697,-90.2919 L 65.1104,-90.0502 L 64.8765,-89.9423 L 64.7784,-89.9456
 L 64.6544,-90.0238 L 64.6177,-90.0789 L 64.5623,-90.1831 L 64.9708,-90.4166 L 65.1067,-90.5528 L 65.1726,-90.6894
 L 65.1836,-90.8186 L 65.1418,-90.9606 L 64.9961,-91.1343 L 64.8478,-91.1825 L 64.788,-91.1822 L 64.5261,-91.0871
 L 64.3222,-90.8688 L 64.2573,-90.7141 L 64.167,-90.8711 L 63.9825,-90.773 L 64.4931,-89.8432 L 64.6556,-89.7341
 L 64.8545,-89.7221 z
M 64.366,-90.5522 L 64.427,-90.6952 L 64.632,-90.9246 L 64.8069,-90.9527 L 64.9008,-90.8832 L 64.9506,-90.7386
 L 64.9246,-90.6416 L 64.7911,-90.5101 L 64.7405,-90.4806 L 64.4782,-90.3412 z
M 67.9898,-90.7378 L 68.0588,-90.8548 L 68.0424,-90.9631 L 67.9588,-91.0483 L 67.942,-91.056 L 67.7791,-91.0392
 L 67.6966,-90.9255 L 67.7092,-90.8046 L 67.7979,-90.7161 L 67.9106,-90.7014 z
M 57.2683,-88.7287 L 57.5193,-88.9054 L 57.6223,-89.059 L 57.6794,-89.2065 L 57.4932,-89.2819 L 57.3388,-89.0117
 L 57.157,-88.9139 L 57.0128,-88.9205 L 56.8933,-89.0019 L 56.7775,-89.2321 L 56.8072,-89.5702 L 56.867,-89.7802
 L 57.0561,-90.3916 L 56.9575,-90.577 L 55.9359,-90.0338 L 56.0406,-89.8369 L 56.7947,-90.2379 L 56.545,-89.3538
 L 56.5581,-89.1057 L 56.6885,-88.8484 L 56.8331,-88.7296 L 56.9759,-88.6831 z
M 63.6497,-89.0469 L 63.8083,-89.1497 L 63.9421,-89.3016 L 64.037,-89.5895 L 63.9816,-89.9156 L 63.8699,-90.1186
 L 63.7499,-90.2546 L 63.6273,-90.3378 L 63.4918,-90.3829 L 63.3475,-90.3899 L 63.2197,-90.3665 L 62.9667,-90.2515
 L 62.775,-90.1008 L 62.7261,-90.0483 L 62.828,-89.8567 L 62.9545,-89.999 L 63.1652,-90.1295 L 63.3283,-90.1652
 L 63.4713,-90.1405 L 63.5911,-90.0647 L 63.7141,-89.9061 L 63.7879,-89.724 L 63.7872,-89.5003 L 63.7208,-89.3584
 L 63.5762,-89.233 L 63.3932,-89.1609 L 63.2106,-89.1371 L 63.3153,-88.9402 z
M 55.9405,-88.0474 L 56.0554,-89.4246 L 55.9587,-89.6065 L 55.2126,-89.2098 L 55.0304,-89.5524 L 54.8194,-89.4402
 L 55.0016,-89.0976 L 54.7367,-88.9568 L 54.8334,-88.7749 L 55.0983,-88.9157 L 55.6438,-87.8897 z
M 55.3093,-89.0279 L 55.8488,-89.3147 L 55.7492,-88.2006 z
M 61.1744,-87.7249 L 61.555,-88.0246 L 61.4559,-88.2109 L 61.1966,-87.9692 L 60.9627,-87.8613 L 60.8647,-87.8646
 L 60.7407,-87.9428 L 60.7039,-87.9979 L 60.6485,-88.1021 L 61.057,-88.3356 L 61.1929,-88.4718 L 61.2589,-88.6084
 L 61.2699,-88.7376 L 61.228,-88.8797 L 61.0824,-89.0533 L 60.934,-89.1015 L 60.8742,-89.1013 L 60.6124,-89.0061
 L 60.4085,-88.7878 L 60.3435,-88.6331 L 60.2533,-88.7901 L 60.0687,-88.692 L 60.5793,-87.7623 L 60.7419,-87.6531
 L 60.9407,-87.6411 z
M 60.4523,-88.4712 L 60.5132,-88.6142 L 60.7182,-88.8436 L 60.8932,-88.8717 L 60.9871,-88.8022 L 61.0368,-88.6576
 L 61.0108,-88.5606 L 60.8773,-88.4291 L 60.8267,-88.3996 L 60.5645,-88.2602 z
M 59.6425,-86.9294 L 59.9012,-87.0739 L 60.0185,-87.2785 L 60.0527,-87.4025 L 60.1638,-87.2147 L 60.3475,-87.3124
 L 59.7142,-88.5035 L 59.5076,-88.3936 L 59.9277,-87.6034 L 59.8297,-87.2848 L 59.7182,-87.1783 L 59.5773,-87.1503
 L 59.454,-87.2193 L 59.367,-87.3437 L 58.9628,-88.104 L 58.757,-87.9946 L 59.2489,-87.0933 L 59.3745,-86.9737
 L 59.5002,-86.9239 z
M 58.6846,-86.4098 L 58.8389,-86.581 L 58.8906,-86.7286 L 58.8716,-86.9377 L 58.7806,-87.1023 L 58.6549,-87.1984
 L 58.6078,-87.2198 L 58.6263,-87.4372 L 58.5683,-87.581 L 58.4607,-87.6629 L 58.3695,-87.6764 L 58.4256,-87.849
 L 58.4124,-87.9828 L 58.3385,-88.1096 L 58.2327,-88.1785 L 58.0891,-88.1966 L 57.965,-88.1771 L 57.5775,-88.0001
 L 57.3974,-87.8478 L 57.2647,-87.5695 L 57.2829,-87.4213 L 57.3579,-87.2896 L 57.4837,-87.2101 L 57.6514,-87.1983
 L 57.88,-87.2722 L 58.3119,-87.4571 L 58.4141,-87.403 L 58.4337,-87.3288 L 58.4295,-87.2462 L 58.25,-87.2151
 L 58.0596,-87.112 L 57.9316,-86.9772 L 57.8605,-86.8048 L 57.8607,-86.6505 L 57.9682,-86.4257 L 58.095,-86.331
 L 57.9043,-86.2296 L 57.994,-86.061 z
M 57.5333,-87.4747 L 57.4988,-87.6173 L 57.5476,-87.7253 L 57.8805,-87.948 L 58.0818,-87.9798 L 58.1648,-87.9261
 L 58.1915,-87.7138 L 58.1545,-87.6334 L 57.6336,-87.4224 z
M 58.2015,-86.5242 L 58.0929,-86.6861 L 58.0963,-86.8599 L 58.1295,-86.9239 L 58.2807,-87.037 L 58.397,-87.0564
 L 58.5426,-87.006 L 58.6491,-86.8619 L 58.667,-86.727 L 58.6185,-86.6003 L 58.4663,-86.4878 L 58.3456,-86.4691
 z
M 54.6577,-87.1933 L 54.841,-87.2953 L 54.9667,-87.4544 L 55.0086,-87.6105 L 54.9896,-87.7782 L 54.8847,-87.9654
 L 54.7527,-88.0677 L 54.6091,-88.1042 L 54.516,-88.0996 L 54.3073,-88.0194 L 54.1438,-87.8615 L 54.0822,-87.7047
 L 54.0837,-87.5379 L 54.1631,-87.3532 L 54.2881,-87.2275 L 54.4832,-87.1653 z
M 54.4082,-87.4058 L 54.2885,-87.5939 L 54.2951,-87.7488 L 54.3026,-87.765 L 54.4195,-87.8741 L 54.5761,-87.908
 L 54.7147,-87.8282 L 54.7921,-87.6909 L 54.7895,-87.5226 L 54.6905,-87.4099 L 54.5333,-87.3602 z
M 51.8554,-85.7135 L 51.6414,-88.0777 L 51.4445,-87.973 L 51.6585,-85.6087 z
M 57.9435,-85.4113 L 57.8534,-85.5808 L 57.5002,-85.393 L 56.7904,-86.728 L 57.1824,-86.9365 L 57.0909,-87.1087
 L 56.1355,-86.6007 L 56.2271,-86.4285 L 56.582,-86.6172 L 57.382,-85.1127 z
M 49.432,-84.6128 L 49.4377,-85.2495 L 49.3379,-85.5751 L 49.2693,-85.716 L 49.1917,-85.8422 L 49.1028,-85.9592
 L 49.0025,-86.0669 L 48.8907,-86.1654 L 48.7677,-86.2546 L 48.6131,-86.3452 L 48.4437,-86.4238 L 48.2595,-86.4903
 L 48.1367,-86.5257 L 48.0794,-86.3333 L 48.4442,-86.1858 L 48.7242,-86.0007 L 48.937,-85.7836 L 49.0769,-85.5691
 L 49.1484,-85.4132 L 49.1955,-85.27 L 49.227,-85.1223 L 49.243,-84.9702 L 49.2423,-84.7938 L 49.222,-84.6118
 L 49.1819,-84.4241 L 49.1512,-84.3175 L 49.3365,-84.2586 z
M 55.932,-84.9379 L 56.1555,-85.1188 L 56.266,-85.411 L 56.2194,-85.7394 L 56.087,-85.9874 L 55.8388,-86.2134
 L 55.5871,-86.2636 L 55.2367,-86.1498 L 54.8752,-85.8898 L 54.9653,-85.7202 L 55.2261,-85.9197 L 55.456,-86.0287
 L 55.6124,-86.0429 L 55.7422,-86.0001 L 55.8618,-85.8919 L 55.9165,-85.8058 L 55.0814,-85.3587 L 55.2279,-85.0978
 L 55.4272,-84.925 L 55.629,-84.8688 z
M 55.6049,-85.088 L 55.4784,-85.1666 L 55.375,-85.314 L 56.001,-85.6469 L 56.0519,-85.4366 L 56.0196,-85.2658
 L 55.9126,-85.1404 L 55.757,-85.0767 z
M 48.2057,-84.0073 L 48.3234,-84.1857 L 48.3799,-84.3932 L 48.3683,-84.6431 L 48.2626,-84.9617 L 47.9664,-85.404
 L 47.7165,-85.5466 L 47.5535,-85.5566 L 47.5461,-85.5556 L 47.1944,-85.3974 L 47.0239,-85.1782 L 46.9825,-84.867
 L 47.0346,-84.7005 L 47.1621,-84.5192 L 47.3336,-84.4094 L 47.5497,-84.3895 L 47.7602,-84.4613 L 47.9982,-84.6398
 L 48.0972,-84.765 L 48.1713,-84.518 L 48.1519,-84.3148 L 48.0052,-84.0935 L 47.8051,-83.9529 L 47.6348,-83.8623
 L 47.7306,-83.6822 z
M 47.3104,-84.7212 L 47.2117,-84.9184 L 47.2096,-85.079 L 47.2808,-85.2158 L 47.285,-85.2205 L 47.4327,-85.3198
 L 47.6143,-85.345 L 47.7461,-85.2832 L 48.0037,-84.9407 L 47.8471,-84.7467 L 47.6419,-84.6209 L 47.4459,-84.6174
 z
M 46.343,-84.4933 L 46.3409,-84.6184 L 46.2723,-84.7065 L 46.0933,-84.8197 L 46.0555,-84.9342 L 46.1117,-85.0771
 L 46.2385,-85.1887 L 46.284,-85.2132 L 46.1971,-85.3766 L 45.9948,-85.2295 L 45.8733,-85.0547 L 45.8243,-84.8343
 L 45.8586,-84.6427 L 45.9999,-84.4308 L 46.0946,-84.3787 L 46.2121,-84.3786 z
M 53.7806,-83.4005 L 53.6065,-83.7281 L 53.9393,-83.9051 L 53.8473,-84.0782 L 53.5145,-83.9012 L 53.118,-84.6263
 L 53.004,-84.7336 L 52.8822,-84.7814 L 52.7315,-84.7787 L 52.7195,-84.7762 L 52.4814,-84.6787 L 52.2404,-84.5081
 L 52.3347,-84.3306 L 52.6562,-84.541 L 52.8132,-84.5524 L 52.9289,-84.4797 L 52.9862,-84.3961 L 53.3078,-83.7913
 L 52.7728,-83.5068 L 52.8648,-83.3338 L 53.3998,-83.6182 L 53.6022,-83.2377 z
M 52.0423,-82.8693 L 52.4229,-83.169 L 52.3238,-83.3553 L 52.0645,-83.1136 L 51.8306,-83.0057 L 51.7325,-83.009
 L 51.6086,-83.0872 L 51.5718,-83.1423 L 51.5164,-83.2465 L 51.9249,-83.48 L 52.0608,-83.6161 L 52.1267,-83.7528
 L 52.1377,-83.882 L 52.0959,-84.024 L 51.9502,-84.1977 L 51.8019,-84.2458 L 51.7421,-84.2456 L 51.4803,-84.1504
 L 51.2763,-83.9322 L 51.2114,-83.7775 L 51.1211,-83.9345 L 50.9366,-83.8364 L 51.4472,-82.9066 L 51.6097,-82.7975
 L 51.8086,-82.7854 z
M 51.3201,-83.6156 L 51.3811,-83.7586 L 51.5861,-83.988 L 51.761,-84.0161 L 51.8549,-83.9466 L 51.9047,-83.802
 L 51.8787,-83.7049 L 51.7452,-83.5735 L 51.6946,-83.544 L 51.4323,-83.4045 z
M 45.5965,-82.62 L 45.7142,-82.7984 L 45.7707,-83.0059 L 45.7591,-83.2557 L 45.6534,-83.5744 L 45.3572,-84.0167
 L 45.1073,-84.1593 L 44.9443,-84.1693 L 44.9369,-84.1683 L 44.5852,-84.0101 L 44.4148,-83.7909 L 44.3733,-83.4797
 L 44.4254,-83.3132 L 44.553,-83.1319 L 44.7245,-83.022 L 44.9405,-83.0022 L 45.151,-83.074 L 45.3891,-83.2525
 L 45.488,-83.3777 L 45.5621,-83.1307 L 45.5427,-82.9275 L 45.396,-82.7062 L 45.1959,-82.5655 L 45.0257,-82.475
 L 45.1214,-82.2949 z
M 44.7012,-83.3339 L 44.6025,-83.531 L 44.6004,-83.6917 L 44.6716,-83.8285 L 44.6758,-83.8331 L 44.8235,-83.9325
 L 45.0051,-83.9577 L 45.1369,-83.8959 L 45.3945,-83.5534 L 45.2379,-83.3593 L 45.0327,-83.2335 L 44.8368,-83.2301
 z
M 51.4736,-81.9711 L 50.6191,-83.5781 L 50.4619,-83.5516 L 50.0767,-83.3939 L 49.9203,-83.2586 L 49.7943,-82.9988
 L 49.8144,-82.6774 L 49.9636,-82.3695 L 50.1203,-82.1866 L 50.2875,-82.0849 L 50.4415,-82.0614 L 50.6187,-82.1123
 L 50.8104,-82.2757 L 50.9087,-82.5186 L 50.9138,-82.549 L 51.0214,-82.3231 L 51.267,-81.8613 z
M 50.3074,-82.343 L 50.1917,-82.4622 L 50.0514,-82.7103 L 50.005,-82.9071 L 50.0267,-83.0584 L 50.0787,-83.1492
 L 50.305,-83.2953 L 50.4839,-83.334 L 50.7914,-82.7557 L 50.686,-82.4292 L 50.577,-82.3214 L 50.4325,-82.2901
 z
M 43.6772,-83.0464 L 43.7412,-83.1687 L 43.7107,-83.3252 L 43.6285,-83.4035 L 43.542,-83.4298 L 43.3834,-83.3827
 L 43.3029,-83.2529 L 43.3206,-83.1099 L 43.4504,-82.9961 L 43.565,-82.9881 z
M 43.3678,-81.3625 L 42.9467,-82.1545 L 42.4641,-81.9211 L 42.2898,-81.9094 L 42.1842,-81.958 L 42.095,-82.0766
 L 42.06,-82.2271 L 42.0973,-82.3763 L 42.214,-82.5182 L 42.451,-82.6573 L 42.6703,-82.7403 L 42.5708,-82.9275
 L 42.2174,-82.7654 L 41.9681,-82.55 L 41.8331,-82.2509 L 41.861,-81.9894 L 42.0154,-81.7684 L 42.1721,-81.6915
 L 42.3876,-81.685 L 42.6864,-81.7898 L 42.8464,-81.8746 L 43.0778,-81.4393 L 42.4368,-81.0985 L 42.5326,-80.9183
 z
M 42.0409,-80.5425 L 41.8353,-80.6147 L 41.6663,-80.6941 L 41.5127,-80.7872 L 41.3744,-80.894 L 41.2643,-81.0004
 L 41.1662,-81.1176 L 41.0704,-81.2625 L 40.9431,-81.5469 L 40.8815,-81.8495 L 40.8869,-82.1817 L 40.9691,-82.5583
 L 40.7842,-82.6163 L 40.6571,-81.935 L 40.6985,-81.5513 L 40.8371,-81.1856 L 40.9138,-81.0567 L 41.0018,-80.937
 L 41.1012,-80.8268 L 41.2117,-80.726 L 41.3337,-80.6346 L 41.4669,-80.5526 L 41.6329,-80.4703 L 41.8137,-80.4004
 L 41.984,-80.3492 z
M 47.7736,-80.6267 L 47.6468,-81.5639 L 47.6065,-81.795 L 47.7724,-81.6364 L 48.4826,-81.0037 L 48.7174,-81.1286
 L 47.6179,-82.0718 L 47.3804,-81.9455 L 47.5466,-80.506 z
M 47.0329,-79.7629 L 47.3884,-80.2849 L 47.2191,-80.4202 L 46.9548,-80.0204 L 46.353,-81.1523 L 46.7512,-81.364
 L 46.6488,-81.5565 L 45.675,-81.0387 L 45.7773,-80.8462 L 46.1243,-81.0307 L 46.8501,-79.6657 z
M 45.1443,-80.2872 L 45.2083,-80.4095 L 45.1778,-80.566 L 45.0956,-80.6443 L 45.0091,-80.6705 L 44.8505,-80.6235
 L 44.77,-80.4937 L 44.7877,-80.3507 L 44.9175,-80.2369 L 45.0321,-80.2289 z
M 44.5199,-78.4232 L 44.6779,-78.6349 L 44.7173,-78.7792 L 44.7094,-79.0309 L 44.5594,-79.4453 L 44.2649,-79.8498
 L 43.9958,-80.0085 L 43.8568,-80.0275 L 43.5728,-79.9481 L 43.3702,-79.7756 L 43.2697,-79.5253 L 43.2822,-79.2399
 L 43.4175,-78.873 L 43.7178,-78.4549 L 43.9827,-78.2943 L 44.2469,-78.2873 z
M 43.5403,-79.1791 L 43.4872,-79.4388 L 43.5395,-79.6556 L 43.5423,-79.6601 L 43.6768,-79.7766 L 43.8164,-79.8105
 L 43.9502,-79.7814 L 44.1251,-79.6529 L 43.7273,-78.8162 z
M 43.9607,-78.564 L 43.8717,-78.6404 L 44.27,-79.474 L 44.312,-79.4057 L 44.4708,-79.0417 L 44.4942,-78.7747
 L 44.4434,-78.6383 L 44.3248,-78.5314 L 44.1668,-78.4908 z
M 66.409,-58.6136 L 65.9879,-59.4057 L 65.5052,-59.1723 L 65.331,-59.1606 L 65.2253,-59.2092 L 65.1361,-59.3278
 L 65.1012,-59.4783 L 65.1384,-59.6275 L 65.2551,-59.7694 L 65.4921,-59.9084 L 65.7115,-59.9915 L 65.6119,-60.1787
 L 65.2585,-60.0165 L 65.0092,-59.8012 L 64.8742,-59.5021 L 64.9022,-59.2406 L 65.0566,-59.0196 L 65.2133,-58.9426
 L 65.4288,-58.9362 L 65.7275,-59.041 L 65.8875,-59.1258 L 66.1189,-58.6905 L 65.4779,-58.3497 L 65.5737,-58.1695
 z
M 64.1444,-57.8438 L 64.2423,-57.9229 L 64.2925,-58.072 L 64.2935,-58.2522 L 64.4311,-58.0918 L 64.5588,-58.0738
 L 64.7005,-58.1599 L 64.7594,-58.3517 L 64.7573,-58.4875 L 64.8868,-58.2653 L 65.0449,-58.3493 L 64.4115,-59.5404
 L 64.2217,-59.4395 L 64.6287,-58.674 L 64.5985,-58.3124 L 64.5262,-58.2831 L 64.3913,-58.4539 L 63.9454,-59.2925
 L 63.7564,-59.1921 L 64.1634,-58.4265 L 64.1444,-58.0858 L 64.0474,-58.0387 L 63.9368,-58.184 L 63.4792,-59.0446
 L 63.2893,-58.9437 L 63.802,-57.9899 L 63.8793,-57.8962 L 63.9472,-57.8458 L 64.011,-57.8232 L 64.0768,-57.8225
 z
M 62.8398,-57.1501 L 62.9377,-57.2292 L 62.9879,-57.3784 L 62.9889,-57.5585 L 63.1265,-57.3981 L 63.2542,-57.3801
 L 63.3959,-57.4662 L 63.4548,-57.6581 L 63.4527,-57.7938 L 63.5822,-57.5716 L 63.7403,-57.6556 L 63.107,-58.8467
 L 62.9171,-58.7458 L 63.3241,-57.9803 L 63.2939,-57.6187 L 63.2216,-57.5894 L 63.0867,-57.7603 L 62.6408,-58.5989
 L 62.4518,-58.4984 L 62.8588,-57.7329 L 62.8398,-57.3922 L 62.7428,-57.3451 L 62.6322,-57.4903 L 62.1746,-58.351
 L 61.9847,-58.25 L 62.4974,-57.2963 L 62.5747,-57.2025 L 62.6426,-57.1522 L 62.7064,-57.1295 L 62.7722,-57.1288
 z
M 60.5461,-55.3344 L 60.3321,-57.6986 L 60.1352,-57.5939 L 60.3492,-55.2297 z
M 67.6806,-56.2114 L 67.59,-56.3819 L 67.2368,-56.1941 L 66.7856,-57.0426 L 67.1777,-57.251 L 67.0861,-57.4232
 L 66.1308,-56.9153 L 66.2223,-56.7431 L 66.5773,-56.9318 L 67.119,-55.9129 z
M 65.8642,-54.7847 L 65.7738,-55.4853 L 65.7344,-55.7169 L 65.9062,-55.5557 L 66.4258,-55.0833 L 66.6757,-55.2162
 L 65.9272,-56.807 L 65.7277,-56.7009 L 66.2054,-55.7363 L 66.4076,-55.3455 L 66.2075,-55.5471 L 65.6739,-56.0245
 L 65.5282,-55.947 L 65.6268,-55.2078 L 65.6694,-54.953 L 64.9145,-56.2685 L 64.7079,-56.1587 L 65.6064,-54.6476
 z
M 58.1702,-54.224 L 58.5257,-54.746 L 58.3564,-54.8813 L 58.0922,-54.4815 L 57.4903,-55.6134 L 57.8885,-55.8251
 L 57.7862,-56.0176 L 56.8123,-55.4998 L 56.9146,-55.3073 L 57.2616,-55.4918 L 57.9874,-54.1268 z
M 64.6467,-54.5712 L 65.0273,-54.8709 L 64.9282,-55.0572 L 64.6689,-54.8154 L 64.435,-54.7076 L 64.337,-54.7109
 L 64.213,-54.789 L 64.1762,-54.8442 L 64.1208,-54.9484 L 64.5293,-55.1819 L 64.6652,-55.318 L 64.7312,-55.4547
 L 64.7421,-55.5838 L 64.7003,-55.7259 L 64.5546,-55.8996 L 64.4063,-55.9477 L 64.3465,-55.9475 L 64.0847,-55.8523
 L 63.8808,-55.6341 L 63.8158,-55.4794 L 63.7255,-55.6364 L 63.541,-55.5383 L 64.0516,-54.6085 L 64.2142,-54.4993
 L 64.413,-54.4873 z
M 63.9245,-55.3175 L 63.9855,-55.4604 L 64.1905,-55.6899 L 64.3654,-55.718 L 64.4594,-55.6485 L 64.5091,-55.5039
 L 64.4831,-55.4068 L 64.3497,-55.2754 L 64.299,-55.2459 L 64.0368,-55.1064 z
M 67.5483,-55.5031 L 67.6173,-55.6201 L 67.6009,-55.7284 L 67.5173,-55.8135 L 67.5005,-55.8213 L 67.3376,-55.8045
 L 67.2551,-55.6908 L 67.2677,-55.5698 L 67.3564,-55.4814 L 67.4692,-55.4667 z
M 56.8268,-53.4939 L 57.0779,-53.6707 L 57.1808,-53.8243 L 57.2379,-53.9718 L 57.0517,-54.0472 L 56.8974,-53.7769
 L 56.7155,-53.6792 L 56.5714,-53.6858 L 56.4518,-53.7671 L 56.336,-53.9974 L 56.3658,-54.3354 L 56.4255,-54.5455
 L 56.6146,-55.1569 L 56.516,-55.3423 L 55.4944,-54.7991 L 55.5991,-54.6022 L 56.3532,-55.0031 L 56.1035,-54.1191
 L 56.1166,-53.871 L 56.247,-53.6137 L 56.3916,-53.4949 L 56.5345,-53.4484 z
M 63.2082,-53.8122 L 63.3668,-53.915 L 63.5006,-54.0669 L 63.5955,-54.3548 L 63.5402,-54.6809 L 63.4285,-54.8839
 L 63.3084,-55.0199 L 63.1858,-55.1031 L 63.0504,-55.1482 L 62.9061,-55.1552 L 62.7782,-55.1317 L 62.5252,-55.0168
 L 62.3336,-54.8661 L 62.2846,-54.8136 L 62.3865,-54.622 L 62.513,-54.7643 L 62.7237,-54.8947 L 62.8868,-54.9304
 L 63.0298,-54.9057 L 63.1496,-54.83 L 63.2726,-54.6713 L 63.3464,-54.4893 L 63.3458,-54.2656 L 63.2794,-54.1237
 L 63.1347,-53.9982 L 62.9517,-53.9262 L 62.7691,-53.9024 L 62.8738,-53.7055 z
M 55.499,-52.8127 L 55.6139,-54.1899 L 55.5172,-54.3717 L 54.7711,-53.9751 L 54.5889,-54.3176 L 54.3779,-54.2054
 L 54.5601,-53.8629 L 54.2952,-53.722 L 54.3919,-53.5401 L 54.6568,-53.681 L 55.2023,-52.655 z
M 54.8678,-53.7932 L 55.4073,-54.08 L 55.3077,-52.9658 z
M 60.7329,-52.4902 L 61.1135,-52.7899 L 61.0145,-52.9762 L 60.7551,-52.7345 L 60.5213,-52.6266 L 60.4232,-52.6299
 L 60.2992,-52.7081 L 60.2624,-52.7632 L 60.207,-52.8674 L 60.6155,-53.1009 L 60.7514,-53.237 L 60.8174,-53.3737
 L 60.8284,-53.5029 L 60.7865,-53.6449 L 60.6409,-53.8186 L 60.4925,-53.8667 L 60.4327,-53.8665 L 60.1709,-53.7713
 L 59.967,-53.5531 L 59.9021,-53.3984 L 59.8118,-53.5554 L 59.6272,-53.4573 L 60.1378,-52.5275 L 60.3004,-52.4184
 L 60.4992,-52.4063 z
M 60.0108,-53.2365 L 60.0717,-53.3795 L 60.2767,-53.6089 L 60.4517,-53.637 L 60.5456,-53.5675 L 60.5954,-53.4229
 L 60.5693,-53.3259 L 60.4359,-53.1944 L 60.3852,-53.1649 L 60.123,-53.0254 z
M 59.201,-51.6946 L 59.4597,-51.8392 L 59.577,-52.0437 L 59.6112,-52.1678 L 59.7224,-51.98 L 59.906,-52.0776
 L 59.2727,-53.2688 L 59.0661,-53.1589 L 59.4863,-52.3687 L 59.3882,-52.05 L 59.2767,-51.9435 L 59.1358,-51.9155
 L 59.0125,-51.9846 L 58.9255,-52.109 L 58.5213,-52.8692 L 58.3156,-52.7598 L 58.8074,-51.8586 L 58.933,-51.7389
 L 59.0588,-51.6891 z
M 58.2431,-51.175 L 58.3974,-51.3463 L 58.4491,-51.4939 L 58.4301,-51.7029 L 58.3391,-51.8675 L 58.2134,-51.9636
 L 58.1663,-51.9851 L 58.1848,-52.2024 L 58.1268,-52.3463 L 58.0192,-52.4282 L 57.9281,-52.4417 L 57.9841,-52.6143
 L 57.971,-52.7481 L 57.897,-52.8749 L 57.7912,-52.9437 L 57.6476,-52.9618 L 57.5235,-52.9424 L 57.136,-52.7654
 L 56.9559,-52.6131 L 56.8232,-52.3348 L 56.8414,-52.1866 L 56.9164,-52.0548 L 57.0423,-51.9754 L 57.2099,-51.9636
 L 57.4385,-52.0375 L 57.8704,-52.2224 L 57.9726,-52.1683 L 57.9922,-52.0941 L 57.9881,-52.0115 L 57.8085,-51.9804
 L 57.6181,-51.8773 L 57.4901,-51.7425 L 57.4191,-51.57 L 57.4193,-51.4158 L 57.5267,-51.1909 L 57.6535,-51.0963
 L 57.4628,-50.9949 L 57.5525,-50.8262 z
M 57.0918,-52.2399 L 57.0573,-52.3825 L 57.1061,-52.4905 L 57.4391,-52.7133 L 57.6404,-52.745 L 57.7234,-52.6914
 L 57.7501,-52.479 L 57.7131,-52.3987 L 57.1921,-52.1876 z
M 57.7601,-51.2895 L 57.6514,-51.4513 L 57.6549,-51.6252 L 57.688,-51.6891 L 57.8392,-51.8022 L 57.9555,-51.8216
 L 58.1011,-51.7713 L 58.2076,-51.6271 L 58.2255,-51.4923 L 58.177,-51.3655 L 58.0248,-51.2531 L 57.9041,-51.2344
 z
M 54.2162,-51.9585 L 54.3996,-52.0606 L 54.5252,-52.2196 L 54.5672,-52.3758 L 54.5481,-52.5434 L 54.4433,-52.7307
 L 54.3112,-52.8329 L 54.1676,-52.8695 L 54.0745,-52.8649 L 53.8658,-52.7847 L 53.7023,-52.6267 L 53.6407,-52.47
 L 53.6422,-52.3032 L 53.7216,-52.1185 L 53.8466,-51.9928 L 54.0417,-51.9306 z
M 53.9668,-52.171 L 53.847,-52.3592 L 53.8537,-52.5141 L 53.8611,-52.5302 L 53.978,-52.6393 L 54.1346,-52.6733
 L 54.2733,-52.5934 L 54.3506,-52.4561 L 54.348,-52.2879 L 54.2491,-52.1752 L 54.0918,-52.1255 z
M 51.414,-50.4787 L 51.2,-52.843 L 51.0031,-52.7383 L 51.2171,-50.374 z
M 57.5021,-50.1765 L 57.4119,-50.3461 L 57.0588,-50.1583 L 56.3489,-51.4933 L 56.741,-51.7017 L 56.6494,-51.8739
 L 55.694,-51.366 L 55.7856,-51.1938 L 56.1405,-51.3825 L 56.9405,-49.878 z
M 48.9905,-49.3781 L 48.9963,-50.0148 L 48.8965,-50.3404 L 48.8278,-50.4812 L 48.7502,-50.6075 L 48.6613,-50.7244
 L 48.561,-50.8322 L 48.4493,-50.9306 L 48.3262,-51.0199 L 48.1717,-51.1105 L 48.0022,-51.1891 L 47.818,-51.2556
 L 47.6953,-51.291 L 47.6379,-51.0985 L 48.0027,-50.951 L 48.2828,-50.7659 L 48.4956,-50.5489 L 48.6354,-50.3344
 L 48.707,-50.1785 L 48.754,-50.0352 L 48.7855,-49.8876 L 48.8015,-49.7355 L 48.8008,-49.559 L 48.7805,-49.377
 L 48.7405,-49.1894 L 48.7097,-49.0827 L 48.895,-49.0239 z
M 55.4906,-49.7032 L 55.714,-49.8841 L 55.8246,-50.1763 L 55.778,-50.5046 L 55.6456,-50.7526 L 55.3973,-50.9787
 L 55.1456,-51.0289 L 54.7952,-50.9151 L 54.4337,-50.655 L 54.5239,-50.4855 L 54.7846,-50.685 L 55.0146,-50.794
 L 55.171,-50.8082 L 55.3007,-50.7654 L 55.4203,-50.6572 L 55.475,-50.5711 L 54.64,-50.1239 L 54.7865,-49.8631
 L 54.9857,-49.6902 L 55.1875,-49.6341 z
M 55.1634,-49.8533 L 55.0369,-49.9319 L 54.9335,-50.0793 L 55.5595,-50.4122 L 55.6104,-50.2018 L 55.5782,-50.0311
 L 55.4711,-49.9057 L 55.3156,-49.8419 z
M 48.1447,-48.9024 L 47.7236,-49.6944 L 47.2409,-49.461 L 47.0667,-49.4493 L 46.961,-49.498 L 46.8718,-49.6165
 L 46.8369,-49.767 L 46.8742,-49.9162 L 46.9909,-50.0582 L 47.2279,-50.1972 L 47.4472,-50.2802 L 47.3477,-50.4674
 L 46.9943,-50.3053 L 46.745,-50.0899 L 46.61,-49.7908 L 46.6379,-49.5293 L 46.7923,-49.3083 L 46.949,-49.2314
 L 47.1645,-49.2249 L 47.4633,-49.3297 L 47.6232,-49.4145 L 47.8547,-48.9792 L 47.2137,-48.6384 L 47.3094,-48.4583
 z
M 45.8449,-49.199 L 45.9089,-49.3213 L 45.8784,-49.4778 L 45.7962,-49.5561 L 45.7097,-49.5824 L 45.5511,-49.5353
 L 45.4706,-49.4055 L 45.4883,-49.2625 L 45.6181,-49.1487 L 45.7327,-49.1407 z
M 53.3392,-48.1658 L 53.165,-48.4934 L 53.4979,-48.6704 L 53.4058,-48.8434 L 53.073,-48.6664 L 52.6765,-49.3916
 L 52.5625,-49.4988 L 52.4407,-49.5467 L 52.29,-49.5439 L 52.278,-49.5415 L 52.0399,-49.4439 L 51.7989,-49.2733
 L 51.8933,-49.0959 L 52.2147,-49.3062 L 52.3717,-49.3177 L 52.4874,-49.245 L 52.5448,-49.1614 L 52.8663,-48.5566
 L 52.3313,-48.2721 L 52.4233,-48.099 L 52.9584,-48.3835 L 53.1607,-48.003 z
M 45.5355,-47.515 L 45.1144,-48.3071 L 44.6317,-48.0737 L 44.4576,-48.062 L 44.3519,-48.1106 L 44.2627,-48.2292
 L 44.2278,-48.3797 L 44.265,-48.5289 L 44.3817,-48.6708 L 44.6187,-48.8098 L 44.838,-48.8929 L 44.7385,-49.0801
 L 44.3851,-48.9179 L 44.1358,-48.7026 L 44.0008,-48.4035 L 44.0287,-48.142 L 44.1831,-47.921 L 44.3398,-47.8441
 L 44.5553,-47.8376 L 44.8541,-47.9424 L 45.0141,-48.0272 L 45.2455,-47.5919 L 44.6045,-47.2511 L 44.7003,-47.0709
 z
M 51.6008,-47.6345 L 51.9814,-47.9343 L 51.8823,-48.1206 L 51.623,-47.8788 L 51.3891,-47.771 L 51.2911,-47.7742
 L 51.1671,-47.8524 L 51.1303,-47.9076 L 51.0749,-48.0117 L 51.4834,-48.2453 L 51.6193,-48.3814 L 51.6853,-48.518
 L 51.6962,-48.6472 L 51.6544,-48.7893 L 51.5087,-48.963 L 51.3604,-49.0111 L 51.3006,-49.0109 L 51.0388,-48.9157
 L 50.8349,-48.6975 L 50.7699,-48.5427 L 50.6797,-48.6998 L 50.4951,-48.6016 L 51.0057,-47.6719 L 51.1683,-47.5627
 L 51.3671,-47.5507 z
M 50.8786,-48.3808 L 50.9396,-48.5238 L 51.1446,-48.7533 L 51.3196,-48.7814 L 51.4135,-48.7119 L 51.4632,-48.5672
 L 51.4372,-48.4702 L 51.3038,-48.3387 L 51.2531,-48.3092 L 50.9909,-48.1698 z
M 43.2923,-47.8713 L 43.2902,-47.9963 L 43.2216,-48.0844 L 43.0426,-48.1976 L 43.0048,-48.3121 L 43.0611,-48.4551
 L 43.1878,-48.5666 L 43.2333,-48.5912 L 43.1465,-48.7545 L 42.9441,-48.6074 L 42.8227,-48.4326 L 42.7736,-48.2123
 L 42.808,-48.0206 L 42.9493,-47.8088 L 43.0439,-47.7567 L 43.1614,-47.7566 z
M 51.0321,-46.7364 L 50.1777,-48.3434 L 50.0204,-48.3169 L 49.6352,-48.1591 L 49.4788,-48.0239 L 49.3528,-47.7641
 L 49.373,-47.4426 L 49.5221,-47.1348 L 49.6788,-46.9518 L 49.846,-46.8502 L 50,-46.8266 L 50.1772,-46.8776
 L 50.3689,-47.041 L 50.4672,-47.2838 L 50.4723,-47.3142 L 50.58,-47.0883 L 50.8255,-46.6266 z
M 49.8659,-47.1083 L 49.7503,-47.2274 L 49.6099,-47.4755 L 49.5635,-47.6724 L 49.5852,-47.8237 L 49.6372,-47.9144
 L 49.8635,-48.0606 L 50.0424,-48.0993 L 50.3499,-47.521 L 50.2446,-47.1945 L 50.1356,-47.0867 L 49.991,-47.0554
 z
M 42.5459,-45.9979 L 42.6636,-46.1763 L 42.7201,-46.3838 L 42.7085,-46.6337 L 42.6027,-46.9523 L 42.3066,-47.3946
 L 42.0567,-47.5372 L 41.8937,-47.5472 L 41.8862,-47.5463 L 41.5346,-47.388 L 41.3641,-47.1688 L 41.3226,-46.8576
 L 41.3747,-46.6911 L 41.5023,-46.5098 L 41.6738,-46.4 L 41.8898,-46.3801 L 42.1004,-46.4519 L 42.3384,-46.6304
 L 42.4373,-46.7556 L 42.5115,-46.5086 L 42.492,-46.3054 L 42.3454,-46.0841 L 42.1453,-45.9435 L 41.975,-45.8529
 L 42.0708,-45.6728 z
M 41.6505,-46.7119 L 41.5519,-46.909 L 41.5498,-47.0696 L 41.621,-47.2064 L 41.6252,-47.2111 L 41.7729,-47.3104
 L 41.9545,-47.3356 L 42.0863,-47.2738 L 42.3439,-46.9313 L 42.1872,-46.7373 L 41.9821,-46.6115 L 41.7861,-46.608
 z
M 47.3321,-45.392 L 47.2053,-46.3291 L 47.1651,-46.5603 L 47.3309,-46.4016 L 48.0411,-45.769 L 48.276,-45.8938
 L 47.1765,-46.8371 L 46.9389,-46.7108 L 47.1052,-45.2713 z
M 40.6266,-46.4244 L 40.6906,-46.5467 L 40.66,-46.7031 L 40.5778,-46.7815 L 40.4914,-46.8077 L 40.3327,-46.7606
 L 40.2522,-46.6308 L 40.2699,-46.4878 L 40.3997,-46.3741 L 40.5143,-46.3661 z
M 46.5914,-44.5281 L 46.9469,-45.0502 L 46.7776,-45.1855 L 46.5134,-44.7856 L 45.9115,-45.9176 L 46.3097,-46.1293
 L 46.2074,-46.3218 L 45.2335,-45.804 L 45.3358,-45.6115 L 45.6828,-45.796 L 46.4086,-44.431 z
M 40.3172,-44.7404 L 39.8961,-45.5324 L 39.4134,-45.299 L 39.2392,-45.2873 L 39.1335,-45.336 L 39.0443,-45.4545
 L 39.0094,-45.6051 L 39.0466,-45.7542 L 39.1633,-45.8962 L 39.4003,-46.0352 L 39.6197,-46.1182 L 39.5202,-46.3054
 L 39.1667,-46.1433 L 38.9174,-45.9279 L 38.7824,-45.6289 L 38.8104,-45.3673 L 38.9648,-45.1464 L 39.1215,-45.0694
 L 39.337,-45.063 L 39.6357,-45.1678 L 39.7957,-45.2525 L 40.0272,-44.8172 L 39.3861,-44.4764 L 39.4819,-44.2963
 z
M 38.9902,-43.9205 L 38.7846,-43.9926 L 38.6157,-44.072 L 38.4621,-44.1651 L 38.3237,-44.2719 L 38.2136,-44.3783
 L 38.1156,-44.4956 L 38.0198,-44.6404 L 37.8925,-44.9249 L 37.8309,-45.2275 L 37.8362,-45.5596 L 37.9184,-45.9362
 L 37.7336,-45.9942 L 37.6064,-45.3129 L 37.6479,-44.9293 L 37.7864,-44.5636 L 37.8632,-44.4346 L 37.9512,-44.315
 L 38.0505,-44.2048 L 38.1611,-44.104 L 38.283,-44.0125 L 38.4162,-43.9305 L 38.5823,-43.8483 L 38.7631,-43.7783
 L 38.9333,-43.7271 z
M 44.7028,-45.0525 L 44.7668,-45.1748 L 44.7363,-45.3312 L 44.6541,-45.4096 L 44.5676,-45.4358 L 44.409,-45.3887
 L 44.3285,-45.2589 L 44.3462,-45.1159 L 44.476,-45.0022 L 44.5906,-44.9942 z
M 44.0784,-43.1885 L 44.2364,-43.4001 L 44.2759,-43.5444 L 44.268,-43.7961 L 44.1179,-44.2105 L 43.8234,-44.6151
 L 43.5544,-44.7738 L 43.4153,-44.7927 L 43.1313,-44.7133 L 42.9287,-44.5408 L 42.8282,-44.2906 L 42.8407,-44.0051
 L 42.9761,-43.6383 L 43.2763,-43.2202 L 43.5413,-43.0596 L 43.8054,-43.0526 z
M 43.0988,-43.9444 L 43.0457,-44.204 L 43.0981,-44.4209 L 43.1009,-44.4254 L 43.2354,-44.5419 L 43.3749,-44.5757
 L 43.5087,-44.5466 L 43.6836,-44.4181 L 43.2858,-43.5815 z
M 43.5192,-43.3292 L 43.4303,-43.4057 L 43.8286,-44.2392 L 43.8705,-44.1709 L 44.0293,-43.807 L 44.0527,-43.54
 L 44.0019,-43.4035 L 43.8833,-43.2966 L 43.7254,-43.256 z
M 66.409,-23.6136 L 65.9879,-24.4057 L 65.5052,-24.1723 L 65.331,-24.1606 L 65.2253,-24.2092 L 65.1361,-24.3278
 L 65.1012,-24.4783 L 65.1384,-24.6275 L 65.2551,-24.7694 L 65.4921,-24.9084 L 65.7115,-24.9915 L 65.6119,-25.1787
 L 65.2585,-25.0165 L 65.0092,-24.8012 L 64.8742,-24.5021 L 64.9022,-24.2406 L 65.0566,-24.0196 L 65.2133,-23.9426
 L 65.4288,-23.9362 L 65.7275,-24.041 L 65.8875,-24.1258 L 66.1189,-23.6905 L 65.4779,-23.3497 L 65.5737,-23.1695
 z
M 64.1444,-22.8438 L 64.2423,-22.9229 L 64.2925,-23.072 L 64.2935,-23.2522 L 64.4311,-23.0918 L 64.5588,-23.0738
 L 64.7005,-23.1599 L 64.7594,-23.3517 L 64.7573,-23.4875 L 64.8868,-23.2653 L 65.0449,-23.3493 L 64.4115,-24.5404
 L 64.2217,-24.4395 L 64.6287,-23.674 L 64.5985,-23.3124 L 64.5262,-23.2831 L 64.3913,-23.4539 L 63.9454,-24.2925
 L 63.7564,-24.1921 L 64.1634,-23.4265 L 64.1444,-23.0858 L 64.0474,-23.0387 L 63.9368,-23.184 L 63.4792,-24.0446
 L 63.2893,-23.9437 L 63.802,-22.9899 L 63.8793,-22.8962 L 63.9472,-22.8458 L 64.011,-22.8232 L 64.0768,-22.8225
 z
M 62.8398,-22.1501 L 62.9377,-22.2292 L 62.9879,-22.3784 L 62.9889,-22.5585 L 63.1265,-22.3981 L 63.2542,-22.3801
 L 63.3959,-22.4662 L 63.4548,-22.6581 L 63.4527,-22.7938 L 63.5822,-22.5716 L 63.7403,-22.6556 L 63.107,-23.8467
 L 62.9171,-23.7458 L 63.3241,-22.9803 L 63.2939,-22.6187 L 63.2216,-22.5894 L 63.0867,-22.7603 L 62.6408,-23.5989
 L 62.4518,-23.4984 L 62.8588,-22.7329 L 62.8398,-22.3922 L 62.7428,-22.3451 L 62.6322,-22.4903 L 62.1746,-23.351
 L 61.9847,-23.25 L 62.4974,-22.2963 L 62.5747,-22.2025 L 62.6426,-22.1522 L 62.7064,-22.1295 L 62.7722,-22.1288
 z
M 60.5461,-20.3344 L 60.3321,-22.6986 L 60.1352,-22.5939 L 60.3492,-20.2297 z
M 67.6806,-21.2114 L 67.59,-21.3819 L 67.2368,-21.1941 L 66.7856,-22.0426 L 67.1777,-22.251 L 67.0861,-22.4232
 L 66.1308,-21.9153 L 66.2223,-21.7431 L 66.5773,-21.9318 L 67.119,-20.9129 z
M 65.8642,-19.7847 L 65.7738,-20.4853 L 65.7344,-20.7169 L 65.9062,-20.5557 L 66.4258,-20.0833 L 66.6757,-20.2162
 L 65.9272,-21.807 L 65.7277,-21.7009 L 66.2054,-20.7363 L 66.4076,-20.3455 L 66.2075,-20.5471 L 65.6739,-21.0245
 L 65.5282,-20.947 L 65.6268,-20.2078 L 65.6694,-19.953 L 64.9145,-21.2685 L 64.7079,-21.1587 L 65.6064,-19.6476
 z
M 58.1702,-19.224 L 58.5257,-19.746 L 58.3564,-19.8813 L 58.0922,-19.4815 L 57.4903,-20.6134 L 57.8885,-20.8251
 L 57.7862,-21.0176 L 56.8123,-20.4998 L 56.9146,-20.3073 L 57.2616,-20.4918 L 57.9874,-19.1268 z
M 64.6467,-19.5712 L 65.0273,-19.8709 L 64.9282,-20.0572 L 64.6689,-19.8154 L 64.435,-19.7076 L 64.337,-19.7109
 L 64.213,-19.789 L 64.1762,-19.8442 L 64.1208,-19.9484 L 64.5293,-20.1819 L 64.6652,-20.318 L 64.7312,-20.4547
 L 64.7421,-20.5838 L 64.7003,-20.7259 L 64.5546,-20.8996 L 64.4063,-20.9477 L 64.3465,-20.9475 L 64.0847,-20.8523
 L 63.8808,-20.6341 L 63.8158,-20.4794 L 63.7255,-20.6364 L 63.541,-20.5383 L 64.0516,-19.6085 L 64.2142,-19.4993
 L 64.413,-19.4873 z
M 63.9245,-20.3175 L 63.9855,-20.4604 L 64.1905,-20.6899 L 64.3654,-20.718 L 64.4594,-20.6485 L 64.5091,-20.5039
 L 64.4831,-20.4068 L 64.3497,-20.2754 L 64.299,-20.2459 L 64.0368,-20.1064 z
M 67.5483,-20.5031 L 67.6173,-20.6201 L 67.6009,-20.7284 L 67.5173,-20.8135 L 67.5005,-20.8213 L 67.3376,-20.8045
 L 67.2551,-20.6908 L 67.2677,-20.5698 L 67.3564,-20.4814 L 67.4692,-20.4667 z
M 56.8268,-18.4939 L 57.0779,-18.6707 L 57.1808,-18.8243 L 57.2379,-18.9718 L 57.0517,-19.0472 L 56.8974,-18.7769
 L 56.7155,-18.6792 L 56.5714,-18.6858 L 56.4518,-18.7671 L 56.336,-18.9974 L 56.3658,-19.3354 L 56.4255,-19.5455
 L 56.6146,-20.1569 L 56.516,-20.3423 L 55.4944,-19.7991 L 55.5991,-19.6022 L 56.3532,-20.0031 L 56.1035,-19.1191
 L 56.1166,-18.871 L 56.247,-18.6137 L 56.3916,-18.4949 L 56.5345,-18.4484 z
M 63.2082,-18.8122 L 63.3668,-18.915 L 63.5006,-19.0669 L 63.5955,-19.3548 L 63.5402,-19.6809 L 63.4285,-19.8839
 L 63.3084,-20.0199 L 63.1858,-20.1031 L 63.0504,-20.1482 L 62.9061,-20.1552 L 62.7782,-20.1317 L 62.5252,-20.0168
 L 62.3336,-19.8661 L 62.2846,-19.8136 L 62.3865,-19.622 L 62.513,-19.7643 L 62.7237,-19.8947 L 62.8868,-19.9304
 L 63.0298,-19.9057 L 63.1496,-19.83 L 63.2726,-19.6713 L 63.3464,-19.4893 L 63.3458,-19.2656 L 63.2794,-19.1237
 L 63.1347,-18.9982 L 62.9517,-18.9262 L 62.7691,-18.9024 L 62.8738,-18.7055 z
M 55.499,-17.8127 L 55.6139,-19.1899 L 55.5172,-19.3717 L 54.7711,-18.9751 L 54.5889,-19.3176 L 54.3779,-19.2054
 L 54.5601,-18.8629 L 54.2952,-18.722 L 54.3919,-18.5401 L 54.6568,-18.681 L 55.2023,-17.655 z
M 54.8678,-18.7932 L 55.4073,-19.08 L 55.3077,-17.9658 z
M 60.7329,-17.4902 L 61.1135,-17.7899 L 61.0145,-17.9762 L 60.7551,-17.7345 L 60.5213,-17.6266 L 60.4232,-17.6299
 L 60.2992,-17.7081 L 60.2624,-17.7632 L 60.207,-17.8674 L 60.6155,-18.1009 L 60.7514,-18.237 L 60.8174,-18.3737
 L 60.8284,-18.5029 L 60.7865,-18.6449 L 60.6409,-18.8186 L 60.4925,-18.8667 L 60.4327,-18.8665 L 60.1709,-18.7713
 L 59.967,-18.5531 L 59.9021,-18.3984 L 59.8118,-18.5554 L 59.6272,-18.4573 L 60.1378,-17.5275 L 60.3004,-17.4184
 L 60.4992,-17.4063 z
M 60.0108,-18.2365 L 60.0717,-18.3795 L 60.2767,-18.6089 L 60.4517,-18.637 L 60.5456,-18.5675 L 60.5954,-18.4229
 L 60.5693,-18.3259 L 60.4359,-18.1944 L 60.3852,-18.1649 L 60.123,-18.0254 z
M 59.201,-16.6946 L 59.4597,-16.8392 L 59.577,-17.0437 L 59.6112,-17.1678 L 59.7224,-16.98 L 59.906,-17.0776
 L 59.2727,-18.2688 L 59.0661,-18.1589 L 59.4863,-17.3687 L 59.3882,-17.05 L 59.2767,-16.9435 L 59.1358,-16.9155
 L 59.0125,-16.9846 L 58.9255,-17.109 L 58.5213,-17.8692 L 58.3156,-17.7598 L 58.8074,-16.8586 L 58.933,-16.7389
 L 59.0588,-16.6891 z
M 58.2431,-16.175 L 58.3974,-16.3463 L 58.4491,-16.4939 L 58.4301,-16.7029 L 58.3391,-16.8675 L 58.2134,-16.9636
 L 58.1663,-16.9851 L 58.1848,-17.2024 L 58.1268,-17.3463 L 58.0192,-17.4282 L 57.9281,-17.4417 L 57.9841,-17.6143
 L 57.971,-17.7481 L 57.897,-17.8749 L 57.7912,-17.9437 L 57.6476,-17.9618 L 57.5235,-17.9424 L 57.136,-17.7654
 L 56.9559,-17.6131 L 56.8232,-17.3348 L 56.8414,-17.1866 L 56.9164,-17.0548 L 57.0423,-16.9754 L 57.2099,-16.9636
 L 57.4385,-17.0375 L 57.8704,-17.2224 L 57.9726,-17.1683 L 57.9922,-17.0941 L 57.9881,-17.0115 L 57.8085,-16.9804
 L 57.6181,-16.8773 L 57.4901,-16.7425 L 57.4191,-16.57 L 57.4193,-16.4158 L 57.5267,-16.1909 L 57.6535,-16.0963
 L 57.4628,-15.9949 L 57.5525,-15.8262 z
M 57.0918,-17.2399 L 57.0573,-17.3825 L 57.1061,-17.4905 L 57.4391,-17.7133 L 57.6404,-17.745 L 57.7234,-17.6914
 L 57.7501,-17.479 L 57.7131,-17.3987 L 57.1921,-17.1876 z
M 57.7601,-16.2895 L 57.6514,-16.4513 L 57.6549,-16.6252 L 57.688,-16.6891 L 57.8392,-16.8022 L 57.9555,-16.8216
 L 58.1011,-16.7713 L 58.2076,-16.6271 L 58.2255,-16.4923 L 58.177,-16.3655 L 58.0248,-16.2531 L 57.9041,-16.2344
 z
M 54.2162,-16.9585 L 54.3996,-17.0606 L 54.5252,-17.2196 L 54.5672,-17.3758 L 54.5481,-17.5434 L 54.4433,-17.7307
 L 54.3112,-17.8329 L 54.1676,-17.8695 L 54.0745,-17.8649 L 53.8658,-17.7847 L 53.7023,-17.6267 L 53.6407,-17.47
 L 53.6422,-17.3032 L 53.7216,-17.1185 L 53.8466,-16.9928 L 54.0417,-16.9306 z
M 53.9668,-17.171 L 53.847,-17.3592 L 53.8537,-17.5141 L 53.8611,-17.5302 L 53.978,-17.6393 L 54.1346,-17.6733
 L 54.2733,-17.5934 L 54.3506,-17.4561 L 54.348,-17.2879 L 54.2491,-17.1752 L 54.0918,-17.1255 z
M 51.414,-15.4787 L 51.2,-17.843 L 51.0031,-17.7383 L 51.2171,-15.374 z
M 57.5021,-15.1765 L 57.4119,-15.3461 L 57.0588,-15.1583 L 56.3489,-16.4933 L 56.741,-16.7017 L 56.6494,-16.8739
 L 55.694,-16.366 L 55.7856,-16.1938 L 56.1405,-16.3825 L 56.9405,-14.878 z
M 48.9905,-14.3781 L 48.9963,-15.0148 L 48.8965,-15.3404 L 48.8278,-15.4812 L 48.7502,-15.6075 L 48.6613,-15.7244
 L 48.561,-15.8322 L 48.4493,-15.9306 L 48.3262,-16.0199 L 48.1717,-16.1105 L 48.0022,-16.1891 L 47.818,-16.2556
 L 47.6953,-16.291 L 47.6379,-16.0985 L 48.0027,-15.951 L 48.2828,-15.7659 L 48.4956,-15.5489 L 48.6354,-15.3344
 L 48.707,-15.1785 L 48.754,-15.0352 L 48.7855,-14.8876 L 48.8015,-14.7355 L 48.8008,-14.559 L 48.7805,-14.377
 L 48.7405,-14.1894 L 48.7097,-14.0827 L 48.895,-14.0239 z
M 55.4906,-14.7032 L 55.714,-14.8841 L 55.8246,-15.1763 L 55.778,-15.5046 L 55.6456,-15.7526 L 55.3973,-15.9787
 L 55.1456,-16.0289 L 54.7952,-15.9151 L 54.4337,-15.655 L 54.5239,-15.4855 L 54.7846,-15.685 L 55.0146,-15.794
 L 55.171,-15.8082 L 55.3007,-15.7654 L 55.4203,-15.6572 L 55.475,-15.5711 L 54.64,-15.1239 L 54.7865,-14.8631
 L 54.9857,-14.6902 L 55.1875,-14.6341 z
M 55.1634,-14.8533 L 55.0369,-14.9319 L 54.9335,-15.0793 L 55.5595,-15.4122 L 55.6104,-15.2018 L 55.5782,-15.0311
 L 55.4711,-14.9057 L 55.3156,-14.8419 z
M 48.1447,-13.9024 L 47.7236,-14.6944 L 47.2409,-14.461 L 47.0667,-14.4493 L 46.961,-14.498 L 46.8718,-14.6165
 L 46.8369,-14.767 L 46.8742,-14.9162 L 46.9909,-15.0582 L 47.2279,-15.1972 L 47.4472,-15.2802 L 47.3477,-15.4674
 L 46.9943,-15.3053 L 46.745,-15.0899 L 46.61,-14.7908 L 46.6379,-14.5293 L 46.7923,-14.3083 L 46.949,-14.2314
 L 47.1645,-14.2249 L 47.4633,-14.3297 L 47.6232,-14.4145 L 47.8547,-13.9792 L 47.2137,-13.6384 L 47.3094,-13.4583
 z
M 45.8449,-14.199 L 45.9089,-14.3213 L 45.8784,-14.4778 L 45.7962,-14.5561 L 45.7097,-14.5824 L 45.5511,-14.5353
 L 45.4706,-14.4055 L 45.4883,-14.2625 L 45.6181,-14.1487 L 45.7327,-14.1407 z
M 53.3392,-13.1658 L 53.165,-13.4934 L 53.4979,-13.6704 L 53.4058,-13.8434 L 53.073,-13.6664 L 52.6765,-14.3916
 L 52.5625,-14.4988 L 52.4407,-14.5467 L 52.29,-14.5439 L 52.278,-14.5415 L 52.0399,-14.4439 L 51.7989,-14.2733
 L 51.8933,-14.0959 L 52.2147,-14.3062 L 52.3717,-14.3177 L 52.4874,-14.245 L 52.5448,-14.1614 L 52.8663,-13.5566
 L 52.3313,-13.2721 L 52.4233,-13.099 L 52.9584,-13.3835 L 53.1607,-13.003 z
M 45.5355,-12.515 L 45.1144,-13.3071 L 44.6317,-13.0737 L 44.4576,-13.062 L 44.3519,-13.1106 L 44.2627,-13.2292
 L 44.2278,-13.3797 L 44.265,-13.5289 L 44.3817,-13.6708 L 44.6187,-13.8098 L 44.838,-13.8929 L 44.7385,-14.0801
 L 44.3851,-13.9179 L 44.1358,-13.7026 L 44.0008,-13.4035 L 44.0287,-13.142 L 44.1831,-12.921 L 44.3398,-12.8441
 L 44.5553,-12.8376 L 44.8541,-12.9424 L 45.0141,-13.0272 L 45.2455,-12.5919 L 44.6045,-12.2511 L 44.7003,-12.0709
 z
M 51.6008,-12.6345 L 51.9814,-12.9343 L 51.8823,-13.1206 L 51.623,-12.8788 L 51.3891,-12.771 L 51.2911,-12.7742
 L 51.1671,-12.8524 L 51.1303,-12.9076 L 51.0749,-13.0117 L 51.4834,-13.2453 L 51.6193,-13.3814 L 51.6853,-13.518
 L 51.6962,-13.6472 L 51.6544,-13.7893 L 51.5087,-13.963 L 51.3604,-14.0111 L 51.3006,-14.0109 L 51.0388,-13.9157
 L 50.8349,-13.6975 L 50.7699,-13.5427 L 50.6797,-13.6998 L 50.4951,-13.6016 L 51.0057,-12.6719 L 51.1683,-12.5627
 L 51.3671,-12.5507 z
M 50.8786,-13.3808 L 50.9396,-13.5238 L 51.1446,-13.7533 L 51.3196,-13.7814 L 51.4135,-13.7119 L 51.4632,-13.5672
 L 51.4372,-13.4702 L 51.3038,-13.3387 L 51.2531,-13.3092 L 50.9909,-13.1698 z
M 43.2923,-12.8713 L 43.2902,-12.9963 L 43.2216,-13.0844 L 43.0426,-13.1976 L 43.0048,-13.3121 L 43.0611,-13.4551
 L 43.1878,-13.5666 L 43.2333,-13.5912 L 43.1465,-13.7545 L 42.9441,-13.6074 L 42.8227,-13.4326 L 42.7736,-13.2123
 L 42.808,-13.0206 L 42.9493,-12.8088 L 43.0439,-12.7567 L 43.1614,-12.7566 z
M 51.0321,-11.7364 L 50.1777,-13.3434 L 50.0204,-13.3169 L 49.6352,-13.1591 L 49.4788,-13.0239 L 49.3528,-12.7641
 L 49.373,-12.4426 L 49.5221,-12.1348 L 49.6788,-11.9518 L 49.846,-11.8502 L 50,-11.8266 L 50.1772,-11.8776
 L 50.3689,-12.041 L 50.4672,-12.2838 L 50.4723,-12.3142 L 50.58,-12.0883 L 50.8255,-11.6266 z
M 49.8659,-12.1083 L 49.7503,-12.2274 L 49.6099,-12.4755 L 49.5635,-12.6724 L 49.5852,-12.8237 L 49.6372,-12.9144
 L 49.8635,-13.0606 L 50.0424,-13.0993 L 50.3499,-12.521 L 50.2446,-12.1945 L 50.1356,-12.0867 L 49.991,-12.0554
 z
M 42.5459,-10.9979 L 42.6636,-11.1763 L 42.7201,-11.3838 L 42.7085,-11.6337 L 42.6027,-11.9523 L 42.3066,-12.3946
 L 42.0567,-12.5372 L 41.8937,-12.5472 L 41.8862,-12.5463 L 41.5346,-12.388 L 41.3641,-12.1688 L 41.3226,-11.8576
 L 41.3747,-11.6911 L 41.5023,-11.5098 L 41.6738,-11.4 L 41.8898,-11.3801 L 42.1004,-11.4519 L 42.3384,-11.6304
 L 42.4373,-11.7556 L 42.5115,-11.5086 L 42.492,-11.3054 L 42.3454,-11.0841 L 42.1453,-10.9435 L 41.975,-10.8529
 L 42.0708,-10.6728 z
M 41.6505,-11.7119 L 41.5519,-11.909 L 41.5498,-12.0696 L 41.621,-12.2064 L 41.6252,-12.2111 L 41.7729,-12.3104
 L 41.9545,-12.3356 L 42.0863,-12.2738 L 42.3439,-11.9313 L 42.1872,-11.7373 L 41.9821,-11.6115 L 41.7861,-11.608
 z
M 41.5994,-10.3078 L 41.3938,-10.38 L 41.2249,-10.4594 L 41.0712,-10.5525 L 40.9329,-10.6593 L 40.8228,-10.7657
 L 40.7248,-10.8829 L 40.6289,-11.0277 L 40.5016,-11.3122 L 40.44,-11.6148 L 40.4454,-11.9469 L 40.5276,-12.3236
 L 40.3428,-12.3816 L 40.2156,-11.7002 L 40.257,-11.3166 L 40.3956,-10.9509 L 40.4723,-10.8219 L 40.5603,-10.7023
 L 40.6597,-10.5921 L 40.7703,-10.4913 L 40.8922,-10.3999 L 41.0254,-10.3178 L 41.1914,-10.2356 L 41.3723,-10.1656
 L 41.5425,-10.1145 z
M 47.3321,-10.392 L 47.2053,-11.3291 L 47.1651,-11.5603 L 47.3309,-11.4016 L 48.0411,-10.769 L 48.276,-10.8938
 L 47.1765,-11.8371 L 46.9389,-11.7108 L 47.1052,-10.2713 z
M 46.5914,-9.52812 L 46.9469,-10.0502 L 46.7776,-10.1855 L 46.5134,-9.78564 L 45.9115,-10.9176 L 46.3097,-11.1293
 L 46.2074,-11.3218 L 45.2335,-10.804 L 45.3358,-10.6115 L 45.6828,-10.796 L 46.4086,-9.43095 z
M 44.7028,-10.0525 L 44.7668,-10.1748 L 44.7363,-10.3312 L 44.6541,-10.4096 L 44.5676,-10.4358 L 44.409,-10.3887
 L 44.3285,-10.2589 L 44.3462,-10.1159 L 44.476,-10.0022 L 44.5906,-9.99417 z
M 44.0784,-8.18846 L 44.2364,-8.40013 L 44.2759,-8.54445 L 44.268,-8.79613 L 44.1179,-9.21051 L 43.8234,-9.61508
 L 43.5544,-9.77379 L 43.4153,-9.79272 L 43.1313,-9.71333 L 42.9287,-9.54083 L 42.8282,-9.29059 L 42.8407,-9.00513
 L 42.9761,-8.63828 L 43.2763,-8.22018 L 43.5413,-8.0596 L 43.8054,-8.05255 z
M 43.0988,-8.9444 L 43.0457,-9.20403 L 43.0981,-9.4209 L 43.1009,-9.42535 L 43.2354,-9.5419 L 43.3749,-9.57573
 L 43.5087,-9.54663 L 43.6836,-9.41812 L 43.2858,-8.58145 z
M 43.5192,-8.32924 L 43.4303,-8.40567 L 43.8286,-9.23924 L 43.8705,-9.17094 L 44.0293,-8.80699 L 44.0527,-8.53996
 L 44.0019,-8.40353 L 43.8833,-8.29662 L 43.7254,-8.25603 z
" stroke="black" fill="lightgray" stroke-width="0.5"/></svg>
