<?xml version="1.0" encoding="UTF-8" standalone="no"?>
<svg
   width="240mm"
   height="200mm"
   version="1.1"
   viewBox="0 0 240 200"
   id="svg38"
   sodipodi:docname="rad_plate_v5.svg"
   inkscape:version="1.1 (c68e22c387, 2021-05-23)"
   inkscape:label="radiator_plate_mount"
   xmlns:inkscape="http://www.inkscape.org/namespaces/inkscape"
   xmlns:sodipodi="http://sodipodi.sourceforge.net/DTD/sodipodi-0.dtd"
   xmlns="http://www.w3.org/2000/svg"
   xmlns:svg="http://www.w3.org/2000/svg">
  <sodipodi:namedview
     id="namedview40"
     pagecolor="#ffffff"
     bordercolor="#666666"
     borderopacity="1.0"
     inkscape:pageshadow="2"
     inkscape:pageopacity="0.0"
     inkscape:pagecheckerboard="0"
     inkscape:document-units="mm"
     showgrid="true"
     inkscape:snap-bbox="true"
     inkscape:bbox-nodes="true"
     inkscape:zoom="0.57818615"
     inkscape:cx="345.90936"
     inkscape:cy="411.63214"
     inkscape:window-width="1620"
     inkscape:window-height="1018"
     inkscape:window-x="-6"
     inkscape:window-y="-6"
     inkscape:window-maximized="1"
     inkscape:current-layer="svg38">
    <inkscape:grid
       type="xygrid"
       id="grid1100"
       units="mm"
       spacingx="0.99999999"
       spacingy="0.99999999"
       originx="0"
       originy="0"
       dotted="false"
       empspacing="10" />
  </sodipodi:namedview>
  <desc
     id="desc2">Created with the Front Panel Designer by the export of the file 'rad_plate_v5.fpd'.</desc>
  <defs
     id="defs14">
    <pattern
       id="revside-fill"
       x="1"
       y="1"
       width="2.400"
       height="2.400"
       patternUnits="userSpaceOnUse">
      <line
         x1="0"
         y1="0"
         x2="2.400"
         y2="2.400"
         style="stroke-width:0.240; stroke:black; stroke-dasharray:none;"
         id="line4" />
      <line
         x1="0"
         y1="2.400"
         x2="2.400"
         y2="0"
         style="stroke-width:0.240; stroke:black; stroke-dasharray:none;"
         id="line6" />
    </pattern>
    <pattern
       id="revside-fill-silver"
       x="1"
       y="1"
       width="2.400"
       height="2.400"
       patternUnits="userSpaceOnUse">
      <line
         x1="0"
         y1="0"
         x2="2.400"
         y2="2.400"
         style="stroke-width:0.240; stroke:#e0e0e0; stroke-dasharray:none;"
         id="line9" />
      <line
         x1="0"
         y1="2.400"
         x2="2.400"
         y2="0"
         style="stroke-width:0.240; stroke:#e0e0e0; stroke-dasharray:none;"
         id="line11" />
    </pattern>
  </defs>
  <path
     id="rect1124"
     style="fill:#0000ff;fill-opacity:1;stroke-width:0.0107238"
     inkscape:label="radiator_plate_mount"
     d="M 0,0 V 200.00019 H 239.99982 V 0 Z m 33.499763,5.8001627 a 1.6999999,1.7000005 0 1 1 0,3.3997929 1.6999999,1.7000005 0 1 1 0,-3.3997929 z m 185.000077,0 a 1.6999999,1.7000005 0 1 1 0,3.3997929 1.6999999,1.7000005 0 1 1 0,-3.3997929 z M 48.793921,7.4998013 H 203.20568 L 220.99994,25.294062 V 174.70613 L 203.2062,192.49988 H 48.793405 l -7.793842,-7.79436 V 15.294672 Z M 14.49989,41.00008 a 10.000165,10.000169 0 0 1 0,20.000331 10.000165,10.000169 0 0 1 0,-20.000331 z m 0,98.00022 a 10,10.000003 0 1 1 0,19.99981 10,10.000003 0 1 1 0,-19.99981 z m 18.999873,51.79994 a 1.6999999,1.7000005 0 0 1 0,3.39979 1.6999999,1.7000005 0 1 1 0,-3.39979 z m 185.000077,0 a 1.6999999,1.7000005 0 0 1 0,3.39979 1.6999999,1.7000005 0 1 1 0,-3.39979 z" />
</svg>
