<?xml version="1.0" standalone="no"?>
<!DOCTYPE svg PUBLIC "-//W3C//DTD SVG 1.1//EN" 
  "http://www.w3.org/Graphics/SVG/1.1/DTD/svg11.dtd">
<svg width="200.000mm" height="200.000mm" version="1.1"
     viewBox="0 0 200.000 200.000"
     xmlns="http://www.w3.org/2000/svg"  xmlns:xlink="http://www.w3.org/1999/xlink" 
     xmlns:fpd="http://www.schaeffer-ag.de">
  <desc>Created with the Front Panel Designer by the export of the file 'Untitled1.fpd'.</desc>
  <defs>
    <pattern id="revside-fill" x="1" y="1" width="2.000" height="2.000" patternUnits="userSpaceOnUse">
      <line x1="0" y1="0" x2="2.000" y2="2.000" style="stroke-width:0.200; stroke:black; stroke-dasharray:none;" />
      <line x1="0" y1="2.000" x2="2.000" y2="0" style="stroke-width:0.200; stroke:black; stroke-dasharray:none;" />
    </pattern>
    <pattern id="revside-fill-silver" x="1" y="1" width="2.000" height="2.000" patternUnits="userSpaceOnUse">
      <line x1="0" y1="0" x2="2.000" y2="2.000" style="stroke-width:0.200; stroke:#e0e0e0; stroke-dasharray:none;" />
      <line x1="0" y1="2.000" x2="2.000" y2="0" style="stroke-width:0.200; stroke:#e0e0e0; stroke-dasharray:none;" />
    </pattern>
  </defs>
<g transform="scale(1,-1) translate( -0.000, -200.000)" 
   fill-rule="evenodd"
   style="stroke-linecap:round; stroke-linejoin:round; stroke-opacity:1.0; stroke-opacity:1.0;">
<path d="
M198.000 200.000
A2.000,2.000 0 0,0 200.000,198.000
L200.000 2.000
A2.000,2.000 0 0,0 198.000,0.000
L2.000 0.000
A2.000,2.000 0 0,0 0.000,2.000
L0.000 198.000
A2.000,2.000 0 0,0 2.000,200.000
L198.000 200.000
" 
fill="#eeeeee" fill-opacity="1.000000" vector-effect="non-scaling-stroke" stroke="#000000" stroke-width="0.100mm" stroke-opacity="1.000000" fpd:visible="front back" />
<path d="
M180.350 17.500
A2.150,2.150 0 1,0 184.650,17.500
A2.150,2.150 0 1,0 180.350,17.500
" 
fill="#ffffff" fill-opacity="1.000000" vector-effect="non-scaling-stroke" stroke="#000000" stroke-width="0.100mm" stroke-opacity="1.000000" fpd:visible="front back" fpd:print_element="0" />
<path d="
M15.350 17.500
A2.150,2.150 0 1,0 19.650,17.500
A2.150,2.150 0 1,0 15.350,17.500
" 
fill="#ffffff" fill-opacity="1.000000" vector-effect="non-scaling-stroke" stroke="#000000" stroke-width="0.100mm" stroke-opacity="1.000000" fpd:visible="front back" fpd:print_element="0" />
<path d="
M15.350 182.500
A2.150,2.150 0 1,0 19.650,182.500
A2.150,2.150 0 1,0 15.350,182.500
" 
fill="#ffffff" fill-opacity="1.000000" vector-effect="non-scaling-stroke" stroke="#000000" stroke-width="0.100mm" stroke-opacity="1.000000" fpd:visible="front back" fpd:print_element="0" />
<path d="
M180.350 182.500
A2.150,2.150 0 1,0 184.650,182.500
A2.150,2.150 0 1,0 180.350,182.500
" 
fill="#ffffff" fill-opacity="1.000000" vector-effect="non-scaling-stroke" stroke="#000000" stroke-width="0.100mm" stroke-opacity="1.000000" fpd:visible="front back" fpd:print_element="0" />
<path d="
M5.000 6.500
A1.500,1.500 0 0,1 6.500,5.000
L193.500 5.000
A1.500,1.500 0 0,1 195.000,6.500
L195.000 193.500
A1.500,1.500 0 0,1 193.500,195.000
L6.500 195.000
A1.500,1.500 0 0,1 5.000,193.500
L5.000 6.500
" 
fill="#ffffff" fill-opacity="1.000000" vector-effect="non-scaling-stroke" stroke="#000000" stroke-width="0.100mm" stroke-opacity="1.000000" fpd:visible="front back" fpd:print_element="0" />
<path d="
M98.939 -47.432
A1.500,1.500 0 0,1 101.061,-47.432
L247.432 98.939
A1.500,1.500 0 0,1 247.432,101.061
L101.061 247.432
A1.500,1.500 0 0,1 98.939,247.432
L-47.432 101.061
A1.500,1.500 0 0,1 -47.432,98.939
L98.939 -47.432
" 
fill="#ffffff" fill-opacity="1.000000" vector-effect="non-scaling-stroke" stroke="#000000" stroke-width="0.100mm" stroke-opacity="1.000000" fpd:visible="front back" fpd:print_element="0" />
<path d="
M198.000 200.000
A2.000,2.000 0 0,0 200.000,198.000
L200.000 2.000
A2.000,2.000 0 0,0 198.000,0.000
L2.000 0.000
A2.000,2.000 0 0,0 0.000,2.000
L0.000 198.000
A2.000,2.000 0 0,0 2.000,200.000
L198.000 200.000
" 
fill="none" vector-effect="non-scaling-stroke" stroke="#000000" stroke-width="0.100mm" stroke-opacity="1.000000" fpd:visible="front back" />
</g>
</svg>
