<?xml version="1.0" encoding="UTF-8" standalone="no"?>
<svg
   width="200.000mm"
   height="300.000mm"
   version="1.1"
   viewBox="0 0 200.000 300.000"
   id="svg56"
   sodipodi:docname="rad_plate_v2_step2.svg"
   inkscape:version="1.1 (c68e22c387, 2021-05-23)"
   xmlns:inkscape="http://www.inkscape.org/namespaces/inkscape"
   xmlns:sodipodi="http://sodipodi.sourceforge.net/DTD/sodipodi-0.dtd"
   xmlns="http://www.w3.org/2000/svg"
   xmlns:svg="http://www.w3.org/2000/svg"
   xmlns:fpd="http://www.schaeffer-ag.de">
  <sodipodi:namedview
     id="namedview58"
     pagecolor="#ffffff"
     bordercolor="#666666"
     borderopacity="1.0"
     inkscape:pageshadow="2"
     inkscape:pageopacity="0.0"
     inkscape:pagecheckerboard="0"
     inkscape:document-units="mm"
     showgrid="false"
     inkscape:zoom="0.47894699"
     inkscape:cx="582.52793"
     inkscape:cy="699.4511"
     inkscape:window-width="1620"
     inkscape:window-height="1018"
     inkscape:window-x="-6"
     inkscape:window-y="-6"
     inkscape:window-maximized="1"
     inkscape:current-layer="g54" />
  <desc
     id="desc2">Created with the Front Panel Designer by the export of the file 'rad_plate.fpd'.</desc>
  <defs
     id="defs14">
    <pattern
       id="revside-fill"
       x="1"
       y="1"
       width="3.000"
       height="3.000"
       patternUnits="userSpaceOnUse">
      <line
         x1="0"
         y1="0"
         x2="3.000"
         y2="3.000"
         style="stroke-width:0.300; stroke:black; stroke-dasharray:none;"
         id="line4" />
      <line
         x1="0"
         y1="3.000"
         x2="3.000"
         y2="0"
         style="stroke-width:0.300; stroke:black; stroke-dasharray:none;"
         id="line6" />
    </pattern>
    <pattern
       id="revside-fill-silver"
       x="1"
       y="1"
       width="3.000"
       height="3.000"
       patternUnits="userSpaceOnUse">
      <line
         x1="0"
         y1="0"
         x2="3.000"
         y2="3.000"
         style="stroke-width:0.300; stroke:#e0e0e0; stroke-dasharray:none;"
         id="line9" />
      <line
         x1="0"
         y1="3.000"
         x2="3.000"
         y2="0"
         style="stroke-width:0.300; stroke:#e0e0e0; stroke-dasharray:none;"
         id="line11" />
    </pattern>
  </defs>
  <g
     transform="matrix(1,0,0,-1,0,300)"
     fill-rule="evenodd"
     style="stroke-linecap:round;stroke-linejoin:round;stroke-opacity:1"
     id="g54">
    <path
       style="fill:none;fill-opacity:1;stroke:#ff0000;stroke-opacity:1;stroke-width:0.03779528;stroke-miterlimit:4;stroke-dasharray:none"
       d="M 7.5585938,0 A 7.5590548,7.5590548 0 0 0 0,7.5585938 V 982.67773 h 240 a 5.6692912,5.6692912 0 0 1 5.66992,5.66797 v 145.5117 h 122.83399 v -32.125 a 5.6692913,5.6692913 0 0 1 5.66992,-5.6699 h 7.55859 a 5.6692913,5.6692913 0 0 1 5.66992,5.6699 v 32.125 H 510.23633 V 988.3457 a 5.6692911,5.6692911 0 0 1 5.66992,-5.66797 h 240 V 7.5585938 A 7.5590548,7.5590548 0 0 0 748.3457,0 H 566.92969 v 98.267578 a 5.669291,5.669291 0 0 1 -5.66992,5.669922 H 194.64648 a 5.669291,5.669291 0 0 1 -5.66992,-5.669922 V 0 Z"
       transform="matrix(0.26458333,0,0,-0.26458333,0,300)"
       id="path16" />
    <g
       id="g1300"
       style="stroke:#ff0000;stroke-opacity:1;stroke-width:0.01;stroke-miterlimit:4;stroke-dasharray:none">
      <path
         d="m 190.8,62.5 a 1.7,1.7 0 1 0 3.4,0 1.7,1.7 0 1 0 -3.4,0"
         fill="#ffffff"
         fill-opacity="1"
         vector-effect="non-scaling-stroke"
         stroke="#000000"
         stroke-width="0.1mm"
         stroke-opacity="1"
         fpd:visible="front back"
         fpd:print_element="0"
         id="path18"
         style="stroke:#ff0000;stroke-opacity:1;stroke-width:0.01;stroke-miterlimit:4;stroke-dasharray:none" />
      <path
         d="m 5.8,62.5 a 1.7,1.7 0 1 0 3.4,0 1.7,1.7 0 1 0 -3.4,0"
         fill="#ffffff"
         fill-opacity="1"
         vector-effect="non-scaling-stroke"
         stroke="#000000"
         stroke-width="0.1mm"
         stroke-opacity="1"
         fpd:visible="front back"
         fpd:print_element="0"
         id="path20"
         style="stroke:#ff0000;stroke-opacity:1;stroke-width:0.01;stroke-miterlimit:4;stroke-dasharray:none" />
      <path
         d="m 5.8,247.5 a 1.7,1.7 0 1 0 3.4,0 1.7,1.7 0 1 0 -3.4,0"
         fill="#ffffff"
         fill-opacity="1"
         vector-effect="non-scaling-stroke"
         stroke="#000000"
         stroke-width="0.1mm"
         stroke-opacity="1"
         fpd:visible="front back"
         fpd:print_element="0"
         id="path22"
         style="stroke:#ff0000;stroke-opacity:1;stroke-width:0.01;stroke-miterlimit:4;stroke-dasharray:none" />
      <path
         d="m 190.8,247.5 a 1.7,1.7 0 1 0 3.4,0 1.7,1.7 0 1 0 -3.4,0"
         fill="#ffffff"
         fill-opacity="1"
         vector-effect="non-scaling-stroke"
         stroke="#000000"
         stroke-width="0.1mm"
         stroke-opacity="1"
         fpd:visible="front back"
         fpd:print_element="0"
         id="path24"
         style="stroke:#ff0000;stroke-opacity:1;stroke-width:0.01;stroke-miterlimit:4;stroke-dasharray:none" />
    </g>
    <path
       id="path26"
       d="m 95.599609,188.97656 -67.253906,67.25391 v 583.60156 l 67.253906,67.25391 H 660.30664 l 67.25195,-67.25196 V 256.22852 l -67.25195,-67.25196 z"
       transform="matrix(0.26458333,0,0,-0.26458333,0,300)"
       style="fill:none;stroke:#ff0000;stroke-opacity:1;stroke-width:0.03779528;stroke-miterlimit:4;stroke-dasharray:none" />
    <g
       id="g1378"
       style="stroke:#ff0000;stroke-opacity:1;stroke-width:0.01;stroke-miterlimit:4;stroke-dasharray:none">
      <path
         d="m 6.7,290 a 3.3,3.3 0 1 0 6.6,0 3.3,3.3 0 1 0 -6.6,0"
         fill="#ffffff"
         fill-opacity="1"
         vector-effect="non-scaling-stroke"
         stroke="#000000"
         stroke-width="0.1mm"
         stroke-opacity="1"
         fpd:visible="front back"
         fpd:print_element="0"
         id="path38"
         style="fill:none;stroke:#ff0000;stroke-opacity:1;stroke-width:0.01;stroke-miterlimit:4;stroke-dasharray:none" />
      <path
         d="m 36.7,290 a 3.3,3.3 0 1 0 6.6,0 3.3,3.3 0 1 0 -6.6,0"
         fill="#ffffff"
         fill-opacity="1"
         vector-effect="non-scaling-stroke"
         stroke="#000000"
         stroke-width="0.1mm"
         stroke-opacity="1"
         fpd:visible="front back"
         fpd:print_element="0"
         id="path40"
         style="fill:none;stroke:#ff0000;stroke-opacity:1;stroke-width:0.01;stroke-miterlimit:4;stroke-dasharray:none" />
      <path
         d="m 186.7,290 a 3.3,3.3 0 1 0 6.6,0 3.3,3.3 0 1 0 -6.6,0"
         fill="#ffffff"
         fill-opacity="1"
         vector-effect="non-scaling-stroke"
         stroke="#000000"
         stroke-width="0.1mm"
         stroke-opacity="1"
         fpd:visible="front back"
         fpd:print_element="0"
         id="path42"
         style="fill:none;stroke:#ff0000;stroke-opacity:1;stroke-width:0.01;stroke-miterlimit:4;stroke-dasharray:none" />
      <path
         d="m 156.7,290 a 3.3,3.3 0 1 0 6.6,0 3.3,3.3 0 1 0 -6.6,0"
         fill="#ffffff"
         fill-opacity="1"
         vector-effect="non-scaling-stroke"
         stroke="#000000"
         stroke-width="0.1mm"
         stroke-opacity="1"
         fpd:visible="front back"
         fpd:print_element="0"
         id="path44"
         style="fill:none;stroke:#ff0000;stroke-opacity:1;stroke-width:0.01;stroke-miterlimit:4;stroke-dasharray:none" />
    </g>
    <g
       id="g1382"
       style="stroke:#ff0000;stroke-opacity:1;stroke-width:0.01;stroke-miterlimit:4;stroke-dasharray:none">
      <path
         d="m 111.7,10 a 3.3,3.3 0 1 0 6.6,0 3.3,3.3 0 1 0 -6.6,0"
         fill="#ffffff"
         fill-opacity="1"
         vector-effect="non-scaling-stroke"
         stroke="#000000"
         stroke-width="0.1mm"
         stroke-opacity="1"
         fpd:visible="front back"
         fpd:print_element="0"
         id="path46"
         style="stroke:#ff0000;stroke-opacity:1;stroke-width:0.01;stroke-miterlimit:4;stroke-dasharray:none" />
      <path
         d="m 81.7,10 a 3.3,3.3 0 1 0 6.6,0 3.3,3.3 0 1 0 -6.6,0"
         fill="#ffffff"
         fill-opacity="1"
         vector-effect="non-scaling-stroke"
         stroke="#000000"
         stroke-width="0.1mm"
         stroke-opacity="1"
         fpd:visible="front back"
         fpd:print_element="0"
         id="path48"
         style="stroke:#ff0000;stroke-opacity:1;stroke-width:0.01;stroke-miterlimit:4;stroke-dasharray:none" />
    </g>
  </g>
</svg>
