<?xml version="1.0" standalone="no"?>
<!DOCTYPE svg PUBLIC "-//W3C//DTD SVG 1.1//EN" 
  "http://www.w3.org/Graphics/SVG/1.1/DTD/svg11.dtd">
<svg width="200.000mm" height="300.000mm" version="1.1"
     viewBox="0 0 200.000 300.000"
     xmlns="http://www.w3.org/2000/svg"  xmlns:xlink="http://www.w3.org/1999/xlink" 
     xmlns:fpd="http://www.schaeffer-ag.de">
  <desc>Created with the Front Panel Designer by the export of the file 'rad_plate.fpd'.</desc>
  <defs>
    <pattern id="revside-fill" x="1" y="1" width="3.000" height="3.000" patternUnits="userSpaceOnUse">
      <line x1="0" y1="0" x2="3.000" y2="3.000" style="stroke-width:0.300; stroke:black; stroke-dasharray:none;" />
      <line x1="0" y1="3.000" x2="3.000" y2="0" style="stroke-width:0.300; stroke:black; stroke-dasharray:none;" />
    </pattern>
    <pattern id="revside-fill-silver" x="1" y="1" width="3.000" height="3.000" patternUnits="userSpaceOnUse">
      <line x1="0" y1="0" x2="3.000" y2="3.000" style="stroke-width:0.300; stroke:#e0e0e0; stroke-dasharray:none;" />
      <line x1="0" y1="3.000" x2="3.000" y2="0" style="stroke-width:0.300; stroke:#e0e0e0; stroke-dasharray:none;" />
    </pattern>
  </defs>
<g transform="scale(1,-1) translate( -0.000, -300.000)" 
   fill-rule="evenodd"
   style="stroke-linecap:round; stroke-linejoin:round; stroke-opacity:1.0; stroke-opacity:1.0;">
<path d="
M198.000 300.000
A2.000,2.000 0 0,0 200.000,298.000
L200.000 2.000
A2.000,2.000 0 0,0 198.000,0.000
L2.000 0.000
A2.000,2.000 0 0,0 0.000,2.000
L0.000 298.000
A2.000,2.000 0 0,0 2.000,300.000
L198.000 300.000
" 
fill="#eeeeee" fill-opacity="1.000000" vector-effect="non-scaling-stroke" stroke="#000000" stroke-width="0.100mm" stroke-opacity="1.000000" fpd:visible="front back" />
<path d="
M190.800 62.500
A1.700,1.700 0 1,0 194.200,62.500
A1.700,1.700 0 1,0 190.800,62.500
" 
fill="#ffffff" fill-opacity="1.000000" vector-effect="non-scaling-stroke" stroke="#000000" stroke-width="0.100mm" stroke-opacity="1.000000" fpd:visible="front back" fpd:print_element="0" />
<path d="
M5.800 62.500
A1.700,1.700 0 1,0 9.200,62.500
A1.700,1.700 0 1,0 5.800,62.500
" 
fill="#ffffff" fill-opacity="1.000000" vector-effect="non-scaling-stroke" stroke="#000000" stroke-width="0.100mm" stroke-opacity="1.000000" fpd:visible="front back" fpd:print_element="0" />
<path d="
M5.800 247.500
A1.700,1.700 0 1,0 9.200,247.500
A1.700,1.700 0 1,0 5.800,247.500
" 
fill="#ffffff" fill-opacity="1.000000" vector-effect="non-scaling-stroke" stroke="#000000" stroke-width="0.100mm" stroke-opacity="1.000000" fpd:visible="front back" fpd:print_element="0" />
<path d="
M190.800 247.500
A1.700,1.700 0 1,0 194.200,247.500
A1.700,1.700 0 1,0 190.800,247.500
" 
fill="#ffffff" fill-opacity="1.000000" vector-effect="non-scaling-stroke" stroke="#000000" stroke-width="0.100mm" stroke-opacity="1.000000" fpd:visible="front back" fpd:print_element="0" />
<path d="
M7.500 71.500
A1.500,1.500 0 0,1 9.000,70.000
L191.000 70.000
A1.500,1.500 0 0,1 192.500,71.500
L192.500 248.500
A1.500,1.500 0 0,1 191.000,250.000
L9.000 250.000
A1.500,1.500 0 0,1 7.500,248.500
L7.500 71.500
" 
fill="#ffffff" fill-opacity="1.000000" vector-effect="non-scaling-stroke" stroke="#000000" stroke-width="0.100mm" stroke-opacity="1.000000" fpd:visible="front back" fpd:print_element="0" />
<path d="
M98.939 -13.645
A1.500,1.500 0 0,1 101.061,-13.645
L268.645 153.939
A1.500,1.500 0 0,1 268.645,156.061
L101.061 323.645
A1.500,1.500 0 0,1 98.939,323.645
L-68.645 156.061
A1.500,1.500 0 0,1 -68.645,153.939
L98.939 -13.645
" 
fill="#ffffff" fill-opacity="1.000000" vector-effect="non-scaling-stroke" stroke="#000000" stroke-width="0.100mm" stroke-opacity="1.000000" fpd:visible="front back" fpd:print_element="0" />
<path d="
M50.000 264.000
A1.500,1.500 0 0,1 51.500,262.500
L148.500 262.500
A1.500,1.500 0 0,1 150.000,264.000
L150.000 306.000
A1.500,1.500 0 0,1 148.500,307.500
L51.500 307.500
A1.500,1.500 0 0,1 50.000,306.000
L50.000 264.000
" 
fill="#ffffff" fill-opacity="1.000000" vector-effect="non-scaling-stroke" stroke="#000000" stroke-width="0.100mm" stroke-opacity="1.000000" fpd:visible="front back" fpd:print_element="0" />
<path d="
M-15.000 -28.500
A1.500,1.500 0 0,1 -13.500,-30.000
L63.500 -30.000
A1.500,1.500 0 0,1 65.000,-28.500
L65.000 28.500
A1.500,1.500 0 0,1 63.500,30.000
L-13.500 30.000
A1.500,1.500 0 0,1 -15.000,28.500
L-15.000 -28.500
" 
fill="#ffffff" fill-opacity="1.000000" vector-effect="non-scaling-stroke" stroke="#000000" stroke-width="0.100mm" stroke-opacity="1.000000" fpd:visible="front back" fpd:print_element="0" />
<path d="
M135.000 -28.500
A1.500,1.500 0 0,1 136.500,-30.000
L213.500 -30.000
A1.500,1.500 0 0,1 215.000,-28.500
L215.000 28.500
A1.500,1.500 0 0,1 213.500,30.000
L136.500 30.000
A1.500,1.500 0 0,1 135.000,28.500
L135.000 -28.500
" 
fill="#ffffff" fill-opacity="1.000000" vector-effect="non-scaling-stroke" stroke="#000000" stroke-width="0.100mm" stroke-opacity="1.000000" fpd:visible="front back" fpd:print_element="0" />
<path d="
M6.700 290.000
A3.300,3.300 0 1,0 13.300,290.000
A3.300,3.300 0 1,0 6.700,290.000
" 
fill="#ffffff" fill-opacity="1.000000" vector-effect="non-scaling-stroke" stroke="#000000" stroke-width="0.100mm" stroke-opacity="1.000000" fpd:visible="front back" fpd:print_element="0" />
<path d="
M36.700 290.000
A3.300,3.300 0 1,0 43.300,290.000
A3.300,3.300 0 1,0 36.700,290.000
" 
fill="#ffffff" fill-opacity="1.000000" vector-effect="non-scaling-stroke" stroke="#000000" stroke-width="0.100mm" stroke-opacity="1.000000" fpd:visible="front back" fpd:print_element="0" />
<path d="
M186.700 290.000
A3.300,3.300 0 1,0 193.300,290.000
A3.300,3.300 0 1,0 186.700,290.000
" 
fill="#ffffff" fill-opacity="1.000000" vector-effect="non-scaling-stroke" stroke="#000000" stroke-width="0.100mm" stroke-opacity="1.000000" fpd:visible="front back" fpd:print_element="0" />
<path d="
M156.700 290.000
A3.300,3.300 0 1,0 163.300,290.000
A3.300,3.300 0 1,0 156.700,290.000
" 
fill="#ffffff" fill-opacity="1.000000" vector-effect="non-scaling-stroke" stroke="#000000" stroke-width="0.100mm" stroke-opacity="1.000000" fpd:visible="front back" fpd:print_element="0" />
<path d="
M111.700 10.000
A3.300,3.300 0 1,0 118.300,10.000
A3.300,3.300 0 1,0 111.700,10.000
" 
fill="#ffffff" fill-opacity="1.000000" vector-effect="non-scaling-stroke" stroke="#000000" stroke-width="0.100mm" stroke-opacity="1.000000" fpd:visible="front back" fpd:print_element="0" />
<path d="
M81.700 10.000
A3.300,3.300 0 1,0 88.300,10.000
A3.300,3.300 0 1,0 81.700,10.000
" 
fill="#ffffff" fill-opacity="1.000000" vector-effect="non-scaling-stroke" stroke="#000000" stroke-width="0.100mm" stroke-opacity="1.000000" fpd:visible="front back" fpd:print_element="0" />
<path d="
M97.500 -8.500
A1.500,1.500 0 0,1 99.000,-10.000
L101.000 -10.000
A1.500,1.500 0 0,1 102.500,-8.500
L102.500 8.500
A1.500,1.500 0 0,1 101.000,10.000
L99.000 10.000
A1.500,1.500 0 0,1 97.500,8.500
L97.500 -8.500
" 
fill="#ffffff" fill-opacity="1.000000" vector-effect="non-scaling-stroke" stroke="#000000" stroke-width="0.100mm" stroke-opacity="1.000000" fpd:visible="front back" fpd:print_element="0" />
<path d="
M41.000 45.000
A10.000,10.000 0 1,0 61.000,45.000
A10.000,10.000 0 1,0 41.000,45.000
" 
fill="#ffffff" fill-opacity="1.000000" vector-effect="non-scaling-stroke" stroke="#000000" stroke-width="0.100mm" stroke-opacity="1.000000" fpd:visible="front back" fpd:print_element="0" />
<path d="
M139.000 45.000
A10.000,10.000 0 1,0 159.000,45.000
A10.000,10.000 0 1,0 139.000,45.000
" 
fill="#ffffff" fill-opacity="1.000000" vector-effect="non-scaling-stroke" stroke="#000000" stroke-width="0.100mm" stroke-opacity="1.000000" fpd:visible="front back" fpd:print_element="0" />
<path d="
M198.000 300.000
A2.000,2.000 0 0,0 200.000,298.000
L200.000 2.000
A2.000,2.000 0 0,0 198.000,0.000
L2.000 0.000
A2.000,2.000 0 0,0 0.000,2.000
L0.000 298.000
A2.000,2.000 0 0,0 2.000,300.000
L198.000 300.000
" 
fill="none" vector-effect="non-scaling-stroke" stroke="#000000" stroke-width="0.100mm" stroke-opacity="1.000000" fpd:visible="front back" />
</g>
</svg>
