<?xml version="1.0" encoding="UTF-8" standalone="no"?>
<svg
   width="270.000mm"
   height="75.000mm"
   version="1.1"
   viewBox="0 0 270.000 75.000"
   id="svg30"
   sodipodi:docname="top_plate.svg"
   inkscape:version="1.1 (c68e22c387, 2021-05-23)"
   xmlns:inkscape="http://www.inkscape.org/namespaces/inkscape"
   xmlns:sodipodi="http://sodipodi.sourceforge.net/DTD/sodipodi-0.dtd"
   xmlns="http://www.w3.org/2000/svg"
   xmlns:svg="http://www.w3.org/2000/svg">
  <sodipodi:namedview
     id="namedview32"
     pagecolor="#ffffff"
     bordercolor="#666666"
     borderopacity="1.0"
     inkscape:pageshadow="2"
     inkscape:pageopacity="0.0"
     inkscape:pagecheckerboard="0"
     inkscape:document-units="mm"
     showgrid="false"
     inkscape:zoom="0.68948372"
     inkscape:cx="522.1298"
     inkscape:cy="237.85913"
     inkscape:window-width="1620"
     inkscape:window-height="1018"
     inkscape:window-x="-6"
     inkscape:window-y="-6"
     inkscape:window-maximized="1"
     inkscape:current-layer="svg30" />
  <desc
     id="desc2">Created with the Front Panel Designer by the export of the file 'top_plate.fpd'.</desc>
  <defs
     id="defs14">
    <pattern
       id="revside-fill"
       x="1"
       y="1"
       width="2.700"
       height="2.700"
       patternUnits="userSpaceOnUse">
      <line
         x1="0"
         y1="0"
         x2="2.700"
         y2="2.700"
         style="stroke-width:0.270; stroke:black; stroke-dasharray:none;"
         id="line4" />
      <line
         x1="0"
         y1="2.700"
         x2="2.700"
         y2="0"
         style="stroke-width:0.270; stroke:black; stroke-dasharray:none;"
         id="line6" />
    </pattern>
    <pattern
       id="revside-fill-silver"
       x="1"
       y="1"
       width="2.700"
       height="2.700"
       patternUnits="userSpaceOnUse">
      <line
         x1="0"
         y1="0"
         x2="2.700"
         y2="2.700"
         style="stroke-width:0.270; stroke:#e0e0e0; stroke-dasharray:none;"
         id="line9" />
      <line
         x1="0"
         y1="2.700"
         x2="2.700"
         y2="0"
         style="stroke-width:0.270; stroke:#e0e0e0; stroke-dasharray:none;"
         id="line11" />
    </pattern>
  </defs>
  <path
     id="path26"
     d="M 270.00007,75.000073 V 0 H 0 v 75.000073 z m -14.87351,-56.70248 a 3.3,3.3 0 0 1 -3.42667,-3.29748 3.300057,3.300057 0 1 1 6.60012,0 3.3,3.3 0 0 1 -3.17345,3.29748 z m -100.0001,0 a 3.3,3.3 0 0 1 -3.42615,-3.29748 3.3,3.3 0 1 1 6.5996,0 3.3,3.3 0 0 1 -3.17345,3.29748 z m -40.00014,0 a 3.3,3.3 0 0 1 -3.42615,-3.29748 3.3000566,3.3000566 0 1 1 6.60011,0 3.3,3.3 0 0 1 -3.17396,3.29748 z m -100.0001,0 a 3.3,3.3 0 0 1 -3.42614,-3.29748 3.3000566,3.3000566 0 0 1 6.60011,0 3.3,3.3 0 0 1 -3.17397,3.29748 z"
     style="fill:#0000ff;fill-opacity:1;stroke:#ff0000;stroke-width:0.264583;stroke-opacity:1" />
</svg>
