<?xml version="1.0" encoding="UTF-8" standalone="no"?>
<svg
   width="240mm"
   height="268mm"
   viewBox="-120 -268 240 268"
   version="1.1"
   id="svg6"
   sodipodi:docname="rad_mount_2D_v1_print.svg"
   inkscape:version="1.1 (c68e22c387, 2021-05-23)"
   xmlns:inkscape="http://www.inkscape.org/namespaces/inkscape"
   xmlns:sodipodi="http://sodipodi.sourceforge.net/DTD/sodipodi-0.dtd"
   xmlns="http://www.w3.org/2000/svg"
   xmlns:svg="http://www.w3.org/2000/svg"
   xmlns:rdf="http://www.w3.org/1999/02/22-rdf-syntax-ns#"
   xmlns:cc="http://creativecommons.org/ns#"
   xmlns:dc="http://purl.org/dc/elements/1.1/">
  <defs
     id="defs10" />
  <sodipodi:namedview
     id="namedview8"
     pagecolor="#ffffff"
     bordercolor="#666666"
     borderopacity="1.0"
     inkscape:pageshadow="2"
     inkscape:pageopacity="0.0"
     inkscape:pagecheckerboard="0"
     inkscape:document-units="mm"
     showgrid="false"
     inkscape:zoom="0.74340019"
     inkscape:cx="453.32246"
     inkscape:cy="506.45669"
     inkscape:window-width="1920"
     inkscape:window-height="1017"
     inkscape:window-x="754"
     inkscape:window-y="847"
     inkscape:window-maximized="1"
     inkscape:current-layer="svg6" />
  <title
     id="title2">OpenSCAD Model</title>
  <path
     d=" M 60.5,-223 L -60.5,-223 L -60.5,-268 L -65,-268 L -65,-264 L -75,-264  L -75,-268 L -85,-268 L -85,-264 L -86,-264 L -86.0982,-263.999 L -86.1963,-263.995  L -86.2943,-263.989 L -86.3921,-263.981 L -86.4896,-263.97 L -86.5869,-263.957 L -86.6838,-263.941 L -86.7803,-263.923  L -86.8764,-263.903 L -86.9719,-263.88 L -87.0668,-263.855 L -87.1611,-263.828 L -87.2547,-263.798 L -87.3475,-263.766  L -87.4396,-263.732 L -87.5307,-263.696 L -87.621,-263.657 L -87.7102,-263.616 L -87.7984,-263.573 L -87.8856,-263.528  L -87.9716,-263.48 L -88.0564,-263.431 L -88.14,-263.379 L -88.2223,-263.326 L -88.3032,-263.27 L -88.3828,-263.213  L -88.4609,-263.153 L -88.5376,-263.092 L -88.6127,-263.029 L -88.6862,-262.964 L -88.7581,-262.897 L -88.8284,-262.828  L -88.897,-262.758 L -88.9638,-262.686 L -89.0288,-262.613 L -89.092,-262.538 L -89.1534,-262.461 L -89.2128,-262.383  L -89.2703,-262.303 L -89.3259,-262.222 L -89.3794,-262.14 L -89.4309,-262.056 L -89.4803,-261.972 L -89.5277,-261.886  L -89.5729,-261.798 L -89.616,-261.71 L -89.6568,-261.621 L -89.6955,-261.531 L -89.732,-261.44 L -89.7662,-261.348  L -89.7981,-261.255 L -89.8278,-261.161 L -89.8551,-261.067 L -89.8801,-260.972 L -89.9028,-260.876 L -89.9231,-260.78  L -89.9411,-260.684 L -89.9567,-260.587 L -89.9699,-260.49 L -89.9807,-260.392 L -89.9892,-260.294 L -89.9952,-260.196  L -89.9988,-260.098 L -90,-260 L -90,-214 L -116,-214 L -116.098,-213.999 L -116.196,-213.995  L -116.294,-213.989 L -116.392,-213.981 L -116.49,-213.97 L -116.587,-213.957 L -116.684,-213.941 L -116.78,-213.923  L -116.876,-213.903 L -116.972,-213.88 L -117.067,-213.855 L -117.161,-213.828 L -117.255,-213.798 L -117.348,-213.766  L -117.44,-213.732 L -117.531,-213.696 L -117.621,-213.657 L -117.71,-213.616 L -117.798,-213.573 L -117.886,-213.528  L -117.972,-213.48 L -118.056,-213.431 L -118.14,-213.379 L -118.222,-213.326 L -118.303,-213.27 L -118.383,-213.213  L -118.461,-213.153 L -118.538,-213.092 L -118.613,-213.029 L -118.686,-212.964 L -118.758,-212.897 L -118.828,-212.828  L -118.897,-212.758 L -118.964,-212.686 L -119.029,-212.613 L -119.092,-212.538 L -119.153,-212.461 L -119.213,-212.383  L -119.27,-212.303 L -119.326,-212.222 L -119.379,-212.14 L -119.431,-212.056 L -119.48,-211.972 L -119.528,-211.886  L -119.573,-211.798 L -119.616,-211.71 L -119.657,-211.621 L -119.696,-211.531 L -119.732,-211.44 L -119.766,-211.348  L -119.798,-211.255 L -119.828,-211.161 L -119.855,-211.067 L -119.88,-210.972 L -119.903,-210.876 L -119.923,-210.78  L -119.941,-210.684 L -119.957,-210.587 L -119.97,-210.49 L -119.981,-210.392 L -119.989,-210.294 L -119.995,-210.196  L -119.999,-210.098 L -120,-210 L -120,-0 L -115,-0 L -115,-4 L -105,-4  L -105,-0 L -95,-0 L -95,-4 L -85,-4 L -85,-0 L -75,-0  L -75,-4 L -65,-4 L -65,-0 L -55,-0 L -55,-4 L -45,-4  L -45,-0 L -35,-0 L -35,-4 L -25,-4 L -25,-0 L -15,-0  L -15,-4 L -5,-4 L -5,-0 L 5,-0 L 5,-4 L 15,-4  L 15,-0 L 25,-0 L 25,-4 L 35,-4 L 35,-0 L 45,-0  L 45,-4 L 55,-4 L 55,-0 L 65,-0 L 65,-4 L 75,-4  L 75,-0 L 85,-0 L 85,-4 L 95,-4 L 95,-0 L 105,-0  L 105,-4 L 115,-4 L 115,-0 L 120,-0 L 120,-210 L 119.999,-210.098  L 119.995,-210.196 L 119.989,-210.294 L 119.981,-210.392 L 119.97,-210.49 L 119.957,-210.587 L 119.941,-210.684  L 119.923,-210.78 L 119.903,-210.876 L 119.88,-210.972 L 119.855,-211.067 L 119.828,-211.161 L 119.798,-211.255  L 119.766,-211.348 L 119.732,-211.44 L 119.696,-211.531 L 119.657,-211.621 L 119.616,-211.71 L 119.573,-211.798  L 119.528,-211.886 L 119.48,-211.972 L 119.431,-212.056 L 119.379,-212.14 L 119.326,-212.222 L 119.27,-212.303  L 119.213,-212.383 L 119.153,-212.461 L 119.092,-212.538 L 119.029,-212.613 L 118.964,-212.686 L 118.897,-212.758  L 118.828,-212.828 L 118.758,-212.897 L 118.686,-212.964 L 118.613,-213.029 L 118.538,-213.092 L 118.461,-213.153  L 118.383,-213.213 L 118.303,-213.27 L 118.222,-213.326 L 118.14,-213.379 L 118.056,-213.431 L 117.972,-213.48  L 117.886,-213.528 L 117.798,-213.573 L 117.71,-213.616 L 117.621,-213.657 L 117.531,-213.696 L 117.44,-213.732  L 117.348,-213.766 L 117.255,-213.798 L 117.161,-213.828 L 117.067,-213.855 L 116.972,-213.88 L 116.876,-213.903  L 116.78,-213.923 L 116.684,-213.941 L 116.587,-213.957 L 116.49,-213.97 L 116.392,-213.981 L 116.294,-213.989  L 116.196,-213.995 L 116.098,-213.999 L 116,-214 L 90,-214 L 90,-260 L 89.9988,-260.098  L 89.9952,-260.196 L 89.9892,-260.294 L 89.9807,-260.392 L 89.9699,-260.49 L 89.9567,-260.587 L 89.9411,-260.684  L 89.9231,-260.78 L 89.9028,-260.876 L 89.8801,-260.972 L 89.8551,-261.067 L 89.8278,-261.161 L 89.7981,-261.255  L 89.7662,-261.348 L 89.732,-261.44 L 89.6955,-261.531 L 89.6568,-261.621 L 89.616,-261.71 L 89.5729,-261.798  L 89.5277,-261.886 L 89.4803,-261.972 L 89.4309,-262.056 L 89.3794,-262.14 L 89.3259,-262.222 L 89.2703,-262.303  L 89.2128,-262.383 L 89.1534,-262.461 L 89.092,-262.538 L 89.0288,-262.613 L 88.9638,-262.686 L 88.897,-262.758  L 88.8284,-262.828 L 88.7581,-262.897 L 88.6862,-262.964 L 88.6127,-263.029 L 88.5376,-263.092 L 88.4609,-263.153  L 88.3828,-263.213 L 88.3032,-263.27 L 88.2223,-263.326 L 88.14,-263.379 L 88.0564,-263.431 L 87.9716,-263.48  L 87.8856,-263.528 L 87.7984,-263.573 L 87.7102,-263.616 L 87.621,-263.657 L 87.5307,-263.696 L 87.4396,-263.732  L 87.3475,-263.766 L 87.2547,-263.798 L 87.1611,-263.828 L 87.0668,-263.855 L 86.9719,-263.88 L 86.8764,-263.903  L 86.7803,-263.923 L 86.6838,-263.941 L 86.5869,-263.957 L 86.4896,-263.97 L 86.3921,-263.981 L 86.2943,-263.989  L 86.1963,-263.995 L 86.0982,-263.999 L 86,-264 L 85,-264 L 85,-268 L 75,-268  L 75,-264 L 65,-264 L 65,-268 L 60.5,-268 z M -102.583,-202.802 L -102.667,-202.808 L -102.749,-202.818 L -102.832,-202.833 L -102.913,-202.851 L -102.993,-202.873  L -103.073,-202.899 L -103.151,-202.929 L -103.227,-202.963 L -103.301,-203.001 L -103.374,-203.042 L -103.444,-203.086  L -103.513,-203.135 L -103.578,-203.186 L -103.642,-203.24 L -103.702,-203.298 L -103.76,-203.358 L -103.814,-203.422  L -103.865,-203.487 L -103.913,-203.556 L -103.958,-203.626 L -103.999,-203.699 L -104.037,-203.773 L -104.071,-203.849  L -104.101,-203.927 L -104.127,-204.007 L -104.149,-204.087 L -104.167,-204.168 L -104.182,-204.251 L -104.192,-204.333  L -104.198,-204.417 L -104.2,-204.5 L -104.198,-204.583 L -104.192,-204.667 L -104.182,-204.749 L -104.167,-204.832  L -104.149,-204.913 L -104.127,-204.993 L -104.101,-205.073 L -104.071,-205.151 L -104.037,-205.227 L -103.999,-205.301  L -103.958,-205.374 L -103.913,-205.444 L -103.865,-205.513 L -103.814,-205.578 L -103.76,-205.642 L -103.702,-205.702  L -103.642,-205.76 L -103.578,-205.814 L -103.513,-205.865 L -103.444,-205.913 L -103.374,-205.958 L -103.301,-205.999  L -103.227,-206.037 L -103.151,-206.071 L -103.073,-206.101 L -102.993,-206.127 L -102.913,-206.149 L -102.832,-206.167  L -102.749,-206.182 L -102.667,-206.192 L -102.583,-206.198 L -102.5,-206.2 L -102.417,-206.198 L -102.333,-206.192  L -102.251,-206.182 L -102.168,-206.167 L -102.087,-206.149 L -102.007,-206.127 L -101.927,-206.101 L -101.849,-206.071  L -101.773,-206.037 L -101.699,-205.999 L -101.626,-205.958 L -101.556,-205.913 L -101.487,-205.865 L -101.422,-205.814  L -101.358,-205.76 L -101.298,-205.702 L -101.24,-205.642 L -101.186,-205.578 L -101.135,-205.513 L -101.086,-205.444  L -101.042,-205.374 L -101.001,-205.301 L -100.963,-205.227 L -100.929,-205.151 L -100.899,-205.073 L -100.873,-204.993  L -100.851,-204.913 L -100.833,-204.832 L -100.818,-204.749 L -100.808,-204.667 L -100.802,-204.583 L -100.8,-204.5  L -100.802,-204.417 L -100.808,-204.333 L -100.818,-204.251 L -100.833,-204.168 L -100.851,-204.087 L -100.873,-204.007  L -100.899,-203.927 L -100.929,-203.849 L -100.963,-203.773 L -101.001,-203.699 L -101.042,-203.626 L -101.086,-203.556  L -101.135,-203.487 L -101.186,-203.422 L -101.24,-203.358 L -101.298,-203.298 L -101.358,-203.24 L -101.422,-203.186  L -101.487,-203.135 L -101.556,-203.086 L -101.626,-203.042 L -101.699,-203.001 L -101.773,-202.963 L -101.849,-202.929  L -101.927,-202.899 L -102.007,-202.873 L -102.087,-202.851 L -102.168,-202.833 L -102.251,-202.818 L -102.333,-202.808  L -102.417,-202.802 L -102.5,-202.8 z M 82.4166,-202.802 L 82.3334,-202.808 L 82.2505,-202.818 L 82.1683,-202.833 L 82.0869,-202.851 L 82.0065,-202.873  L 81.9273,-202.899 L 81.8494,-202.929 L 81.7731,-202.963 L 81.6986,-203.001 L 81.626,-203.042 L 81.5555,-203.086  L 81.4873,-203.135 L 81.4215,-203.186 L 81.3583,-203.24 L 81.2979,-203.298 L 81.2404,-203.358 L 81.1859,-203.422  L 81.1345,-203.487 L 81.0865,-203.556 L 81.0419,-203.626 L 81.0007,-203.699 L 80.9632,-203.773 L 80.9294,-203.849  L 80.8994,-203.927 L 80.8732,-204.007 L 80.8509,-204.087 L 80.8327,-204.168 L 80.8184,-204.251 L 80.8082,-204.333  L 80.802,-204.417 L 80.8,-204.5 L 80.802,-204.583 L 80.8082,-204.667 L 80.8184,-204.749 L 80.8327,-204.832  L 80.8509,-204.913 L 80.8732,-204.993 L 80.8994,-205.073 L 80.9294,-205.151 L 80.9632,-205.227 L 81.0007,-205.301  L 81.0419,-205.374 L 81.0865,-205.444 L 81.1345,-205.513 L 81.1859,-205.578 L 81.2404,-205.642 L 81.2979,-205.702  L 81.3583,-205.76 L 81.4215,-205.814 L 81.4873,-205.865 L 81.5555,-205.913 L 81.626,-205.958 L 81.6986,-205.999  L 81.7731,-206.037 L 81.8494,-206.071 L 81.9273,-206.101 L 82.0065,-206.127 L 82.0869,-206.149 L 82.1683,-206.167  L 82.2505,-206.182 L 82.3334,-206.192 L 82.4166,-206.198 L 82.5,-206.2 L 82.5834,-206.198 L 82.6666,-206.192  L 82.7494,-206.182 L 82.8316,-206.167 L 82.9131,-206.149 L 82.9935,-206.127 L 83.0727,-206.101 L 83.1506,-206.071  L 83.2268,-206.037 L 83.3014,-205.999 L 83.374,-205.958 L 83.4445,-205.913 L 83.5127,-205.865 L 83.5785,-205.814  L 83.6416,-205.76 L 83.7021,-205.702 L 83.7596,-205.642 L 83.8141,-205.578 L 83.8654,-205.513 L 83.9135,-205.444  L 83.9581,-205.374 L 83.9993,-205.301 L 84.0368,-205.227 L 84.0706,-205.151 L 84.1006,-205.073 L 84.1268,-204.993  L 84.149,-204.913 L 84.1673,-204.832 L 84.1816,-204.749 L 84.1918,-204.667 L 84.198,-204.583 L 84.2,-204.5  L 84.198,-204.417 L 84.1918,-204.333 L 84.1816,-204.251 L 84.1673,-204.168 L 84.149,-204.087 L 84.1268,-204.007  L 84.1006,-203.927 L 84.0706,-203.849 L 84.0368,-203.773 L 83.9993,-203.699 L 83.9581,-203.626 L 83.9135,-203.556  L 83.8654,-203.487 L 83.8141,-203.422 L 83.7596,-203.358 L 83.7021,-203.298 L 83.6416,-203.24 L 83.5785,-203.186  L 83.5127,-203.135 L 83.4445,-203.086 L 83.374,-203.042 L 83.3014,-203.001 L 83.2268,-202.963 L 83.1506,-202.929  L 83.0727,-202.899 L 82.9935,-202.873 L 82.9131,-202.851 L 82.8316,-202.833 L 82.7494,-202.818 L 82.6666,-202.808  L 82.5834,-202.802 L 82.5,-202.8 z M -92.5,-22 L -92.7454,-22.003 L -92.9907,-22.0121 L -93.2356,-22.0271 L -93.4802,-22.0482 L -93.7241,-22.0752  L -93.9673,-22.1082 L -94.2096,-22.1472 L -94.4509,-22.1922 L -94.691,-22.243 L -94.9298,-22.2997 L -95.1671,-22.3622  L -95.4028,-22.4306 L -95.6368,-22.5047 L -95.8689,-22.5846 L -96.0989,-22.6701 L -96.3268,-22.7612 L -96.5524,-22.8579  L -96.7755,-22.9601 L -96.9961,-23.0678 L -97.214,-23.1808 L -97.429,-23.2991 L -97.641,-23.4227 L -97.85,-23.5515  L -98.0557,-23.6853 L -98.2581,-23.8242 L -98.457,-23.9679 L -98.6523,-24.1165 L -98.8439,-24.2699 L -99.0317,-24.4279  L -99.2156,-24.5905 L -99.3954,-24.7575 L -99.5711,-24.9289 L -99.7425,-25.1046 L -99.9095,-25.2844 L -100.072,-25.4683  L -100.23,-25.6561 L -100.383,-25.8477 L -100.532,-26.043 L -100.676,-26.2419 L -100.815,-26.4443 L -100.949,-26.65  L -101.077,-26.859 L -101.201,-27.071 L -101.319,-27.286 L -101.432,-27.5039 L -101.54,-27.7245 L -101.642,-27.9476  L -101.739,-28.1732 L -101.83,-28.4011 L -101.915,-28.6311 L -101.995,-28.8632 L -102.069,-29.0972 L -102.138,-29.3329  L -102.2,-29.5702 L -102.257,-29.809 L -102.308,-30.0491 L -102.353,-30.2904 L -102.392,-30.5327 L -102.425,-30.7759  L -102.452,-31.0198 L -102.473,-31.2644 L -102.488,-31.5093 L -102.497,-31.7546 L -102.5,-32 L -102.5,-192  L -102.497,-192.245 L -102.488,-192.491 L -102.473,-192.736 L -102.452,-192.98 L -102.425,-193.224 L -102.392,-193.467  L -102.353,-193.71 L -102.308,-193.951 L -102.257,-194.191 L -102.2,-194.43 L -102.138,-194.667 L -102.069,-194.903  L -101.995,-195.137 L -101.915,-195.369 L -101.83,-195.599 L -101.739,-195.827 L -101.642,-196.052 L -101.54,-196.276  L -101.432,-196.496 L -101.319,-196.714 L -101.201,-196.929 L -101.077,-197.141 L -100.949,-197.35 L -100.815,-197.556  L -100.676,-197.758 L -100.532,-197.957 L -100.383,-198.152 L -100.23,-198.344 L -100.072,-198.532 L -99.9095,-198.716  L -99.7425,-198.895 L -99.5711,-199.071 L -99.3954,-199.242 L -99.2156,-199.41 L -99.0317,-199.572 L -98.8439,-199.73  L -98.6523,-199.883 L -98.457,-200.032 L -98.2581,-200.176 L -98.0557,-200.315 L -97.85,-200.449 L -97.641,-200.577  L -97.429,-200.701 L -97.214,-200.819 L -96.9961,-200.932 L -96.7755,-201.04 L -96.5524,-201.142 L -96.3268,-201.239  L -96.0989,-201.33 L -95.8689,-201.415 L -95.6368,-201.495 L -95.4028,-201.569 L -95.1671,-201.638 L -94.9298,-201.7  L -94.691,-201.757 L -94.4509,-201.808 L -94.2096,-201.853 L -93.9673,-201.892 L -93.7241,-201.925 L -93.4802,-201.952  L -93.2356,-201.973 L -92.9907,-201.988 L -92.7454,-201.997 L -92.5,-202 L 72.5,-202 L 72.7454,-201.997  L 72.9907,-201.988 L 73.2356,-201.973 L 73.4802,-201.952 L 73.7241,-201.925 L 73.9673,-201.892 L 74.2096,-201.853  L 74.4509,-201.808 L 74.691,-201.757 L 74.9298,-201.7 L 75.1671,-201.638 L 75.4028,-201.569 L 75.6368,-201.495  L 75.8689,-201.415 L 76.0989,-201.33 L 76.3268,-201.239 L 76.5524,-201.142 L 76.7755,-201.04 L 76.9961,-200.932  L 77.214,-200.819 L 77.429,-200.701 L 77.641,-200.577 L 77.85,-200.449 L 78.0557,-200.315 L 78.2581,-200.176  L 78.457,-200.032 L 78.6523,-199.883 L 78.8439,-199.73 L 79.0317,-199.572 L 79.2156,-199.41 L 79.3954,-199.242  L 79.5711,-199.071 L 79.7425,-198.895 L 79.9095,-198.716 L 80.0721,-198.532 L 80.2301,-198.344 L 80.3835,-198.152  L 80.5321,-197.957 L 80.6758,-197.758 L 80.8147,-197.556 L 80.9485,-197.35 L 81.0773,-197.141 L 81.2009,-196.929  L 81.3192,-196.714 L 81.4322,-196.496 L 81.5399,-196.276 L 81.6421,-196.052 L 81.7388,-195.827 L 81.8299,-195.599  L 81.9154,-195.369 L 81.9953,-195.137 L 82.0694,-194.903 L 82.1378,-194.667 L 82.2003,-194.43 L 82.257,-194.191  L 82.3078,-193.951 L 82.3528,-193.71 L 82.3918,-193.467 L 82.4248,-193.224 L 82.4518,-192.98 L 82.4729,-192.736  L 82.4879,-192.491 L 82.497,-192.245 L 82.5,-192 L 82.5,-32 L 82.497,-31.7546 L 82.4879,-31.5093  L 82.4729,-31.2644 L 82.4518,-31.0198 L 82.4248,-30.7759 L 82.3918,-30.5327 L 82.3528,-30.2904 L 82.3078,-30.0491  L 82.257,-29.809 L 82.2003,-29.5702 L 82.1378,-29.3329 L 82.0694,-29.0972 L 81.9953,-28.8632 L 81.9154,-28.6311  L 81.8299,-28.4011 L 81.7388,-28.1732 L 81.6421,-27.9476 L 81.5399,-27.7245 L 81.4322,-27.5039 L 81.3192,-27.286  L 81.2009,-27.071 L 81.0773,-26.859 L 80.9485,-26.65 L 80.8147,-26.4443 L 80.6758,-26.2419 L 80.5321,-26.043  L 80.3835,-25.8477 L 80.2301,-25.6561 L 80.0721,-25.4683 L 79.9095,-25.2844 L 79.7425,-25.1046 L 79.5711,-24.9289  L 79.3954,-24.7575 L 79.2156,-24.5905 L 79.0317,-24.4279 L 78.8439,-24.2699 L 78.6523,-24.1165 L 78.457,-23.9679  L 78.2581,-23.8242 L 78.0557,-23.6853 L 77.85,-23.5515 L 77.641,-23.4227 L 77.429,-23.2991 L 77.214,-23.1808  L 76.9961,-23.0678 L 76.7755,-22.9601 L 76.5524,-22.8579 L 76.3268,-22.7612 L 76.0989,-22.6701 L 75.8689,-22.5846  L 75.6368,-22.5047 L 75.4028,-22.4306 L 75.1671,-22.3622 L 74.9298,-22.2997 L 74.691,-22.243 L 74.4509,-22.1922  L 74.2096,-22.1472 L 73.9673,-22.1082 L 73.7241,-22.0752 L 73.4802,-22.0482 L 73.2356,-22.0271 L 72.9907,-22.0121  L 72.7454,-22.003 L 72.5,-22 z M 101.255,-151.003 L 101.009,-151.012 L 100.764,-151.027 L 100.52,-151.048 L 100.276,-151.075 L 100.033,-151.108  L 99.7904,-151.147 L 99.5491,-151.192 L 99.309,-151.243 L 99.0702,-151.3 L 98.8329,-151.362 L 98.5972,-151.431  L 98.3632,-151.505 L 98.1311,-151.585 L 97.9011,-151.67 L 97.6732,-151.761 L 97.4476,-151.858 L 97.2245,-151.96  L 97.0039,-152.068 L 96.786,-152.181 L 96.571,-152.299 L 96.359,-152.423 L 96.15,-152.551 L 95.9443,-152.685  L 95.7419,-152.824 L 95.543,-152.968 L 95.3477,-153.117 L 95.1561,-153.27 L 94.9683,-153.428 L 94.7844,-153.59  L 94.6046,-153.758 L 94.4289,-153.929 L 94.2575,-154.105 L 94.0905,-154.284 L 93.9279,-154.468 L 93.7699,-154.656  L 93.6165,-154.848 L 93.4679,-155.043 L 93.3242,-155.242 L 93.1853,-155.444 L 93.0515,-155.65 L 92.9227,-155.859  L 92.7991,-156.071 L 92.6808,-156.286 L 92.5678,-156.504 L 92.4601,-156.724 L 92.3579,-156.948 L 92.2612,-157.173  L 92.1701,-157.401 L 92.0846,-157.631 L 92.0047,-157.863 L 91.9306,-158.097 L 91.8622,-158.333 L 91.7997,-158.57  L 91.743,-158.809 L 91.6922,-159.049 L 91.6472,-159.29 L 91.6082,-159.533 L 91.5752,-159.776 L 91.5482,-160.02  L 91.5271,-160.264 L 91.5121,-160.509 L 91.503,-160.755 L 91.5,-161 L 91.503,-161.245 L 91.5121,-161.491  L 91.5271,-161.736 L 91.5482,-161.98 L 91.5752,-162.224 L 91.6082,-162.467 L 91.6472,-162.71 L 91.6922,-162.951  L 91.743,-163.191 L 91.7997,-163.43 L 91.8622,-163.667 L 91.9306,-163.903 L 92.0047,-164.137 L 92.0846,-164.369  L 92.1701,-164.599 L 92.2612,-164.827 L 92.3579,-165.052 L 92.4601,-165.276 L 92.5678,-165.496 L 92.6808,-165.714  L 92.7991,-165.929 L 92.9227,-166.141 L 93.0515,-166.35 L 93.1853,-166.556 L 93.3242,-166.758 L 93.4679,-166.957  L 93.6165,-167.152 L 93.7699,-167.344 L 93.9279,-167.532 L 94.0905,-167.716 L 94.2575,-167.895 L 94.4289,-168.071  L 94.6046,-168.242 L 94.7844,-168.41 L 94.9683,-168.572 L 95.1561,-168.73 L 95.3477,-168.883 L 95.543,-169.032  L 95.7419,-169.176 L 95.9443,-169.315 L 96.15,-169.449 L 96.359,-169.577 L 96.571,-169.701 L 96.786,-169.819  L 97.0039,-169.932 L 97.2245,-170.04 L 97.4476,-170.142 L 97.6732,-170.239 L 97.9011,-170.33 L 98.1311,-170.415  L 98.3632,-170.495 L 98.5972,-170.569 L 98.8329,-170.638 L 99.0702,-170.7 L 99.309,-170.757 L 99.5491,-170.808  L 99.7904,-170.853 L 100.033,-170.892 L 100.276,-170.925 L 100.52,-170.952 L 100.764,-170.973 L 101.009,-170.988  L 101.255,-170.997 L 101.5,-171 L 101.745,-170.997 L 101.991,-170.988 L 102.236,-170.973 L 102.48,-170.952  L 102.724,-170.925 L 102.967,-170.892 L 103.21,-170.853 L 103.451,-170.808 L 103.691,-170.757 L 103.93,-170.7  L 104.167,-170.638 L 104.403,-170.569 L 104.637,-170.495 L 104.869,-170.415 L 105.099,-170.33 L 105.327,-170.239  L 105.552,-170.142 L 105.776,-170.04 L 105.996,-169.932 L 106.214,-169.819 L 106.429,-169.701 L 106.641,-169.577  L 106.85,-169.449 L 107.056,-169.315 L 107.258,-169.176 L 107.457,-169.032 L 107.652,-168.883 L 107.844,-168.73  L 108.032,-168.572 L 108.216,-168.41 L 108.395,-168.242 L 108.571,-168.071 L 108.742,-167.895 L 108.91,-167.716  L 109.072,-167.532 L 109.23,-167.344 L 109.383,-167.152 L 109.532,-166.957 L 109.676,-166.758 L 109.815,-166.556  L 109.949,-166.35 L 110.077,-166.141 L 110.201,-165.929 L 110.319,-165.714 L 110.432,-165.496 L 110.54,-165.276  L 110.642,-165.052 L 110.739,-164.827 L 110.83,-164.599 L 110.915,-164.369 L 110.995,-164.137 L 111.069,-163.903  L 111.138,-163.667 L 111.2,-163.43 L 111.257,-163.191 L 111.308,-162.951 L 111.353,-162.71 L 111.392,-162.467  L 111.425,-162.224 L 111.452,-161.98 L 111.473,-161.736 L 111.488,-161.491 L 111.497,-161.245 L 111.5,-161  L 111.497,-160.755 L 111.488,-160.509 L 111.473,-160.264 L 111.452,-160.02 L 111.425,-159.776 L 111.392,-159.533  L 111.353,-159.29 L 111.308,-159.049 L 111.257,-158.809 L 111.2,-158.57 L 111.138,-158.333 L 111.069,-158.097  L 110.995,-157.863 L 110.915,-157.631 L 110.83,-157.401 L 110.739,-157.173 L 110.642,-156.948 L 110.54,-156.724  L 110.432,-156.504 L 110.319,-156.286 L 110.201,-156.071 L 110.077,-155.859 L 109.949,-155.65 L 109.815,-155.444  L 109.676,-155.242 L 109.532,-155.043 L 109.383,-154.848 L 109.23,-154.656 L 109.072,-154.468 L 108.91,-154.284  L 108.742,-154.105 L 108.571,-153.929 L 108.395,-153.758 L 108.216,-153.59 L 108.032,-153.428 L 107.844,-153.27  L 107.652,-153.117 L 107.457,-152.968 L 107.258,-152.824 L 107.056,-152.685 L 106.85,-152.551 L 106.641,-152.423  L 106.429,-152.299 L 106.214,-152.181 L 105.996,-152.068 L 105.776,-151.96 L 105.552,-151.858 L 105.327,-151.761  L 105.099,-151.67 L 104.869,-151.585 L 104.637,-151.505 L 104.403,-151.431 L 104.167,-151.362 L 103.93,-151.3  L 103.691,-151.243 L 103.451,-151.192 L 103.21,-151.147 L 102.967,-151.108 L 102.724,-151.075 L 102.48,-151.048  L 102.236,-151.027 L 101.991,-151.012 L 101.745,-151.003 L 101.5,-151 z M 101.255,-53.003 L 101.009,-53.0121 L 100.764,-53.0271 L 100.52,-53.0482 L 100.276,-53.0752 L 100.033,-53.1082  L 99.7904,-53.1472 L 99.5491,-53.1922 L 99.309,-53.243 L 99.0702,-53.2997 L 98.8329,-53.3622 L 98.5972,-53.4306  L 98.3632,-53.5047 L 98.1311,-53.5846 L 97.9011,-53.6701 L 97.6732,-53.7612 L 97.4476,-53.8579 L 97.2245,-53.9601  L 97.0039,-54.0678 L 96.786,-54.1808 L 96.571,-54.2991 L 96.359,-54.4227 L 96.15,-54.5515 L 95.9443,-54.6853  L 95.7419,-54.8242 L 95.543,-54.9679 L 95.3477,-55.1165 L 95.1561,-55.2699 L 94.9683,-55.4279 L 94.7844,-55.5905  L 94.6046,-55.7575 L 94.4289,-55.9289 L 94.2575,-56.1046 L 94.0905,-56.2844 L 93.9279,-56.4683 L 93.7699,-56.6561  L 93.6165,-56.8477 L 93.4679,-57.043 L 93.3242,-57.2419 L 93.1853,-57.4443 L 93.0515,-57.65 L 92.9227,-57.859  L 92.7991,-58.071 L 92.6808,-58.286 L 92.5678,-58.5039 L 92.4601,-58.7245 L 92.3579,-58.9476 L 92.2612,-59.1732  L 92.1701,-59.4011 L 92.0846,-59.6311 L 92.0047,-59.8632 L 91.9306,-60.0972 L 91.8622,-60.3329 L 91.7997,-60.5702  L 91.743,-60.809 L 91.6922,-61.0491 L 91.6472,-61.2904 L 91.6082,-61.5327 L 91.5752,-61.7759 L 91.5482,-62.0198  L 91.5271,-62.2644 L 91.5121,-62.5093 L 91.503,-62.7546 L 91.5,-63 L 91.503,-63.2454 L 91.5121,-63.4907  L 91.5271,-63.7357 L 91.5482,-63.9802 L 91.5752,-64.2241 L 91.6082,-64.4673 L 91.6472,-64.7096 L 91.6922,-64.9509  L 91.743,-65.191 L 91.7997,-65.4298 L 91.8622,-65.6671 L 91.9306,-65.9028 L 92.0047,-66.1368 L 92.0846,-66.3689  L 92.1701,-66.599 L 92.2612,-66.8268 L 92.3579,-67.0524 L 92.4601,-67.2756 L 92.5678,-67.4961 L 92.6808,-67.714  L 92.7991,-67.929 L 92.9227,-68.141 L 93.0515,-68.35 L 93.1853,-68.5557 L 93.3242,-68.7581 L 93.4679,-68.957  L 93.6165,-69.1523 L 93.7699,-69.3439 L 93.9279,-69.5317 L 94.0905,-69.7156 L 94.2575,-69.8954 L 94.4289,-70.0711  L 94.6046,-70.2425 L 94.7844,-70.4095 L 94.9683,-70.5721 L 95.1561,-70.7301 L 95.3477,-70.8835 L 95.543,-71.0321  L 95.7419,-71.1759 L 95.9443,-71.3147 L 96.15,-71.4485 L 96.359,-71.5773 L 96.571,-71.7009 L 96.786,-71.8192  L 97.0039,-71.9323 L 97.2245,-72.0399 L 97.4476,-72.1421 L 97.6732,-72.2388 L 97.9011,-72.3299 L 98.1311,-72.4155  L 98.3632,-72.4953 L 98.5972,-72.5694 L 98.8329,-72.6378 L 99.0702,-72.7003 L 99.309,-72.757 L 99.5491,-72.8079  L 99.7904,-72.8528 L 100.033,-72.8918 L 100.276,-72.9248 L 100.52,-72.9519 L 100.764,-72.9729 L 101.009,-72.988  L 101.255,-72.997 L 101.5,-73 L 101.745,-72.997 L 101.991,-72.988 L 102.236,-72.9729 L 102.48,-72.9519  L 102.724,-72.9248 L 102.967,-72.8918 L 103.21,-72.8528 L 103.451,-72.8079 L 103.691,-72.757 L 103.93,-72.7003  L 104.167,-72.6378 L 104.403,-72.5694 L 104.637,-72.4953 L 104.869,-72.4155 L 105.099,-72.3299 L 105.327,-72.2388  L 105.552,-72.1421 L 105.776,-72.0399 L 105.996,-71.9323 L 106.214,-71.8192 L 106.429,-71.7009 L 106.641,-71.5773  L 106.85,-71.4485 L 107.056,-71.3147 L 107.258,-71.1759 L 107.457,-71.0321 L 107.652,-70.8835 L 107.844,-70.7301  L 108.032,-70.5721 L 108.216,-70.4095 L 108.395,-70.2425 L 108.571,-70.0711 L 108.742,-69.8954 L 108.91,-69.7156  L 109.072,-69.5317 L 109.23,-69.3439 L 109.383,-69.1523 L 109.532,-68.957 L 109.676,-68.7581 L 109.815,-68.5557  L 109.949,-68.35 L 110.077,-68.141 L 110.201,-67.929 L 110.319,-67.714 L 110.432,-67.4961 L 110.54,-67.2756  L 110.642,-67.0524 L 110.739,-66.8268 L 110.83,-66.599 L 110.915,-66.3689 L 110.995,-66.1368 L 111.069,-65.9028  L 111.138,-65.6671 L 111.2,-65.4298 L 111.257,-65.191 L 111.308,-64.9509 L 111.353,-64.7096 L 111.392,-64.4673  L 111.425,-64.2241 L 111.452,-63.9802 L 111.473,-63.7357 L 111.488,-63.4907 L 111.497,-63.2454 L 111.5,-63  L 111.497,-62.7546 L 111.488,-62.5093 L 111.473,-62.2644 L 111.452,-62.0198 L 111.425,-61.7759 L 111.392,-61.5327  L 111.353,-61.2904 L 111.308,-61.0491 L 111.257,-60.809 L 111.2,-60.5702 L 111.138,-60.3329 L 111.069,-60.0972  L 110.995,-59.8632 L 110.915,-59.6311 L 110.83,-59.4011 L 110.739,-59.1732 L 110.642,-58.9476 L 110.54,-58.7245  L 110.432,-58.5039 L 110.319,-58.286 L 110.201,-58.071 L 110.077,-57.859 L 109.949,-57.65 L 109.815,-57.4443  L 109.676,-57.2419 L 109.532,-57.043 L 109.383,-56.8477 L 109.23,-56.6561 L 109.072,-56.4683 L 108.91,-56.2844  L 108.742,-56.1046 L 108.571,-55.9289 L 108.395,-55.7575 L 108.216,-55.5905 L 108.032,-55.4279 L 107.844,-55.2699  L 107.652,-55.1165 L 107.457,-54.9679 L 107.258,-54.8242 L 107.056,-54.6853 L 106.85,-54.5515 L 106.641,-54.4227  L 106.429,-54.2991 L 106.214,-54.1808 L 105.996,-54.0678 L 105.776,-53.9601 L 105.552,-53.8579 L 105.327,-53.7612  L 105.099,-53.6701 L 104.869,-53.5846 L 104.637,-53.5047 L 104.403,-53.4306 L 104.167,-53.3622 L 103.93,-53.2997  L 103.691,-53.243 L 103.451,-53.1922 L 103.21,-53.1472 L 102.967,-53.1082 L 102.724,-53.0752 L 102.48,-53.0482  L 102.236,-53.0271 L 101.991,-53.0121 L 101.745,-53.003 L 101.5,-53 z M 111,-30 L 111,-40 L 115,-40 L 115,-30 z M -115,-30 L -115,-40 L -111,-40 L -111,-30 z M -102.583,-17.802 L -102.667,-17.8082 L -102.749,-17.8184 L -102.832,-17.8327 L -102.913,-17.851 L -102.993,-17.8732  L -103.073,-17.8994 L -103.151,-17.9294 L -103.227,-17.9632 L -103.301,-18.0007 L -103.374,-18.0419 L -103.444,-18.0865  L -103.513,-18.1346 L -103.578,-18.1859 L -103.642,-18.2404 L -103.702,-18.2979 L -103.76,-18.3584 L -103.814,-18.4215  L -103.865,-18.4873 L -103.913,-18.5555 L -103.958,-18.626 L -103.999,-18.6986 L -104.037,-18.7732 L -104.071,-18.8494  L -104.101,-18.9273 L -104.127,-19.0065 L -104.149,-19.0869 L -104.167,-19.1684 L -104.182,-19.2506 L -104.192,-19.3334  L -104.198,-19.4166 L -104.2,-19.5 L -104.198,-19.5834 L -104.192,-19.6666 L -104.182,-19.7495 L -104.167,-19.8317  L -104.149,-19.9131 L -104.127,-19.9935 L -104.101,-20.0727 L -104.071,-20.1506 L -104.037,-20.2269 L -103.999,-20.3014  L -103.958,-20.374 L -103.913,-20.4445 L -103.865,-20.5127 L -103.814,-20.5785 L -103.76,-20.6417 L -103.702,-20.7021  L -103.642,-20.7596 L -103.578,-20.8141 L -103.513,-20.8655 L -103.444,-20.9135 L -103.374,-20.9581 L -103.301,-20.9993  L -103.227,-21.0368 L -103.151,-21.0706 L -103.073,-21.1006 L -102.993,-21.1268 L -102.913,-21.1491 L -102.832,-21.1673  L -102.749,-21.1816 L -102.667,-21.1918 L -102.583,-21.198 L -102.5,-21.2 L -102.417,-21.198 L -102.333,-21.1918  L -102.251,-21.1816 L -102.168,-21.1673 L -102.087,-21.1491 L -102.007,-21.1268 L -101.927,-21.1006 L -101.849,-21.0706  L -101.773,-21.0368 L -101.699,-20.9993 L -101.626,-20.9581 L -101.556,-20.9135 L -101.487,-20.8655 L -101.422,-20.8141  L -101.358,-20.7596 L -101.298,-20.7021 L -101.24,-20.6417 L -101.186,-20.5785 L -101.135,-20.5127 L -101.086,-20.4445  L -101.042,-20.374 L -101.001,-20.3014 L -100.963,-20.2269 L -100.929,-20.1506 L -100.899,-20.0727 L -100.873,-19.9935  L -100.851,-19.9131 L -100.833,-19.8317 L -100.818,-19.7495 L -100.808,-19.6666 L -100.802,-19.5834 L -100.8,-19.5  L -100.802,-19.4166 L -100.808,-19.3334 L -100.818,-19.2506 L -100.833,-19.1684 L -100.851,-19.0869 L -100.873,-19.0065  L -100.899,-18.9273 L -100.929,-18.8494 L -100.963,-18.7732 L -101.001,-18.6986 L -101.042,-18.626 L -101.086,-18.5555  L -101.135,-18.4873 L -101.186,-18.4215 L -101.24,-18.3584 L -101.298,-18.2979 L -101.358,-18.2404 L -101.422,-18.1859  L -101.487,-18.1346 L -101.556,-18.0865 L -101.626,-18.0419 L -101.699,-18.0007 L -101.773,-17.9632 L -101.849,-17.9294  L -101.927,-17.8994 L -102.007,-17.8732 L -102.087,-17.851 L -102.168,-17.8327 L -102.251,-17.8184 L -102.333,-17.8082  L -102.417,-17.802 L -102.5,-17.8 z M 82.4166,-17.802 L 82.3334,-17.8082 L 82.2505,-17.8184 L 82.1683,-17.8327 L 82.0869,-17.851 L 82.0065,-17.8732  L 81.9273,-17.8994 L 81.8494,-17.9294 L 81.7731,-17.9632 L 81.6986,-18.0007 L 81.626,-18.0419 L 81.5555,-18.0865  L 81.4873,-18.1346 L 81.4215,-18.1859 L 81.3583,-18.2404 L 81.2979,-18.2979 L 81.2404,-18.3584 L 81.1859,-18.4215  L 81.1345,-18.4873 L 81.0865,-18.5555 L 81.0419,-18.626 L 81.0007,-18.6986 L 80.9632,-18.7732 L 80.9294,-18.8494  L 80.8994,-18.9273 L 80.8732,-19.0065 L 80.8509,-19.0869 L 80.8327,-19.1684 L 80.8184,-19.2506 L 80.8082,-19.3334  L 80.802,-19.4166 L 80.8,-19.5 L 80.802,-19.5834 L 80.8082,-19.6666 L 80.8184,-19.7495 L 80.8327,-19.8317  L 80.8509,-19.9131 L 80.8732,-19.9935 L 80.8994,-20.0727 L 80.9294,-20.1506 L 80.9632,-20.2269 L 81.0007,-20.3014  L 81.0419,-20.374 L 81.0865,-20.4445 L 81.1345,-20.5127 L 81.1859,-20.5785 L 81.2404,-20.6417 L 81.2979,-20.7021  L 81.3583,-20.7596 L 81.4215,-20.8141 L 81.4873,-20.8655 L 81.5555,-20.9135 L 81.626,-20.9581 L 81.6986,-20.9993  L 81.7731,-21.0368 L 81.8494,-21.0706 L 81.9273,-21.1006 L 82.0065,-21.1268 L 82.0869,-21.1491 L 82.1683,-21.1673  L 82.2505,-21.1816 L 82.3334,-21.1918 L 82.4166,-21.198 L 82.5,-21.2 L 82.5834,-21.198 L 82.6666,-21.1918  L 82.7494,-21.1816 L 82.8316,-21.1673 L 82.9131,-21.1491 L 82.9935,-21.1268 L 83.0727,-21.1006 L 83.1506,-21.0706  L 83.2268,-21.0368 L 83.3014,-20.9993 L 83.374,-20.9581 L 83.4445,-20.9135 L 83.5127,-20.8655 L 83.5785,-20.8141  L 83.6416,-20.7596 L 83.7021,-20.7021 L 83.7596,-20.6417 L 83.8141,-20.5785 L 83.8654,-20.5127 L 83.9135,-20.4445  L 83.9581,-20.374 L 83.9993,-20.3014 L 84.0368,-20.2269 L 84.0706,-20.1506 L 84.1006,-20.0727 L 84.1268,-19.9935  L 84.149,-19.9131 L 84.1673,-19.8317 L 84.1816,-19.7495 L 84.1918,-19.6666 L 84.198,-19.5834 L 84.2,-19.5  L 84.198,-19.4166 L 84.1918,-19.3334 L 84.1816,-19.2506 L 84.1673,-19.1684 L 84.149,-19.0869 L 84.1268,-19.0065  L 84.1006,-18.9273 L 84.0706,-18.8494 L 84.0368,-18.7732 L 83.9993,-18.6986 L 83.9581,-18.626 L 83.9135,-18.5555  L 83.8654,-18.4873 L 83.8141,-18.4215 L 83.7596,-18.3584 L 83.7021,-18.2979 L 83.6416,-18.2404 L 83.5785,-18.1859  L 83.5127,-18.1346 L 83.4445,-18.0865 L 83.374,-18.0419 L 83.3014,-18.0007 L 83.2268,-17.9632 L 83.1506,-17.9294  L 83.0727,-17.8994 L 82.9935,-17.8732 L 82.9131,-17.851 L 82.8316,-17.8327 L 82.7494,-17.8184 L 82.6666,-17.8082  L 82.5834,-17.802 L 82.5,-17.8 z M -115,-10 L -115,-20 L -111,-20 L -111,-10 z M 111,-10 L 111,-20 L 115,-20 L 115,-10 z "
     stroke="black"
     fill="lightgray"
     stroke-width="0.5"
     id="path4"
     style="fill:#0000ff;fill-opacity:1;stroke:#ff0000;stroke-opacity:1;stroke-width:0.01;stroke-miterlimit:4;stroke-dasharray:none" />
  <metadata
     id="metadata827">
    <rdf:RDF>
      <cc:Work
         rdf:about="">
        <dc:title>OpenSCAD Model</dc:title>
      </cc:Work>
    </rdf:RDF>
  </metadata>
  <text
     xml:space="preserve"
     style="font-style:normal;font-weight:normal;font-size:5.64444px;line-height:1.25;font-family:sans-serif;letter-spacing:0px;word-spacing:0px;fill:#000000;fill-opacity:1;stroke:none;stroke-width:0.264583"
     x="72.167648"
     y="-109.98972"
     id="text3835"
     transform="rotate(-90)"><tspan
       sodipodi:role="line"
       id="tspan3833"
       style="font-style:normal;font-variant:normal;font-weight:normal;font-stretch:normal;font-size:5.64444px;font-family:Consolas;-inkscape-font-specification:Consolas;stroke-width:0.264583"
       x="72.167648"
       y="-109.98972">iMac radiator mount - v1.0</tspan></text>
</svg>
