<?xml version="1.0" encoding="UTF-8" standalone="no"?>
<svg
   width="240mm"
   height="270mm"
   viewBox="-120 -270 240 270"
   version="1.1"
   id="svg6"
   sodipodi:docname="rad_mount_2D_v1.0_5mm_print.svg"
   inkscape:version="1.1 (c68e22c387, 2021-05-23)"
   xmlns:inkscape="http://www.inkscape.org/namespaces/inkscape"
   xmlns:sodipodi="http://sodipodi.sourceforge.net/DTD/sodipodi-0.dtd"
   xmlns="http://www.w3.org/2000/svg"
   xmlns:svg="http://www.w3.org/2000/svg"
   xmlns:rdf="http://www.w3.org/1999/02/22-rdf-syntax-ns#"
   xmlns:cc="http://creativecommons.org/ns#"
   xmlns:dc="http://purl.org/dc/elements/1.1/">
  <defs
     id="defs10" />
  <sodipodi:namedview
     id="namedview8"
     pagecolor="#ffffff"
     bordercolor="#666666"
     borderopacity="1.0"
     inkscape:pageshadow="2"
     inkscape:pageopacity="0.0"
     inkscape:pagecheckerboard="0"
     inkscape:document-units="mm"
     showgrid="false"
     inkscape:zoom="0.73789352"
     inkscape:cx="453.99504"
     inkscape:cy="510.23622"
     inkscape:window-width="1920"
     inkscape:window-height="1017"
     inkscape:window-x="754"
     inkscape:window-y="847"
     inkscape:window-maximized="1"
     inkscape:current-layer="svg6" />
  <title
     id="title2">OpenSCAD Model</title>
  <path
     d=" M 60.5,-225 L -60.5,-225 L -60.5,-270 L -65,-270 L -65,-265 L -75,-265  L -75,-270 L -85,-270 L -85,-265 L -86,-265 L -86.0982,-264.999 L -86.1963,-264.995  L -86.2943,-264.989 L -86.3921,-264.981 L -86.4896,-264.97 L -86.5869,-264.957 L -86.6838,-264.941 L -86.7803,-264.923  L -86.8764,-264.903 L -86.9719,-264.88 L -87.0668,-264.855 L -87.1611,-264.828 L -87.2547,-264.798 L -87.3475,-264.766  L -87.4396,-264.732 L -87.5307,-264.696 L -87.621,-264.657 L -87.7102,-264.616 L -87.7984,-264.573 L -87.8856,-264.528  L -87.9716,-264.48 L -88.0564,-264.431 L -88.14,-264.379 L -88.2223,-264.326 L -88.3032,-264.27 L -88.3828,-264.213  L -88.4609,-264.153 L -88.5376,-264.092 L -88.6127,-264.029 L -88.6862,-263.964 L -88.7581,-263.897 L -88.8284,-263.828  L -88.897,-263.758 L -88.9638,-263.686 L -89.0288,-263.613 L -89.092,-263.538 L -89.1534,-263.461 L -89.2128,-263.383  L -89.2703,-263.303 L -89.3259,-263.222 L -89.3794,-263.14 L -89.4309,-263.056 L -89.4803,-262.972 L -89.5277,-262.886  L -89.5729,-262.798 L -89.616,-262.71 L -89.6568,-262.621 L -89.6955,-262.531 L -89.732,-262.44 L -89.7662,-262.348  L -89.7981,-262.255 L -89.8278,-262.161 L -89.8551,-262.067 L -89.8801,-261.972 L -89.9028,-261.876 L -89.9231,-261.78  L -89.9411,-261.684 L -89.9567,-261.587 L -89.9699,-261.49 L -89.9807,-261.392 L -89.9892,-261.294 L -89.9952,-261.196  L -89.9988,-261.098 L -90,-261 L -90,-215 L -116,-215 L -116.098,-214.999 L -116.196,-214.995  L -116.294,-214.989 L -116.392,-214.981 L -116.49,-214.97 L -116.587,-214.957 L -116.684,-214.941 L -116.78,-214.923  L -116.876,-214.903 L -116.972,-214.88 L -117.067,-214.855 L -117.161,-214.828 L -117.255,-214.798 L -117.348,-214.766  L -117.44,-214.732 L -117.531,-214.696 L -117.621,-214.657 L -117.71,-214.616 L -117.798,-214.573 L -117.886,-214.528  L -117.972,-214.48 L -118.056,-214.431 L -118.14,-214.379 L -118.222,-214.326 L -118.303,-214.27 L -118.383,-214.213  L -118.461,-214.153 L -118.538,-214.092 L -118.613,-214.029 L -118.686,-213.964 L -118.758,-213.897 L -118.828,-213.828  L -118.897,-213.758 L -118.964,-213.686 L -119.029,-213.613 L -119.092,-213.538 L -119.153,-213.461 L -119.213,-213.383  L -119.27,-213.303 L -119.326,-213.222 L -119.379,-213.14 L -119.431,-213.056 L -119.48,-212.972 L -119.528,-212.886  L -119.573,-212.798 L -119.616,-212.71 L -119.657,-212.621 L -119.696,-212.531 L -119.732,-212.44 L -119.766,-212.348  L -119.798,-212.255 L -119.828,-212.161 L -119.855,-212.067 L -119.88,-211.972 L -119.903,-211.876 L -119.923,-211.78  L -119.941,-211.684 L -119.957,-211.587 L -119.97,-211.49 L -119.981,-211.392 L -119.989,-211.294 L -119.995,-211.196  L -119.999,-211.098 L -120,-211 L -120,-0 L -115,-0 L -115,-5 L -105,-5  L -105,-0 L -95,-0 L -95,-5 L -85,-5 L -85,-0 L -75,-0  L -75,-5 L -65,-5 L -65,-0 L -55,-0 L -55,-5 L -45,-5  L -45,-0 L -35,-0 L -35,-5 L -25,-5 L -25,-0 L -15,-0  L -15,-5 L -5,-5 L -5,-0 L 5,-0 L 5,-5 L 15,-5  L 15,-0 L 25,-0 L 25,-5 L 35,-5 L 35,-0 L 45,-0  L 45,-5 L 55,-5 L 55,-0 L 65,-0 L 65,-5 L 75,-5  L 75,-0 L 85,-0 L 85,-5 L 95,-5 L 95,-0 L 105,-0  L 105,-5 L 115,-5 L 115,-0 L 120,-0 L 120,-211 L 119.999,-211.098  L 119.995,-211.196 L 119.989,-211.294 L 119.981,-211.392 L 119.97,-211.49 L 119.957,-211.587 L 119.941,-211.684  L 119.923,-211.78 L 119.903,-211.876 L 119.88,-211.972 L 119.855,-212.067 L 119.828,-212.161 L 119.798,-212.255  L 119.766,-212.348 L 119.732,-212.44 L 119.696,-212.531 L 119.657,-212.621 L 119.616,-212.71 L 119.573,-212.798  L 119.528,-212.886 L 119.48,-212.972 L 119.431,-213.056 L 119.379,-213.14 L 119.326,-213.222 L 119.27,-213.303  L 119.213,-213.383 L 119.153,-213.461 L 119.092,-213.538 L 119.029,-213.613 L 118.964,-213.686 L 118.897,-213.758  L 118.828,-213.828 L 118.758,-213.897 L 118.686,-213.964 L 118.613,-214.029 L 118.538,-214.092 L 118.461,-214.153  L 118.383,-214.213 L 118.303,-214.27 L 118.222,-214.326 L 118.14,-214.379 L 118.056,-214.431 L 117.972,-214.48  L 117.886,-214.528 L 117.798,-214.573 L 117.71,-214.616 L 117.621,-214.657 L 117.531,-214.696 L 117.44,-214.732  L 117.348,-214.766 L 117.255,-214.798 L 117.161,-214.828 L 117.067,-214.855 L 116.972,-214.88 L 116.876,-214.903  L 116.78,-214.923 L 116.684,-214.941 L 116.587,-214.957 L 116.49,-214.97 L 116.392,-214.981 L 116.294,-214.989  L 116.196,-214.995 L 116.098,-214.999 L 116,-215 L 90,-215 L 90,-261 L 89.9988,-261.098  L 89.9952,-261.196 L 89.9892,-261.294 L 89.9807,-261.392 L 89.9699,-261.49 L 89.9567,-261.587 L 89.9411,-261.684  L 89.9231,-261.78 L 89.9028,-261.876 L 89.8801,-261.972 L 89.8551,-262.067 L 89.8278,-262.161 L 89.7981,-262.255  L 89.7662,-262.348 L 89.732,-262.44 L 89.6955,-262.531 L 89.6568,-262.621 L 89.616,-262.71 L 89.5729,-262.798  L 89.5277,-262.886 L 89.4803,-262.972 L 89.4309,-263.056 L 89.3794,-263.14 L 89.3259,-263.222 L 89.2703,-263.303  L 89.2128,-263.383 L 89.1534,-263.461 L 89.092,-263.538 L 89.0288,-263.613 L 88.9638,-263.686 L 88.897,-263.758  L 88.8284,-263.828 L 88.7581,-263.897 L 88.6862,-263.964 L 88.6127,-264.029 L 88.5376,-264.092 L 88.4609,-264.153  L 88.3828,-264.213 L 88.3032,-264.27 L 88.2223,-264.326 L 88.14,-264.379 L 88.0564,-264.431 L 87.9716,-264.48  L 87.8856,-264.528 L 87.7984,-264.573 L 87.7102,-264.616 L 87.621,-264.657 L 87.5307,-264.696 L 87.4396,-264.732  L 87.3475,-264.766 L 87.2547,-264.798 L 87.1611,-264.828 L 87.0668,-264.855 L 86.9719,-264.88 L 86.8764,-264.903  L 86.7803,-264.923 L 86.6838,-264.941 L 86.5869,-264.957 L 86.4896,-264.97 L 86.3921,-264.981 L 86.2943,-264.989  L 86.1963,-264.995 L 86.0982,-264.999 L 86,-265 L 85,-265 L 85,-270 L 75,-270  L 75,-265 L 65,-265 L 65,-270 L 60.5,-270 z M -102.583,-203.302 L -102.667,-203.308 L -102.749,-203.318 L -102.832,-203.333 L -102.913,-203.351 L -102.993,-203.373  L -103.073,-203.399 L -103.151,-203.429 L -103.227,-203.463 L -103.301,-203.501 L -103.374,-203.542 L -103.444,-203.586  L -103.513,-203.635 L -103.578,-203.686 L -103.642,-203.74 L -103.702,-203.798 L -103.76,-203.858 L -103.814,-203.922  L -103.865,-203.987 L -103.913,-204.056 L -103.958,-204.126 L -103.999,-204.199 L -104.037,-204.273 L -104.071,-204.349  L -104.101,-204.427 L -104.127,-204.507 L -104.149,-204.587 L -104.167,-204.668 L -104.182,-204.751 L -104.192,-204.833  L -104.198,-204.917 L -104.2,-205 L -104.198,-205.083 L -104.192,-205.167 L -104.182,-205.249 L -104.167,-205.332  L -104.149,-205.413 L -104.127,-205.493 L -104.101,-205.573 L -104.071,-205.651 L -104.037,-205.727 L -103.999,-205.801  L -103.958,-205.874 L -103.913,-205.944 L -103.865,-206.013 L -103.814,-206.078 L -103.76,-206.142 L -103.702,-206.202  L -103.642,-206.26 L -103.578,-206.314 L -103.513,-206.365 L -103.444,-206.413 L -103.374,-206.458 L -103.301,-206.499  L -103.227,-206.537 L -103.151,-206.571 L -103.073,-206.601 L -102.993,-206.627 L -102.913,-206.649 L -102.832,-206.667  L -102.749,-206.682 L -102.667,-206.692 L -102.583,-206.698 L -102.5,-206.7 L -102.417,-206.698 L -102.333,-206.692  L -102.251,-206.682 L -102.168,-206.667 L -102.087,-206.649 L -102.007,-206.627 L -101.927,-206.601 L -101.849,-206.571  L -101.773,-206.537 L -101.699,-206.499 L -101.626,-206.458 L -101.556,-206.413 L -101.487,-206.365 L -101.422,-206.314  L -101.358,-206.26 L -101.298,-206.202 L -101.24,-206.142 L -101.186,-206.078 L -101.135,-206.013 L -101.086,-205.944  L -101.042,-205.874 L -101.001,-205.801 L -100.963,-205.727 L -100.929,-205.651 L -100.899,-205.573 L -100.873,-205.493  L -100.851,-205.413 L -100.833,-205.332 L -100.818,-205.249 L -100.808,-205.167 L -100.802,-205.083 L -100.8,-205  L -100.802,-204.917 L -100.808,-204.833 L -100.818,-204.751 L -100.833,-204.668 L -100.851,-204.587 L -100.873,-204.507  L -100.899,-204.427 L -100.929,-204.349 L -100.963,-204.273 L -101.001,-204.199 L -101.042,-204.126 L -101.086,-204.056  L -101.135,-203.987 L -101.186,-203.922 L -101.24,-203.858 L -101.298,-203.798 L -101.358,-203.74 L -101.422,-203.686  L -101.487,-203.635 L -101.556,-203.586 L -101.626,-203.542 L -101.699,-203.501 L -101.773,-203.463 L -101.849,-203.429  L -101.927,-203.399 L -102.007,-203.373 L -102.087,-203.351 L -102.168,-203.333 L -102.251,-203.318 L -102.333,-203.308  L -102.417,-203.302 L -102.5,-203.3 z M 82.4166,-203.302 L 82.3334,-203.308 L 82.2505,-203.318 L 82.1683,-203.333 L 82.0869,-203.351 L 82.0065,-203.373  L 81.9273,-203.399 L 81.8494,-203.429 L 81.7731,-203.463 L 81.6986,-203.501 L 81.626,-203.542 L 81.5555,-203.586  L 81.4873,-203.635 L 81.4215,-203.686 L 81.3583,-203.74 L 81.2979,-203.798 L 81.2404,-203.858 L 81.1859,-203.922  L 81.1345,-203.987 L 81.0865,-204.056 L 81.0419,-204.126 L 81.0007,-204.199 L 80.9632,-204.273 L 80.9294,-204.349  L 80.8994,-204.427 L 80.8732,-204.507 L 80.8509,-204.587 L 80.8327,-204.668 L 80.8184,-204.751 L 80.8082,-204.833  L 80.802,-204.917 L 80.8,-205 L 80.802,-205.083 L 80.8082,-205.167 L 80.8184,-205.249 L 80.8327,-205.332  L 80.8509,-205.413 L 80.8732,-205.493 L 80.8994,-205.573 L 80.9294,-205.651 L 80.9632,-205.727 L 81.0007,-205.801  L 81.0419,-205.874 L 81.0865,-205.944 L 81.1345,-206.013 L 81.1859,-206.078 L 81.2404,-206.142 L 81.2979,-206.202  L 81.3583,-206.26 L 81.4215,-206.314 L 81.4873,-206.365 L 81.5555,-206.413 L 81.626,-206.458 L 81.6986,-206.499  L 81.7731,-206.537 L 81.8494,-206.571 L 81.9273,-206.601 L 82.0065,-206.627 L 82.0869,-206.649 L 82.1683,-206.667  L 82.2505,-206.682 L 82.3334,-206.692 L 82.4166,-206.698 L 82.5,-206.7 L 82.5834,-206.698 L 82.6666,-206.692  L 82.7494,-206.682 L 82.8316,-206.667 L 82.9131,-206.649 L 82.9935,-206.627 L 83.0727,-206.601 L 83.1506,-206.571  L 83.2268,-206.537 L 83.3014,-206.499 L 83.374,-206.458 L 83.4445,-206.413 L 83.5127,-206.365 L 83.5785,-206.314  L 83.6416,-206.26 L 83.7021,-206.202 L 83.7596,-206.142 L 83.8141,-206.078 L 83.8654,-206.013 L 83.9135,-205.944  L 83.9581,-205.874 L 83.9993,-205.801 L 84.0368,-205.727 L 84.0706,-205.651 L 84.1006,-205.573 L 84.1268,-205.493  L 84.149,-205.413 L 84.1673,-205.332 L 84.1816,-205.249 L 84.1918,-205.167 L 84.198,-205.083 L 84.2,-205  L 84.198,-204.917 L 84.1918,-204.833 L 84.1816,-204.751 L 84.1673,-204.668 L 84.149,-204.587 L 84.1268,-204.507  L 84.1006,-204.427 L 84.0706,-204.349 L 84.0368,-204.273 L 83.9993,-204.199 L 83.9581,-204.126 L 83.9135,-204.056  L 83.8654,-203.987 L 83.8141,-203.922 L 83.7596,-203.858 L 83.7021,-203.798 L 83.6416,-203.74 L 83.5785,-203.686  L 83.5127,-203.635 L 83.4445,-203.586 L 83.374,-203.542 L 83.3014,-203.501 L 83.2268,-203.463 L 83.1506,-203.429  L 83.0727,-203.399 L 82.9935,-203.373 L 82.9131,-203.351 L 82.8316,-203.333 L 82.7494,-203.318 L 82.6666,-203.308  L 82.5834,-203.302 L 82.5,-203.3 z M -92.5,-22.5 L -92.7454,-22.503 L -92.9907,-22.5121 L -93.2356,-22.5271 L -93.4802,-22.5482 L -93.7241,-22.5752  L -93.9673,-22.6082 L -94.2096,-22.6472 L -94.4509,-22.6922 L -94.691,-22.743 L -94.9298,-22.7997 L -95.1671,-22.8622  L -95.4028,-22.9306 L -95.6368,-23.0047 L -95.8689,-23.0846 L -96.0989,-23.1701 L -96.3268,-23.2612 L -96.5524,-23.3579  L -96.7755,-23.4601 L -96.9961,-23.5678 L -97.214,-23.6808 L -97.429,-23.7991 L -97.641,-23.9227 L -97.85,-24.0515  L -98.0557,-24.1853 L -98.2581,-24.3242 L -98.457,-24.4679 L -98.6523,-24.6165 L -98.8439,-24.7699 L -99.0317,-24.9279  L -99.2156,-25.0905 L -99.3954,-25.2575 L -99.5711,-25.4289 L -99.7425,-25.6046 L -99.9095,-25.7844 L -100.072,-25.9683  L -100.23,-26.1561 L -100.383,-26.3477 L -100.532,-26.543 L -100.676,-26.7419 L -100.815,-26.9443 L -100.949,-27.15  L -101.077,-27.359 L -101.201,-27.571 L -101.319,-27.786 L -101.432,-28.0039 L -101.54,-28.2245 L -101.642,-28.4476  L -101.739,-28.6732 L -101.83,-28.9011 L -101.915,-29.1311 L -101.995,-29.3632 L -102.069,-29.5972 L -102.138,-29.8329  L -102.2,-30.0702 L -102.257,-30.309 L -102.308,-30.5491 L -102.353,-30.7904 L -102.392,-31.0327 L -102.425,-31.2759  L -102.452,-31.5198 L -102.473,-31.7644 L -102.488,-32.0093 L -102.497,-32.2546 L -102.5,-32.5 L -102.5,-192.5  L -102.497,-192.745 L -102.488,-192.991 L -102.473,-193.236 L -102.452,-193.48 L -102.425,-193.724 L -102.392,-193.967  L -102.353,-194.21 L -102.308,-194.451 L -102.257,-194.691 L -102.2,-194.93 L -102.138,-195.167 L -102.069,-195.403  L -101.995,-195.637 L -101.915,-195.869 L -101.83,-196.099 L -101.739,-196.327 L -101.642,-196.552 L -101.54,-196.776  L -101.432,-196.996 L -101.319,-197.214 L -101.201,-197.429 L -101.077,-197.641 L -100.949,-197.85 L -100.815,-198.056  L -100.676,-198.258 L -100.532,-198.457 L -100.383,-198.652 L -100.23,-198.844 L -100.072,-199.032 L -99.9095,-199.216  L -99.7425,-199.395 L -99.5711,-199.571 L -99.3954,-199.742 L -99.2156,-199.91 L -99.0317,-200.072 L -98.8439,-200.23  L -98.6523,-200.383 L -98.457,-200.532 L -98.2581,-200.676 L -98.0557,-200.815 L -97.85,-200.949 L -97.641,-201.077  L -97.429,-201.201 L -97.214,-201.319 L -96.9961,-201.432 L -96.7755,-201.54 L -96.5524,-201.642 L -96.3268,-201.739  L -96.0989,-201.83 L -95.8689,-201.915 L -95.6368,-201.995 L -95.4028,-202.069 L -95.1671,-202.138 L -94.9298,-202.2  L -94.691,-202.257 L -94.4509,-202.308 L -94.2096,-202.353 L -93.9673,-202.392 L -93.7241,-202.425 L -93.4802,-202.452  L -93.2356,-202.473 L -92.9907,-202.488 L -92.7454,-202.497 L -92.5,-202.5 L 72.5,-202.5 L 72.7454,-202.497  L 72.9907,-202.488 L 73.2356,-202.473 L 73.4802,-202.452 L 73.7241,-202.425 L 73.9673,-202.392 L 74.2096,-202.353  L 74.4509,-202.308 L 74.691,-202.257 L 74.9298,-202.2 L 75.1671,-202.138 L 75.4028,-202.069 L 75.6368,-201.995  L 75.8689,-201.915 L 76.0989,-201.83 L 76.3268,-201.739 L 76.5524,-201.642 L 76.7755,-201.54 L 76.9961,-201.432  L 77.214,-201.319 L 77.429,-201.201 L 77.641,-201.077 L 77.85,-200.949 L 78.0557,-200.815 L 78.2581,-200.676  L 78.457,-200.532 L 78.6523,-200.383 L 78.8439,-200.23 L 79.0317,-200.072 L 79.2156,-199.91 L 79.3954,-199.742  L 79.5711,-199.571 L 79.7425,-199.395 L 79.9095,-199.216 L 80.0721,-199.032 L 80.2301,-198.844 L 80.3835,-198.652  L 80.5321,-198.457 L 80.6758,-198.258 L 80.8147,-198.056 L 80.9485,-197.85 L 81.0773,-197.641 L 81.2009,-197.429  L 81.3192,-197.214 L 81.4322,-196.996 L 81.5399,-196.776 L 81.6421,-196.552 L 81.7388,-196.327 L 81.8299,-196.099  L 81.9154,-195.869 L 81.9953,-195.637 L 82.0694,-195.403 L 82.1378,-195.167 L 82.2003,-194.93 L 82.257,-194.691  L 82.3078,-194.451 L 82.3528,-194.21 L 82.3918,-193.967 L 82.4248,-193.724 L 82.4518,-193.48 L 82.4729,-193.236  L 82.4879,-192.991 L 82.497,-192.745 L 82.5,-192.5 L 82.5,-32.5 L 82.497,-32.2546 L 82.4879,-32.0093  L 82.4729,-31.7644 L 82.4518,-31.5198 L 82.4248,-31.2759 L 82.3918,-31.0327 L 82.3528,-30.7904 L 82.3078,-30.5491  L 82.257,-30.309 L 82.2003,-30.0702 L 82.1378,-29.8329 L 82.0694,-29.5972 L 81.9953,-29.3632 L 81.9154,-29.1311  L 81.8299,-28.9011 L 81.7388,-28.6732 L 81.6421,-28.4476 L 81.5399,-28.2245 L 81.4322,-28.0039 L 81.3192,-27.786  L 81.2009,-27.571 L 81.0773,-27.359 L 80.9485,-27.15 L 80.8147,-26.9443 L 80.6758,-26.7419 L 80.5321,-26.543  L 80.3835,-26.3477 L 80.2301,-26.1561 L 80.0721,-25.9683 L 79.9095,-25.7844 L 79.7425,-25.6046 L 79.5711,-25.4289  L 79.3954,-25.2575 L 79.2156,-25.0905 L 79.0317,-24.9279 L 78.8439,-24.7699 L 78.6523,-24.6165 L 78.457,-24.4679  L 78.2581,-24.3242 L 78.0557,-24.1853 L 77.85,-24.0515 L 77.641,-23.9227 L 77.429,-23.7991 L 77.214,-23.6808  L 76.9961,-23.5678 L 76.7755,-23.4601 L 76.5524,-23.3579 L 76.3268,-23.2612 L 76.0989,-23.1701 L 75.8689,-23.0846  L 75.6368,-23.0047 L 75.4028,-22.9306 L 75.1671,-22.8622 L 74.9298,-22.7997 L 74.691,-22.743 L 74.4509,-22.6922  L 74.2096,-22.6472 L 73.9673,-22.6082 L 73.7241,-22.5752 L 73.4802,-22.5482 L 73.2356,-22.5271 L 72.9907,-22.5121  L 72.7454,-22.503 L 72.5,-22.5 z M 101.255,-151.503 L 101.009,-151.512 L 100.764,-151.527 L 100.52,-151.548 L 100.276,-151.575 L 100.033,-151.608  L 99.7904,-151.647 L 99.5491,-151.692 L 99.309,-151.743 L 99.0702,-151.8 L 98.8329,-151.862 L 98.5972,-151.931  L 98.3632,-152.005 L 98.1311,-152.085 L 97.9011,-152.17 L 97.6732,-152.261 L 97.4476,-152.358 L 97.2245,-152.46  L 97.0039,-152.568 L 96.786,-152.681 L 96.571,-152.799 L 96.359,-152.923 L 96.15,-153.051 L 95.9443,-153.185  L 95.7419,-153.324 L 95.543,-153.468 L 95.3477,-153.617 L 95.1561,-153.77 L 94.9683,-153.928 L 94.7844,-154.09  L 94.6046,-154.258 L 94.4289,-154.429 L 94.2575,-154.605 L 94.0905,-154.784 L 93.9279,-154.968 L 93.7699,-155.156  L 93.6165,-155.348 L 93.4679,-155.543 L 93.3242,-155.742 L 93.1853,-155.944 L 93.0515,-156.15 L 92.9227,-156.359  L 92.7991,-156.571 L 92.6808,-156.786 L 92.5678,-157.004 L 92.4601,-157.224 L 92.3579,-157.448 L 92.2612,-157.673  L 92.1701,-157.901 L 92.0846,-158.131 L 92.0047,-158.363 L 91.9306,-158.597 L 91.8622,-158.833 L 91.7997,-159.07  L 91.743,-159.309 L 91.6922,-159.549 L 91.6472,-159.79 L 91.6082,-160.033 L 91.5752,-160.276 L 91.5482,-160.52  L 91.5271,-160.764 L 91.5121,-161.009 L 91.503,-161.255 L 91.5,-161.5 L 91.503,-161.745 L 91.5121,-161.991  L 91.5271,-162.236 L 91.5482,-162.48 L 91.5752,-162.724 L 91.6082,-162.967 L 91.6472,-163.21 L 91.6922,-163.451  L 91.743,-163.691 L 91.7997,-163.93 L 91.8622,-164.167 L 91.9306,-164.403 L 92.0047,-164.637 L 92.0846,-164.869  L 92.1701,-165.099 L 92.2612,-165.327 L 92.3579,-165.552 L 92.4601,-165.776 L 92.5678,-165.996 L 92.6808,-166.214  L 92.7991,-166.429 L 92.9227,-166.641 L 93.0515,-166.85 L 93.1853,-167.056 L 93.3242,-167.258 L 93.4679,-167.457  L 93.6165,-167.652 L 93.7699,-167.844 L 93.9279,-168.032 L 94.0905,-168.216 L 94.2575,-168.395 L 94.4289,-168.571  L 94.6046,-168.742 L 94.7844,-168.91 L 94.9683,-169.072 L 95.1561,-169.23 L 95.3477,-169.383 L 95.543,-169.532  L 95.7419,-169.676 L 95.9443,-169.815 L 96.15,-169.949 L 96.359,-170.077 L 96.571,-170.201 L 96.786,-170.319  L 97.0039,-170.432 L 97.2245,-170.54 L 97.4476,-170.642 L 97.6732,-170.739 L 97.9011,-170.83 L 98.1311,-170.915  L 98.3632,-170.995 L 98.5972,-171.069 L 98.8329,-171.138 L 99.0702,-171.2 L 99.309,-171.257 L 99.5491,-171.308  L 99.7904,-171.353 L 100.033,-171.392 L 100.276,-171.425 L 100.52,-171.452 L 100.764,-171.473 L 101.009,-171.488  L 101.255,-171.497 L 101.5,-171.5 L 101.745,-171.497 L 101.991,-171.488 L 102.236,-171.473 L 102.48,-171.452  L 102.724,-171.425 L 102.967,-171.392 L 103.21,-171.353 L 103.451,-171.308 L 103.691,-171.257 L 103.93,-171.2  L 104.167,-171.138 L 104.403,-171.069 L 104.637,-170.995 L 104.869,-170.915 L 105.099,-170.83 L 105.327,-170.739  L 105.552,-170.642 L 105.776,-170.54 L 105.996,-170.432 L 106.214,-170.319 L 106.429,-170.201 L 106.641,-170.077  L 106.85,-169.949 L 107.056,-169.815 L 107.258,-169.676 L 107.457,-169.532 L 107.652,-169.383 L 107.844,-169.23  L 108.032,-169.072 L 108.216,-168.91 L 108.395,-168.742 L 108.571,-168.571 L 108.742,-168.395 L 108.91,-168.216  L 109.072,-168.032 L 109.23,-167.844 L 109.383,-167.652 L 109.532,-167.457 L 109.676,-167.258 L 109.815,-167.056  L 109.949,-166.85 L 110.077,-166.641 L 110.201,-166.429 L 110.319,-166.214 L 110.432,-165.996 L 110.54,-165.776  L 110.642,-165.552 L 110.739,-165.327 L 110.83,-165.099 L 110.915,-164.869 L 110.995,-164.637 L 111.069,-164.403  L 111.138,-164.167 L 111.2,-163.93 L 111.257,-163.691 L 111.308,-163.451 L 111.353,-163.21 L 111.392,-162.967  L 111.425,-162.724 L 111.452,-162.48 L 111.473,-162.236 L 111.488,-161.991 L 111.497,-161.745 L 111.5,-161.5  L 111.497,-161.255 L 111.488,-161.009 L 111.473,-160.764 L 111.452,-160.52 L 111.425,-160.276 L 111.392,-160.033  L 111.353,-159.79 L 111.308,-159.549 L 111.257,-159.309 L 111.2,-159.07 L 111.138,-158.833 L 111.069,-158.597  L 110.995,-158.363 L 110.915,-158.131 L 110.83,-157.901 L 110.739,-157.673 L 110.642,-157.448 L 110.54,-157.224  L 110.432,-157.004 L 110.319,-156.786 L 110.201,-156.571 L 110.077,-156.359 L 109.949,-156.15 L 109.815,-155.944  L 109.676,-155.742 L 109.532,-155.543 L 109.383,-155.348 L 109.23,-155.156 L 109.072,-154.968 L 108.91,-154.784  L 108.742,-154.605 L 108.571,-154.429 L 108.395,-154.258 L 108.216,-154.09 L 108.032,-153.928 L 107.844,-153.77  L 107.652,-153.617 L 107.457,-153.468 L 107.258,-153.324 L 107.056,-153.185 L 106.85,-153.051 L 106.641,-152.923  L 106.429,-152.799 L 106.214,-152.681 L 105.996,-152.568 L 105.776,-152.46 L 105.552,-152.358 L 105.327,-152.261  L 105.099,-152.17 L 104.869,-152.085 L 104.637,-152.005 L 104.403,-151.931 L 104.167,-151.862 L 103.93,-151.8  L 103.691,-151.743 L 103.451,-151.692 L 103.21,-151.647 L 102.967,-151.608 L 102.724,-151.575 L 102.48,-151.548  L 102.236,-151.527 L 101.991,-151.512 L 101.745,-151.503 L 101.5,-151.5 z M 101.255,-53.503 L 101.009,-53.5121 L 100.764,-53.5271 L 100.52,-53.5482 L 100.276,-53.5752 L 100.033,-53.6082  L 99.7904,-53.6472 L 99.5491,-53.6922 L 99.309,-53.743 L 99.0702,-53.7997 L 98.8329,-53.8622 L 98.5972,-53.9306  L 98.3632,-54.0047 L 98.1311,-54.0846 L 97.9011,-54.1701 L 97.6732,-54.2612 L 97.4476,-54.3579 L 97.2245,-54.4601  L 97.0039,-54.5678 L 96.786,-54.6808 L 96.571,-54.7991 L 96.359,-54.9227 L 96.15,-55.0515 L 95.9443,-55.1853  L 95.7419,-55.3242 L 95.543,-55.4679 L 95.3477,-55.6165 L 95.1561,-55.7699 L 94.9683,-55.9279 L 94.7844,-56.0905  L 94.6046,-56.2575 L 94.4289,-56.4289 L 94.2575,-56.6046 L 94.0905,-56.7844 L 93.9279,-56.9683 L 93.7699,-57.1561  L 93.6165,-57.3477 L 93.4679,-57.543 L 93.3242,-57.7419 L 93.1853,-57.9443 L 93.0515,-58.15 L 92.9227,-58.359  L 92.7991,-58.571 L 92.6808,-58.786 L 92.5678,-59.0039 L 92.4601,-59.2245 L 92.3579,-59.4476 L 92.2612,-59.6732  L 92.1701,-59.9011 L 92.0846,-60.1311 L 92.0047,-60.3632 L 91.9306,-60.5972 L 91.8622,-60.8329 L 91.7997,-61.0702  L 91.743,-61.309 L 91.6922,-61.5491 L 91.6472,-61.7904 L 91.6082,-62.0327 L 91.5752,-62.2759 L 91.5482,-62.5198  L 91.5271,-62.7644 L 91.5121,-63.0093 L 91.503,-63.2546 L 91.5,-63.5 L 91.503,-63.7454 L 91.5121,-63.9907  L 91.5271,-64.2357 L 91.5482,-64.4802 L 91.5752,-64.7241 L 91.6082,-64.9673 L 91.6472,-65.2096 L 91.6922,-65.4509  L 91.743,-65.691 L 91.7997,-65.9298 L 91.8622,-66.1671 L 91.9306,-66.4028 L 92.0047,-66.6368 L 92.0846,-66.8689  L 92.1701,-67.099 L 92.2612,-67.3268 L 92.3579,-67.5524 L 92.4601,-67.7756 L 92.5678,-67.9961 L 92.6808,-68.214  L 92.7991,-68.429 L 92.9227,-68.641 L 93.0515,-68.85 L 93.1853,-69.0557 L 93.3242,-69.2581 L 93.4679,-69.457  L 93.6165,-69.6523 L 93.7699,-69.8439 L 93.9279,-70.0317 L 94.0905,-70.2156 L 94.2575,-70.3954 L 94.4289,-70.5711  L 94.6046,-70.7425 L 94.7844,-70.9095 L 94.9683,-71.0721 L 95.1561,-71.2301 L 95.3477,-71.3835 L 95.543,-71.5321  L 95.7419,-71.6759 L 95.9443,-71.8147 L 96.15,-71.9485 L 96.359,-72.0773 L 96.571,-72.2009 L 96.786,-72.3192  L 97.0039,-72.4323 L 97.2245,-72.5399 L 97.4476,-72.6421 L 97.6732,-72.7388 L 97.9011,-72.8299 L 98.1311,-72.9155  L 98.3632,-72.9953 L 98.5972,-73.0694 L 98.8329,-73.1378 L 99.0702,-73.2003 L 99.309,-73.257 L 99.5491,-73.3079  L 99.7904,-73.3528 L 100.033,-73.3918 L 100.276,-73.4248 L 100.52,-73.4519 L 100.764,-73.4729 L 101.009,-73.488  L 101.255,-73.497 L 101.5,-73.5 L 101.745,-73.497 L 101.991,-73.488 L 102.236,-73.4729 L 102.48,-73.4519  L 102.724,-73.4248 L 102.967,-73.3918 L 103.21,-73.3528 L 103.451,-73.3079 L 103.691,-73.257 L 103.93,-73.2003  L 104.167,-73.1378 L 104.403,-73.0694 L 104.637,-72.9953 L 104.869,-72.9155 L 105.099,-72.8299 L 105.327,-72.7388  L 105.552,-72.6421 L 105.776,-72.5399 L 105.996,-72.4323 L 106.214,-72.3192 L 106.429,-72.2009 L 106.641,-72.0773  L 106.85,-71.9485 L 107.056,-71.8147 L 107.258,-71.6759 L 107.457,-71.5321 L 107.652,-71.3835 L 107.844,-71.2301  L 108.032,-71.0721 L 108.216,-70.9095 L 108.395,-70.7425 L 108.571,-70.5711 L 108.742,-70.3954 L 108.91,-70.2156  L 109.072,-70.0317 L 109.23,-69.8439 L 109.383,-69.6523 L 109.532,-69.457 L 109.676,-69.2581 L 109.815,-69.0557  L 109.949,-68.85 L 110.077,-68.641 L 110.201,-68.429 L 110.319,-68.214 L 110.432,-67.9961 L 110.54,-67.7756  L 110.642,-67.5524 L 110.739,-67.3268 L 110.83,-67.099 L 110.915,-66.8689 L 110.995,-66.6368 L 111.069,-66.4028  L 111.138,-66.1671 L 111.2,-65.9298 L 111.257,-65.691 L 111.308,-65.4509 L 111.353,-65.2096 L 111.392,-64.9673  L 111.425,-64.7241 L 111.452,-64.4802 L 111.473,-64.2357 L 111.488,-63.9907 L 111.497,-63.7454 L 111.5,-63.5  L 111.497,-63.2546 L 111.488,-63.0093 L 111.473,-62.7644 L 111.452,-62.5198 L 111.425,-62.2759 L 111.392,-62.0327  L 111.353,-61.7904 L 111.308,-61.5491 L 111.257,-61.309 L 111.2,-61.0702 L 111.138,-60.8329 L 111.069,-60.5972  L 110.995,-60.3632 L 110.915,-60.1311 L 110.83,-59.9011 L 110.739,-59.6732 L 110.642,-59.4476 L 110.54,-59.2245  L 110.432,-59.0039 L 110.319,-58.786 L 110.201,-58.571 L 110.077,-58.359 L 109.949,-58.15 L 109.815,-57.9443  L 109.676,-57.7419 L 109.532,-57.543 L 109.383,-57.3477 L 109.23,-57.1561 L 109.072,-56.9683 L 108.91,-56.7844  L 108.742,-56.6046 L 108.571,-56.4289 L 108.395,-56.2575 L 108.216,-56.0905 L 108.032,-55.9279 L 107.844,-55.7699  L 107.652,-55.6165 L 107.457,-55.4679 L 107.258,-55.3242 L 107.056,-55.1853 L 106.85,-55.0515 L 106.641,-54.9227  L 106.429,-54.7991 L 106.214,-54.6808 L 105.996,-54.5678 L 105.776,-54.4601 L 105.552,-54.3579 L 105.327,-54.2612  L 105.099,-54.1701 L 104.869,-54.0846 L 104.637,-54.0047 L 104.403,-53.9306 L 104.167,-53.8622 L 103.93,-53.7997  L 103.691,-53.743 L 103.451,-53.6922 L 103.21,-53.6472 L 102.967,-53.6082 L 102.724,-53.5752 L 102.48,-53.5482  L 102.236,-53.5271 L 101.991,-53.5121 L 101.745,-53.503 L 101.5,-53.5 z M 110.5,-30 L 110.5,-40 L 115.5,-40 L 115.5,-30 z M -115.5,-30 L -115.5,-40 L -110.5,-40 L -110.5,-30 z M -102.583,-18.302 L -102.667,-18.3082 L -102.749,-18.3184 L -102.832,-18.3327 L -102.913,-18.351 L -102.993,-18.3732  L -103.073,-18.3994 L -103.151,-18.4294 L -103.227,-18.4632 L -103.301,-18.5007 L -103.374,-18.5419 L -103.444,-18.5865  L -103.513,-18.6346 L -103.578,-18.6859 L -103.642,-18.7404 L -103.702,-18.7979 L -103.76,-18.8584 L -103.814,-18.9215  L -103.865,-18.9873 L -103.913,-19.0555 L -103.958,-19.126 L -103.999,-19.1986 L -104.037,-19.2732 L -104.071,-19.3494  L -104.101,-19.4273 L -104.127,-19.5065 L -104.149,-19.5869 L -104.167,-19.6684 L -104.182,-19.7506 L -104.192,-19.8334  L -104.198,-19.9166 L -104.2,-20 L -104.198,-20.0834 L -104.192,-20.1666 L -104.182,-20.2495 L -104.167,-20.3317  L -104.149,-20.4131 L -104.127,-20.4935 L -104.101,-20.5727 L -104.071,-20.6506 L -104.037,-20.7269 L -103.999,-20.8014  L -103.958,-20.874 L -103.913,-20.9445 L -103.865,-21.0127 L -103.814,-21.0785 L -103.76,-21.1417 L -103.702,-21.2021  L -103.642,-21.2596 L -103.578,-21.3141 L -103.513,-21.3655 L -103.444,-21.4135 L -103.374,-21.4581 L -103.301,-21.4993  L -103.227,-21.5368 L -103.151,-21.5706 L -103.073,-21.6006 L -102.993,-21.6268 L -102.913,-21.6491 L -102.832,-21.6673  L -102.749,-21.6816 L -102.667,-21.6918 L -102.583,-21.698 L -102.5,-21.7 L -102.417,-21.698 L -102.333,-21.6918  L -102.251,-21.6816 L -102.168,-21.6673 L -102.087,-21.6491 L -102.007,-21.6268 L -101.927,-21.6006 L -101.849,-21.5706  L -101.773,-21.5368 L -101.699,-21.4993 L -101.626,-21.4581 L -101.556,-21.4135 L -101.487,-21.3655 L -101.422,-21.3141  L -101.358,-21.2596 L -101.298,-21.2021 L -101.24,-21.1417 L -101.186,-21.0785 L -101.135,-21.0127 L -101.086,-20.9445  L -101.042,-20.874 L -101.001,-20.8014 L -100.963,-20.7269 L -100.929,-20.6506 L -100.899,-20.5727 L -100.873,-20.4935  L -100.851,-20.4131 L -100.833,-20.3317 L -100.818,-20.2495 L -100.808,-20.1666 L -100.802,-20.0834 L -100.8,-20  L -100.802,-19.9166 L -100.808,-19.8334 L -100.818,-19.7506 L -100.833,-19.6684 L -100.851,-19.5869 L -100.873,-19.5065  L -100.899,-19.4273 L -100.929,-19.3494 L -100.963,-19.2732 L -101.001,-19.1986 L -101.042,-19.126 L -101.086,-19.0555  L -101.135,-18.9873 L -101.186,-18.9215 L -101.24,-18.8584 L -101.298,-18.7979 L -101.358,-18.7404 L -101.422,-18.6859  L -101.487,-18.6346 L -101.556,-18.5865 L -101.626,-18.5419 L -101.699,-18.5007 L -101.773,-18.4632 L -101.849,-18.4294  L -101.927,-18.3994 L -102.007,-18.3732 L -102.087,-18.351 L -102.168,-18.3327 L -102.251,-18.3184 L -102.333,-18.3082  L -102.417,-18.302 L -102.5,-18.3 z M 82.4166,-18.302 L 82.3334,-18.3082 L 82.2505,-18.3184 L 82.1683,-18.3327 L 82.0869,-18.351 L 82.0065,-18.3732  L 81.9273,-18.3994 L 81.8494,-18.4294 L 81.7731,-18.4632 L 81.6986,-18.5007 L 81.626,-18.5419 L 81.5555,-18.5865  L 81.4873,-18.6346 L 81.4215,-18.6859 L 81.3583,-18.7404 L 81.2979,-18.7979 L 81.2404,-18.8584 L 81.1859,-18.9215  L 81.1345,-18.9873 L 81.0865,-19.0555 L 81.0419,-19.126 L 81.0007,-19.1986 L 80.9632,-19.2732 L 80.9294,-19.3494  L 80.8994,-19.4273 L 80.8732,-19.5065 L 80.8509,-19.5869 L 80.8327,-19.6684 L 80.8184,-19.7506 L 80.8082,-19.8334  L 80.802,-19.9166 L 80.8,-20 L 80.802,-20.0834 L 80.8082,-20.1666 L 80.8184,-20.2495 L 80.8327,-20.3317  L 80.8509,-20.4131 L 80.8732,-20.4935 L 80.8994,-20.5727 L 80.9294,-20.6506 L 80.9632,-20.7269 L 81.0007,-20.8014  L 81.0419,-20.874 L 81.0865,-20.9445 L 81.1345,-21.0127 L 81.1859,-21.0785 L 81.2404,-21.1417 L 81.2979,-21.2021  L 81.3583,-21.2596 L 81.4215,-21.3141 L 81.4873,-21.3655 L 81.5555,-21.4135 L 81.626,-21.4581 L 81.6986,-21.4993  L 81.7731,-21.5368 L 81.8494,-21.5706 L 81.9273,-21.6006 L 82.0065,-21.6268 L 82.0869,-21.6491 L 82.1683,-21.6673  L 82.2505,-21.6816 L 82.3334,-21.6918 L 82.4166,-21.698 L 82.5,-21.7 L 82.5834,-21.698 L 82.6666,-21.6918  L 82.7494,-21.6816 L 82.8316,-21.6673 L 82.9131,-21.6491 L 82.9935,-21.6268 L 83.0727,-21.6006 L 83.1506,-21.5706  L 83.2268,-21.5368 L 83.3014,-21.4993 L 83.374,-21.4581 L 83.4445,-21.4135 L 83.5127,-21.3655 L 83.5785,-21.3141  L 83.6416,-21.2596 L 83.7021,-21.2021 L 83.7596,-21.1417 L 83.8141,-21.0785 L 83.8654,-21.0127 L 83.9135,-20.9445  L 83.9581,-20.874 L 83.9993,-20.8014 L 84.0368,-20.7269 L 84.0706,-20.6506 L 84.1006,-20.5727 L 84.1268,-20.4935  L 84.149,-20.4131 L 84.1673,-20.3317 L 84.1816,-20.2495 L 84.1918,-20.1666 L 84.198,-20.0834 L 84.2,-20  L 84.198,-19.9166 L 84.1918,-19.8334 L 84.1816,-19.7506 L 84.1673,-19.6684 L 84.149,-19.5869 L 84.1268,-19.5065  L 84.1006,-19.4273 L 84.0706,-19.3494 L 84.0368,-19.2732 L 83.9993,-19.1986 L 83.9581,-19.126 L 83.9135,-19.0555  L 83.8654,-18.9873 L 83.8141,-18.9215 L 83.7596,-18.8584 L 83.7021,-18.7979 L 83.6416,-18.7404 L 83.5785,-18.6859  L 83.5127,-18.6346 L 83.4445,-18.5865 L 83.374,-18.5419 L 83.3014,-18.5007 L 83.2268,-18.4632 L 83.1506,-18.4294  L 83.0727,-18.3994 L 82.9935,-18.3732 L 82.9131,-18.351 L 82.8316,-18.3327 L 82.7494,-18.3184 L 82.6666,-18.3082  L 82.5834,-18.302 L 82.5,-18.3 z M -115.5,-10 L -115.5,-20 L -110.5,-20 L -110.5,-10 z M 110.5,-10 L 110.5,-20 L 115.5,-20 L 115.5,-10 z "
     stroke="black"
     fill="lightgray"
     stroke-width="0.5"
     id="path4"
     style="fill:none;fill-opacity:1;stroke:#ff0000;stroke-opacity:1;stroke-width:0.01;stroke-miterlimit:4;stroke-dasharray:none" />
  <metadata
     id="metadata827">
    <rdf:RDF>
      <cc:Work
         rdf:about="">
        <dc:title>OpenSCAD Model</dc:title>
      </cc:Work>
    </rdf:RDF>
  </metadata>
  <text
     xml:space="preserve"
     style="font-style:normal;font-variant:normal;font-weight:normal;font-stretch:normal;font-size:5.64444px;line-height:1.25;font-family:Consolas;-inkscape-font-specification:Consolas;letter-spacing:0px;word-spacing:0px;fill:#000000;fill-opacity:1;stroke:none;stroke-width:0.264583"
     x="70.944862"
     y="-110.15973"
     id="text1365"
     transform="rotate(-90)"><tspan
       sodipodi:role="line"
       id="tspan1363"
       style="font-style:normal;font-variant:normal;font-weight:normal;font-stretch:normal;font-size:5.64444px;font-family:Consolas;-inkscape-font-specification:Consolas;stroke-width:0.264583"
       x="70.944862"
       y="-110.15973">iMac radiator mount - v1.0 / 5mm</tspan></text>
</svg>
