<?xml version="1.0" standalone="no"?>
<!DOCTYPE svg PUBLIC "-//W3C//DTD SVG 1.1//EN" "http://www.w3.org/Graphics/SVG/1.1/DTD/svg11.dtd"[]>
<svg width="54mm" height="141mm" viewBox="-6 -136 54 141" xmlns="http://www.w3.org/2000/svg" version="1.1">
  <title>gpu_mount</title>
  <path d=" M 16,-0.5 L 16,-6 L 26.32,-6 L 26.32,-0.5 L 38.3,-0.5 L 38.3,2  L 38.3036,2.14722 L 38.3144,2.29405 L 38.3324,2.4402 L 38.3576,2.58528 L 38.3899,2.72894 L 38.4292,2.87086  L 38.4753,3.01068 L 38.5283,3.14806 L 38.588,3.28267 L 38.6542,3.4142 L 38.7268,3.54231 L 38.8056,3.66672  L 38.8904,3.78711 L 38.9809,3.90318 L 39.0771,4.01468 L 39.1787,4.12132 L 39.2853,4.22285 L 39.3968,4.31905  L 39.5129,4.40964 L 39.6333,4.49442 L 39.7577,4.5732 L 39.8858,4.64577 L 40.0173,4.71198 L 40.1519,4.77165  L 40.2893,4.82465 L 40.4291,4.87083 L 40.571,4.9101 L 40.7147,4.94237 L 40.8598,4.96754 L 41.0059,4.98557  L 41.1528,4.9964 L 41.3,5 L 44.3,5 L 44.4472,4.9964 L 44.594,4.98557 L 44.7402,4.96754  L 44.8853,4.94237 L 45.0289,4.9101 L 45.1708,4.87083 L 45.3107,4.82465 L 45.448,4.77165 L 45.5826,4.71198  L 45.7142,4.64577 L 45.8423,4.5732 L 45.9667,4.49442 L 46.0871,4.40964 L 46.2032,4.31905 L 46.3147,4.22285  L 46.4213,4.12132 L 46.5228,4.01468 L 46.619,3.90318 L 46.7096,3.78711 L 46.7944,3.66672 L 46.8732,3.54231  L 46.9457,3.4142 L 47.0119,3.28267 L 47.0716,3.14806 L 47.1246,3.01068 L 47.1708,2.87086 L 47.2101,2.72894  L 47.2423,2.58528 L 47.2675,2.4402 L 47.2855,2.29405 L 47.2964,2.14722 L 47.3,2 L 47.3,-8  L 47.2964,-8.1472 L 47.2856,-8.29404 L 47.2675,-8.44019 L 47.2424,-8.58527 L 47.2101,-8.72893 L 47.1708,-8.87085  L 47.1246,-9.01067 L 47.0716,-9.14804 L 40.3,-26 L 40.3,-113.06 L 20,-113.06 L 20,-119.06  L 40.3,-119.06 L 40.3,-120.86 L 40.2964,-121.007 L 40.2856,-121.154 L 40.2675,-121.3 L 40.2424,-121.445  L 40.2101,-121.589 L 40.1708,-121.731 L 40.1246,-121.871 L 40.0716,-122.008 L 40.012,-122.143 L 39.9458,-122.274  L 39.8732,-122.402 L 39.7944,-122.527 L 39.7096,-122.647 L 39.619,-122.763 L 39.5228,-122.875 L 39.4213,-122.981  L 39.3147,-123.083 L 39.2032,-123.179 L 39.0871,-123.27 L 38.9667,-123.354 L 38.8423,-123.433 L 38.7142,-123.506  L 38.5827,-123.572 L 38.448,-123.632 L 38.3107,-123.685 L 4.01067,-135.185 L 3.87085,-135.231 L 3.72893,-135.27  L 3.58527,-135.302 L 3.44019,-135.328 L 3.29404,-135.346 L 3.1472,-135.356 L 3,-135.36 L 0,-135.36  L 0,-131.06 L -5.5,-131.06 L -5.5,-123.06 L 0,-123.06 L 0,-100.36 L -5.5,-100.36  L -5.5,-83.488 L 0,-83.488 L 0,-66.616 L -5.5,-66.616 L -5.5,-49.744 L 0,-49.744  L 0,-32.872 L -5.5,-32.872 L -5.5,-16 L 0,-16 L 0,-6 L 6,-6  L 6,-0.5 z M 4.92,-10.16 L 4.92,-100.06 L 16.98,-100.06 L 16.98,-10.16 z M 25.24,-10.16 L 25.24,-100.06 L 37.3,-100.06 L 37.3,-10.16 z M -2.58342,-90.226 L -2.66664,-90.2322 L -2.74945,-90.2424 L -2.83167,-90.2567 L -2.91307,-90.2749 L -2.99348,-90.2972  L -3.07272,-90.3234 L -3.15057,-90.3534 L -3.22685,-90.3872 L -3.30138,-90.4247 L -3.37398,-90.4658 L -3.44447,-90.5105  L -3.5127,-90.5585 L -3.57848,-90.6099 L -3.64166,-90.6644 L -3.70209,-90.7219 L -3.75963,-90.7823 L -3.81413,-90.8455  L -3.86546,-90.9113 L -3.91351,-90.9795 L -3.95815,-91.05 L -3.99927,-91.1226 L -4.03679,-91.1971 L -4.0706,-91.2734  L -4.10063,-91.3513 L -4.1268,-91.4305 L -4.14906,-91.5109 L -4.16734,-91.5923 L -4.18161,-91.6745 L -4.19182,-91.7574  L -4.19797,-91.8406 L -4.20001,-91.924 L -4.19797,-92.0074 L -4.19182,-92.0906 L -4.18161,-92.1734 L -4.16734,-92.2556  L -4.14906,-92.3371 L -4.1268,-92.4175 L -4.10063,-92.4967 L -4.0706,-92.5745 L -4.03679,-92.6508 L -3.99927,-92.7254  L -3.95815,-92.798 L -3.91351,-92.8685 L -3.86546,-92.9367 L -3.81413,-93.0025 L -3.75963,-93.0656 L -3.70209,-93.1261  L -3.64166,-93.1836 L -3.57848,-93.2381 L -3.5127,-93.2894 L -3.44447,-93.3375 L -3.37398,-93.3821 L -3.30138,-93.4232  L -3.22685,-93.4608 L -3.15057,-93.4946 L -3.07272,-93.5246 L -2.99348,-93.5508 L -2.91307,-93.573 L -2.83167,-93.5913  L -2.74945,-93.6056 L -2.66664,-93.6158 L -2.58342,-93.6219 L -2.5,-93.624 L -2.4166,-93.6219 L -2.33337,-93.6158  L -2.25056,-93.6056 L -2.16835,-93.5913 L -2.08694,-93.573 L -2.00653,-93.5508 L -1.92729,-93.5246 L -1.84944,-93.4946  L -1.77316,-93.4608 L -1.69864,-93.4232 L -1.62604,-93.3821 L -1.55554,-93.3375 L -1.48732,-93.2894 L -1.42154,-93.2381  L -1.35835,-93.1836 L -1.29793,-93.1261 L -1.24039,-93.0656 L -1.18588,-93.0025 L -1.13455,-92.9367 L -1.0865,-92.8685  L -1.04187,-92.798 L -1.00075,-92.7254 L -0.963226,-92.6508 L -0.929413,-92.5745 L -0.899384,-92.4967 L -0.873215,-92.4175  L -0.850952,-92.3371 L -0.832672,-92.2556 L -0.818405,-92.1734 L -0.808197,-92.0906 L -0.802048,-92.0074 L -0.800003,-91.924  L -0.802048,-91.8406 L -0.808197,-91.7574 L -0.818405,-91.6745 L -0.832672,-91.5923 L -0.850952,-91.5109 L -0.873215,-91.4305  L -0.899384,-91.3513 L -0.929413,-91.2734 L -0.963226,-91.1971 L -1.00075,-91.1226 L -1.04187,-91.05 L -1.0865,-90.9795  L -1.13455,-90.9113 L -1.18588,-90.8455 L -1.24039,-90.7823 L -1.29793,-90.7219 L -1.35835,-90.6644 L -1.42154,-90.6099  L -1.48732,-90.5585 L -1.55554,-90.5105 L -1.62604,-90.4658 L -1.69864,-90.4247 L -1.77316,-90.3872 L -1.84944,-90.3534  L -1.92729,-90.3234 L -2.00653,-90.2972 L -2.08694,-90.2749 L -2.16835,-90.2567 L -2.25056,-90.2424 L -2.33337,-90.2322  L -2.4166,-90.226 L -2.5,-90.224 z M -2.58342,-56.482 L -2.66664,-56.4882 L -2.74945,-56.4984 L -2.83167,-56.5126 L -2.91307,-56.5309 L -2.99348,-56.5532  L -3.07272,-56.5794 L -3.15057,-56.6094 L -3.22685,-56.6432 L -3.30138,-56.6807 L -3.37398,-56.7218 L -3.44447,-56.7665  L -3.5127,-56.8145 L -3.57848,-56.8659 L -3.64166,-56.9204 L -3.70209,-56.9779 L -3.75963,-57.0383 L -3.81413,-57.1015  L -3.86546,-57.1673 L -3.91351,-57.2355 L -3.95815,-57.306 L -3.99927,-57.3786 L -4.03679,-57.4531 L -4.0706,-57.5294  L -4.10063,-57.6073 L -4.1268,-57.6865 L -4.14906,-57.7669 L -4.16734,-57.8483 L -4.18161,-57.9305 L -4.19182,-58.0134  L -4.19797,-58.0966 L -4.20001,-58.18 L -4.19797,-58.2634 L -4.19182,-58.3466 L -4.18161,-58.4294 L -4.16734,-58.5116  L -4.14906,-58.593 L -4.1268,-58.6735 L -4.10063,-58.7527 L -4.0706,-58.8306 L -4.03679,-58.9068 L -3.99927,-58.9814  L -3.95815,-59.054 L -3.91351,-59.1245 L -3.86546,-59.1927 L -3.81413,-59.2585 L -3.75963,-59.3216 L -3.70209,-59.3821  L -3.64166,-59.4396 L -3.57848,-59.4941 L -3.5127,-59.5454 L -3.44447,-59.5935 L -3.37398,-59.6381 L -3.30138,-59.6792  L -3.22685,-59.7168 L -3.15057,-59.7506 L -3.07272,-59.7806 L -2.99348,-59.8068 L -2.91307,-59.829 L -2.83167,-59.8473  L -2.74945,-59.8616 L -2.66664,-59.8718 L -2.58342,-59.8779 L -2.5,-59.88 L -2.4166,-59.8779 L -2.33337,-59.8718  L -2.25056,-59.8616 L -2.16835,-59.8473 L -2.08694,-59.829 L -2.00653,-59.8068 L -1.92729,-59.7806 L -1.84944,-59.7506  L -1.77316,-59.7168 L -1.69864,-59.6792 L -1.62604,-59.6381 L -1.55554,-59.5935 L -1.48732,-59.5454 L -1.42154,-59.4941  L -1.35835,-59.4396 L -1.29793,-59.3821 L -1.24039,-59.3216 L -1.18588,-59.2585 L -1.13455,-59.1927 L -1.0865,-59.1245  L -1.04187,-59.054 L -1.00075,-58.9814 L -0.963226,-58.9068 L -0.929413,-58.8306 L -0.899384,-58.7527 L -0.873215,-58.6735  L -0.850952,-58.593 L -0.832672,-58.5116 L -0.818405,-58.4294 L -0.808197,-58.3466 L -0.802048,-58.2634 L -0.800003,-58.18  L -0.802048,-58.0966 L -0.808197,-58.0134 L -0.818405,-57.9305 L -0.832672,-57.8483 L -0.850952,-57.7669 L -0.873215,-57.6865  L -0.899384,-57.6073 L -0.929413,-57.5294 L -0.963226,-57.4531 L -1.00075,-57.3786 L -1.04187,-57.306 L -1.0865,-57.2355  L -1.13455,-57.1673 L -1.18588,-57.1015 L -1.24039,-57.0383 L -1.29793,-56.9779 L -1.35835,-56.9204 L -1.42154,-56.8659  L -1.48732,-56.8145 L -1.55554,-56.7665 L -1.62604,-56.7218 L -1.69864,-56.6807 L -1.77316,-56.6432 L -1.84944,-56.6094  L -1.92729,-56.5794 L -2.00653,-56.5532 L -2.08694,-56.5309 L -2.16835,-56.5126 L -2.25056,-56.4984 L -2.33337,-56.4882  L -2.4166,-56.482 L -2.5,-56.48 z M -2.58342,-22.738 L -2.66664,-22.7442 L -2.74945,-22.7544 L -2.83167,-22.7687 L -2.91307,-22.7869 L -2.99348,-22.8092  L -3.07272,-22.8354 L -3.15057,-22.8654 L -3.22685,-22.8992 L -3.30138,-22.9367 L -3.37398,-22.9779 L -3.44447,-23.0225  L -3.5127,-23.0705 L -3.57848,-23.1219 L -3.64166,-23.1764 L -3.70209,-23.2339 L -3.75963,-23.2943 L -3.81413,-23.3575  L -3.86546,-23.4233 L -3.91351,-23.4915 L -3.95815,-23.562 L -3.99927,-23.6346 L -4.03679,-23.7092 L -4.0706,-23.7854  L -4.10063,-23.8633 L -4.1268,-23.9425 L -4.14906,-24.0229 L -4.16734,-24.1043 L -4.18161,-24.1866 L -4.19182,-24.2694  L -4.19797,-24.3526 L -4.20001,-24.436 L -4.19797,-24.5194 L -4.19182,-24.6026 L -4.18161,-24.6854 L -4.16734,-24.7676  L -4.14906,-24.849 L -4.1268,-24.9295 L -4.10063,-25.0087 L -4.0706,-25.0865 L -4.03679,-25.1628 L -3.99927,-25.2374  L -3.95815,-25.31 L -3.91351,-25.3804 L -3.86546,-25.4487 L -3.81413,-25.5145 L -3.75963,-25.5776 L -3.70209,-25.6381  L -3.64166,-25.6956 L -3.57848,-25.7501 L -3.5127,-25.8014 L -3.44447,-25.8495 L -3.37398,-25.8941 L -3.30138,-25.9352  L -3.22685,-25.9728 L -3.15057,-26.0066 L -3.07272,-26.0366 L -2.99348,-26.0628 L -2.91307,-26.085 L -2.83167,-26.1033  L -2.74945,-26.1176 L -2.66664,-26.1278 L -2.58342,-26.1339 L -2.5,-26.136 L -2.4166,-26.1339 L -2.33337,-26.1278  L -2.25056,-26.1176 L -2.16835,-26.1033 L -2.08694,-26.085 L -2.00653,-26.0628 L -1.92729,-26.0366 L -1.84944,-26.0066  L -1.77316,-25.9728 L -1.69864,-25.9352 L -1.62604,-25.8941 L -1.55554,-25.8495 L -1.48732,-25.8014 L -1.42154,-25.7501  L -1.35835,-25.6956 L -1.29793,-25.6381 L -1.24039,-25.5776 L -1.18588,-25.5145 L -1.13455,-25.4487 L -1.0865,-25.3804  L -1.04187,-25.31 L -1.00075,-25.2374 L -0.963226,-25.1628 L -0.929413,-25.0865 L -0.899384,-25.0087 L -0.873215,-24.9295  L -0.850952,-24.849 L -0.832672,-24.7676 L -0.818405,-24.6854 L -0.808197,-24.6026 L -0.802048,-24.5194 L -0.800003,-24.436  L -0.802048,-24.3526 L -0.808197,-24.2694 L -0.818405,-24.1866 L -0.832672,-24.1043 L -0.850952,-24.0229 L -0.873215,-23.9425  L -0.899384,-23.8633 L -0.929413,-23.7854 L -0.963226,-23.7092 L -1.00075,-23.6346 L -1.04187,-23.562 L -1.0865,-23.4915  L -1.13455,-23.4233 L -1.18588,-23.3575 L -1.24039,-23.2943 L -1.29793,-23.2339 L -1.35835,-23.1764 L -1.42154,-23.1219  L -1.48732,-23.0705 L -1.55554,-23.0225 L -1.62604,-22.9779 L -1.69864,-22.9367 L -1.77316,-22.8992 L -1.84944,-22.8654  L -1.92729,-22.8354 L -2.00653,-22.8092 L -2.08694,-22.7869 L -2.16835,-22.7687 L -2.25056,-22.7544 L -2.33337,-22.7442  L -2.4166,-22.738 L -2.5,-22.736 z M 43.2166,-1.30203 L 43.1334,-1.30818 L 43.0506,-1.31839 L 42.9683,-1.33266 L 42.8869,-1.35094 L 42.8065,-1.3732  L 42.7273,-1.39937 L 42.6494,-1.4294 L 42.5732,-1.46321 L 42.4986,-1.50073 L 42.426,-1.54185 L 42.3555,-1.58649  L 42.2873,-1.63454 L 42.2215,-1.68587 L 42.1583,-1.74037 L 42.0979,-1.79791 L 42.0404,-1.85834 L 41.9859,-1.92152  L 41.9345,-1.9873 L 41.8865,-2.05553 L 41.8419,-2.12602 L 41.8007,-2.19862 L 41.7632,-2.27315 L 41.7294,-2.34943  L 41.6994,-2.42728 L 41.6732,-2.50652 L 41.6509,-2.58693 L 41.6327,-2.66833 L 41.6184,-2.75055 L 41.6082,-2.83336  L 41.602,-2.91658 L 41.6,-3 L 41.602,-3.0834 L 41.6082,-3.16663 L 41.6184,-3.24944 L 41.6327,-3.33165  L 41.6509,-3.41306 L 41.6732,-3.49347 L 41.6994,-3.57271 L 41.7294,-3.65056 L 41.7632,-3.72684 L 41.8007,-3.80136  L 41.8419,-3.87396 L 41.8865,-3.94446 L 41.9345,-4.01268 L 41.9859,-4.07846 L 42.0404,-4.14165 L 42.0979,-4.20207  L 42.1583,-4.25961 L 42.2215,-4.31412 L 42.2873,-4.36545 L 42.3555,-4.4135 L 42.426,-4.45813 L 42.4986,-4.49925  L 42.5732,-4.53677 L 42.6494,-4.57059 L 42.7273,-4.60062 L 42.8065,-4.62679 L 42.8869,-4.64905 L 42.9683,-4.66733  L 43.0506,-4.68159 L 43.1334,-4.6918 L 43.2166,-4.69795 L 43.3,-4.7 L 43.3834,-4.69795 L 43.4666,-4.6918  L 43.5494,-4.68159 L 43.6317,-4.66733 L 43.7131,-4.64905 L 43.7935,-4.62679 L 43.8727,-4.60062 L 43.9506,-4.57059  L 44.0268,-4.53677 L 44.1014,-4.49925 L 44.174,-4.45813 L 44.2445,-4.4135 L 44.3127,-4.36545 L 44.3785,-4.31412  L 44.4416,-4.25961 L 44.5021,-4.20207 L 44.5596,-4.14165 L 44.6141,-4.07846 L 44.6655,-4.01268 L 44.7135,-3.94446  L 44.7581,-3.87396 L 44.7993,-3.80136 L 44.8368,-3.72684 L 44.8706,-3.65056 L 44.9006,-3.57271 L 44.9268,-3.49347  L 44.9491,-3.41306 L 44.9673,-3.33165 L 44.9816,-3.24944 L 44.9918,-3.16663 L 44.9979,-3.0834 L 45,-3  L 44.9979,-2.91658 L 44.9918,-2.83336 L 44.9816,-2.75055 L 44.9673,-2.66833 L 44.9491,-2.58693 L 44.9268,-2.50652  L 44.9006,-2.42728 L 44.8706,-2.34943 L 44.8368,-2.27315 L 44.7993,-2.19862 L 44.7581,-2.12602 L 44.7135,-2.05553  L 44.6655,-1.9873 L 44.6141,-1.92152 L 44.5596,-1.85834 L 44.5021,-1.79791 L 44.4416,-1.74037 L 44.3785,-1.68587  L 44.3127,-1.63454 L 44.2445,-1.58649 L 44.174,-1.54185 L 44.1014,-1.50073 L 44.0268,-1.46321 L 43.9506,-1.4294  L 43.8727,-1.39937 L 43.7935,-1.3732 L 43.7131,-1.35094 L 43.6317,-1.33266 L 43.5494,-1.31839 L 43.4666,-1.30818  L 43.3834,-1.30203 L 43.3,-1.29999 z " stroke="red" fill="none" stroke-width="0.01" id="cut_path" />
</svg>