<?xml version="1.0" standalone="no"?>
<!DOCTYPE svg PUBLIC "-//W3C//DTD SVG 1.1//EN" "http://www.w3.org/Graphics/SVG/1.1/DTD/svg11.dtd"[]>
<svg width="47mm" height="136mm" viewBox="-6 -136 47 136" xmlns="http://www.w3.org/2000/svg" version="1.1">
  <title>gpu_mount</title>
  <path d=" M 16,-6 L 26.32,-6 L 26.32,-0.5 L 36.32,-0.5 L 36.32,-6 L 40.3,-6  L 40.3,-112.86 L 20,-112.86 L 20,-118.86 L 40.3,-118.86 L 40.3,-132.36 L 40.2964,-132.507  L 40.2856,-132.654 L 40.2675,-132.8 L 40.2424,-132.945 L 40.2101,-133.089 L 40.1708,-133.231 L 40.1246,-133.371  L 40.0716,-133.508 L 40.012,-133.643 L 39.9458,-133.774 L 39.8732,-133.902 L 39.7944,-134.027 L 39.7096,-134.147  L 39.619,-134.263 L 39.5228,-134.375 L 39.4213,-134.481 L 39.3147,-134.583 L 39.2032,-134.679 L 39.0871,-134.77  L 38.9667,-134.854 L 38.8423,-134.933 L 38.7142,-135.006 L 38.5827,-135.072 L 38.448,-135.132 L 38.3107,-135.185  L 38.1709,-135.231 L 38.0289,-135.27 L 37.8853,-135.302 L 37.7402,-135.328 L 37.594,-135.346 L 37.4472,-135.356  L 37.3,-135.36 L 0,-135.36 L 0,-131.06 L -5.5,-131.06 L -5.5,-123.06 L 0,-123.06  L 0,-100.36 L -5.5,-100.36 L -5.5,-83.488 L 0,-83.488 L 0,-66.616 L -5.5,-66.616  L -5.5,-49.744 L 0,-49.744 L 0,-32.872 L -5.5,-32.872 L -5.5,-16 L 0,-16  L 0,-6 L 6,-6 L 6,-0.5 L 16,-0.5 z M 4.92,-10.16 L 4.92,-100.06 L 16.98,-100.06 L 16.98,-10.16 z M 25.24,-10.16 L 25.24,-100.06 L 37.3,-100.06 L 37.3,-10.16 z M -2.55888,-90.7254 L -2.61763,-90.7298 L -2.67609,-90.737 L -2.73412,-90.747 L -2.79158,-90.7599 L -2.84834,-90.7757  L -2.90428,-90.7941 L -2.95923,-90.8153 L -3.01308,-90.8392 L -3.06569,-90.8657 L -3.11693,-90.8947 L -3.16669,-90.9262  L -3.21484,-90.9601 L -3.26128,-90.9964 L -3.30588,-91.0348 L -3.34854,-91.0755 L -3.38914,-91.1181 L -3.42763,-91.1627  L -3.46385,-91.2091 L -3.49777,-91.2573 L -3.52928,-91.3071 L -3.55832,-91.3583 L -3.58479,-91.4109 L -3.60866,-91.4648  L -3.62987,-91.5197 L -3.64833,-91.5756 L -3.66405,-91.6324 L -3.67696,-91.6899 L -3.68703,-91.7479 L -3.69423,-91.8064  L -3.69856,-91.8651 L -3.70001,-91.924 L -3.69856,-91.9829 L -3.69423,-92.0416 L -3.68703,-92.1001 L -3.67696,-92.1581  L -3.66405,-92.2156 L -3.64833,-92.2723 L -3.62987,-92.3282 L -3.60866,-92.3832 L -3.58479,-92.437 L -3.55832,-92.4897  L -3.52928,-92.5409 L -3.49777,-92.5907 L -3.46385,-92.6388 L -3.42763,-92.6853 L -3.38914,-92.7299 L -3.34854,-92.7725  L -3.30588,-92.8131 L -3.26128,-92.8516 L -3.21484,-92.8878 L -3.16669,-92.9217 L -3.11693,-92.9533 L -3.06569,-92.9823  L -3.01308,-93.0088 L -2.95923,-93.0326 L -2.90428,-93.0538 L -2.84834,-93.0723 L -2.79158,-93.088 L -2.73412,-93.1009  L -2.67609,-93.111 L -2.61763,-93.1182 L -2.55888,-93.1225 L -2.5,-93.124 L -2.44113,-93.1225 L -2.38239,-93.1182  L -2.32393,-93.111 L -2.2659,-93.1009 L -2.20844,-93.088 L -2.15167,-93.0723 L -2.09573,-93.0538 L -2.04079,-93.0326  L -1.98694,-93.0088 L -1.93433,-92.9823 L -1.88309,-92.9533 L -1.83333,-92.9217 L -1.78517,-92.8878 L -1.73874,-92.8516  L -1.69414,-92.8131 L -1.65147,-92.7725 L -1.61087,-92.7299 L -1.57239,-92.6853 L -1.53616,-92.6388 L -1.50224,-92.5907  L -1.47073,-92.5409 L -1.4417,-92.4897 L -1.41522,-92.437 L -1.39136,-92.3832 L -1.37015,-92.3282 L -1.35168,-92.2723  L -1.33597,-92.2156 L -1.32306,-92.1581 L -1.31299,-92.1001 L -1.30579,-92.0416 L -1.30145,-91.9829 L -1.3,-91.924  L -1.30145,-91.8651 L -1.30579,-91.8064 L -1.31299,-91.7479 L -1.32306,-91.6899 L -1.33597,-91.6324 L -1.35168,-91.5756  L -1.37015,-91.5197 L -1.39136,-91.4648 L -1.41522,-91.4109 L -1.4417,-91.3583 L -1.47073,-91.3071 L -1.50224,-91.2573  L -1.53616,-91.2091 L -1.57239,-91.1627 L -1.61087,-91.1181 L -1.65147,-91.0755 L -1.69414,-91.0348 L -1.73874,-90.9964  L -1.78517,-90.9601 L -1.83333,-90.9262 L -1.88309,-90.8947 L -1.93433,-90.8657 L -1.98694,-90.8392 L -2.04079,-90.8153  L -2.09573,-90.7941 L -2.15167,-90.7757 L -2.20844,-90.7599 L -2.2659,-90.747 L -2.32393,-90.737 L -2.38239,-90.7298  L -2.44113,-90.7254 L -2.5,-90.724 z M -2.55888,-56.9814 L -2.61763,-56.9858 L -2.67609,-56.993 L -2.73412,-57.003 L -2.79158,-57.0159 L -2.84834,-57.0316  L -2.90428,-57.0501 L -2.95923,-57.0713 L -3.01308,-57.0952 L -3.06569,-57.1217 L -3.11693,-57.1507 L -3.16669,-57.1822  L -3.21484,-57.2161 L -3.26128,-57.2524 L -3.30588,-57.2908 L -3.34854,-57.3315 L -3.38914,-57.3741 L -3.42763,-57.4187  L -3.46385,-57.4651 L -3.49777,-57.5133 L -3.52928,-57.5631 L -3.55832,-57.6143 L -3.58479,-57.6669 L -3.60866,-57.7208  L -3.62987,-57.7757 L -3.64833,-57.8316 L -3.66405,-57.8884 L -3.67696,-57.9459 L -3.68703,-58.0039 L -3.69423,-58.0624  L -3.69856,-58.1211 L -3.70001,-58.18 L -3.69856,-58.2389 L -3.69423,-58.2976 L -3.68703,-58.3561 L -3.67696,-58.4141  L -3.66405,-58.4716 L -3.64833,-58.5283 L -3.62987,-58.5842 L -3.60866,-58.6392 L -3.58479,-58.6931 L -3.55832,-58.7457  L -3.52928,-58.7969 L -3.49777,-58.8467 L -3.46385,-58.8948 L -3.42763,-58.9413 L -3.38914,-58.9859 L -3.34854,-59.0285  L -3.30588,-59.0691 L -3.26128,-59.1076 L -3.21484,-59.1438 L -3.16669,-59.1777 L -3.11693,-59.2093 L -3.06569,-59.2383  L -3.01308,-59.2648 L -2.95923,-59.2886 L -2.90428,-59.3098 L -2.84834,-59.3283 L -2.79158,-59.344 L -2.73412,-59.3569  L -2.67609,-59.367 L -2.61763,-59.3742 L -2.55888,-59.3785 L -2.5,-59.38 L -2.44113,-59.3785 L -2.38239,-59.3742  L -2.32393,-59.367 L -2.2659,-59.3569 L -2.20844,-59.344 L -2.15167,-59.3283 L -2.09573,-59.3098 L -2.04079,-59.2886  L -1.98694,-59.2648 L -1.93433,-59.2383 L -1.88309,-59.2093 L -1.83333,-59.1777 L -1.78517,-59.1438 L -1.73874,-59.1076  L -1.69414,-59.0691 L -1.65147,-59.0285 L -1.61087,-58.9859 L -1.57239,-58.9413 L -1.53616,-58.8948 L -1.50224,-58.8467  L -1.47073,-58.7969 L -1.4417,-58.7457 L -1.41522,-58.6931 L -1.39136,-58.6392 L -1.37015,-58.5842 L -1.35168,-58.5283  L -1.33597,-58.4716 L -1.32306,-58.4141 L -1.31299,-58.3561 L -1.30579,-58.2976 L -1.30145,-58.2389 L -1.3,-58.18  L -1.30145,-58.1211 L -1.30579,-58.0624 L -1.31299,-58.0039 L -1.32306,-57.9459 L -1.33597,-57.8884 L -1.35168,-57.8316  L -1.37015,-57.7757 L -1.39136,-57.7208 L -1.41522,-57.6669 L -1.4417,-57.6143 L -1.47073,-57.5631 L -1.50224,-57.5133  L -1.53616,-57.4651 L -1.57239,-57.4187 L -1.61087,-57.3741 L -1.65147,-57.3315 L -1.69414,-57.2908 L -1.73874,-57.2524  L -1.78517,-57.2161 L -1.83333,-57.1822 L -1.88309,-57.1507 L -1.93433,-57.1217 L -1.98694,-57.0952 L -2.04079,-57.0713  L -2.09573,-57.0501 L -2.15167,-57.0316 L -2.20844,-57.0159 L -2.2659,-57.003 L -2.32393,-56.993 L -2.38239,-56.9858  L -2.44113,-56.9814 L -2.5,-56.98 z M -2.55888,-23.2374 L -2.61763,-23.2418 L -2.67609,-23.249 L -2.73412,-23.259 L -2.79158,-23.272 L -2.84834,-23.2877  L -2.90428,-23.3061 L -2.95923,-23.3273 L -3.01308,-23.3512 L -3.06569,-23.3777 L -3.11693,-23.4067 L -3.16669,-23.4382  L -3.21484,-23.4722 L -3.26128,-23.5084 L -3.30588,-23.5469 L -3.34854,-23.5875 L -3.38914,-23.6301 L -3.42763,-23.6747  L -3.46385,-23.7212 L -3.49777,-23.7693 L -3.52928,-23.8191 L -3.55832,-23.8703 L -3.58479,-23.9229 L -3.60866,-23.9768  L -3.62987,-24.0317 L -3.64833,-24.0877 L -3.66405,-24.1444 L -3.67696,-24.2019 L -3.68703,-24.2599 L -3.69423,-24.3184  L -3.69856,-24.3771 L -3.70001,-24.436 L -3.69856,-24.4949 L -3.69423,-24.5536 L -3.68703,-24.6121 L -3.67696,-24.6701  L -3.66405,-24.7276 L -3.64833,-24.7843 L -3.62987,-24.8403 L -3.60866,-24.8952 L -3.58479,-24.9491 L -3.55832,-25.0017  L -3.52928,-25.0529 L -3.49777,-25.1027 L -3.46385,-25.1508 L -3.42763,-25.1973 L -3.38914,-25.2419 L -3.34854,-25.2845  L -3.30588,-25.3251 L -3.26128,-25.3636 L -3.21484,-25.3998 L -3.16669,-25.4337 L -3.11693,-25.4653 L -3.06569,-25.4943  L -3.01308,-25.5208 L -2.95923,-25.5446 L -2.90428,-25.5658 L -2.84834,-25.5843 L -2.79158,-25.6 L -2.73412,-25.6129  L -2.67609,-25.623 L -2.61763,-25.6302 L -2.55888,-25.6345 L -2.5,-25.636 L -2.44113,-25.6345 L -2.38239,-25.6302  L -2.32393,-25.623 L -2.2659,-25.6129 L -2.20844,-25.6 L -2.15167,-25.5843 L -2.09573,-25.5658 L -2.04079,-25.5446  L -1.98694,-25.5208 L -1.93433,-25.4943 L -1.88309,-25.4653 L -1.83333,-25.4337 L -1.78517,-25.3998 L -1.73874,-25.3636  L -1.69414,-25.3251 L -1.65147,-25.2845 L -1.61087,-25.2419 L -1.57239,-25.1973 L -1.53616,-25.1508 L -1.50224,-25.1027  L -1.47073,-25.0529 L -1.4417,-25.0017 L -1.41522,-24.9491 L -1.39136,-24.8952 L -1.37015,-24.8403 L -1.35168,-24.7843  L -1.33597,-24.7276 L -1.32306,-24.6701 L -1.31299,-24.6121 L -1.30579,-24.5536 L -1.30145,-24.4949 L -1.3,-24.436  L -1.30145,-24.3771 L -1.30579,-24.3184 L -1.31299,-24.2599 L -1.32306,-24.2019 L -1.33597,-24.1444 L -1.35168,-24.0877  L -1.37015,-24.0317 L -1.39136,-23.9768 L -1.41522,-23.9229 L -1.4417,-23.8703 L -1.47073,-23.8191 L -1.50224,-23.7693  L -1.53616,-23.7212 L -1.57239,-23.6747 L -1.61087,-23.6301 L -1.65147,-23.5875 L -1.69414,-23.5469 L -1.73874,-23.5084  L -1.78517,-23.4722 L -1.83333,-23.4382 L -1.88309,-23.4067 L -1.93433,-23.3777 L -1.98694,-23.3512 L -2.04079,-23.3273  L -2.09573,-23.3061 L -2.15167,-23.2877 L -2.20844,-23.272 L -2.2659,-23.259 L -2.32393,-23.249 L -2.38239,-23.2418  L -2.44113,-23.2374 L -2.5,-23.236 z " stroke="red" fill="none" stroke-width="0.01" id="cut_path" />
</svg>