<?xml version="1.0" standalone="no"?>
<!DOCTYPE svg PUBLIC "-//W3C//DTD SVG 1.1//EN" "http://www.w3.org/Graphics/SVG/1.1/DTD/svg11.dtd"[]>
<svg width="17mm" height="47mm" viewBox="0 -41 17 47" xmlns="http://www.w3.org/2000/svg" version="1.1">
  <title>gpu_mount</title>
  <path d=" M 2,-0 L 2,5.5 L 9,5.5 L 9,-0 L 15,-0 L 15,5.5  L 17,5.5 L 17,-37.3 L 16.9964,-37.4472 L 16.9855,-37.594 L 16.9675,-37.7402 L 16.9424,-37.8853  L 16.9101,-38.0289 L 16.8708,-38.1709 L 16.8246,-38.3107 L 16.7716,-38.448 L 16.712,-38.5827 L 16.6458,-38.7142  L 16.5732,-38.8423 L 16.4944,-38.9667 L 16.4096,-39.0871 L 16.319,-39.2032 L 16.2228,-39.3147 L 16.1213,-39.4213  L 16.0147,-39.5228 L 15.9032,-39.619 L 15.7871,-39.7096 L 15.6667,-39.7944 L 15.5423,-39.8732 L 15.4142,-39.9458  L 15.2827,-40.012 L 15.148,-40.0716 L 15.0107,-40.1246 L 14.8708,-40.1708 L 14.7289,-40.2101 L 14.5853,-40.2424  L 14.4402,-40.2675 L 14.294,-40.2856 L 14.1472,-40.2964 L 14,-40.3 L 0,-40.3 L 0,-36.32  L 3,-36.32 L 3,-26.32 L 0,-26.32 L 0,-16 L 3,-16 L 3,-6  L 0,-6 L 0,-0 z M 4.99904,-19.777 L 4.91826,-19.7829 L 4.83789,-19.7928 L 4.7581,-19.8067 L 4.67908,-19.8244 L 4.60103,-19.846  L 4.52412,-19.8714 L 4.44856,-19.9006 L 4.37453,-19.9334 L 4.30219,-19.9698 L 4.23172,-20.0097 L 4.1633,-20.0531  L 4.09709,-20.0997 L 4.03325,-20.1495 L 3.97192,-20.2024 L 3.91327,-20.2583 L 3.85742,-20.3169 L 3.80452,-20.3782  L 3.7547,-20.4421 L 3.70807,-20.5083 L 3.66475,-20.5767 L 3.62482,-20.6472 L 3.58841,-20.7195 L 3.55559,-20.7936  L 3.52644,-20.8691 L 3.50104,-20.946 L 3.47945,-21.0241 L 3.4617,-21.1031 L 3.44785,-21.1829 L 3.43794,-21.2633  L 3.43198,-21.344 L 3.42999,-21.425 L 3.43198,-21.506 L 3.43794,-21.5867 L 3.44785,-21.6671 L 3.4617,-21.7469  L 3.47945,-21.8259 L 3.50104,-21.904 L 3.52644,-21.9809 L 3.55559,-22.0564 L 3.58841,-22.1304 L 3.62482,-22.2028  L 3.66475,-22.2733 L 3.70807,-22.3417 L 3.7547,-22.4079 L 3.80452,-22.4717 L 3.85742,-22.5331 L 3.91327,-22.5917  L 3.97192,-22.6476 L 4.03325,-22.7005 L 4.09709,-22.7503 L 4.1633,-22.7969 L 4.23172,-22.8402 L 4.30219,-22.8802  L 4.37453,-22.9166 L 4.44856,-22.9494 L 4.52412,-22.9785 L 4.60103,-23.0039 L 4.67908,-23.0255 L 4.7581,-23.0433  L 4.83789,-23.0571 L 4.91826,-23.067 L 4.99904,-23.073 L 5.07999,-23.075 L 5.16093,-23.073 L 5.24171,-23.067  L 5.32208,-23.0571 L 5.40187,-23.0433 L 5.4809,-23.0255 L 5.55894,-23.0039 L 5.63585,-22.9785 L 5.71141,-22.9494  L 5.78545,-22.9166 L 5.85779,-22.8802 L 5.92825,-22.8402 L 5.99667,-22.7969 L 6.06288,-22.7503 L 6.12672,-22.7005  L 6.18805,-22.6476 L 6.2467,-22.5917 L 6.30255,-22.5331 L 6.35545,-22.4717 L 6.40527,-22.4079 L 6.4519,-22.3417  L 6.49522,-22.2733 L 6.53516,-22.2028 L 6.57156,-22.1304 L 6.60439,-22.0564 L 6.63353,-21.9809 L 6.65894,-21.904  L 6.68053,-21.8259 L 6.69827,-21.7469 L 6.71213,-21.6671 L 6.72203,-21.5867 L 6.728,-21.506 L 6.72998,-21.425  L 6.728,-21.344 L 6.72203,-21.2633 L 6.71213,-21.1829 L 6.69827,-21.1031 L 6.68053,-21.0241 L 6.65894,-20.946  L 6.63353,-20.8691 L 6.60439,-20.7936 L 6.57156,-20.7195 L 6.53516,-20.6472 L 6.49522,-20.5767 L 6.4519,-20.5083  L 6.40527,-20.4421 L 6.35545,-20.3782 L 6.30255,-20.3169 L 6.2467,-20.2583 L 6.18805,-20.2024 L 6.12672,-20.1495  L 6.06288,-20.0997 L 5.99667,-20.0531 L 5.92825,-20.0097 L 5.85779,-19.9698 L 5.78545,-19.9334 L 5.71141,-19.9006  L 5.63585,-19.8714 L 5.55894,-19.846 L 5.4809,-19.8244 L 5.40187,-19.8067 L 5.32208,-19.7928 L 5.24171,-19.7829  L 5.16093,-19.777 L 5.07999,-19.775 z M 4.99904,0.542999 L 4.91826,0.537033 L 4.83789,0.52713 L 4.7581,0.513275 L 4.67908,0.495529 L 4.60103,0.473938  L 4.52412,0.448532 L 4.44856,0.419388 L 4.37453,0.386566 L 4.30219,0.350159 L 4.23172,0.310226 L 4.1633,0.266907  L 4.09709,0.220276 L 4.03325,0.170456 L 3.97192,0.117554 L 3.91327,0.0617065 L 3.85742,0.00305176 L 3.80452,-0.0582581  L 3.7547,-0.122101 L 3.70807,-0.188309 L 3.66475,-0.256729 L 3.62482,-0.327194 L 3.58841,-0.399536 L 3.55559,-0.473572  L 3.52644,-0.549133 L 3.50104,-0.626038 L 3.47945,-0.704086 L 3.4617,-0.783112 L 3.44785,-0.8629 L 3.43794,-0.943268  L 3.43198,-1.02405 L 3.42999,-1.105 L 3.43198,-1.18594 L 3.43794,-1.26672 L 3.44785,-1.34709 L 3.4617,-1.42688  L 3.47945,-1.50591 L 3.50104,-1.58395 L 3.52644,-1.66086 L 3.55559,-1.73642 L 3.58841,-1.81046 L 3.62482,-1.8828  L 3.66475,-1.95326 L 3.70807,-2.02168 L 3.7547,-2.08789 L 3.80452,-2.15173 L 3.85742,-2.21306 L 3.91327,-2.27171  L 3.97192,-2.32756 L 4.03325,-2.38046 L 4.09709,-2.43028 L 4.1633,-2.47691 L 4.23172,-2.52023 L 4.30219,-2.56017  L 4.37453,-2.59657 L 4.44856,-2.62939 L 4.52412,-2.65854 L 4.60103,-2.68394 L 4.67908,-2.70554 L 4.7581,-2.72328  L 4.83789,-2.73714 L 4.91826,-2.74704 L 4.99904,-2.75301 L 5.07999,-2.75499 L 5.16093,-2.75301 L 5.24171,-2.74704  L 5.32208,-2.73714 L 5.40187,-2.72328 L 5.4809,-2.70554 L 5.55894,-2.68394 L 5.63585,-2.65854 L 5.71141,-2.62939  L 5.78545,-2.59657 L 5.85779,-2.56017 L 5.92825,-2.52023 L 5.99667,-2.47691 L 6.06288,-2.43028 L 6.12672,-2.38046  L 6.18805,-2.32756 L 6.2467,-2.27171 L 6.30255,-2.21306 L 6.35545,-2.15173 L 6.40527,-2.08789 L 6.4519,-2.02168  L 6.49522,-1.95326 L 6.53516,-1.8828 L 6.57156,-1.81046 L 6.60439,-1.73642 L 6.63353,-1.66086 L 6.65894,-1.58395  L 6.68053,-1.50591 L 6.69827,-1.42688 L 6.71213,-1.34709 L 6.72203,-1.26672 L 6.728,-1.18594 L 6.72998,-1.105  L 6.728,-1.02405 L 6.72203,-0.943268 L 6.71213,-0.8629 L 6.69827,-0.783112 L 6.68053,-0.704086 L 6.65894,-0.626038  L 6.63353,-0.549133 L 6.60439,-0.473572 L 6.57156,-0.399536 L 6.53516,-0.327194 L 6.49522,-0.256729 L 6.4519,-0.188309  L 6.40527,-0.122101 L 6.35545,-0.0582581 L 6.30255,0.00305176 L 6.2467,0.0617065 L 6.18805,0.117554 L 6.12672,0.170456  L 6.06288,0.220276 L 5.99667,0.266907 L 5.92825,0.310226 L 5.85779,0.350159 L 5.78545,0.386566 L 5.71141,0.419388  L 5.63585,0.448532 L 5.55894,0.473938 L 5.4809,0.495529 L 5.40187,0.513275 L 5.32208,0.52713 L 5.24171,0.537033  L 5.16093,0.542999 L 5.07999,0.544983 z " stroke="red" fill="none" stroke-width="0.01" id="cut_path" />
</svg>