<?xml version="1.0" standalone="no"?>
<!DOCTYPE svg PUBLIC "-//W3C//DTD SVG 1.1//EN" "http://www.w3.org/Graphics/SVG/1.1/DTD/svg11.dtd"[]>
<svg width="34mm" height="47mm" viewBox="-17 -41 34 47" xmlns="http://www.w3.org/2000/svg" version="1.1">
  <title>gpu_mount</title>
  <path d=" M 11,5.5 L 11,-0 L 17,-0 L 17,-37.3 L 16.9964,-37.4472 L 16.9855,-37.594  L 16.9675,-37.7402 L 16.9424,-37.8853 L 16.9101,-38.0289 L 16.8708,-38.1709 L 16.8246,-38.3107 L 16.7716,-38.448  L 16.712,-38.5827 L 16.6458,-38.7142 L 16.5732,-38.8423 L 16.4944,-38.9667 L 16.4096,-39.0871 L 16.319,-39.2032  L 16.2228,-39.3147 L 16.1213,-39.4213 L 16.0147,-39.5228 L 15.9032,-39.619 L 15.7871,-39.7096 L 15.6667,-39.7944  L 15.5423,-39.8732 L 15.4142,-39.9458 L 15.2827,-40.012 L 15.148,-40.0716 L 15.0107,-40.1246 L 14.8708,-40.1708  L 14.7289,-40.2101 L 14.5853,-40.2424 L 14.4402,-40.2675 L 14.294,-40.2856 L 14.1472,-40.2964 L 14,-40.3  L -14,-40.3 L -14.1472,-40.2964 L -14.2941,-40.2856 L -14.4402,-40.2675 L -14.5853,-40.2424 L -14.7289,-40.2101  L -14.8709,-40.1708 L -15.0107,-40.1246 L -15.1481,-40.0716 L -15.2827,-40.012 L -15.4142,-39.9458 L -15.5423,-39.8732  L -15.6667,-39.7944 L -15.7871,-39.7096 L -15.9032,-39.619 L -16.0147,-39.5228 L -16.1213,-39.4213 L -16.2229,-39.3147  L -16.319,-39.2032 L -16.4096,-39.0871 L -16.4944,-38.9667 L -16.5732,-38.8423 L -16.6458,-38.7142 L -16.712,-38.5827  L -16.7717,-38.448 L -16.8246,-38.3107 L -16.8708,-38.1709 L -16.9101,-38.0289 L -16.9424,-37.8853 L -16.9675,-37.7402  L -16.9856,-37.594 L -16.9964,-37.4472 L -17,-37.3 L -17,-0 L -11,-0 L -11,5.5  L 0,5.5 L 0,-5.59 L -1,-5.59 L -1,-16.28 L 0,-16.28 L 0,-20  L 3,-20 L 3,5.5 z M -1,-25.91 L -1,-36.6 L 0.0999908,-36.6 L 0.0999908,-25.91 z " stroke="red" fill="none" stroke-width="0.01" id="cut_path" />
</svg>