<?xml version="1.0" standalone="no"?>
<!DOCTYPE svg PUBLIC "-//W3C//DTD SVG 1.1//EN" "http://www.w3.org/Graphics/SVG/1.1/DTD/svg11.dtd"[]>
<svg width="54mm" height="141mm" viewBox="-6 -136 54 141" xmlns="http://www.w3.org/2000/svg" version="1.1">
  <title>gpu_mount</title>
  <path d=" M 16,-0.5 L 16,-6 L 26.32,-6 L 26.32,-0.5 L 38.3,-0.5 L 38.3,2  L 38.3036,2.14722 L 38.3144,2.29405 L 38.3324,2.4402 L 38.3576,2.58528 L 38.3899,2.72894 L 38.4292,2.87086  L 38.4753,3.01068 L 38.5283,3.14806 L 38.588,3.28267 L 38.6542,3.4142 L 38.7268,3.54231 L 38.8056,3.66672  L 38.8904,3.78711 L 38.9809,3.90318 L 39.0771,4.01468 L 39.1787,4.12132 L 39.2853,4.22285 L 39.3968,4.31905  L 39.5129,4.40964 L 39.6333,4.49442 L 39.7577,4.5732 L 39.8858,4.64577 L 40.0173,4.71198 L 40.1519,4.77165  L 40.2893,4.82465 L 40.4291,4.87083 L 40.571,4.9101 L 40.7147,4.94237 L 40.8598,4.96754 L 41.0059,4.98557  L 41.1528,4.9964 L 41.3,5 L 44.3,5 L 44.4472,4.9964 L 44.594,4.98557 L 44.7402,4.96754  L 44.8853,4.94237 L 45.0289,4.9101 L 45.1708,4.87083 L 45.3107,4.82465 L 45.448,4.77165 L 45.5826,4.71198  L 45.7142,4.64577 L 45.8423,4.5732 L 45.9667,4.49442 L 46.0871,4.40964 L 46.2032,4.31905 L 46.3147,4.22285  L 46.4213,4.12132 L 46.5228,4.01468 L 46.619,3.90318 L 46.7096,3.78711 L 46.7944,3.66672 L 46.8732,3.54231  L 46.9457,3.4142 L 47.0119,3.28267 L 47.0716,3.14806 L 47.1246,3.01068 L 47.1708,2.87086 L 47.2101,2.72894  L 47.2423,2.58528 L 47.2675,2.4402 L 47.2855,2.29405 L 47.2964,2.14722 L 47.3,2 L 47.3,-8  L 47.2964,-8.1472 L 47.2856,-8.29404 L 47.2675,-8.44019 L 47.2424,-8.58527 L 47.2101,-8.72893 L 47.1708,-8.87085  L 47.1246,-9.01067 L 47.0716,-9.14804 L 40.3,-26 L 40.3,-113.06 L 20,-113.06 L 20,-119.06  L 40.3,-119.06 L 40.3,-120.86 L 40.2964,-121.007 L 40.2856,-121.154 L 40.2675,-121.3 L 40.2424,-121.445  L 40.2101,-121.589 L 40.1708,-121.731 L 40.1246,-121.871 L 40.0716,-122.008 L 40.012,-122.143 L 39.9458,-122.274  L 39.8732,-122.402 L 39.7944,-122.527 L 39.7096,-122.647 L 39.619,-122.763 L 39.5228,-122.875 L 39.4213,-122.981  L 39.3147,-123.083 L 39.2032,-123.179 L 39.0871,-123.27 L 38.9667,-123.354 L 38.8423,-123.433 L 38.7142,-123.506  L 38.5827,-123.572 L 38.448,-123.632 L 38.3107,-123.685 L 4.01067,-135.185 L 3.87085,-135.231 L 3.72893,-135.27  L 3.58527,-135.302 L 3.44019,-135.328 L 3.29404,-135.346 L 3.1472,-135.356 L 3,-135.36 L 0,-135.36  L 0,-131.06 L -5.5,-131.06 L -5.5,-123.06 L 0,-123.06 L 0,-100.36 L -5.5,-100.36  L -5.5,-83.488 L 0,-83.488 L 0,-66.616 L -5.5,-66.616 L -5.5,-49.744 L 0,-49.744  L 0,-32.872 L -5.5,-32.872 L -5.5,-16 L 0,-16 L 0,-6 L 6,-6  L 6,-0.5 z M -2.58342,-90.226 L -2.66664,-90.2322 L -2.74945,-90.2424 L -2.83167,-90.2567 L -2.91307,-90.2749 L -2.99348,-90.2972  L -3.07272,-90.3234 L -3.15057,-90.3534 L -3.22685,-90.3872 L -3.30138,-90.4247 L -3.37398,-90.4658 L -3.44447,-90.5105  L -3.5127,-90.5585 L -3.57848,-90.6099 L -3.64166,-90.6644 L -3.70209,-90.7219 L -3.75963,-90.7823 L -3.81413,-90.8455  L -3.86546,-90.9113 L -3.91351,-90.9795 L -3.95815,-91.05 L -3.99927,-91.1226 L -4.03679,-91.1971 L -4.0706,-91.2734  L -4.10063,-91.3513 L -4.1268,-91.4305 L -4.14906,-91.5109 L -4.16734,-91.5923 L -4.18161,-91.6745 L -4.19182,-91.7574  L -4.19797,-91.8406 L -4.20001,-91.924 L -4.19797,-92.0074 L -4.19182,-92.0906 L -4.18161,-92.1734 L -4.16734,-92.2556  L -4.14906,-92.3371 L -4.1268,-92.4175 L -4.10063,-92.4967 L -4.0706,-92.5745 L -4.03679,-92.6508 L -3.99927,-92.7254  L -3.95815,-92.798 L -3.91351,-92.8685 L -3.86546,-92.9367 L -3.81413,-93.0025 L -3.75963,-93.0656 L -3.70209,-93.1261  L -3.64166,-93.1836 L -3.57848,-93.2381 L -3.5127,-93.2894 L -3.44447,-93.3375 L -3.37398,-93.3821 L -3.30138,-93.4232  L -3.22685,-93.4608 L -3.15057,-93.4946 L -3.07272,-93.5246 L -2.99348,-93.5508 L -2.91307,-93.573 L -2.83167,-93.5913  L -2.74945,-93.6056 L -2.66664,-93.6158 L -2.58342,-93.6219 L -2.5,-93.624 L -2.4166,-93.6219 L -2.33337,-93.6158  L -2.25056,-93.6056 L -2.16835,-93.5913 L -2.08694,-93.573 L -2.00653,-93.5508 L -1.92729,-93.5246 L -1.84944,-93.4946  L -1.77316,-93.4608 L -1.69864,-93.4232 L -1.62604,-93.3821 L -1.55554,-93.3375 L -1.48732,-93.2894 L -1.42154,-93.2381  L -1.35835,-93.1836 L -1.29793,-93.1261 L -1.24039,-93.0656 L -1.18588,-93.0025 L -1.13455,-92.9367 L -1.0865,-92.8685  L -1.04187,-92.798 L -1.00075,-92.7254 L -0.963226,-92.6508 L -0.929413,-92.5745 L -0.899384,-92.4967 L -0.873215,-92.4175  L -0.850952,-92.3371 L -0.832672,-92.2556 L -0.818405,-92.1734 L -0.808197,-92.0906 L -0.802048,-92.0074 L -0.800003,-91.924  L -0.802048,-91.8406 L -0.808197,-91.7574 L -0.818405,-91.6745 L -0.832672,-91.5923 L -0.850952,-91.5109 L -0.873215,-91.4305  L -0.899384,-91.3513 L -0.929413,-91.2734 L -0.963226,-91.1971 L -1.00075,-91.1226 L -1.04187,-91.05 L -1.0865,-90.9795  L -1.13455,-90.9113 L -1.18588,-90.8455 L -1.24039,-90.7823 L -1.29793,-90.7219 L -1.35835,-90.6644 L -1.42154,-90.6099  L -1.48732,-90.5585 L -1.55554,-90.5105 L -1.62604,-90.4658 L -1.69864,-90.4247 L -1.77316,-90.3872 L -1.84944,-90.3534  L -1.92729,-90.3234 L -2.00653,-90.2972 L -2.08694,-90.2749 L -2.16835,-90.2567 L -2.25056,-90.2424 L -2.33337,-90.2322  L -2.4166,-90.226 L -2.5,-90.224 z M 3.42,-8.15999 L 3.42,-93.06 L 14.98,-93.06 L 14.98,-8.15999 z M 23.74,-67.16 L 23.74,-93.06 L 35.3,-93.06 L 35.3,-67.16 z M -2.58342,-56.482 L -2.66664,-56.4882 L -2.74945,-56.4984 L -2.83167,-56.5126 L -2.91307,-56.5309 L -2.99348,-56.5532  L -3.07272,-56.5794 L -3.15057,-56.6094 L -3.22685,-56.6432 L -3.30138,-56.6807 L -3.37398,-56.7218 L -3.44447,-56.7665  L -3.5127,-56.8145 L -3.57848,-56.8659 L -3.64166,-56.9204 L -3.70209,-56.9779 L -3.75963,-57.0383 L -3.81413,-57.1015  L -3.86546,-57.1673 L -3.91351,-57.2355 L -3.95815,-57.306 L -3.99927,-57.3786 L -4.03679,-57.4531 L -4.0706,-57.5294  L -4.10063,-57.6073 L -4.1268,-57.6865 L -4.14906,-57.7669 L -4.16734,-57.8483 L -4.18161,-57.9305 L -4.19182,-58.0134  L -4.19797,-58.0966 L -4.20001,-58.18 L -4.19797,-58.2634 L -4.19182,-58.3466 L -4.18161,-58.4294 L -4.16734,-58.5116  L -4.14906,-58.593 L -4.1268,-58.6735 L -4.10063,-58.7527 L -4.0706,-58.8306 L -4.03679,-58.9068 L -3.99927,-58.9814  L -3.95815,-59.054 L -3.91351,-59.1245 L -3.86546,-59.1927 L -3.81413,-59.2585 L -3.75963,-59.3216 L -3.70209,-59.3821  L -3.64166,-59.4396 L -3.57848,-59.4941 L -3.5127,-59.5454 L -3.44447,-59.5935 L -3.37398,-59.6381 L -3.30138,-59.6792  L -3.22685,-59.7168 L -3.15057,-59.7506 L -3.07272,-59.7806 L -2.99348,-59.8068 L -2.91307,-59.829 L -2.83167,-59.8473  L -2.74945,-59.8616 L -2.66664,-59.8718 L -2.58342,-59.8779 L -2.5,-59.88 L -2.4166,-59.8779 L -2.33337,-59.8718  L -2.25056,-59.8616 L -2.16835,-59.8473 L -2.08694,-59.829 L -2.00653,-59.8068 L -1.92729,-59.7806 L -1.84944,-59.7506  L -1.77316,-59.7168 L -1.69864,-59.6792 L -1.62604,-59.6381 L -1.55554,-59.5935 L -1.48732,-59.5454 L -1.42154,-59.4941  L -1.35835,-59.4396 L -1.29793,-59.3821 L -1.24039,-59.3216 L -1.18588,-59.2585 L -1.13455,-59.1927 L -1.0865,-59.1245  L -1.04187,-59.054 L -1.00075,-58.9814 L -0.963226,-58.9068 L -0.929413,-58.8306 L -0.899384,-58.7527 L -0.873215,-58.6735  L -0.850952,-58.593 L -0.832672,-58.5116 L -0.818405,-58.4294 L -0.808197,-58.3466 L -0.802048,-58.2634 L -0.800003,-58.18  L -0.802048,-58.0966 L -0.808197,-58.0134 L -0.818405,-57.9305 L -0.832672,-57.8483 L -0.850952,-57.7669 L -0.873215,-57.6865  L -0.899384,-57.6073 L -0.929413,-57.5294 L -0.963226,-57.4531 L -1.00075,-57.3786 L -1.04187,-57.306 L -1.0865,-57.2355  L -1.13455,-57.1673 L -1.18588,-57.1015 L -1.24039,-57.0383 L -1.29793,-56.9779 L -1.35835,-56.9204 L -1.42154,-56.8659  L -1.48732,-56.8145 L -1.55554,-56.7665 L -1.62604,-56.7218 L -1.69864,-56.6807 L -1.77316,-56.6432 L -1.84944,-56.6094  L -1.92729,-56.5794 L -2.00653,-56.5532 L -2.08694,-56.5309 L -2.16835,-56.5126 L -2.25056,-56.4984 L -2.33337,-56.4882  L -2.4166,-56.482 L -2.5,-56.48 z M -2.58342,-22.738 L -2.66664,-22.7442 L -2.74945,-22.7544 L -2.83167,-22.7687 L -2.91307,-22.7869 L -2.99348,-22.8092  L -3.07272,-22.8354 L -3.15057,-22.8654 L -3.22685,-22.8992 L -3.30138,-22.9367 L -3.37398,-22.9779 L -3.44447,-23.0225  L -3.5127,-23.0705 L -3.57848,-23.1219 L -3.64166,-23.1764 L -3.70209,-23.2339 L -3.75963,-23.2943 L -3.81413,-23.3575  L -3.86546,-23.4233 L -3.91351,-23.4915 L -3.95815,-23.562 L -3.99927,-23.6346 L -4.03679,-23.7092 L -4.0706,-23.7854  L -4.10063,-23.8633 L -4.1268,-23.9425 L -4.14906,-24.0229 L -4.16734,-24.1043 L -4.18161,-24.1866 L -4.19182,-24.2694  L -4.19797,-24.3526 L -4.20001,-24.436 L -4.19797,-24.5194 L -4.19182,-24.6026 L -4.18161,-24.6854 L -4.16734,-24.7676  L -4.14906,-24.849 L -4.1268,-24.9295 L -4.10063,-25.0087 L -4.0706,-25.0865 L -4.03679,-25.1628 L -3.99927,-25.2374  L -3.95815,-25.31 L -3.91351,-25.3804 L -3.86546,-25.4487 L -3.81413,-25.5145 L -3.75963,-25.5776 L -3.70209,-25.6381  L -3.64166,-25.6956 L -3.57848,-25.7501 L -3.5127,-25.8014 L -3.44447,-25.8495 L -3.37398,-25.8941 L -3.30138,-25.9352  L -3.22685,-25.9728 L -3.15057,-26.0066 L -3.07272,-26.0366 L -2.99348,-26.0628 L -2.91307,-26.085 L -2.83167,-26.1033  L -2.74945,-26.1176 L -2.66664,-26.1278 L -2.58342,-26.1339 L -2.5,-26.136 L -2.4166,-26.1339 L -2.33337,-26.1278  L -2.25056,-26.1176 L -2.16835,-26.1033 L -2.08694,-26.085 L -2.00653,-26.0628 L -1.92729,-26.0366 L -1.84944,-26.0066  L -1.77316,-25.9728 L -1.69864,-25.9352 L -1.62604,-25.8941 L -1.55554,-25.8495 L -1.48732,-25.8014 L -1.42154,-25.7501  L -1.35835,-25.6956 L -1.29793,-25.6381 L -1.24039,-25.5776 L -1.18588,-25.5145 L -1.13455,-25.4487 L -1.0865,-25.3804  L -1.04187,-25.31 L -1.00075,-25.2374 L -0.963226,-25.1628 L -0.929413,-25.0865 L -0.899384,-25.0087 L -0.873215,-24.9295  L -0.850952,-24.849 L -0.832672,-24.7676 L -0.818405,-24.6854 L -0.808197,-24.6026 L -0.802048,-24.5194 L -0.800003,-24.436  L -0.802048,-24.3526 L -0.808197,-24.2694 L -0.818405,-24.1866 L -0.832672,-24.1043 L -0.850952,-24.0229 L -0.873215,-23.9425  L -0.899384,-23.8633 L -0.929413,-23.7854 L -0.963226,-23.7092 L -1.00075,-23.6346 L -1.04187,-23.562 L -1.0865,-23.4915  L -1.13455,-23.4233 L -1.18588,-23.3575 L -1.24039,-23.2943 L -1.29793,-23.2339 L -1.35835,-23.1764 L -1.42154,-23.1219  L -1.48732,-23.0705 L -1.55554,-23.0225 L -1.62604,-22.9779 L -1.69864,-22.9367 L -1.77316,-22.8992 L -1.84944,-22.8654  L -1.92729,-22.8354 L -2.00653,-22.8092 L -2.08694,-22.7869 L -2.16835,-22.7687 L -2.25056,-22.7544 L -2.33337,-22.7442  L -2.4166,-22.738 L -2.5,-22.736 z M 43.2166,-1.30203 L 43.1334,-1.30818 L 43.0506,-1.31839 L 42.9683,-1.33266 L 42.8869,-1.35094 L 42.8065,-1.3732  L 42.7273,-1.39937 L 42.6494,-1.4294 L 42.5732,-1.46321 L 42.4986,-1.50073 L 42.426,-1.54185 L 42.3555,-1.58649  L 42.2873,-1.63454 L 42.2215,-1.68587 L 42.1583,-1.74037 L 42.0979,-1.79791 L 42.0404,-1.85834 L 41.9859,-1.92152  L 41.9345,-1.9873 L 41.8865,-2.05553 L 41.8419,-2.12602 L 41.8007,-2.19862 L 41.7632,-2.27315 L 41.7294,-2.34943  L 41.6994,-2.42728 L 41.6732,-2.50652 L 41.6509,-2.58693 L 41.6327,-2.66833 L 41.6184,-2.75055 L 41.6082,-2.83336  L 41.602,-2.91658 L 41.6,-3 L 41.602,-3.0834 L 41.6082,-3.16663 L 41.6184,-3.24944 L 41.6327,-3.33165  L 41.6509,-3.41306 L 41.6732,-3.49347 L 41.6994,-3.57271 L 41.7294,-3.65056 L 41.7632,-3.72684 L 41.8007,-3.80136  L 41.8419,-3.87396 L 41.8865,-3.94446 L 41.9345,-4.01268 L 41.9859,-4.07846 L 42.0404,-4.14165 L 42.0979,-4.20207  L 42.1583,-4.25961 L 42.2215,-4.31412 L 42.2873,-4.36545 L 42.3555,-4.4135 L 42.426,-4.45813 L 42.4986,-4.49925  L 42.5732,-4.53677 L 42.6494,-4.57059 L 42.7273,-4.60062 L 42.8065,-4.62679 L 42.8869,-4.64905 L 42.9683,-4.66733  L 43.0506,-4.68159 L 43.1334,-4.6918 L 43.2166,-4.69795 L 43.3,-4.7 L 43.3834,-4.69795 L 43.4666,-4.6918  L 43.5494,-4.68159 L 43.6317,-4.66733 L 43.7131,-4.64905 L 43.7935,-4.62679 L 43.8727,-4.60062 L 43.9506,-4.57059  L 44.0268,-4.53677 L 44.1014,-4.49925 L 44.174,-4.45813 L 44.2445,-4.4135 L 44.3127,-4.36545 L 44.3785,-4.31412  L 44.4416,-4.25961 L 44.5021,-4.20207 L 44.5596,-4.14165 L 44.6141,-4.07846 L 44.6655,-4.01268 L 44.7135,-3.94446  L 44.7581,-3.87396 L 44.7993,-3.80136 L 44.8368,-3.72684 L 44.8706,-3.65056 L 44.9006,-3.57271 L 44.9268,-3.49347  L 44.9491,-3.41306 L 44.9673,-3.33165 L 44.9816,-3.24944 L 44.9918,-3.16663 L 44.9979,-3.0834 L 45,-3  L 44.9979,-2.91658 L 44.9918,-2.83336 L 44.9816,-2.75055 L 44.9673,-2.66833 L 44.9491,-2.58693 L 44.9268,-2.50652  L 44.9006,-2.42728 L 44.8706,-2.34943 L 44.8368,-2.27315 L 44.7993,-2.19862 L 44.7581,-2.12602 L 44.7135,-2.05553  L 44.6655,-1.9873 L 44.6141,-1.92152 L 44.5596,-1.85834 L 44.5021,-1.79791 L 44.4416,-1.74037 L 44.3785,-1.68587  L 44.3127,-1.63454 L 44.2445,-1.58649 L 44.174,-1.54185 L 44.1014,-1.50073 L 44.0268,-1.46321 L 43.9506,-1.4294  L 43.8727,-1.39937 L 43.7935,-1.3732 L 43.7131,-1.35094 L 43.6317,-1.33266 L 43.5494,-1.31839 L 43.4666,-1.30818  L 43.3834,-1.30203 L 43.3,-1.29999 z " stroke="red" fill="none" stroke-width="0.01" id="cut_path" />
  <path d=" M 24.2016,-107.636 L 24.2262,-107.637 L 24.2503,-107.638 L 24.2741,-107.64 L 24.2975,-107.642 L 24.3206,-107.645  L 24.3432,-107.649 L 24.3655,-107.653 L 24.3874,-107.657 L 24.4089,-107.662 L 24.43,-107.668 L 24.4508,-107.674  L 24.4711,-107.681 L 24.4911,-107.688 L 24.5107,-107.696 L 24.5299,-107.704 L 24.5488,-107.713 L 24.5673,-107.722  L 24.5853,-107.732 L 24.603,-107.742 L 24.6204,-107.753 L 24.6373,-107.764 L 24.6539,-107.776 L 24.6701,-107.788  L 24.686,-107.801 L 24.7014,-107.814 L 24.7165,-107.827 L 24.7312,-107.841 L 24.7455,-107.856 L 24.7595,-107.871  L 24.7731,-107.886 L 24.7863,-107.902 L 24.7991,-107.919 L 24.8116,-107.936 L 24.8237,-107.953 L 24.8354,-107.971  L 24.8467,-107.989 L 24.8577,-108.008 L 24.8683,-108.027 L 24.8785,-108.047 L 24.8884,-108.067 L 24.8979,-108.087  L 24.907,-108.108 L 24.9158,-108.129 L 24.9241,-108.151 L 24.9322,-108.173 L 24.9398,-108.196 L 24.9471,-108.219  L 24.954,-108.243 L 24.9605,-108.267 L 24.9667,-108.291 L 24.9725,-108.316 L 24.9779,-108.341 L 24.9831,-108.367  L 24.9878,-108.392 L 24.9922,-108.419 L 24.9963,-108.445 L 25,-108.472 L 25.0033,-108.5 L 25.0063,-108.528  L 25.0089,-108.556 L 25.0112,-108.584 L 25.0132,-108.613 L 25.0147,-108.642 L 25.016,-108.672 L 25.0168,-108.702  L 25.0174,-108.732 L 25.0175,-108.763 L 25.0173,-108.798 L 25.0166,-108.831 L 25.0154,-108.865 L 25.0137,-108.898  L 25.0115,-108.93 L 25.0089,-108.962 L 25.0058,-108.993 L 25.0021,-109.023 L 24.9981,-109.054 L 24.9935,-109.083  L 24.9884,-109.112 L 24.9829,-109.141 L 24.9769,-109.169 L 24.9704,-109.196 L 24.9634,-109.223 L 24.956,-109.249  L 24.948,-109.275 L 24.9397,-109.3 L 24.931,-109.325 L 24.9219,-109.349 L 24.9126,-109.373 L 24.9028,-109.396  L 24.8927,-109.419 L 24.8823,-109.441 L 24.8715,-109.463 L 24.8604,-109.484 L 24.849,-109.504 L 24.8371,-109.524  L 24.825,-109.544 L 24.8125,-109.563 L 24.7996,-109.581 L 24.7864,-109.599 L 24.7729,-109.617 L 24.759,-109.634  L 24.7448,-109.65 L 24.7303,-109.666 L 24.7156,-109.681 L 24.7005,-109.696 L 24.6852,-109.711 L 24.6697,-109.725  L 24.6538,-109.738 L 24.6377,-109.751 L 24.6213,-109.763 L 24.6046,-109.775 L 24.5876,-109.786 L 24.5704,-109.797  L 24.5529,-109.808 L 24.5351,-109.817 L 24.5171,-109.827 L 24.4987,-109.836 L 24.4801,-109.844 L 24.4613,-109.852  L 24.4424,-109.859 L 24.4233,-109.866 L 24.4041,-109.872 L 24.3848,-109.878 L 24.3653,-109.884 L 24.3457,-109.889  L 24.326,-109.893 L 24.3062,-109.897 L 24.2862,-109.901 L 24.2661,-109.904 L 24.2458,-109.907 L 24.2255,-109.909  L 24.205,-109.91 L 24.1844,-109.912 L 24.1636,-109.912 L 24.1427,-109.913 L 24.1178,-109.912 L 24.0932,-109.911  L 24.0691,-109.91 L 24.0453,-109.908 L 24.0219,-109.906 L 23.9988,-109.903 L 23.9762,-109.899 L 23.9539,-109.895  L 23.932,-109.891 L 23.9105,-109.886 L 23.8894,-109.88 L 23.8686,-109.874 L 23.8483,-109.867 L 23.8283,-109.86  L 23.8087,-109.852 L 23.7895,-109.843 L 23.7706,-109.835 L 23.7522,-109.825 L 23.7341,-109.815 L 23.7164,-109.805  L 23.699,-109.794 L 23.682,-109.783 L 23.6654,-109.771 L 23.6492,-109.759 L 23.6333,-109.746 L 23.6178,-109.733  L 23.6026,-109.72 L 23.5879,-109.706 L 23.5735,-109.691 L 23.5594,-109.676 L 23.5458,-109.661 L 23.5325,-109.645  L 23.5196,-109.628 L 23.507,-109.612 L 23.4948,-109.594 L 23.483,-109.577 L 23.4716,-109.559 L 23.4605,-109.54  L 23.4498,-109.521 L 23.4395,-109.501 L 23.4295,-109.481 L 23.4199,-109.461 L 23.4107,-109.44 L 23.4018,-109.419  L 23.3933,-109.397 L 23.3852,-109.375 L 23.3775,-109.353 L 23.3701,-109.33 L 23.3631,-109.306 L 23.3565,-109.282  L 23.3502,-109.258 L 23.3443,-109.233 L 23.3387,-109.208 L 23.3336,-109.183 L 23.3287,-109.157 L 23.3242,-109.131  L 23.3201,-109.104 L 23.3164,-109.078 L 23.313,-109.05 L 23.3099,-109.023 L 23.3073,-108.995 L 23.3049,-108.966  L 23.303,-108.938 L 23.3014,-108.909 L 23.3001,-108.879 L 23.2992,-108.849 L 23.2987,-108.819 L 23.2985,-108.789  L 23.2987,-108.754 L 23.2995,-108.719 L 23.3007,-108.686 L 23.3024,-108.653 L 23.3046,-108.62 L 23.3073,-108.588  L 23.3104,-108.557 L 23.3141,-108.526 L 23.3182,-108.495 L 23.3228,-108.466 L 23.328,-108.436 L 23.3335,-108.408  L 23.3396,-108.38 L 23.3462,-108.352 L 23.3533,-108.325 L 23.3608,-108.299 L 23.3688,-108.273 L 23.3773,-108.248  L 23.3861,-108.223 L 23.3952,-108.199 L 23.4047,-108.175 L 23.4145,-108.152 L 23.4246,-108.129 L 23.4351,-108.107  L 23.446,-108.086 L 23.4571,-108.065 L 23.4686,-108.044 L 23.4805,-108.024 L 23.4927,-108.004 L 23.5052,-107.985  L 23.5181,-107.967 L 23.5313,-107.949 L 23.5448,-107.932 L 23.5587,-107.915 L 23.5729,-107.898 L 23.5874,-107.882  L 23.6022,-107.867 L 23.6172,-107.852 L 23.6326,-107.838 L 23.6482,-107.824 L 23.664,-107.81 L 23.6802,-107.798  L 23.6967,-107.785 L 23.7134,-107.773 L 23.7304,-107.762 L 23.7477,-107.751 L 23.7653,-107.741 L 23.7832,-107.731  L 23.8013,-107.722 L 23.8197,-107.713 L 23.8384,-107.704 L 23.8574,-107.697 L 23.8764,-107.689 L 23.8955,-107.682  L 23.9148,-107.676 L 23.9342,-107.67 L 23.9537,-107.664 L 23.9734,-107.659 L 23.9932,-107.655 L 24.0131,-107.651  L 24.0331,-107.647 L 24.0532,-107.644 L 24.0735,-107.642 L 24.0939,-107.64 L 24.1144,-107.638 L 24.135,-107.637  L 24.1558,-107.636 L 24.1767,-107.636 z M 24.1431,-107.899 L 24.1268,-107.899 L 24.1107,-107.901 L 24.0949,-107.902 L 24.0793,-107.904 L 24.064,-107.907  L 24.049,-107.91 L 24.0343,-107.914 L 24.0198,-107.918 L 24.0057,-107.922 L 23.9917,-107.927 L 23.9781,-107.933  L 23.9647,-107.939 L 23.9516,-107.945 L 23.9388,-107.952 L 23.9262,-107.959 L 23.9139,-107.967 L 23.9019,-107.975  L 23.8901,-107.984 L 23.8785,-107.993 L 23.8672,-108.002 L 23.8562,-108.012 L 23.8454,-108.022 L 23.8349,-108.032  L 23.8246,-108.043 L 23.8146,-108.054 L 23.8048,-108.065 L 23.7953,-108.077 L 23.7861,-108.089 L 23.777,-108.101  L 23.7683,-108.114 L 23.7598,-108.127 L 23.7515,-108.14 L 23.7435,-108.154 L 23.7358,-108.168 L 23.7282,-108.182  L 23.721,-108.196 L 23.7139,-108.211 L 23.7071,-108.226 L 23.7006,-108.242 L 23.6943,-108.257 L 23.6882,-108.273  L 23.6824,-108.29 L 23.6768,-108.306 L 23.6714,-108.323 L 23.6663,-108.34 L 23.6614,-108.357 L 23.6568,-108.375  L 23.6524,-108.393 L 23.6483,-108.411 L 23.6443,-108.429 L 23.6407,-108.448 L 23.6372,-108.467 L 23.634,-108.485  L 23.631,-108.505 L 23.6282,-108.524 L 23.6256,-108.543 L 23.6233,-108.563 L 23.6212,-108.582 L 23.6193,-108.602  L 23.6176,-108.622 L 23.6161,-108.642 L 23.6149,-108.663 L 23.6139,-108.683 L 23.6131,-108.704 L 23.6126,-108.725  L 23.6122,-108.745 L 23.6121,-108.767 L 23.6122,-108.789 L 23.6125,-108.812 L 23.613,-108.834 L 23.6138,-108.856  L 23.6147,-108.878 L 23.6158,-108.9 L 23.6172,-108.921 L 23.6187,-108.943 L 23.6204,-108.964 L 23.6224,-108.984  L 23.6245,-109.005 L 23.6269,-109.025 L 23.6295,-109.045 L 23.6322,-109.065 L 23.6352,-109.085 L 23.6384,-109.104  L 23.6418,-109.123 L 23.6454,-109.142 L 23.6493,-109.161 L 23.6534,-109.179 L 23.6578,-109.197 L 23.6624,-109.215  L 23.6673,-109.232 L 23.6724,-109.249 L 23.6778,-109.266 L 23.6834,-109.282 L 23.6893,-109.298 L 23.6955,-109.314  L 23.7019,-109.33 L 23.7085,-109.345 L 23.7154,-109.36 L 23.7225,-109.374 L 23.7299,-109.388 L 23.7376,-109.402  L 23.7455,-109.416 L 23.7537,-109.429 L 23.7621,-109.442 L 23.7708,-109.454 L 23.7798,-109.467 L 23.789,-109.478  L 23.7985,-109.49 L 23.8083,-109.501 L 23.8183,-109.511 L 23.8286,-109.522 L 23.8391,-109.532 L 23.8499,-109.541  L 23.861,-109.55 L 23.8724,-109.559 L 23.884,-109.568 L 23.8958,-109.576 L 23.908,-109.584 L 23.9204,-109.591  L 23.9331,-109.598 L 23.9461,-109.604 L 23.9594,-109.61 L 23.973,-109.616 L 23.987,-109.621 L 24.0012,-109.626  L 24.0157,-109.63 L 24.0305,-109.634 L 24.0456,-109.637 L 24.061,-109.64 L 24.0767,-109.643 L 24.0927,-109.645  L 24.109,-109.646 L 24.1256,-109.647 L 24.1425,-109.648 L 24.1597,-109.648 L 24.1763,-109.648 L 24.1927,-109.647  L 24.2087,-109.646 L 24.2245,-109.644 L 24.24,-109.642 L 24.2553,-109.64 L 24.2702,-109.636 L 24.2849,-109.633  L 24.2993,-109.629 L 24.3135,-109.624 L 24.3273,-109.619 L 24.3409,-109.614 L 24.3542,-109.608 L 24.3672,-109.602  L 24.38,-109.595 L 24.3925,-109.587 L 24.4047,-109.579 L 24.4166,-109.571 L 24.4283,-109.563 L 24.4398,-109.554  L 24.4509,-109.544 L 24.4619,-109.535 L 24.4725,-109.525 L 24.483,-109.515 L 24.4931,-109.504 L 24.5031,-109.493  L 24.5127,-109.482 L 24.5222,-109.47 L 24.5313,-109.458 L 24.5402,-109.446 L 24.5489,-109.433 L 24.5573,-109.42  L 24.5655,-109.407 L 24.5734,-109.393 L 24.581,-109.379 L 24.5885,-109.365 L 24.5956,-109.35 L 24.6026,-109.335  L 24.6093,-109.32 L 24.6158,-109.305 L 24.6221,-109.289 L 24.6281,-109.273 L 24.6339,-109.257 L 24.6394,-109.24  L 24.6447,-109.223 L 24.6498,-109.206 L 24.6547,-109.189 L 24.6593,-109.171 L 24.6636,-109.153 L 24.6678,-109.135  L 24.6717,-109.117 L 24.6754,-109.098 L 24.6788,-109.079 L 24.682,-109.06 L 24.6851,-109.041 L 24.6878,-109.022  L 24.6904,-109.002 L 24.6927,-108.983 L 24.6949,-108.963 L 24.6968,-108.943 L 24.6984,-108.923 L 24.6999,-108.903  L 24.7011,-108.883 L 24.7021,-108.863 L 24.7029,-108.842 L 24.7034,-108.822 L 24.7038,-108.801 L 24.7039,-108.78  L 24.7038,-108.757 L 24.7035,-108.734 L 24.7029,-108.712 L 24.7022,-108.689 L 24.7013,-108.667 L 24.7001,-108.646  L 24.6987,-108.624 L 24.6971,-108.603 L 24.6953,-108.582 L 24.6933,-108.561 L 24.6911,-108.54 L 24.6887,-108.52  L 24.6861,-108.5 L 24.6832,-108.48 L 24.6801,-108.46 L 24.6769,-108.441 L 24.6734,-108.422 L 24.6697,-108.403  L 24.6657,-108.384 L 24.6615,-108.366 L 24.6571,-108.348 L 24.6524,-108.33 L 24.6475,-108.313 L 24.6424,-108.296  L 24.637,-108.279 L 24.6313,-108.263 L 24.6255,-108.247 L 24.6194,-108.231 L 24.613,-108.216 L 24.6064,-108.201  L 24.5996,-108.186 L 24.5925,-108.171 L 24.5852,-108.157 L 24.5776,-108.143 L 24.5698,-108.13 L 24.5617,-108.117  L 24.5534,-108.104 L 24.5448,-108.092 L 24.5359,-108.08 L 24.5268,-108.068 L 24.5174,-108.057 L 24.5077,-108.046  L 24.4978,-108.035 L 24.4876,-108.025 L 24.4772,-108.015 L 24.4665,-108.005 L 24.4555,-107.996 L 24.4442,-107.987  L 24.4327,-107.979 L 24.421,-107.971 L 24.4089,-107.963 L 24.3966,-107.956 L 24.384,-107.949 L 24.3711,-107.942  L 24.3579,-107.936 L 24.3444,-107.931 L 24.3306,-107.925 L 24.3166,-107.921 L 24.3022,-107.917 L 24.2875,-107.913  L 24.2726,-107.909 L 24.2573,-107.907 L 24.2418,-107.904 L 24.226,-107.902 L 24.2099,-107.901 L 24.1934,-107.899  L 24.1767,-107.899 L 24.1597,-107.899 z M 33.3611,-107.64 L 33.4141,-107.643 L 33.4656,-107.648 L 33.5156,-107.655 L 33.564,-107.663 L 33.611,-107.674  L 33.6564,-107.687 L 33.7004,-107.701 L 33.7428,-107.718 L 33.7837,-107.736 L 33.8231,-107.757 L 33.861,-107.779  L 33.8974,-107.803 L 33.9323,-107.829 L 33.9657,-107.858 L 33.9976,-107.888 L 34.028,-107.92 L 34.0567,-107.954  L 34.0837,-107.989 L 34.109,-108.027 L 34.1325,-108.067 L 34.1543,-108.108 L 34.1743,-108.151 L 34.1926,-108.196  L 34.2092,-108.243 L 34.224,-108.292 L 34.237,-108.343 L 34.2484,-108.395 L 34.2579,-108.45 L 34.2658,-108.506  L 34.2719,-108.564 L 34.2762,-108.624 L 34.2789,-108.686 L 34.2797,-108.75 L 34.2795,-108.781 L 34.2788,-108.811  L 34.2776,-108.842 L 34.2759,-108.872 L 34.2737,-108.902 L 34.2711,-108.931 L 34.2679,-108.96 L 34.2643,-108.989  L 34.2603,-109.017 L 34.2557,-109.045 L 34.2506,-109.073 L 34.2451,-109.1 L 34.2391,-109.127 L 34.2326,-109.153  L 34.2256,-109.18 L 34.2182,-109.206 L 34.2102,-109.231 L 34.2018,-109.256 L 34.1931,-109.281 L 34.1839,-109.305  L 34.1742,-109.329 L 34.1642,-109.352 L 34.1538,-109.375 L 34.1429,-109.397 L 34.1317,-109.419 L 34.12,-109.441  L 34.1079,-109.462 L 34.0954,-109.482 L 34.0825,-109.502 L 34.0692,-109.522 L 34.0555,-109.541 L 34.0414,-109.56  L 34.0268,-109.578 L 34.0119,-109.596 L 33.9965,-109.614 L 33.9808,-109.631 L 33.9647,-109.647 L 33.9482,-109.663  L 33.9314,-109.679 L 33.9142,-109.694 L 33.8966,-109.708 L 33.8786,-109.722 L 33.8602,-109.736 L 33.8415,-109.749  L 33.8224,-109.762 L 33.8029,-109.774 L 33.7831,-109.786 L 33.7629,-109.797 L 33.7423,-109.808 L 33.7213,-109.818  L 33.6999,-109.828 L 33.6783,-109.837 L 33.6563,-109.846 L 33.634,-109.854 L 33.6113,-109.862 L 33.5884,-109.869  L 33.5652,-109.875 L 33.5417,-109.881 L 33.5179,-109.886 L 33.4937,-109.891 L 33.4693,-109.895 L 33.4445,-109.899  L 33.4195,-109.902 L 33.3941,-109.905 L 33.3685,-109.907 L 33.3425,-109.908 L 33.3163,-109.909 L 33.2897,-109.909  L 33.2716,-109.909 L 33.2537,-109.909 L 33.2359,-109.908 L 33.2183,-109.908 L 33.2008,-109.907 L 33.1835,-109.906  L 33.1664,-109.905 L 33.1494,-109.903 L 33.1325,-109.902 L 33.1158,-109.9 L 33.0993,-109.898 L 33.0829,-109.896  L 33.0666,-109.894 L 33.0505,-109.891 L 33.0346,-109.889 L 33.0188,-109.886 L 33.0032,-109.883 L 32.9877,-109.88  L 32.9722,-109.876 L 32.9568,-109.873 L 32.9415,-109.869 L 32.9263,-109.865 L 32.9111,-109.861 L 32.896,-109.857  L 32.881,-109.852 L 32.866,-109.847 L 32.8511,-109.842 L 32.8363,-109.837 L 32.8215,-109.832 L 32.8069,-109.826  L 32.7923,-109.821 L 32.7777,-109.815 L 32.7633,-109.809 L 32.7489,-109.802 L 32.7489,-109.506 L 32.7631,-109.513  L 32.7773,-109.521 L 32.7916,-109.528 L 32.806,-109.535 L 32.8204,-109.542 L 32.8349,-109.548 L 32.8494,-109.555  L 32.864,-109.561 L 32.8787,-109.567 L 32.8934,-109.573 L 32.9082,-109.578 L 32.923,-109.583 L 32.9379,-109.588  L 32.9529,-109.593 L 32.9679,-109.598 L 32.983,-109.602 L 32.9981,-109.607 L 33.0133,-109.611 L 33.0287,-109.614  L 33.0443,-109.618 L 33.06,-109.621 L 33.0759,-109.624 L 33.092,-109.627 L 33.1082,-109.629 L 33.1246,-109.632  L 33.1412,-109.634 L 33.1579,-109.635 L 33.1748,-109.637 L 33.1918,-109.638 L 33.209,-109.639 L 33.2264,-109.64  L 33.2439,-109.641 L 33.2616,-109.641 L 33.2795,-109.641 L 33.2977,-109.641 L 33.3158,-109.641 L 33.3336,-109.639  L 33.3513,-109.638 L 33.3687,-109.636 L 33.3859,-109.634 L 33.4029,-109.631 L 33.4197,-109.628 L 33.4363,-109.625  L 33.4527,-109.621 L 33.4689,-109.617 L 33.4849,-109.612 L 33.5007,-109.607 L 33.5163,-109.602 L 33.5316,-109.596  L 33.5468,-109.589 L 33.5618,-109.583 L 33.5765,-109.576 L 33.591,-109.568 L 33.6052,-109.561 L 33.6191,-109.552  L 33.6328,-109.544 L 33.6462,-109.535 L 33.6593,-109.526 L 33.6722,-109.516 L 33.6848,-109.506 L 33.6972,-109.496  L 33.7093,-109.485 L 33.7211,-109.474 L 33.7326,-109.463 L 33.7439,-109.451 L 33.755,-109.439 L 33.7657,-109.426  L 33.7762,-109.413 L 33.7865,-109.4 L 33.7964,-109.386 L 33.8061,-109.373 L 33.8155,-109.358 L 33.8246,-109.344  L 33.8334,-109.329 L 33.8419,-109.313 L 33.8502,-109.298 L 33.8582,-109.282 L 33.8659,-109.266 L 33.8733,-109.249  L 33.8804,-109.232 L 33.8873,-109.215 L 33.8938,-109.197 L 33.9001,-109.179 L 33.9061,-109.161 L 33.9118,-109.142  L 33.9173,-109.123 L 33.9224,-109.104 L 33.9271,-109.084 L 33.9316,-109.064 L 33.9357,-109.044 L 33.9395,-109.023  L 33.9429,-109.002 L 33.946,-108.981 L 33.9488,-108.96 L 33.9513,-108.938 L 33.9534,-108.916 L 33.9552,-108.893  L 33.9567,-108.871 L 33.9579,-108.848 L 33.9587,-108.824 L 33.9592,-108.801 L 33.9593,-108.777 L 33.9587,-108.727  L 33.9569,-108.678 L 33.9539,-108.631 L 33.9497,-108.586 L 33.9442,-108.542 L 33.9376,-108.499 L 33.9297,-108.458  L 33.9207,-108.418 L 33.9104,-108.38 L 33.8989,-108.343 L 33.8862,-108.308 L 33.8723,-108.274 L 33.8572,-108.242  L 33.8409,-108.211 L 33.8234,-108.182 L 33.8046,-108.154 L 33.7847,-108.127 L 33.7636,-108.102 L 33.7414,-108.079  L 33.718,-108.057 L 33.6935,-108.037 L 33.6679,-108.018 L 33.6412,-108 L 33.6133,-107.984 L 33.5843,-107.97  L 33.5542,-107.957 L 33.5229,-107.946 L 33.4906,-107.936 L 33.4571,-107.928 L 33.4225,-107.921 L 33.3867,-107.915  L 33.3499,-107.912 L 33.3119,-107.909 L 33.2727,-107.909 L 33.256,-107.909 L 33.2394,-107.909 L 33.2228,-107.91  L 33.2064,-107.911 L 33.19,-107.912 L 33.1737,-107.913 L 33.1575,-107.914 L 33.1413,-107.916 L 33.1253,-107.918  L 33.1093,-107.92 L 33.0934,-107.923 L 33.0776,-107.925 L 33.0619,-107.928 L 33.0462,-107.931 L 33.0307,-107.934  L 33.0152,-107.938 L 32.9998,-107.942 L 32.9844,-107.946 L 32.9692,-107.95 L 32.954,-107.954 L 32.9389,-107.959  L 32.9239,-107.963 L 32.9089,-107.968 L 32.894,-107.973 L 32.8792,-107.979 L 32.8644,-107.984 L 32.8497,-107.99  L 32.8351,-107.996 L 32.8206,-108.002 L 32.8061,-108.008 L 32.7917,-108.014 L 32.7773,-108.021 L 32.7631,-108.027  L 32.7489,-108.034 L 32.7489,-107.749 L 32.7803,-107.737 L 32.8119,-107.725 L 32.8436,-107.714 L 32.8755,-107.704  L 32.9076,-107.694 L 32.9399,-107.685 L 32.9724,-107.677 L 33.005,-107.67 L 33.0378,-107.664 L 33.0708,-107.658  L 33.104,-107.653 L 33.1373,-107.649 L 33.1708,-107.645 L 33.2045,-107.643 L 33.2384,-107.641 L 33.2724,-107.64  L 33.3066,-107.639 z M 26.6869,-107.924 L 26.1766,-107.924 L 26.1766,-109.628 L 26.6869,-109.628 L 26.6869,-109.882 L 25.3611,-109.882  L 25.3611,-109.628 L 25.8714,-109.628 L 25.8714,-107.924 L 25.3611,-107.924 L 25.3611,-107.666 L 26.6869,-107.666  z M 32.2798,-107.924 L 31.7695,-107.924 L 31.7695,-109.628 L 32.2798,-109.628 L 32.2798,-109.882 L 30.9541,-109.882  L 30.9541,-109.628 L 31.4643,-109.628 L 31.4643,-107.924 L 30.9541,-107.924 L 30.9541,-107.666 L 32.2798,-107.666  z M 36.0322,-109.882 L 35.4083,-109.882 L 35.389,-109.882 L 35.3698,-109.882 L 35.3507,-109.881 L 35.3316,-109.88  L 35.3127,-109.879 L 35.2939,-109.877 L 35.2752,-109.876 L 35.2565,-109.874 L 35.238,-109.872 L 35.2195,-109.869  L 35.2012,-109.867 L 35.1829,-109.864 L 35.1647,-109.861 L 35.1466,-109.857 L 35.1286,-109.854 L 35.1108,-109.85  L 35.093,-109.846 L 35.0753,-109.841 L 35.0579,-109.836 L 35.0408,-109.831 L 35.024,-109.826 L 35.0074,-109.82  L 34.991,-109.814 L 34.9749,-109.808 L 34.959,-109.801 L 34.9434,-109.794 L 34.9281,-109.787 L 34.9129,-109.78  L 34.8981,-109.772 L 34.8835,-109.764 L 34.8692,-109.755 L 34.8551,-109.746 L 34.8412,-109.737 L 34.8276,-109.728  L 34.8143,-109.718 L 34.8013,-109.708 L 34.7887,-109.698 L 34.7763,-109.687 L 34.7643,-109.676 L 34.7527,-109.664  L 34.7413,-109.653 L 34.7303,-109.641 L 34.7195,-109.628 L 34.7091,-109.616 L 34.699,-109.603 L 34.6893,-109.589  L 34.6799,-109.576 L 34.6708,-109.562 L 34.662,-109.547 L 34.6535,-109.533 L 34.6454,-109.518 L 34.6376,-109.502  L 34.6304,-109.486 L 34.6236,-109.47 L 34.6172,-109.454 L 34.6114,-109.437 L 34.606,-109.42 L 34.601,-109.402  L 34.5966,-109.384 L 34.5926,-109.365 L 34.5891,-109.347 L 34.586,-109.327 L 34.5834,-109.308 L 34.5813,-109.288  L 34.5797,-109.267 L 34.5785,-109.247 L 34.5778,-109.225 L 34.5776,-109.204 L 34.5777,-109.188 L 34.5783,-109.172  L 34.5791,-109.156 L 34.5804,-109.14 L 34.582,-109.124 L 34.5839,-109.108 L 34.5862,-109.093 L 34.5888,-109.077  L 34.5918,-109.061 L 34.5952,-109.045 L 34.5989,-109.029 L 34.6029,-109.014 L 34.6073,-108.998 L 34.6121,-108.982  L 34.6172,-108.967 L 34.6226,-108.951 L 34.6284,-108.935 L 34.6346,-108.92 L 34.6412,-108.904 L 34.6481,-108.889  L 34.6555,-108.874 L 34.6632,-108.859 L 34.6713,-108.845 L 34.6798,-108.83 L 34.6887,-108.816 L 34.698,-108.802  L 34.7076,-108.788 L 34.7177,-108.775 L 34.7281,-108.761 L 34.7389,-108.748 L 34.7501,-108.735 L 34.7617,-108.722  L 34.7737,-108.709 L 34.7861,-108.697 L 34.7989,-108.685 L 34.8121,-108.673 L 34.8257,-108.661 L 34.8397,-108.65  L 34.8541,-108.639 L 34.8689,-108.628 L 34.8841,-108.617 L 34.8998,-108.607 L 34.9158,-108.597 L 34.9323,-108.587  L 34.9492,-108.578 L 34.9665,-108.568 L 34.9842,-108.56 L 35.0023,-108.551 L 35.0208,-108.543 L 35.0397,-108.534  L 35.0591,-108.527 L 35.0788,-108.519 L 35.099,-108.512 L 35.1197,-108.506 L 35.1408,-108.5 L 35.1624,-108.494  L 35.1844,-108.489 L 35.2068,-108.484 L 35.2297,-108.48 L 35.253,-108.476 L 35.2768,-108.472 L 35.301,-108.469  L 35.3257,-108.467 L 35.3508,-108.465 L 35.3764,-108.463 L 35.4024,-108.462 L 35.4288,-108.462 L 35.4557,-108.461  L 35.7304,-108.461 L 35.7304,-107.666 L 36.0322,-107.666 z M 35.449,-108.719 L 35.4179,-108.719 L 35.3876,-108.721 L 35.3582,-108.723 L 35.3297,-108.726 L 35.302,-108.729  L 35.2752,-108.734 L 35.2492,-108.739 L 35.2241,-108.745 L 35.1998,-108.752 L 35.1764,-108.76 L 35.1538,-108.768  L 35.132,-108.777 L 35.1112,-108.787 L 35.0911,-108.798 L 35.072,-108.81 L 35.0536,-108.823 L 35.0362,-108.836  L 35.0196,-108.85 L 35.0041,-108.865 L 34.9895,-108.881 L 34.976,-108.898 L 34.9634,-108.915 L 34.9519,-108.934  L 34.9414,-108.953 L 34.9318,-108.973 L 34.9233,-108.994 L 34.9158,-109.015 L 34.9093,-109.038 L 34.9037,-109.061  L 34.8992,-109.085 L 34.8957,-109.11 L 34.8932,-109.136 L 34.8917,-109.163 L 34.8912,-109.19 L 34.8917,-109.215  L 34.8931,-109.239 L 34.8956,-109.263 L 34.899,-109.285 L 34.9033,-109.307 L 34.9086,-109.329 L 34.9149,-109.349  L 34.9222,-109.369 L 34.9304,-109.388 L 34.9396,-109.407 L 34.9498,-109.425 L 34.9609,-109.442 L 34.973,-109.459  L 34.9861,-109.474 L 35.0001,-109.489 L 35.0151,-109.504 L 35.0311,-109.518 L 35.0479,-109.531 L 35.0655,-109.543  L 35.0839,-109.554 L 35.103,-109.565 L 35.123,-109.575 L 35.1436,-109.584 L 35.1651,-109.592 L 35.1873,-109.599  L 35.2103,-109.606 L 35.234,-109.612 L 35.2586,-109.617 L 35.2839,-109.621 L 35.3099,-109.625 L 35.3367,-109.628  L 35.3643,-109.63 L 35.3927,-109.631 L 35.4218,-109.631 L 35.7304,-109.631 L 35.7304,-108.719 z M 29.7019,-107.636 L 29.727,-107.637 L 29.7516,-107.638 L 29.7759,-107.639 L 29.7997,-107.641 L 29.8231,-107.643  L 29.8461,-107.646 L 29.8687,-107.649 L 29.8908,-107.652 L 29.9125,-107.656 L 29.9338,-107.661 L 29.9547,-107.665  L 29.9751,-107.67 L 29.9952,-107.676 L 30.0148,-107.682 L 30.0339,-107.688 L 30.0527,-107.695 L 30.0711,-107.702  L 30.089,-107.71 L 30.1066,-107.718 L 30.1238,-107.726 L 30.1405,-107.735 L 30.1569,-107.744 L 30.1729,-107.753  L 30.1885,-107.763 L 30.2037,-107.773 L 30.2185,-107.783 L 30.233,-107.794 L 30.247,-107.805 L 30.2606,-107.817  L 30.2739,-107.829 L 30.2867,-107.841 L 30.2992,-107.854 L 30.3112,-107.867 L 30.3229,-107.881 L 30.3342,-107.894  L 30.3452,-107.909 L 30.3558,-107.923 L 30.366,-107.938 L 30.3759,-107.953 L 30.3854,-107.969 L 30.3945,-107.985  L 30.4033,-108.001 L 30.4117,-108.017 L 30.4198,-108.034 L 30.4275,-108.052 L 30.4348,-108.069 L 30.4417,-108.087  L 30.4483,-108.106 L 30.4546,-108.124 L 30.4604,-108.143 L 30.466,-108.163 L 30.4711,-108.183 L 30.476,-108.203  L 30.4805,-108.223 L 30.4847,-108.243 L 30.4885,-108.264 L 30.492,-108.286 L 30.4952,-108.307 L 30.498,-108.329  L 30.5005,-108.351 L 30.5027,-108.373 L 30.5046,-108.396 L 30.5061,-108.419 L 30.5072,-108.442 L 30.5081,-108.466  L 30.5086,-108.49 L 30.5087,-108.514 L 30.5086,-108.535 L 30.508,-108.556 L 30.5071,-108.577 L 30.5059,-108.597  L 30.5043,-108.618 L 30.5023,-108.638 L 30.5,-108.659 L 30.4973,-108.679 L 30.4942,-108.699 L 30.4908,-108.719  L 30.4871,-108.738 L 30.483,-108.758 L 30.4785,-108.777 L 30.4737,-108.797 L 30.4685,-108.816 L 30.4629,-108.835  L 30.457,-108.854 L 30.4508,-108.873 L 30.4442,-108.891 L 30.4373,-108.909 L 30.4301,-108.927 L 30.4225,-108.945  L 30.4146,-108.962 L 30.4064,-108.979 L 30.3979,-108.996 L 30.389,-109.013 L 30.3798,-109.029 L 30.3702,-109.045  L 30.3604,-109.061 L 30.3502,-109.076 L 30.3397,-109.091 L 30.3288,-109.106 L 30.3176,-109.121 L 30.3061,-109.135  L 30.2943,-109.149 L 30.2822,-109.163 L 30.2697,-109.176 L 30.257,-109.19 L 30.2439,-109.202 L 30.2305,-109.215  L 30.2168,-109.227 L 30.2028,-109.238 L 30.1885,-109.25 L 30.1739,-109.261 L 30.159,-109.271 L 30.1437,-109.281  L 30.1282,-109.291 L 30.1123,-109.301 L 30.0961,-109.31 L 30.0797,-109.319 L 30.0629,-109.328 L 30.0458,-109.336  L 30.0284,-109.343 L 30.0108,-109.351 L 29.9929,-109.357 L 29.9747,-109.363 L 29.9563,-109.369 L 29.9376,-109.374  L 29.9186,-109.379 L 29.8993,-109.383 L 29.8798,-109.387 L 29.8601,-109.39 L 29.84,-109.393 L 29.8197,-109.395  L 29.7991,-109.397 L 29.7782,-109.398 L 29.7571,-109.399 L 29.7357,-109.399 L 29.7149,-109.399 L 29.6943,-109.398  L 29.6741,-109.397 L 29.6542,-109.396 L 29.6345,-109.394 L 29.6151,-109.392 L 29.596,-109.389 L 29.5771,-109.386  L 29.5586,-109.383 L 29.5403,-109.38 L 29.5223,-109.375 L 29.5046,-109.371 L 29.4872,-109.366 L 29.4701,-109.361  L 29.4532,-109.355 L 29.4366,-109.349 L 29.4203,-109.343 L 29.4043,-109.336 L 29.3886,-109.329 L 29.3732,-109.322  L 29.3581,-109.314 L 29.3433,-109.306 L 29.3288,-109.298 L 29.3146,-109.289 L 29.3007,-109.28 L 29.2871,-109.271  L 29.2737,-109.261 L 29.2607,-109.251 L 29.248,-109.241 L 29.2356,-109.23 L 29.2235,-109.219 L 29.2117,-109.208  L 29.2002,-109.196 L 29.1889,-109.184 L 29.178,-109.172 L 29.1674,-109.16 L 29.1571,-109.147 L 29.1472,-109.134  L 29.1375,-109.12 L 29.1282,-109.107 L 29.1192,-109.092 L 29.1105,-109.078 L 29.1021,-109.063 L 29.0941,-109.048  L 29.0863,-109.033 L 29.0789,-109.018 L 29.0718,-109.002 L 29.065,-108.986 L 29.0585,-108.969 L 29.0524,-108.952  L 29.0465,-108.935 L 29.041,-108.918 L 29.0358,-108.9 L 29.031,-108.882 L 29.0265,-108.864 L 29.0223,-108.846  L 29.0184,-108.827 L 29.0149,-108.809 L 29.0118,-108.789 L 29.0089,-108.77 L 29.0064,-108.751 L 29.0042,-108.731  L 29.0024,-108.711 L 29.0009,-108.691 L 28.9997,-108.67 L 28.9989,-108.649 L 28.9984,-108.628 L 28.9982,-108.607  L 28.9982,-108.6 L 28.9984,-108.565 L 28.9987,-108.546 L 28.9992,-108.523 L 28.9999,-108.502 L 29.0006,-108.487  L 29.0013,-108.473 L 29.0022,-108.459 L 29.0031,-108.445 L 29.0038,-108.436 L 29.005,-108.422 L 30.2002,-108.422  L 30.1997,-108.392 L 30.1982,-108.363 L 30.1956,-108.334 L 30.1921,-108.306 L 30.1876,-108.279 L 30.182,-108.253  L 30.1755,-108.228 L 30.1679,-108.203 L 30.1593,-108.18 L 30.1497,-108.157 L 30.1391,-108.135 L 30.1275,-108.114  L 30.1149,-108.094 L 30.1013,-108.075 L 30.0867,-108.056 L 30.071,-108.038 L 30.0544,-108.021 L 30.0368,-108.005  L 30.0183,-107.99 L 29.9989,-107.976 L 29.9786,-107.963 L 29.9575,-107.951 L 29.9354,-107.94 L 29.9125,-107.93  L 29.8886,-107.921 L 29.8639,-107.913 L 29.8383,-107.905 L 29.8118,-107.899 L 29.7844,-107.894 L 29.7561,-107.889  L 29.7269,-107.886 L 29.6968,-107.883 L 29.6658,-107.882 L 29.634,-107.882 L 29.6252,-107.882 L 29.6164,-107.882  L 29.5989,-107.882 L 29.5901,-107.882 L 29.5813,-107.882 L 29.5637,-107.883 L 29.5462,-107.884 L 29.5374,-107.884  L 29.5286,-107.885 L 29.5111,-107.886 L 29.5023,-107.886 L 29.4848,-107.887 L 29.476,-107.888 L 29.4586,-107.89  L 29.4413,-107.891 L 29.4327,-107.892 L 29.4157,-107.894 L 29.4072,-107.895 L 29.3904,-107.897 L 29.3737,-107.899  L 29.3654,-107.9 L 29.3489,-107.902 L 29.3325,-107.905 L 29.3163,-107.907 L 29.2923,-107.911 L 29.2687,-107.915  L 29.2532,-107.918 L 29.2378,-107.921 L 29.2226,-107.924 L 29.2001,-107.928 L 29.1854,-107.931 L 29.1639,-107.936  L 29.1568,-107.937 L 29.1429,-107.941 L 29.136,-107.942 L 29.1158,-107.947 L 29.1092,-107.949 L 29.0962,-107.953  L 29.0898,-107.954 L 29.0898,-107.712 L 29.104,-107.708 L 29.1185,-107.704 L 29.1332,-107.7 L 29.1481,-107.697  L 29.1633,-107.693 L 29.1786,-107.69 L 29.1942,-107.686 L 29.21,-107.683 L 29.226,-107.68 L 29.2422,-107.677  L 29.2587,-107.673 L 29.2753,-107.671 L 29.2922,-107.668 L 29.3093,-107.665 L 29.3266,-107.662 L 29.3441,-107.659  L 29.3619,-107.657 L 29.3798,-107.655 L 29.3977,-107.652 L 29.4158,-107.65 L 29.4339,-107.648 L 29.4521,-107.646  L 29.4703,-107.645 L 29.4887,-107.643 L 29.5071,-107.642 L 29.5256,-107.64 L 29.5442,-107.639 L 29.5628,-107.638  L 29.5816,-107.638 L 29.6004,-107.637 L 29.6192,-107.636 L 29.6382,-107.636 L 29.6572,-107.636 L 29.6763,-107.636  z M 29.3051,-108.65 L 29.3046,-108.663 L 29.3043,-108.676 L 29.3043,-108.689 L 29.3045,-108.702 L 29.3049,-108.715  L 29.3055,-108.727 L 29.3063,-108.74 L 29.3074,-108.752 L 29.3087,-108.764 L 29.3102,-108.776 L 29.312,-108.788  L 29.3139,-108.8 L 29.3161,-108.812 L 29.3185,-108.823 L 29.3212,-108.835 L 29.324,-108.846 L 29.3271,-108.857  L 29.3304,-108.868 L 29.3339,-108.879 L 29.3376,-108.89 L 29.3415,-108.9 L 29.3456,-108.91 L 29.35,-108.92  L 29.3545,-108.93 L 29.3592,-108.94 L 29.3641,-108.949 L 29.3693,-108.959 L 29.3746,-108.968 L 29.3802,-108.977  L 29.386,-108.986 L 29.3919,-108.994 L 29.3981,-109.003 L 29.4045,-109.011 L 29.411,-109.019 L 29.4178,-109.027  L 29.4248,-109.035 L 29.4319,-109.042 L 29.4393,-109.049 L 29.4469,-109.056 L 29.4546,-109.063 L 29.4625,-109.07  L 29.4707,-109.076 L 29.479,-109.083 L 29.4875,-109.089 L 29.4962,-109.094 L 29.5051,-109.1 L 29.5142,-109.105  L 29.5235,-109.111 L 29.533,-109.116 L 29.5427,-109.12 L 29.5526,-109.125 L 29.5626,-109.129 L 29.5729,-109.133  L 29.5833,-109.137 L 29.594,-109.141 L 29.6048,-109.144 L 29.6158,-109.147 L 29.627,-109.15 L 29.6384,-109.153  L 29.6499,-109.155 L 29.6617,-109.157 L 29.6736,-109.158 L 29.6858,-109.16 L 29.6981,-109.161 L 29.7106,-109.162  L 29.7233,-109.163 L 29.7362,-109.163 L 29.7492,-109.163 L 29.7605,-109.163 L 29.7717,-109.163 L 29.7828,-109.162  L 29.7938,-109.161 L 29.8046,-109.16 L 29.8153,-109.159 L 29.8259,-109.157 L 29.8364,-109.155 L 29.8468,-109.153  L 29.8571,-109.15 L 29.8672,-109.148 L 29.8772,-109.145 L 29.8871,-109.141 L 29.8969,-109.138 L 29.9066,-109.134  L 29.9161,-109.13 L 29.9256,-109.126 L 29.9349,-109.121 L 29.944,-109.117 L 29.953,-109.112 L 29.9618,-109.107  L 29.9705,-109.101 L 29.9791,-109.096 L 29.9874,-109.09 L 29.9957,-109.084 L 30.0038,-109.078 L 30.0117,-109.071  L 30.0195,-109.065 L 30.0271,-109.058 L 30.0345,-109.051 L 30.0419,-109.044 L 30.049,-109.036 L 30.056,-109.029  L 30.0629,-109.021 L 30.0696,-109.013 L 30.0761,-109.004 L 30.0825,-108.996 L 30.0888,-108.987 L 30.0949,-108.979  L 30.1008,-108.97 L 30.1066,-108.96 L 30.1122,-108.951 L 30.1177,-108.941 L 30.1231,-108.932 L 30.1282,-108.922  L 30.1333,-108.912 L 30.1381,-108.901 L 30.1429,-108.891 L 30.1474,-108.88 L 30.1519,-108.869 L 30.1561,-108.858  L 30.1602,-108.847 L 30.1641,-108.835 L 30.1678,-108.824 L 30.1714,-108.812 L 30.1747,-108.801 L 30.1779,-108.789  L 30.1808,-108.777 L 30.1836,-108.765 L 30.1862,-108.752 L 30.1886,-108.74 L 30.1908,-108.727 L 30.1929,-108.715  L 30.1947,-108.702 L 30.1963,-108.689 L 30.1978,-108.676 L 30.1991,-108.663 L 30.2002,-108.65 z M 22.0208,-104.081 L 22.0418,-104.081 L 22.0625,-104.082 L 22.083,-104.084 L 22.1033,-104.086 L 22.1233,-104.088  L 22.1431,-104.09 L 22.1626,-104.093 L 22.1819,-104.097 L 22.2009,-104.1 L 22.2196,-104.104 L 22.2382,-104.109  L 22.2564,-104.114 L 22.2745,-104.119 L 22.2922,-104.125 L 22.3098,-104.131 L 22.327,-104.138 L 22.344,-104.144  L 22.3607,-104.152 L 22.3771,-104.159 L 22.3932,-104.167 L 22.4091,-104.176 L 22.4246,-104.185 L 22.4398,-104.194  L 22.4546,-104.203 L 22.4693,-104.213 L 22.4835,-104.224 L 22.4976,-104.234 L 22.5112,-104.245 L 22.5247,-104.257  L 22.5377,-104.269 L 22.5505,-104.281 L 22.563,-104.293 L 22.5752,-104.306 L 22.5871,-104.32 L 22.5987,-104.333  L 22.6099,-104.348 L 22.6208,-104.362 L 22.6314,-104.377 L 22.6416,-104.392 L 22.6515,-104.408 L 22.6611,-104.424  L 22.6704,-104.44 L 22.6793,-104.457 L 22.6879,-104.474 L 22.6961,-104.492 L 22.7041,-104.51 L 22.7117,-104.528  L 22.719,-104.547 L 22.7259,-104.566 L 22.7326,-104.585 L 22.7388,-104.605 L 22.7447,-104.625 L 22.7502,-104.646  L 22.7554,-104.667 L 22.7601,-104.688 L 22.7645,-104.709 L 22.7685,-104.731 L 22.7721,-104.754 L 22.7753,-104.777  L 22.7782,-104.8 L 22.7806,-104.823 L 22.7827,-104.847 L 22.7844,-104.871 L 22.7858,-104.896 L 22.7867,-104.921  L 22.7873,-104.946 L 22.7875,-104.972 L 22.7873,-104.997 L 22.7866,-105.022 L 22.7856,-105.047 L 22.7841,-105.072  L 22.7822,-105.096 L 22.7799,-105.12 L 22.7771,-105.144 L 22.774,-105.167 L 22.7704,-105.19 L 22.7664,-105.213  L 22.7619,-105.235 L 22.7571,-105.257 L 22.7518,-105.279 L 22.7461,-105.3 L 22.74,-105.322 L 22.7334,-105.342  L 22.7265,-105.363 L 22.7191,-105.383 L 22.7114,-105.403 L 22.7034,-105.422 L 22.695,-105.441 L 22.6863,-105.46  L 22.6772,-105.478 L 22.6678,-105.496 L 22.658,-105.514 L 22.648,-105.531 L 22.6375,-105.548 L 22.6268,-105.565  L 22.6156,-105.581 L 22.6042,-105.596 L 22.5924,-105.612 L 22.5802,-105.627 L 22.5677,-105.642 L 22.5549,-105.656  L 22.5417,-105.67 L 22.5283,-105.683 L 22.5145,-105.696 L 22.5004,-105.709 L 22.486,-105.722 L 22.4713,-105.734  L 22.4563,-105.745 L 22.441,-105.756 L 22.4253,-105.767 L 22.4094,-105.777 L 22.3931,-105.787 L 22.3766,-105.797  L 22.3597,-105.806 L 22.3425,-105.815 L 22.325,-105.823 L 22.3072,-105.831 L 22.2891,-105.839 L 22.2707,-105.846  L 22.2521,-105.853 L 22.2333,-105.859 L 22.2142,-105.865 L 22.195,-105.871 L 22.1755,-105.876 L 22.1558,-105.88  L 22.1359,-105.884 L 22.1157,-105.888 L 22.0953,-105.891 L 22.0748,-105.894 L 22.054,-105.897 L 22.0329,-105.899  L 22.0117,-105.9 L 21.9902,-105.901 L 21.9685,-105.902 L 21.9466,-105.902 L 21.9326,-105.902 L 21.9187,-105.902  L 21.9049,-105.901 L 21.8911,-105.901 L 21.8774,-105.9 L 21.8638,-105.899 L 21.8503,-105.898 L 21.8368,-105.897  L 21.8235,-105.896 L 21.8102,-105.895 L 21.797,-105.893 L 21.7839,-105.892 L 21.7708,-105.89 L 21.7579,-105.888  L 21.745,-105.886 L 21.7322,-105.883 L 21.7194,-105.881 L 21.7068,-105.878 L 21.6942,-105.876 L 21.6817,-105.873  L 21.6692,-105.87 L 21.6568,-105.866 L 21.6444,-105.863 L 21.6321,-105.859 L 21.6199,-105.856 L 21.6078,-105.852  L 21.5956,-105.848 L 21.5836,-105.843 L 21.5716,-105.839 L 21.5597,-105.834 L 21.5478,-105.829 L 21.536,-105.824  L 21.5243,-105.819 L 21.5126,-105.814 L 21.5126,-105.574 L 21.5243,-105.58 L 21.536,-105.586 L 21.5477,-105.592  L 21.5595,-105.597 L 21.5713,-105.603 L 21.5832,-105.608 L 21.5951,-105.613 L 21.607,-105.618 L 21.619,-105.623  L 21.631,-105.628 L 21.643,-105.632 L 21.6551,-105.637 L 21.6672,-105.641 L 21.6794,-105.645 L 21.6916,-105.649  L 21.7038,-105.652 L 21.7161,-105.656 L 21.7284,-105.659 L 21.7409,-105.662 L 21.7535,-105.665 L 21.7662,-105.668  L 21.7791,-105.671 L 21.7921,-105.673 L 21.8053,-105.675 L 21.8185,-105.677 L 21.832,-105.679 L 21.8455,-105.68  L 21.8591,-105.681 L 21.8729,-105.683 L 21.8869,-105.683 L 21.9009,-105.684 L 21.9151,-105.685 L 21.9294,-105.685  L 21.9439,-105.685 L 21.9604,-105.685 L 21.9767,-105.684 L 21.9927,-105.683 L 22.0085,-105.682 L 22.0242,-105.681  L 22.0396,-105.679 L 22.0548,-105.677 L 22.0697,-105.674 L 22.0845,-105.671 L 22.099,-105.668 L 22.1134,-105.664  L 22.1275,-105.66 L 22.1414,-105.656 L 22.1551,-105.651 L 22.1685,-105.646 L 22.1818,-105.641 L 22.1948,-105.635  L 22.2076,-105.629 L 22.2202,-105.622 L 22.2325,-105.616 L 22.2446,-105.609 L 22.2564,-105.602 L 22.268,-105.594  L 22.2794,-105.587 L 22.2905,-105.578 L 22.3014,-105.57 L 22.3121,-105.562 L 22.3225,-105.553 L 22.3327,-105.543  L 22.3426,-105.534 L 22.3523,-105.524 L 22.3618,-105.514 L 22.371,-105.504 L 22.3799,-105.493 L 22.3887,-105.482  L 22.3972,-105.471 L 22.4054,-105.46 L 22.4134,-105.448 L 22.4212,-105.436 L 22.4287,-105.424 L 22.4359,-105.411  L 22.443,-105.399 L 22.4497,-105.386 L 22.4563,-105.373 L 22.4626,-105.359 L 22.4686,-105.345 L 22.4744,-105.331  L 22.48,-105.317 L 22.4853,-105.303 L 22.4904,-105.288 L 22.4952,-105.273 L 22.4998,-105.257 L 22.5041,-105.242  L 22.5081,-105.226 L 22.5118,-105.211 L 22.5153,-105.195 L 22.5185,-105.178 L 22.5214,-105.162 L 22.524,-105.145  L 22.5264,-105.129 L 22.5284,-105.112 L 22.5302,-105.095 L 22.5318,-105.077 L 22.533,-105.06 L 22.534,-105.042  L 22.5347,-105.024 L 22.5351,-105.006 L 22.5352,-104.988 L 22.5351,-104.969 L 22.5348,-104.95 L 22.5342,-104.932  L 22.5334,-104.913 L 22.5324,-104.895 L 22.5312,-104.877 L 22.5297,-104.86 L 22.528,-104.842 L 22.5261,-104.825  L 22.524,-104.808 L 22.5216,-104.792 L 22.519,-104.775 L 22.5162,-104.759 L 22.5132,-104.743 L 22.5099,-104.727  L 22.5064,-104.712 L 22.5027,-104.696 L 22.4987,-104.681 L 22.4945,-104.667 L 22.49,-104.652 L 22.4853,-104.638  L 22.4804,-104.624 L 22.4751,-104.61 L 22.4697,-104.597 L 22.4639,-104.584 L 22.4579,-104.571 L 22.4517,-104.558  L 22.4452,-104.546 L 22.4385,-104.534 L 22.4315,-104.522 L 22.4242,-104.511 L 22.4167,-104.5 L 22.409,-104.489  L 22.401,-104.478 L 22.3927,-104.468 L 22.3842,-104.457 L 22.3753,-104.448 L 22.3663,-104.438 L 22.3569,-104.429  L 22.3473,-104.42 L 22.3374,-104.411 L 22.3273,-104.403 L 22.3169,-104.395 L 22.3062,-104.387 L 22.2953,-104.38  L 22.284,-104.373 L 22.2726,-104.366 L 22.2608,-104.359 L 22.2488,-104.353 L 22.2365,-104.347 L 22.224,-104.341  L 22.2111,-104.336 L 22.198,-104.33 L 22.1846,-104.326 L 22.1708,-104.321 L 22.1568,-104.317 L 22.1425,-104.313  L 22.1279,-104.31 L 22.113,-104.307 L 22.0978,-104.304 L 22.0823,-104.302 L 22.0665,-104.299 L 22.0505,-104.298  L 22.0341,-104.296 L 22.0174,-104.295 L 22.0004,-104.294 L 21.9832,-104.294 L 21.9656,-104.294 L 21.9595,-104.294  L 21.9501,-104.294 L 21.9372,-104.294 L 21.9238,-104.295 L 21.9135,-104.296 L 21.903,-104.297 L 21.8925,-104.298  L 21.8784,-104.3 L 21.8679,-104.301 L 21.8609,-104.302 L 21.8538,-104.303 L 21.8433,-104.305 L 21.8329,-104.307  L 21.8227,-104.309 L 21.8159,-104.31 L 21.8092,-104.311 L 21.7993,-104.314 L 21.7894,-104.316 L 21.7831,-104.318  L 21.7769,-104.319 L 21.7708,-104.321 L 21.7621,-104.324 L 21.7537,-104.326 L 21.7484,-104.328 L 21.7432,-104.33  L 21.7432,-104.894 L 22.1053,-104.894 L 22.1053,-105.094 L 21.5045,-105.094 L 21.5045,-104.188 L 21.511,-104.185  L 21.5243,-104.179 L 21.5377,-104.173 L 21.5445,-104.17 L 21.5513,-104.167 L 21.5582,-104.165 L 21.5651,-104.162  L 21.572,-104.159 L 21.579,-104.157 L 21.5931,-104.152 L 21.6002,-104.149 L 21.6074,-104.146 L 21.6218,-104.142  L 21.6291,-104.139 L 21.6363,-104.137 L 21.6437,-104.135 L 21.651,-104.132 L 21.6583,-104.13 L 21.6657,-104.128  L 21.6731,-104.126 L 21.6805,-104.124 L 21.6953,-104.12 L 21.7028,-104.118 L 21.7178,-104.114 L 21.7328,-104.111  L 21.7404,-104.109 L 21.7479,-104.108 L 21.7555,-104.106 L 21.7631,-104.105 L 21.7782,-104.102 L 21.7858,-104.1  L 21.8009,-104.098 L 21.8159,-104.095 L 21.831,-104.093 L 21.8461,-104.091 L 21.8536,-104.09 L 21.8611,-104.089  L 21.8761,-104.087 L 21.891,-104.086 L 21.9059,-104.085 L 21.9206,-104.083 L 21.9279,-104.083 L 21.9424,-104.082  L 21.9497,-104.082 L 21.9569,-104.081 L 21.964,-104.081 L 21.9712,-104.081 L 21.9783,-104.081 L 21.9925,-104.081  L 21.9995,-104.081 z M 31.1926,-104.081 L 31.2092,-104.081 L 31.2174,-104.081 L 31.2257,-104.081 L 31.2423,-104.082 L 31.2505,-104.082  L 31.2588,-104.082 L 31.2753,-104.083 L 31.2917,-104.084 L 31.3082,-104.085 L 31.3246,-104.087 L 31.349,-104.089  L 31.365,-104.09 L 31.3888,-104.093 L 31.4045,-104.094 L 31.4201,-104.096 L 31.4431,-104.099 L 31.4582,-104.101  L 31.4806,-104.104 L 31.4952,-104.106 L 31.5097,-104.108 L 31.5239,-104.11 L 31.5379,-104.112 L 31.5517,-104.115  L 31.572,-104.119 L 31.5853,-104.121 L 31.5983,-104.124 L 31.6109,-104.126 L 31.6293,-104.13 L 31.6412,-104.133  L 31.6528,-104.136 L 31.6641,-104.139 L 31.6751,-104.142 L 31.6751,-104.375 L 31.6631,-104.37 L 31.6508,-104.366  L 31.6385,-104.362 L 31.6259,-104.358 L 31.6131,-104.354 L 31.6002,-104.35 L 31.5871,-104.346 L 31.5738,-104.343  L 31.5604,-104.339 L 31.5468,-104.336 L 31.533,-104.333 L 31.519,-104.329 L 31.5049,-104.326 L 31.4906,-104.323  L 31.4761,-104.321 L 31.4614,-104.318 L 31.4466,-104.315 L 31.4316,-104.313 L 31.4163,-104.31 L 31.4008,-104.308  L 31.385,-104.306 L 31.369,-104.304 L 31.3528,-104.303 L 31.3363,-104.301 L 31.3196,-104.3 L 31.3026,-104.298  L 31.2854,-104.297 L 31.268,-104.296 L 31.2503,-104.295 L 31.2324,-104.295 L 31.2143,-104.294 L 31.1959,-104.294  L 31.1773,-104.294 L 31.1584,-104.294 L 31.1448,-104.294 L 31.1314,-104.294 L 31.1183,-104.294 L 31.1054,-104.295  L 31.0928,-104.295 L 31.0804,-104.296 L 31.0682,-104.297 L 31.0563,-104.298 L 31.0446,-104.299 L 31.0331,-104.3  L 31.0219,-104.301 L 31.011,-104.303 L 31.0002,-104.304 L 30.9897,-104.306 L 30.9795,-104.308 L 30.9695,-104.31  L 30.9597,-104.312 L 30.9502,-104.314 L 30.9408,-104.316 L 30.9317,-104.319 L 30.9227,-104.321 L 30.914,-104.324  L 30.9055,-104.327 L 30.8972,-104.33 L 30.8891,-104.333 L 30.8812,-104.336 L 30.8735,-104.339 L 30.866,-104.343  L 30.8587,-104.346 L 30.8517,-104.35 L 30.8448,-104.354 L 30.8381,-104.358 L 30.8317,-104.362 L 30.8254,-104.366  L 30.8194,-104.37 L 30.8135,-104.375 L 30.8079,-104.379 L 30.8024,-104.384 L 30.7972,-104.389 L 30.7921,-104.393  L 30.7873,-104.398 L 30.7826,-104.403 L 30.7781,-104.409 L 30.7739,-104.414 L 30.7698,-104.419 L 30.7659,-104.425  L 30.7622,-104.43 L 30.7588,-104.436 L 30.7555,-104.442 L 30.7524,-104.448 L 30.7495,-104.454 L 30.7468,-104.46  L 30.7442,-104.466 L 30.7418,-104.472 L 30.7396,-104.479 L 30.7376,-104.485 L 30.7357,-104.492 L 30.734,-104.499  L 30.7324,-104.505 L 30.731,-104.512 L 30.7298,-104.519 L 30.7287,-104.527 L 30.7278,-104.534 L 30.7271,-104.541  L 30.7265,-104.549 L 30.7261,-104.556 L 30.7258,-104.564 L 30.7258,-104.572 L 30.7259,-104.58 L 30.7263,-104.588  L 30.727,-104.596 L 30.728,-104.604 L 30.7292,-104.612 L 30.7307,-104.62 L 30.7325,-104.627 L 30.7346,-104.635  L 30.737,-104.642 L 30.7396,-104.649 L 30.7425,-104.656 L 30.7457,-104.663 L 30.7492,-104.669 L 30.7529,-104.676  L 30.7569,-104.682 L 30.7612,-104.688 L 30.7658,-104.694 L 30.7706,-104.7 L 30.7755,-104.706 L 30.7807,-104.712  L 30.786,-104.718 L 30.7915,-104.723 L 30.7971,-104.729 L 30.803,-104.734 L 30.809,-104.74 L 30.8152,-104.745  L 30.8215,-104.75 L 30.828,-104.756 L 30.8347,-104.761 L 30.8416,-104.766 L 30.8487,-104.771 L 30.8559,-104.776  L 30.8633,-104.78 L 30.8709,-104.785 L 30.8786,-104.79 L 30.8864,-104.794 L 30.8944,-104.799 L 30.9025,-104.804  L 30.9107,-104.808 L 30.9191,-104.813 L 30.9276,-104.817 L 30.9362,-104.821 L 30.9449,-104.826 L 30.9538,-104.83  L 30.9628,-104.834 L 30.9719,-104.838 L 30.9812,-104.842 L 30.9905,-104.846 L 31,-104.85 L 31.0096,-104.854  L 31.0489,-104.87 L 31.1489,-104.91 L 31.1998,-104.931 L 31.21,-104.935 L 31.2201,-104.94 L 31.2404,-104.948  L 31.2504,-104.953 L 31.2605,-104.957 L 31.2805,-104.966 L 31.2905,-104.971 L 31.3105,-104.98 L 31.3303,-104.989  L 31.3401,-104.994 L 31.3598,-105.004 L 31.3696,-105.008 L 31.3792,-105.013 L 31.3887,-105.019 L 31.3981,-105.024  L 31.4073,-105.029 L 31.4164,-105.035 L 31.4254,-105.04 L 31.4342,-105.046 L 31.443,-105.051 L 31.4516,-105.057  L 31.4601,-105.063 L 31.4684,-105.069 L 31.4767,-105.076 L 31.4848,-105.082 L 31.4927,-105.088 L 31.5006,-105.095  L 31.5083,-105.101 L 31.5159,-105.108 L 31.5233,-105.115 L 31.5305,-105.122 L 31.5376,-105.129 L 31.5444,-105.136  L 31.5511,-105.143 L 31.5577,-105.151 L 31.564,-105.159 L 31.5702,-105.166 L 31.5762,-105.174 L 31.5821,-105.182  L 31.5877,-105.19 L 31.5932,-105.199 L 31.5985,-105.207 L 31.6037,-105.216 L 31.6086,-105.225 L 31.6134,-105.233  L 31.618,-105.242 L 31.6223,-105.252 L 31.6263,-105.261 L 31.63,-105.271 L 31.6335,-105.281 L 31.6367,-105.291  L 31.6396,-105.301 L 31.6422,-105.311 L 31.6446,-105.322 L 31.6466,-105.333 L 31.6484,-105.344 L 31.65,-105.355  L 31.6512,-105.366 L 31.6522,-105.378 L 31.6529,-105.39 L 31.6533,-105.402 L 31.6534,-105.414 L 31.6533,-105.424  L 31.6529,-105.435 L 31.6522,-105.446 L 31.6513,-105.456 L 31.6501,-105.467 L 31.6487,-105.478 L 31.647,-105.488  L 31.645,-105.499 L 31.6428,-105.509 L 31.6403,-105.52 L 31.6375,-105.53 L 31.6345,-105.541 L 31.6312,-105.551  L 31.6277,-105.562 L 31.6239,-105.572 L 31.6198,-105.582 L 31.6154,-105.593 L 31.6108,-105.603 L 31.6059,-105.613  L 31.6007,-105.623 L 31.5953,-105.633 L 31.5895,-105.643 L 31.5834,-105.653 L 31.577,-105.662 L 31.5704,-105.671  L 31.5635,-105.681 L 31.5562,-105.69 L 31.5487,-105.699 L 31.5409,-105.707 L 31.5328,-105.716 L 31.5244,-105.725  L 31.5157,-105.733 L 31.5067,-105.741 L 31.4974,-105.749 L 31.4879,-105.757 L 31.478,-105.765 L 31.4678,-105.773  L 31.4573,-105.78 L 31.4465,-105.787 L 31.4353,-105.795 L 31.4239,-105.801 L 31.4121,-105.808 L 31.4,-105.815  L 31.3876,-105.821 L 31.3749,-105.827 L 31.3618,-105.833 L 31.3485,-105.839 L 31.3349,-105.844 L 31.3209,-105.85  L 31.3066,-105.855 L 31.292,-105.86 L 31.2771,-105.865 L 31.2618,-105.869 L 31.2462,-105.874 L 31.2303,-105.877  L 31.214,-105.881 L 31.1974,-105.884 L 31.1805,-105.887 L 31.1633,-105.89 L 31.1457,-105.893 L 31.1277,-105.895  L 31.1095,-105.897 L 31.0909,-105.898 L 31.072,-105.9 L 31.0527,-105.901 L 31.0331,-105.901 L 31.0132,-105.902  L 30.9929,-105.902 L 30.9823,-105.902 L 30.966,-105.902 L 30.9548,-105.901 L 30.9434,-105.901 L 30.9319,-105.9  L 30.9201,-105.9 L 30.9021,-105.898 L 30.8837,-105.897 L 30.8713,-105.896 L 30.8589,-105.895 L 30.8403,-105.893  L 30.8216,-105.891 L 30.809,-105.889 L 30.7965,-105.887 L 30.7839,-105.886 L 30.7651,-105.883 L 30.7401,-105.879  L 30.7214,-105.876 L 30.6905,-105.871 L 30.6722,-105.867 L 30.6543,-105.864 L 30.6312,-105.859 L 30.6199,-105.857  L 30.6034,-105.853 L 30.5874,-105.849 L 30.5874,-105.632 L 30.5997,-105.636 L 30.612,-105.639 L 30.6243,-105.642  L 30.6366,-105.645 L 30.6488,-105.648 L 30.6611,-105.651 L 30.6734,-105.654 L 30.6857,-105.657 L 30.698,-105.66  L 30.7103,-105.662 L 30.7226,-105.665 L 30.7349,-105.667 L 30.7471,-105.669 L 30.7594,-105.672 L 30.7717,-105.674  L 30.784,-105.676 L 30.7963,-105.678 L 30.8086,-105.679 L 30.8208,-105.681 L 30.8329,-105.683 L 30.8451,-105.684  L 30.8571,-105.685 L 30.8692,-105.687 L 30.8811,-105.688 L 30.8931,-105.689 L 30.9049,-105.69 L 30.9168,-105.691  L 30.9286,-105.691 L 30.9403,-105.692 L 30.952,-105.692 L 30.9637,-105.693 L 30.9753,-105.693 L 30.9868,-105.693  L 30.9983,-105.693 L 31.0224,-105.693 L 31.0457,-105.692 L 31.0682,-105.691 L 31.0899,-105.689 L 31.1109,-105.687  L 31.1311,-105.685 L 31.1506,-105.681 L 31.1693,-105.678 L 31.1873,-105.674 L 31.2045,-105.669 L 31.2209,-105.664  L 31.2366,-105.659 L 31.2515,-105.653 L 31.2656,-105.646 L 31.279,-105.639 L 31.2917,-105.632 L 31.3035,-105.624  L 31.3147,-105.616 L 31.3252,-105.607 L 31.335,-105.598 L 31.3441,-105.589 L 31.3525,-105.579 L 31.3603,-105.569  L 31.3674,-105.559 L 31.3738,-105.548 L 31.3795,-105.537 L 31.3846,-105.526 L 31.389,-105.515 L 31.3927,-105.503  L 31.3958,-105.49 L 31.3981,-105.478 L 31.3998,-105.465 L 31.4008,-105.452 L 31.4012,-105.438 L 31.401,-105.43  L 31.4006,-105.422 L 31.3999,-105.413 L 31.399,-105.406 L 31.3977,-105.398 L 31.3962,-105.39 L 31.3944,-105.382  L 31.3923,-105.375 L 31.39,-105.368 L 31.3873,-105.361 L 31.3844,-105.354 L 31.3812,-105.347 L 31.3778,-105.34  L 31.3741,-105.334 L 31.37,-105.327 L 31.3657,-105.321 L 31.3612,-105.315 L 31.3564,-105.309 L 31.3514,-105.303  L 31.3463,-105.297 L 31.341,-105.291 L 31.3355,-105.285 L 31.3298,-105.28 L 31.324,-105.274 L 31.3179,-105.269  L 31.3118,-105.263 L 31.3054,-105.258 L 31.2989,-105.253 L 31.2922,-105.247 L 31.2853,-105.242 L 31.2782,-105.237  L 31.271,-105.232 L 31.2636,-105.227 L 31.2561,-105.223 L 31.2483,-105.218 L 31.2405,-105.213 L 31.2325,-105.208  L 31.2244,-105.204 L 31.2162,-105.199 L 31.2078,-105.195 L 31.1993,-105.19 L 31.1907,-105.186 L 31.182,-105.182  L 31.1731,-105.177 L 31.1641,-105.173 L 31.155,-105.169 L 31.1458,-105.165 L 31.1364,-105.161 L 31.1269,-105.157  L 31.1173,-105.153 L 31.0283,-105.117 L 30.9373,-105.08 L 30.917,-105.072 L 30.9068,-105.067 L 30.8967,-105.063  L 30.8866,-105.059 L 30.8765,-105.054 L 30.8664,-105.05 L 30.8464,-105.041 L 30.8364,-105.036 L 30.8264,-105.032  L 30.8165,-105.027 L 30.8066,-105.022 L 30.7868,-105.013 L 30.7671,-105.003 L 30.7574,-104.998 L 30.7478,-104.993  L 30.7383,-104.988 L 30.7289,-104.982 L 30.7196,-104.977 L 30.7105,-104.971 L 30.7015,-104.966 L 30.6927,-104.96  L 30.6839,-104.954 L 30.6753,-104.948 L 30.6669,-104.942 L 30.6585,-104.936 L 30.6503,-104.929 L 30.6422,-104.923  L 30.6342,-104.917 L 30.6263,-104.91 L 30.6186,-104.903 L 30.611,-104.896 L 30.6036,-104.889 L 30.5964,-104.882  L 30.5894,-104.875 L 30.5825,-104.868 L 30.5758,-104.86 L 30.5693,-104.852 L 30.5629,-104.845 L 30.5567,-104.837  L 30.5507,-104.829 L 30.5449,-104.82 L 30.5392,-104.812 L 30.5337,-104.803 L 30.5284,-104.795 L 30.5233,-104.786  L 30.5183,-104.777 L 30.5135,-104.768 L 30.5089,-104.759 L 30.5047,-104.75 L 30.5006,-104.74 L 30.4969,-104.73  L 30.4934,-104.72 L 30.4902,-104.71 L 30.4873,-104.7 L 30.4847,-104.689 L 30.4824,-104.678 L 30.4803,-104.667  L 30.4785,-104.656 L 30.477,-104.645 L 30.4757,-104.633 L 30.4747,-104.622 L 30.474,-104.61 L 30.4736,-104.597  L 30.4735,-104.585 L 30.4737,-104.57 L 30.4742,-104.556 L 30.4751,-104.542 L 30.4763,-104.527 L 30.4779,-104.514  L 30.4799,-104.5 L 30.4822,-104.487 L 30.4849,-104.473 L 30.4879,-104.46 L 30.4913,-104.448 L 30.4951,-104.435  L 30.4992,-104.423 L 30.5036,-104.41 L 30.5085,-104.399 L 30.5136,-104.387 L 30.5191,-104.375 L 30.525,-104.364  L 30.5312,-104.353 L 30.5377,-104.342 L 30.5445,-104.332 L 30.5515,-104.321 L 30.5589,-104.311 L 30.5665,-104.301  L 30.5744,-104.291 L 30.5825,-104.282 L 30.591,-104.272 L 30.5997,-104.263 L 30.6088,-104.255 L 30.6181,-104.246  L 30.6277,-104.237 L 30.6375,-104.229 L 30.6477,-104.221 L 30.6581,-104.214 L 30.6688,-104.206 L 30.6798,-104.199  L 30.691,-104.192 L 30.7025,-104.185 L 30.7143,-104.178 L 30.7263,-104.172 L 30.7385,-104.165 L 30.7511,-104.16  L 30.7639,-104.154 L 30.7769,-104.148 L 30.7902,-104.143 L 30.8038,-104.138 L 30.8176,-104.133 L 30.8316,-104.128  L 30.846,-104.124 L 30.8606,-104.12 L 30.8754,-104.116 L 30.8905,-104.112 L 30.9059,-104.108 L 30.9214,-104.105  L 30.9371,-104.102 L 30.953,-104.099 L 30.969,-104.096 L 30.9853,-104.094 L 31.0017,-104.091 L 31.0183,-104.089  L 31.0351,-104.087 L 31.0521,-104.086 L 31.0692,-104.084 L 31.0866,-104.083 L 31.1041,-104.082 L 31.1218,-104.082  L 31.1397,-104.081 L 31.1578,-104.081 L 31.176,-104.081 z M 34.1755,-104.081 L 34.1921,-104.081 L 34.2003,-104.081 L 34.2086,-104.081 L 34.2251,-104.082 L 34.2334,-104.082  L 34.2417,-104.082 L 34.2581,-104.083 L 34.2746,-104.084 L 34.2911,-104.085 L 34.3075,-104.087 L 34.3319,-104.089  L 34.3479,-104.09 L 34.3717,-104.093 L 34.3874,-104.094 L 34.403,-104.096 L 34.426,-104.099 L 34.4411,-104.101  L 34.4635,-104.104 L 34.4781,-104.106 L 34.4925,-104.108 L 34.5068,-104.11 L 34.5208,-104.112 L 34.5346,-104.115  L 34.5549,-104.119 L 34.5682,-104.121 L 34.5811,-104.124 L 34.5938,-104.126 L 34.6062,-104.129 L 34.6241,-104.133  L 34.6357,-104.136 L 34.647,-104.139 L 34.658,-104.142 L 34.658,-104.375 L 34.646,-104.37 L 34.6337,-104.366  L 34.6213,-104.362 L 34.6088,-104.358 L 34.596,-104.354 L 34.5831,-104.35 L 34.57,-104.346 L 34.5567,-104.343  L 34.5433,-104.339 L 34.5297,-104.336 L 34.5159,-104.333 L 34.5019,-104.329 L 34.4878,-104.326 L 34.4735,-104.323  L 34.459,-104.321 L 34.4443,-104.318 L 34.4295,-104.315 L 34.4145,-104.313 L 34.3992,-104.31 L 34.3837,-104.308  L 34.3679,-104.306 L 34.3519,-104.304 L 34.3357,-104.303 L 34.3192,-104.301 L 34.3025,-104.3 L 34.2855,-104.298  L 34.2683,-104.297 L 34.2509,-104.296 L 34.2332,-104.295 L 34.2153,-104.295 L 34.1972,-104.294 L 34.1788,-104.294  L 34.1602,-104.294 L 34.1413,-104.294 L 34.1277,-104.294 L 34.1143,-104.294 L 34.1012,-104.294 L 34.0883,-104.295  L 34.0757,-104.295 L 34.0633,-104.296 L 34.0511,-104.297 L 34.0392,-104.298 L 34.0275,-104.299 L 34.016,-104.3  L 34.0048,-104.301 L 33.9938,-104.303 L 33.9831,-104.304 L 33.9726,-104.306 L 33.9624,-104.308 L 33.9524,-104.31  L 33.9426,-104.312 L 33.9331,-104.314 L 33.9237,-104.316 L 33.9146,-104.319 L 33.9056,-104.321 L 33.8969,-104.324  L 33.8884,-104.327 L 33.8801,-104.33 L 33.872,-104.333 L 33.8641,-104.336 L 33.8564,-104.339 L 33.8489,-104.343  L 33.8416,-104.346 L 33.8345,-104.35 L 33.8277,-104.354 L 33.821,-104.358 L 33.8146,-104.362 L 33.8083,-104.366  L 33.8023,-104.37 L 33.7964,-104.375 L 33.7908,-104.379 L 33.7853,-104.384 L 33.7801,-104.389 L 33.775,-104.393  L 33.7702,-104.398 L 33.7655,-104.403 L 33.761,-104.409 L 33.7567,-104.414 L 33.7527,-104.419 L 33.7488,-104.425  L 33.7451,-104.43 L 33.7416,-104.436 L 33.7384,-104.442 L 33.7353,-104.448 L 33.7324,-104.454 L 33.7297,-104.46  L 33.7271,-104.466 L 33.7247,-104.472 L 33.7225,-104.479 L 33.7205,-104.485 L 33.7186,-104.492 L 33.7169,-104.499  L 33.7153,-104.505 L 33.7139,-104.512 L 33.7127,-104.519 L 33.7116,-104.527 L 33.7107,-104.534 L 33.71,-104.541  L 33.7094,-104.549 L 33.709,-104.556 L 33.7087,-104.564 L 33.7086,-104.572 L 33.7088,-104.58 L 33.7092,-104.588  L 33.7099,-104.596 L 33.7109,-104.604 L 33.7121,-104.612 L 33.7136,-104.62 L 33.7154,-104.627 L 33.7175,-104.635  L 33.7199,-104.642 L 33.7225,-104.649 L 33.7254,-104.656 L 33.7286,-104.663 L 33.7321,-104.669 L 33.7358,-104.676  L 33.7398,-104.682 L 33.7441,-104.688 L 33.7487,-104.694 L 33.7535,-104.7 L 33.7584,-104.706 L 33.7636,-104.712  L 33.7689,-104.718 L 33.7744,-104.723 L 33.78,-104.729 L 33.7859,-104.734 L 33.7919,-104.74 L 33.798,-104.745  L 33.8044,-104.75 L 33.8109,-104.756 L 33.8176,-104.761 L 33.8245,-104.766 L 33.8316,-104.771 L 33.8388,-104.776  L 33.8462,-104.78 L 33.8538,-104.785 L 33.8615,-104.79 L 33.8693,-104.794 L 33.8773,-104.799 L 33.8854,-104.804  L 33.8936,-104.808 L 33.902,-104.813 L 33.9105,-104.817 L 33.9191,-104.821 L 33.9278,-104.826 L 33.9367,-104.83  L 33.9457,-104.834 L 33.9548,-104.838 L 33.964,-104.842 L 33.9734,-104.846 L 33.9829,-104.85 L 33.9925,-104.854  L 34.0516,-104.878 L 34.1318,-104.91 L 34.1827,-104.931 L 34.1929,-104.935 L 34.203,-104.94 L 34.2232,-104.948  L 34.2333,-104.953 L 34.2434,-104.957 L 34.2634,-104.966 L 34.2734,-104.971 L 34.2933,-104.98 L 34.3033,-104.984  L 34.3132,-104.989 L 34.323,-104.994 L 34.3427,-105.004 L 34.3524,-105.008 L 34.3621,-105.013 L 34.3716,-105.019  L 34.3809,-105.024 L 34.3902,-105.029 L 34.3993,-105.035 L 34.4083,-105.04 L 34.4171,-105.046 L 34.4259,-105.051  L 34.4345,-105.057 L 34.443,-105.063 L 34.4513,-105.069 L 34.4596,-105.076 L 34.4677,-105.082 L 34.4756,-105.088  L 34.4835,-105.095 L 34.4912,-105.101 L 34.4988,-105.108 L 34.5062,-105.115 L 34.5134,-105.122 L 34.5204,-105.129  L 34.5273,-105.136 L 34.534,-105.143 L 34.5406,-105.151 L 34.5469,-105.159 L 34.5531,-105.166 L 34.5591,-105.174  L 34.565,-105.182 L 34.5706,-105.19 L 34.5761,-105.199 L 34.5814,-105.207 L 34.5866,-105.216 L 34.5915,-105.225  L 34.5963,-105.233 L 34.6009,-105.242 L 34.6052,-105.252 L 34.6092,-105.261 L 34.6129,-105.271 L 34.6164,-105.281  L 34.6196,-105.291 L 34.6225,-105.301 L 34.6251,-105.311 L 34.6275,-105.322 L 34.6295,-105.333 L 34.6313,-105.344  L 34.6329,-105.355 L 34.6341,-105.366 L 34.6351,-105.378 L 34.6358,-105.39 L 34.6362,-105.402 L 34.6363,-105.414  L 34.6362,-105.424 L 34.6358,-105.435 L 34.6351,-105.446 L 34.6342,-105.456 L 34.633,-105.467 L 34.6316,-105.478  L 34.6299,-105.488 L 34.6279,-105.499 L 34.6257,-105.509 L 34.6232,-105.52 L 34.6204,-105.53 L 34.6174,-105.541  L 34.6141,-105.551 L 34.6106,-105.562 L 34.6067,-105.572 L 34.6027,-105.582 L 34.5983,-105.593 L 34.5937,-105.603  L 34.5888,-105.613 L 34.5836,-105.623 L 34.5781,-105.633 L 34.5724,-105.643 L 34.5663,-105.653 L 34.5599,-105.662  L 34.5533,-105.671 L 34.5463,-105.681 L 34.5391,-105.69 L 34.5316,-105.699 L 34.5238,-105.707 L 34.5157,-105.716  L 34.5073,-105.725 L 34.4986,-105.733 L 34.4896,-105.741 L 34.4803,-105.749 L 34.4708,-105.757 L 34.4609,-105.765  L 34.4507,-105.773 L 34.4402,-105.78 L 34.4293,-105.787 L 34.4182,-105.795 L 34.4067,-105.801 L 34.395,-105.808  L 34.3829,-105.815 L 34.3705,-105.821 L 34.3578,-105.827 L 34.3447,-105.833 L 34.3314,-105.839 L 34.3177,-105.844  L 34.3038,-105.85 L 34.2895,-105.855 L 34.2749,-105.86 L 34.26,-105.865 L 34.2447,-105.869 L 34.2291,-105.874  L 34.2132,-105.877 L 34.1969,-105.881 L 34.1803,-105.884 L 34.1634,-105.887 L 34.1461,-105.89 L 34.1286,-105.893  L 34.1106,-105.895 L 34.0924,-105.897 L 34.0738,-105.898 L 34.0549,-105.9 L 34.0356,-105.901 L 34.016,-105.901  L 33.9961,-105.902 L 33.9758,-105.902 L 33.9652,-105.902 L 33.9488,-105.902 L 33.9377,-105.901 L 33.9263,-105.901  L 33.9148,-105.9 L 33.903,-105.9 L 33.885,-105.898 L 33.8666,-105.897 L 33.8542,-105.896 L 33.8418,-105.895  L 33.8232,-105.893 L 33.8045,-105.891 L 33.7919,-105.889 L 33.7794,-105.887 L 33.7542,-105.884 L 33.7354,-105.881  L 33.723,-105.879 L 33.7043,-105.876 L 33.6734,-105.871 L 33.6551,-105.867 L 33.6372,-105.864 L 33.6255,-105.861  L 33.6084,-105.858 L 33.5973,-105.855 L 33.5863,-105.853 L 33.5703,-105.849 L 33.5703,-105.632 L 33.5826,-105.636  L 33.5949,-105.639 L 33.6072,-105.642 L 33.6195,-105.645 L 33.6317,-105.648 L 33.644,-105.651 L 33.6563,-105.654  L 33.6686,-105.657 L 33.6809,-105.66 L 33.6932,-105.662 L 33.7055,-105.665 L 33.7177,-105.667 L 33.73,-105.669  L 33.7423,-105.672 L 33.7546,-105.674 L 33.7669,-105.676 L 33.7792,-105.678 L 33.7914,-105.679 L 33.8037,-105.681  L 33.8158,-105.683 L 33.8279,-105.684 L 33.84,-105.685 L 33.852,-105.687 L 33.864,-105.688 L 33.876,-105.689  L 33.8878,-105.69 L 33.8997,-105.691 L 33.9115,-105.691 L 33.9232,-105.692 L 33.9349,-105.692 L 33.9466,-105.693  L 33.9582,-105.693 L 33.9697,-105.693 L 33.9812,-105.693 L 34.0053,-105.693 L 34.0285,-105.692 L 34.0511,-105.691  L 34.0728,-105.689 L 34.0938,-105.687 L 34.114,-105.685 L 34.1335,-105.681 L 34.1522,-105.678 L 34.1702,-105.674  L 34.1874,-105.669 L 34.2038,-105.664 L 34.2195,-105.659 L 34.2344,-105.653 L 34.2485,-105.646 L 34.2619,-105.639  L 34.2745,-105.632 L 34.2864,-105.624 L 34.2976,-105.616 L 34.308,-105.607 L 34.3178,-105.598 L 34.327,-105.589  L 34.3354,-105.579 L 34.3432,-105.569 L 34.3503,-105.559 L 34.3567,-105.548 L 34.3624,-105.537 L 34.3675,-105.526  L 34.3719,-105.515 L 34.3756,-105.503 L 34.3787,-105.49 L 34.381,-105.478 L 34.3827,-105.465 L 34.3837,-105.452  L 34.3841,-105.438 L 34.3839,-105.43 L 34.3835,-105.422 L 34.3828,-105.413 L 34.3818,-105.406 L 34.3806,-105.398  L 34.3791,-105.39 L 34.3773,-105.382 L 34.3752,-105.375 L 34.3728,-105.368 L 34.3702,-105.361 L 34.3673,-105.354  L 34.3641,-105.347 L 34.3607,-105.34 L 34.3569,-105.334 L 34.3529,-105.327 L 34.3486,-105.321 L 34.3441,-105.315  L 34.3393,-105.309 L 34.3343,-105.303 L 34.3292,-105.297 L 34.3238,-105.291 L 34.3184,-105.285 L 34.3127,-105.28  L 34.3069,-105.274 L 34.3008,-105.269 L 34.2947,-105.263 L 34.2883,-105.258 L 34.2818,-105.253 L 34.2751,-105.247  L 34.2682,-105.242 L 34.2611,-105.237 L 34.2539,-105.232 L 34.2465,-105.227 L 34.2389,-105.223 L 34.2312,-105.218  L 34.2234,-105.213 L 34.2154,-105.208 L 34.2073,-105.204 L 34.1991,-105.199 L 34.1907,-105.195 L 34.1822,-105.19  L 34.1736,-105.186 L 34.1649,-105.182 L 34.156,-105.177 L 34.147,-105.173 L 34.1379,-105.169 L 34.1287,-105.165  L 34.1193,-105.161 L 34.1098,-105.157 L 34.1002,-105.153 L 34.0112,-105.117 L 33.9202,-105.08 L 33.8998,-105.072  L 33.8796,-105.063 L 33.8695,-105.059 L 33.8594,-105.054 L 33.8493,-105.05 L 33.8393,-105.045 L 33.8293,-105.041  L 33.8193,-105.036 L 33.8093,-105.032 L 33.7994,-105.027 L 33.7895,-105.022 L 33.7697,-105.013 L 33.7598,-105.008  L 33.75,-105.003 L 33.7403,-104.998 L 33.7306,-104.993 L 33.7212,-104.988 L 33.7118,-104.982 L 33.7025,-104.977  L 33.6934,-104.971 L 33.6844,-104.966 L 33.6756,-104.96 L 33.6668,-104.954 L 33.6582,-104.948 L 33.6497,-104.942  L 33.6414,-104.936 L 33.6331,-104.929 L 33.625,-104.923 L 33.6171,-104.917 L 33.6092,-104.91 L 33.6015,-104.903  L 33.5939,-104.896 L 33.5865,-104.889 L 33.5793,-104.882 L 33.5723,-104.875 L 33.5654,-104.868 L 33.5587,-104.86  L 33.5522,-104.852 L 33.5458,-104.845 L 33.5396,-104.837 L 33.5336,-104.829 L 33.5278,-104.82 L 33.5221,-104.812  L 33.5166,-104.803 L 33.5113,-104.795 L 33.5062,-104.786 L 33.5012,-104.777 L 33.4964,-104.768 L 33.4918,-104.759  L 33.4875,-104.75 L 33.4835,-104.74 L 33.4798,-104.73 L 33.4763,-104.72 L 33.4731,-104.71 L 33.4702,-104.7  L 33.4676,-104.689 L 33.4652,-104.678 L 33.4632,-104.667 L 33.4614,-104.656 L 33.4599,-104.645 L 33.4586,-104.633  L 33.4576,-104.622 L 33.4569,-104.61 L 33.4565,-104.597 L 33.4564,-104.585 L 33.4566,-104.57 L 33.4571,-104.556  L 33.458,-104.542 L 33.4592,-104.527 L 33.4608,-104.514 L 33.4628,-104.5 L 33.4651,-104.487 L 33.4678,-104.473  L 33.4708,-104.46 L 33.4742,-104.448 L 33.478,-104.435 L 33.4821,-104.423 L 33.4865,-104.41 L 33.4913,-104.399  L 33.4965,-104.387 L 33.502,-104.375 L 33.5079,-104.364 L 33.5141,-104.353 L 33.5206,-104.342 L 33.5274,-104.332  L 33.5344,-104.321 L 33.5418,-104.311 L 33.5494,-104.301 L 33.5573,-104.291 L 33.5654,-104.282 L 33.5739,-104.272  L 33.5826,-104.263 L 33.5917,-104.255 L 33.6009,-104.246 L 33.6105,-104.237 L 33.6204,-104.229 L 33.6306,-104.221  L 33.641,-104.214 L 33.6517,-104.206 L 33.6627,-104.199 L 33.6739,-104.192 L 33.6854,-104.185 L 33.6971,-104.178  L 33.7091,-104.172 L 33.7214,-104.165 L 33.734,-104.16 L 33.7467,-104.154 L 33.7598,-104.148 L 33.7731,-104.143  L 33.7866,-104.138 L 33.8005,-104.133 L 33.8145,-104.128 L 33.8289,-104.124 L 33.8435,-104.12 L 33.8583,-104.116  L 33.8734,-104.112 L 33.8887,-104.108 L 33.9043,-104.105 L 33.92,-104.102 L 33.9358,-104.099 L 33.9519,-104.096  L 33.9682,-104.094 L 33.9846,-104.091 L 34.0012,-104.089 L 34.018,-104.087 L 34.035,-104.086 L 34.0521,-104.084  L 34.0695,-104.083 L 34.087,-104.082 L 34.1047,-104.082 L 34.1226,-104.081 L 34.1407,-104.081 L 34.1589,-104.081  z M 32.581,-104.081 L 32.5999,-104.081 L 32.6185,-104.082 L 32.6368,-104.083 L 32.6547,-104.084 L 32.6722,-104.086  L 32.6895,-104.088 L 32.7063,-104.09 L 32.7228,-104.093 L 32.739,-104.096 L 32.7548,-104.099 L 32.7703,-104.102  L 32.7854,-104.106 L 32.8002,-104.11 L 32.8146,-104.114 L 32.8287,-104.119 L 32.8424,-104.124 L 32.8558,-104.129  L 32.869,-104.135 L 32.8818,-104.14 L 32.8943,-104.146 L 32.9066,-104.153 L 32.9185,-104.159 L 32.9301,-104.166  L 32.9415,-104.173 L 32.9525,-104.18 L 32.9633,-104.187 L 32.9737,-104.195 L 32.9839,-104.203 L 32.9938,-104.211  L 33.0033,-104.22 L 33.0126,-104.229 L 33.0216,-104.238 L 33.0303,-104.247 L 33.0387,-104.256 L 33.0468,-104.266  L 33.0547,-104.276 L 33.0622,-104.286 L 33.0696,-104.296 L 33.0766,-104.307 L 33.0834,-104.317 L 33.0899,-104.328  L 33.0961,-104.34 L 33.102,-104.351 L 33.1077,-104.363 L 33.1131,-104.375 L 33.1183,-104.387 L 33.1231,-104.399  L 33.1277,-104.412 L 33.132,-104.424 L 33.1361,-104.437 L 33.1398,-104.45 L 33.1434,-104.464 L 33.1467,-104.477  L 33.1499,-104.491 L 33.1527,-104.505 L 33.1554,-104.519 L 33.1578,-104.533 L 33.16,-104.548 L 33.1619,-104.562  L 33.1636,-104.577 L 33.1651,-104.592 L 33.1664,-104.607 L 33.1674,-104.622 L 33.1682,-104.638 L 33.1688,-104.654  L 33.1692,-104.669 L 33.1693,-104.685 L 33.1693,-105.878 L 32.9279,-105.878 L 32.9279,-104.704 L 32.9278,-104.692  L 32.9276,-104.68 L 32.9273,-104.668 L 32.9268,-104.657 L 32.9262,-104.645 L 32.9254,-104.634 L 32.9245,-104.623  L 32.9235,-104.612 L 32.9224,-104.601 L 32.9211,-104.591 L 32.9196,-104.58 L 32.9181,-104.57 L 32.9164,-104.56  L 32.9145,-104.55 L 32.9126,-104.54 L 32.9105,-104.531 L 32.9082,-104.521 L 32.9058,-104.512 L 32.9032,-104.503  L 32.9005,-104.494 L 32.8976,-104.486 L 32.8945,-104.477 L 32.8912,-104.469 L 32.8878,-104.461 L 32.8842,-104.453  L 32.8804,-104.445 L 32.8764,-104.438 L 32.8723,-104.43 L 32.8679,-104.423 L 32.8635,-104.416 L 32.8588,-104.409  L 32.854,-104.403 L 32.849,-104.396 L 32.8438,-104.39 L 32.8384,-104.384 L 32.8329,-104.378 L 32.8272,-104.372  L 32.8213,-104.366 L 32.8152,-104.361 L 32.8089,-104.356 L 32.8025,-104.351 L 32.7958,-104.346 L 32.789,-104.341  L 32.782,-104.337 L 32.7748,-104.332 L 32.7674,-104.328 L 32.7599,-104.324 L 32.7521,-104.32 L 32.7442,-104.317  L 32.7361,-104.313 L 32.7278,-104.31 L 32.7193,-104.307 L 32.7106,-104.304 L 32.7017,-104.301 L 32.6926,-104.299  L 32.6832,-104.296 L 32.6736,-104.294 L 32.6638,-104.292 L 32.6538,-104.29 L 32.6435,-104.289 L 32.633,-104.287  L 32.6223,-104.286 L 32.6114,-104.285 L 32.6003,-104.284 L 32.5889,-104.284 L 32.5774,-104.283 L 32.5656,-104.283  L 32.5536,-104.283 L 32.5312,-104.283 L 32.5096,-104.284 L 32.4887,-104.286 L 32.4685,-104.289 L 32.449,-104.292  L 32.4302,-104.297 L 32.4121,-104.302 L 32.3947,-104.307 L 32.378,-104.314 L 32.3619,-104.321 L 32.3466,-104.329  L 32.332,-104.338 L 32.3181,-104.348 L 32.3049,-104.358 L 32.2924,-104.369 L 32.2805,-104.381 L 32.2694,-104.394  L 32.259,-104.407 L 32.2491,-104.421 L 32.24,-104.436 L 32.2314,-104.451 L 32.2235,-104.467 L 32.2162,-104.484  L 32.2095,-104.501 L 32.2035,-104.519 L 32.1981,-104.537 L 32.1934,-104.556 L 32.1893,-104.576 L 32.1858,-104.596  L 32.1829,-104.617 L 32.1807,-104.639 L 32.1791,-104.661 L 32.1782,-104.684 L 32.1779,-104.707 L 32.1779,-105.878  L 31.9365,-105.878 L 31.9365,-104.722 L 31.9366,-104.705 L 31.937,-104.688 L 31.9377,-104.671 L 31.9387,-104.655  L 31.94,-104.638 L 31.9416,-104.622 L 31.9435,-104.606 L 31.9456,-104.59 L 31.9481,-104.575 L 31.9508,-104.559  L 31.9538,-104.544 L 31.9571,-104.529 L 31.9606,-104.514 L 31.9645,-104.5 L 31.9687,-104.485 L 31.9731,-104.471  L 31.9778,-104.457 L 31.9828,-104.443 L 31.9881,-104.43 L 31.9936,-104.416 L 31.9994,-104.403 L 32.0055,-104.39  L 32.0118,-104.378 L 32.0184,-104.365 L 32.0253,-104.353 L 32.0325,-104.341 L 32.0399,-104.33 L 32.0475,-104.318  L 32.0555,-104.307 L 32.0637,-104.296 L 32.0722,-104.285 L 32.0809,-104.275 L 32.0899,-104.265 L 32.0992,-104.255  L 32.1087,-104.245 L 32.1185,-104.236 L 32.1286,-104.227 L 32.1388,-104.218 L 32.1494,-104.209 L 32.1602,-104.201  L 32.1712,-104.193 L 32.1825,-104.185 L 32.194,-104.177 L 32.2058,-104.17 L 32.2178,-104.163 L 32.2301,-104.156  L 32.2426,-104.15 L 32.2554,-104.143 L 32.2684,-104.137 L 32.2817,-104.131 L 32.2952,-104.126 L 32.3089,-104.121  L 32.3229,-104.116 L 32.3372,-104.111 L 32.3517,-104.107 L 32.3664,-104.103 L 32.3813,-104.1 L 32.3965,-104.096  L 32.412,-104.093 L 32.4277,-104.091 L 32.4436,-104.088 L 32.4597,-104.086 L 32.4761,-104.085 L 32.4927,-104.083  L 32.5096,-104.082 L 32.5267,-104.081 L 32.5441,-104.081 L 32.5617,-104.081 z M 28.2013,-105.671 L 28.7261,-105.671 L 28.7261,-105.878 L 27.4323,-105.878 L 27.4323,-105.671 L 27.9571,-105.671  L 27.9571,-104.105 L 28.2013,-104.105 z M 19.158,-104.081 L 19.1769,-104.081 L 19.1955,-104.082 L 19.2138,-104.083 L 19.2317,-104.084 L 19.2492,-104.086  L 19.2664,-104.088 L 19.2833,-104.09 L 19.2998,-104.093 L 19.316,-104.096 L 19.3318,-104.099 L 19.3473,-104.102  L 19.3624,-104.106 L 19.3772,-104.11 L 19.3916,-104.114 L 19.4057,-104.119 L 19.4194,-104.124 L 19.4328,-104.129  L 19.446,-104.135 L 19.4588,-104.14 L 19.4713,-104.146 L 19.4835,-104.153 L 19.4955,-104.159 L 19.5071,-104.166  L 19.5185,-104.173 L 19.5295,-104.18 L 19.5403,-104.187 L 19.5507,-104.195 L 19.5609,-104.203 L 19.5708,-104.211  L 19.5803,-104.22 L 19.5896,-104.229 L 19.5986,-104.238 L 19.6073,-104.247 L 19.6157,-104.256 L 19.6238,-104.266  L 19.6316,-104.276 L 19.6392,-104.286 L 19.6465,-104.296 L 19.6536,-104.307 L 19.6604,-104.317 L 19.6669,-104.328  L 19.6731,-104.34 L 19.679,-104.351 L 19.6847,-104.363 L 19.6901,-104.375 L 19.6952,-104.387 L 19.7001,-104.399  L 19.7047,-104.412 L 19.709,-104.424 L 19.7131,-104.437 L 19.7168,-104.45 L 19.7204,-104.464 L 19.7237,-104.477  L 19.7268,-104.491 L 19.7297,-104.505 L 19.7324,-104.519 L 19.7348,-104.533 L 19.737,-104.548 L 19.7389,-104.562  L 19.7406,-104.577 L 19.7421,-104.592 L 19.7434,-104.607 L 19.7444,-104.622 L 19.7452,-104.638 L 19.7458,-104.654  L 19.7462,-104.669 L 19.7463,-104.685 L 19.7463,-105.878 L 19.5049,-105.878 L 19.5049,-104.704 L 19.5048,-104.692  L 19.5046,-104.68 L 19.5043,-104.668 L 19.5038,-104.657 L 19.5032,-104.645 L 19.5024,-104.634 L 19.5015,-104.623  L 19.5005,-104.612 L 19.4994,-104.601 L 19.4981,-104.591 L 19.4966,-104.58 L 19.4951,-104.57 L 19.4934,-104.56  L 19.4915,-104.55 L 19.4896,-104.54 L 19.4875,-104.531 L 19.4852,-104.521 L 19.4828,-104.512 L 19.4802,-104.503  L 19.4775,-104.494 L 19.4746,-104.486 L 19.4715,-104.477 L 19.4682,-104.469 L 19.4647,-104.461 L 19.4611,-104.453  L 19.4573,-104.445 L 19.4534,-104.438 L 19.4492,-104.43 L 19.4449,-104.423 L 19.4405,-104.416 L 19.4358,-104.409  L 19.431,-104.403 L 19.426,-104.396 L 19.4208,-104.39 L 19.4154,-104.384 L 19.4099,-104.378 L 19.4042,-104.372  L 19.3983,-104.366 L 19.3922,-104.361 L 19.3859,-104.356 L 19.3795,-104.351 L 19.3728,-104.346 L 19.366,-104.341  L 19.359,-104.337 L 19.3518,-104.332 L 19.3444,-104.328 L 19.3369,-104.324 L 19.3291,-104.32 L 19.3212,-104.317  L 19.3131,-104.313 L 19.3048,-104.31 L 19.2963,-104.307 L 19.2876,-104.304 L 19.2787,-104.301 L 19.2696,-104.299  L 19.2602,-104.296 L 19.2506,-104.294 L 19.2408,-104.292 L 19.2307,-104.29 L 19.2205,-104.289 L 19.21,-104.287  L 19.1993,-104.286 L 19.1884,-104.285 L 19.1773,-104.284 L 19.1659,-104.284 L 19.1544,-104.283 L 19.1426,-104.283  L 19.1306,-104.283 L 19.1082,-104.283 L 19.0866,-104.284 L 19.0657,-104.286 L 19.0455,-104.289 L 19.026,-104.292  L 19.0072,-104.297 L 18.9891,-104.302 L 18.9717,-104.307 L 18.9549,-104.314 L 18.9389,-104.321 L 18.9236,-104.329  L 18.909,-104.338 L 18.8951,-104.348 L 18.8819,-104.358 L 18.8694,-104.369 L 18.8575,-104.381 L 18.8464,-104.394  L 18.8359,-104.407 L 18.8261,-104.421 L 18.817,-104.436 L 18.8084,-104.451 L 18.8005,-104.467 L 18.7932,-104.484  L 18.7865,-104.501 L 18.7805,-104.519 L 18.7751,-104.537 L 18.7704,-104.556 L 18.7662,-104.576 L 18.7628,-104.596  L 18.7599,-104.617 L 18.7577,-104.639 L 18.7561,-104.661 L 18.7552,-104.684 L 18.7548,-104.707 L 18.7548,-105.878  L 18.5135,-105.878 L 18.5135,-104.722 L 18.5136,-104.705 L 18.514,-104.688 L 18.5147,-104.671 L 18.5157,-104.655  L 18.517,-104.638 L 18.5186,-104.622 L 18.5205,-104.606 L 18.5226,-104.59 L 18.525,-104.575 L 18.5278,-104.559  L 18.5308,-104.544 L 18.5341,-104.529 L 18.5376,-104.514 L 18.5415,-104.5 L 18.5457,-104.485 L 18.5501,-104.471  L 18.5548,-104.457 L 18.5598,-104.443 L 18.5651,-104.43 L 18.5706,-104.416 L 18.5764,-104.403 L 18.5825,-104.39  L 18.5888,-104.378 L 18.5954,-104.365 L 18.6023,-104.353 L 18.6094,-104.341 L 18.6168,-104.33 L 18.6245,-104.318  L 18.6325,-104.307 L 18.6407,-104.296 L 18.6492,-104.285 L 18.6579,-104.275 L 18.6669,-104.265 L 18.6762,-104.255  L 18.6857,-104.245 L 18.6955,-104.236 L 18.7055,-104.227 L 18.7158,-104.218 L 18.7264,-104.209 L 18.7371,-104.201  L 18.7482,-104.193 L 18.7595,-104.185 L 18.771,-104.177 L 18.7828,-104.17 L 18.7948,-104.163 L 18.8071,-104.156  L 18.8196,-104.15 L 18.8324,-104.143 L 18.8454,-104.137 L 18.8587,-104.131 L 18.8722,-104.126 L 18.8859,-104.121  L 18.8999,-104.116 L 18.9142,-104.111 L 18.9286,-104.107 L 18.9434,-104.103 L 18.9583,-104.1 L 18.9735,-104.096  L 18.989,-104.093 L 19.0046,-104.091 L 19.0206,-104.088 L 19.0367,-104.086 L 19.0531,-104.085 L 19.0697,-104.083  L 19.0866,-104.082 L 19.1037,-104.081 L 19.1211,-104.081 L 19.1387,-104.081 z M 21.1713,-105.878 L 20.6722,-105.878 L 20.6567,-105.878 L 20.6414,-105.877 L 20.6261,-105.877 L 20.6109,-105.876  L 20.5957,-105.875 L 20.5807,-105.874 L 20.5657,-105.873 L 20.5508,-105.871 L 20.5359,-105.869 L 20.5212,-105.868  L 20.5065,-105.865 L 20.4918,-105.863 L 20.4773,-105.861 L 20.4629,-105.858 L 20.4485,-105.855 L 20.4342,-105.852  L 20.4199,-105.848 L 20.4058,-105.845 L 20.3919,-105.841 L 20.3782,-105.837 L 20.3647,-105.833 L 20.3514,-105.828  L 20.3383,-105.823 L 20.3255,-105.818 L 20.3128,-105.813 L 20.3003,-105.808 L 20.288,-105.802 L 20.2759,-105.796  L 20.264,-105.789 L 20.2523,-105.783 L 20.2409,-105.776 L 20.2296,-105.769 L 20.2185,-105.762 L 20.2077,-105.754  L 20.197,-105.746 L 20.1866,-105.738 L 20.1765,-105.73 L 20.1666,-105.721 L 20.157,-105.713 L 20.1477,-105.704  L 20.1386,-105.694 L 20.1297,-105.685 L 20.1212,-105.675 L 20.1129,-105.664 L 20.1048,-105.654 L 20.097,-105.643  L 20.0894,-105.632 L 20.0822,-105.621 L 20.0751,-105.61 L 20.0684,-105.598 L 20.0619,-105.586 L 20.0557,-105.574  L 20.0498,-105.561 L 20.0444,-105.548 L 20.0393,-105.535 L 20.0346,-105.522 L 20.0303,-105.508 L 20.0264,-105.494  L 20.0228,-105.479 L 20.0196,-105.464 L 20.0168,-105.449 L 20.0144,-105.434 L 20.0123,-105.418 L 20.0106,-105.402  L 20.0093,-105.386 L 20.0083,-105.369 L 20.0078,-105.352 L 20.0076,-105.335 L 20.0077,-105.322 L 20.0082,-105.31  L 20.0089,-105.297 L 20.0099,-105.284 L 20.0111,-105.271 L 20.0127,-105.259 L 20.0145,-105.246 L 20.0166,-105.233  L 20.019,-105.221 L 20.0217,-105.208 L 20.0246,-105.196 L 20.0279,-105.183 L 20.0314,-105.17 L 20.0352,-105.158  L 20.0393,-105.145 L 20.0437,-105.133 L 20.0483,-105.12 L 20.0532,-105.108 L 20.0585,-105.095 L 20.0641,-105.083  L 20.0699,-105.071 L 20.0761,-105.059 L 20.0826,-105.048 L 20.0894,-105.036 L 20.0965,-105.025 L 20.1039,-105.014  L 20.1116,-105.003 L 20.1197,-104.992 L 20.128,-104.981 L 20.1367,-104.97 L 20.1457,-104.96 L 20.1549,-104.95  L 20.1645,-104.94 L 20.1744,-104.93 L 20.1846,-104.92 L 20.1952,-104.91 L 20.2061,-104.901 L 20.2173,-104.892  L 20.2288,-104.883 L 20.2407,-104.874 L 20.2529,-104.866 L 20.2654,-104.858 L 20.2782,-104.85 L 20.2914,-104.842  L 20.3049,-104.834 L 20.3187,-104.827 L 20.3329,-104.82 L 20.3474,-104.813 L 20.3622,-104.806 L 20.3773,-104.8  L 20.3928,-104.793 L 20.4086,-104.787 L 20.4248,-104.782 L 20.4413,-104.777 L 20.4582,-104.772 L 20.4754,-104.767  L 20.493,-104.763 L 20.511,-104.759 L 20.5293,-104.756 L 20.548,-104.753 L 20.567,-104.75 L 20.5864,-104.748  L 20.6061,-104.746 L 20.6262,-104.744 L 20.6466,-104.743 L 20.6674,-104.742 L 20.6886,-104.741 L 20.7101,-104.741  L 20.9299,-104.741 L 20.9299,-104.105 L 21.1713,-104.105 z M 20.7047,-104.947 L 20.6799,-104.948 L 20.6557,-104.949 L 20.6322,-104.95 L 20.6093,-104.952 L 20.5872,-104.955  L 20.5657,-104.959 L 20.5449,-104.963 L 20.5248,-104.968 L 20.5054,-104.973 L 20.4866,-104.98 L 20.4686,-104.986  L 20.4512,-104.994 L 20.4345,-105.002 L 20.4185,-105.011 L 20.4031,-105.02 L 20.3885,-105.03 L 20.3745,-105.041  L 20.3612,-105.052 L 20.3488,-105.064 L 20.3372,-105.077 L 20.3263,-105.09 L 20.3163,-105.104 L 20.3071,-105.119  L 20.2986,-105.134 L 20.291,-105.15 L 20.2842,-105.167 L 20.2782,-105.184 L 20.273,-105.202 L 20.2686,-105.221  L 20.2649,-105.24 L 20.2621,-105.26 L 20.2601,-105.281 L 20.2589,-105.302 L 20.2585,-105.324 L 20.2589,-105.344  L 20.2601,-105.363 L 20.262,-105.382 L 20.2647,-105.4 L 20.2682,-105.418 L 20.2725,-105.435 L 20.2775,-105.451  L 20.2833,-105.467 L 20.2899,-105.483 L 20.2972,-105.498 L 20.3054,-105.512 L 20.3143,-105.526 L 20.324,-105.539  L 20.3344,-105.551 L 20.3456,-105.564 L 20.3576,-105.575 L 20.3704,-105.586 L 20.3839,-105.596 L 20.398,-105.606  L 20.4127,-105.615 L 20.428,-105.624 L 20.4439,-105.632 L 20.4605,-105.639 L 20.4776,-105.645 L 20.4954,-105.651  L 20.5138,-105.657 L 20.5328,-105.661 L 20.5524,-105.666 L 20.5726,-105.669 L 20.5935,-105.672 L 20.6149,-105.674  L 20.637,-105.676 L 20.6597,-105.677 L 20.683,-105.677 L 20.9299,-105.677 L 20.9299,-104.947 z M 25.5818,-105.878 L 24.5823,-105.878 L 24.5823,-105.671 L 25.335,-105.671 L 25.335,-105.096 L 24.6216,-105.096  L 24.6216,-104.894 L 25.335,-104.894 L 25.335,-104.105 L 25.5818,-104.105 z M 26.6152,-104.081 L 26.6341,-104.081 L 26.6527,-104.082 L 26.671,-104.083 L 26.6889,-104.084 L 26.7064,-104.086  L 26.7237,-104.088 L 26.7405,-104.09 L 26.757,-104.093 L 26.7732,-104.096 L 26.789,-104.099 L 26.8045,-104.102  L 26.8196,-104.106 L 26.8344,-104.11 L 26.8488,-104.114 L 26.8629,-104.119 L 26.8767,-104.124 L 26.8901,-104.129  L 26.9032,-104.135 L 26.916,-104.14 L 26.9285,-104.146 L 26.9408,-104.153 L 26.9527,-104.159 L 26.9644,-104.166  L 26.9757,-104.173 L 26.9867,-104.18 L 26.9975,-104.187 L 27.008,-104.195 L 27.0181,-104.203 L 27.028,-104.211  L 27.0375,-104.22 L 27.0468,-104.229 L 27.0558,-104.238 L 27.0645,-104.247 L 27.0729,-104.256 L 27.081,-104.266  L 27.0889,-104.276 L 27.0965,-104.286 L 27.1038,-104.296 L 27.1108,-104.307 L 27.1176,-104.317 L 27.1241,-104.328  L 27.1303,-104.34 L 27.1362,-104.351 L 27.1419,-104.363 L 27.1473,-104.375 L 27.1525,-104.387 L 27.1573,-104.399  L 27.1619,-104.412 L 27.1662,-104.424 L 27.1703,-104.437 L 27.1741,-104.45 L 27.1776,-104.464 L 27.181,-104.477  L 27.1841,-104.491 L 27.1869,-104.505 L 27.1896,-104.519 L 27.192,-104.533 L 27.1942,-104.548 L 27.1961,-104.562  L 27.1979,-104.577 L 27.1994,-104.592 L 27.2006,-104.607 L 27.2017,-104.622 L 27.2025,-104.638 L 27.203,-104.654  L 27.2034,-104.669 L 27.2035,-104.685 L 27.2035,-105.878 L 26.9621,-105.878 L 26.9621,-104.704 L 26.962,-104.692  L 26.9618,-104.68 L 26.9615,-104.668 L 26.961,-104.657 L 26.9604,-104.645 L 26.9597,-104.634 L 26.9588,-104.623  L 26.9577,-104.612 L 26.9566,-104.601 L 26.9553,-104.591 L 26.9539,-104.58 L 26.9523,-104.57 L 26.9506,-104.56  L 26.9488,-104.55 L 26.9468,-104.54 L 26.9447,-104.531 L 26.9424,-104.521 L 26.94,-104.512 L 26.9375,-104.503  L 26.9347,-104.494 L 26.9318,-104.486 L 26.9287,-104.477 L 26.9254,-104.469 L 26.922,-104.461 L 26.9184,-104.453  L 26.9146,-104.445 L 26.9106,-104.438 L 26.9065,-104.43 L 26.9022,-104.423 L 26.8977,-104.416 L 26.893,-104.409  L 26.8882,-104.403 L 26.8832,-104.396 L 26.878,-104.39 L 26.8727,-104.384 L 26.8671,-104.378 L 26.8614,-104.372  L 26.8555,-104.366 L 26.8494,-104.361 L 26.8431,-104.356 L 26.8367,-104.351 L 26.83,-104.346 L 26.8232,-104.341  L 26.8162,-104.337 L 26.809,-104.332 L 26.8016,-104.328 L 26.7941,-104.324 L 26.7864,-104.32 L 26.7784,-104.317  L 26.7703,-104.313 L 26.7621,-104.31 L 26.7536,-104.307 L 26.7449,-104.304 L 26.7359,-104.301 L 26.7268,-104.299  L 26.7174,-104.296 L 26.7078,-104.294 L 26.698,-104.292 L 26.688,-104.29 L 26.6777,-104.289 L 26.6672,-104.287  L 26.6566,-104.286 L 26.6456,-104.285 L 26.6345,-104.284 L 26.6232,-104.284 L 26.6116,-104.283 L 26.5998,-104.283  L 26.5878,-104.283 L 26.5655,-104.283 L 26.5439,-104.284 L 26.5229,-104.286 L 26.5027,-104.289 L 26.4832,-104.292  L 26.4644,-104.297 L 26.4463,-104.302 L 26.4289,-104.307 L 26.4122,-104.314 L 26.3962,-104.321 L 26.3808,-104.329  L 26.3662,-104.338 L 26.3523,-104.348 L 26.3391,-104.358 L 26.3266,-104.369 L 26.3148,-104.381 L 26.3036,-104.394  L 26.2932,-104.407 L 26.2834,-104.421 L 26.2742,-104.436 L 26.2656,-104.451 L 26.2577,-104.467 L 26.2504,-104.484  L 26.2438,-104.501 L 26.2377,-104.519 L 26.2324,-104.537 L 26.2276,-104.556 L 26.2235,-104.576 L 26.22,-104.596  L 26.2171,-104.617 L 26.2149,-104.639 L 26.2133,-104.661 L 26.2124,-104.684 L 26.2121,-104.707 L 26.2121,-105.878  L 25.9707,-105.878 L 25.9707,-104.722 L 25.9708,-104.705 L 25.9712,-104.688 L 25.972,-104.671 L 25.973,-104.655  L 25.9743,-104.638 L 25.9758,-104.622 L 25.9777,-104.606 L 25.9798,-104.59 L 25.9823,-104.575 L 25.985,-104.559  L 25.988,-104.544 L 25.9913,-104.529 L 25.9949,-104.514 L 25.9987,-104.5 L 26.0029,-104.485 L 26.0073,-104.471  L 26.012,-104.457 L 26.017,-104.443 L 26.0223,-104.43 L 26.0278,-104.416 L 26.0336,-104.403 L 26.0397,-104.39  L 26.046,-104.378 L 26.0527,-104.365 L 26.0595,-104.353 L 26.0667,-104.341 L 26.0741,-104.33 L 26.0818,-104.318  L 26.0897,-104.307 L 26.0979,-104.296 L 26.1064,-104.285 L 26.1151,-104.275 L 26.1241,-104.265 L 26.1334,-104.255  L 26.143,-104.245 L 26.1527,-104.236 L 26.1628,-104.227 L 26.1731,-104.218 L 26.1836,-104.209 L 26.1944,-104.201  L 26.2054,-104.193 L 26.2167,-104.185 L 26.2282,-104.177 L 26.24,-104.17 L 26.252,-104.163 L 26.2643,-104.156  L 26.2768,-104.15 L 26.2896,-104.143 L 26.3026,-104.137 L 26.3159,-104.131 L 26.3294,-104.126 L 26.3432,-104.121  L 26.3572,-104.116 L 26.3714,-104.111 L 26.3859,-104.107 L 26.4006,-104.103 L 26.4156,-104.1 L 26.4308,-104.096  L 26.4462,-104.093 L 26.4619,-104.091 L 26.4778,-104.088 L 26.4939,-104.086 L 26.5103,-104.085 L 26.527,-104.083  L 26.5438,-104.082 L 26.561,-104.081 L 26.5783,-104.081 L 26.5959,-104.081 z M 35.173,-104.492 L 35.9108,-104.492 L 36.0355,-104.105 L 36.2865,-104.105 L 35.6978,-105.878 L 35.3669,-105.878  L 34.7864,-104.105 L 35.0495,-104.105 z M 35.2421,-104.707 L 35.5419,-105.655 L 35.8416,-104.707 z " stroke="none" fill="black" id="engrave_path" />
</svg>