<?xml version="1.0" encoding="UTF-8" standalone="no"?>
<svg
   width="270mm"
   height="80mm"
   viewBox="-135 -50 270 80"
   version="1.1"
   id="svg6"
   sodipodi:docname="top_mount_2D_v1.0_5mm_print.svg"
   inkscape:version="1.1 (c68e22c387, 2021-05-23)"
   xmlns:inkscape="http://www.inkscape.org/namespaces/inkscape"
   xmlns:sodipodi="http://sodipodi.sourceforge.net/DTD/sodipodi-0.dtd"
   xmlns="http://www.w3.org/2000/svg"
   xmlns:svg="http://www.w3.org/2000/svg"
   xmlns:rdf="http://www.w3.org/1999/02/22-rdf-syntax-ns#"
   xmlns:cc="http://creativecommons.org/ns#"
   xmlns:dc="http://purl.org/dc/elements/1.1/">
  <defs
     id="defs10" />
  <sodipodi:namedview
     id="namedview8"
     pagecolor="#ffffff"
     bordercolor="#666666"
     borderopacity="1.0"
     inkscape:pageshadow="2"
     inkscape:pageopacity="0.0"
     inkscape:pagecheckerboard="0"
     inkscape:document-units="mm"
     showgrid="false"
     inkscape:zoom="1.079892"
     inkscape:cx="510.23621"
     inkscape:cy="151.40403"
     inkscape:window-width="1920"
     inkscape:window-height="1017"
     inkscape:window-x="754"
     inkscape:window-y="847"
     inkscape:window-maximized="1"
     inkscape:current-layer="svg6" />
  <title
     id="title2">OpenSCAD Model</title>
  <path
     d=" M 105,-50 L 105,-45 L 95,-45 L 95,-50 L 85,-50 L 85,-45  L 75,-45 L 75,-50 L 65,-50 L 65,-45 L 55,-45 L 55,-50  L 45,-50 L 45,-45 L 35,-45 L 35,-50 L 25,-50 L 25,-45  L 15,-45 L 15,-50 L 5,-50 L 5,-45 L -5,-45 L -5,-50  L -15,-50 L -15,-45 L -25,-45 L -25,-50 L -35,-50 L -35,-45  L -45,-45 L -45,-50 L -55,-50 L -55,-45 L -65,-45 L -65,-50  L -75,-50 L -75,-45 L -85,-45 L -85,-50 L -95,-50 L -95,-45  L -105,-45 L -105,-50 L -115,-50 L -115,-45 L -120,-45 L -120,-50  L -131,-50 L -131.098,-49.9988 L -131.196,-49.9952 L -131.294,-49.9892 L -131.392,-49.9807 L -131.49,-49.9699  L -131.587,-49.9567 L -131.684,-49.9411 L -131.78,-49.9231 L -131.876,-49.9028 L -131.972,-49.8801 L -132.067,-49.8551  L -132.161,-49.8278 L -132.255,-49.7981 L -132.348,-49.7662 L -132.44,-49.732 L -132.531,-49.6955 L -132.621,-49.6568  L -132.71,-49.616 L -132.798,-49.5729 L -132.886,-49.5277 L -132.972,-49.4803 L -133.056,-49.4309 L -133.14,-49.3794  L -133.222,-49.3259 L -133.303,-49.2703 L -133.383,-49.2128 L -133.461,-49.1534 L -133.538,-49.092 L -133.613,-49.0288  L -133.686,-48.9638 L -133.758,-48.897 L -133.828,-48.8284 L -133.897,-48.7581 L -133.964,-48.6862 L -134.029,-48.6127  L -134.092,-48.5376 L -134.153,-48.4609 L -134.213,-48.3828 L -134.27,-48.3032 L -134.326,-48.2223 L -134.379,-48.14  L -134.431,-48.0564 L -134.48,-47.9716 L -134.528,-47.8856 L -134.573,-47.7984 L -134.616,-47.7102 L -134.657,-47.621  L -134.696,-47.5307 L -134.732,-47.4396 L -134.766,-47.3475 L -134.798,-47.2547 L -134.828,-47.1611 L -134.855,-47.0668  L -134.88,-46.9719 L -134.903,-46.8764 L -134.923,-46.7803 L -134.941,-46.6838 L -134.957,-46.5869 L -134.97,-46.4896  L -134.981,-46.3921 L -134.989,-46.2943 L -134.995,-46.1963 L -134.999,-46.0982 L -135,-46 L -135,26  L -134.999,26.0982 L -134.995,26.1963 L -134.989,26.2943 L -134.981,26.3921 L -134.97,26.4896 L -134.957,26.5869  L -134.941,26.6838 L -134.923,26.7803 L -134.903,26.8764 L -134.88,26.9719 L -134.855,27.0668 L -134.828,27.1611  L -134.798,27.2547 L -134.766,27.3475 L -134.732,27.4396 L -134.696,27.5307 L -134.657,27.621 L -134.616,27.7102  L -134.573,27.7984 L -134.528,27.8856 L -134.48,27.9716 L -134.431,28.0564 L -134.379,28.14 L -134.326,28.2223  L -134.27,28.3032 L -134.213,28.3828 L -134.153,28.4609 L -134.092,28.5376 L -134.029,28.6127 L -133.964,28.6862  L -133.897,28.7581 L -133.828,28.8284 L -133.758,28.897 L -133.686,28.9638 L -133.613,29.0288 L -133.538,29.092  L -133.461,29.1534 L -133.383,29.2128 L -133.303,29.2703 L -133.222,29.3259 L -133.14,29.3794 L -133.056,29.4309  L -132.972,29.4803 L -132.886,29.5277 L -132.798,29.5729 L -132.71,29.616 L -132.621,29.6568 L -132.531,29.6955  L -132.44,29.732 L -132.348,29.7662 L -132.255,29.7981 L -132.161,29.8278 L -132.067,29.8551 L -131.972,29.8801  L -131.876,29.9028 L -131.78,29.9231 L -131.684,29.9411 L -131.587,29.9567 L -131.49,29.9699 L -131.392,29.9807  L -131.294,29.9892 L -131.196,29.9952 L -131.098,29.9988 L -131,30 L 131,30 L 131.098,29.9988  L 131.196,29.9952 L 131.294,29.9892 L 131.392,29.9807 L 131.49,29.9699 L 131.587,29.9567 L 131.684,29.9411  L 131.78,29.9231 L 131.876,29.9028 L 131.972,29.8801 L 132.067,29.8551 L 132.161,29.8278 L 132.255,29.7981  L 132.348,29.7662 L 132.44,29.732 L 132.531,29.6955 L 132.621,29.6568 L 132.71,29.616 L 132.798,29.5729  L 132.886,29.5277 L 132.972,29.4803 L 133.056,29.4309 L 133.14,29.3794 L 133.222,29.3259 L 133.303,29.2703  L 133.383,29.2128 L 133.461,29.1534 L 133.538,29.092 L 133.613,29.0288 L 133.686,28.9638 L 133.758,28.897  L 133.828,28.8284 L 133.897,28.7581 L 133.964,28.6862 L 134.029,28.6127 L 134.092,28.5376 L 134.153,28.4609  L 134.213,28.3828 L 134.27,28.3032 L 134.326,28.2223 L 134.379,28.14 L 134.431,28.0564 L 134.48,27.9716  L 134.528,27.8856 L 134.573,27.7984 L 134.616,27.7102 L 134.657,27.621 L 134.696,27.5307 L 134.732,27.4396  L 134.766,27.3475 L 134.798,27.2547 L 134.828,27.1611 L 134.855,27.0668 L 134.88,26.9719 L 134.903,26.8764  L 134.923,26.7803 L 134.941,26.6838 L 134.957,26.5869 L 134.97,26.4896 L 134.981,26.3921 L 134.989,26.2943  L 134.995,26.1963 L 134.999,26.0982 L 135,26 L 135,-46 L 134.999,-46.0982 L 134.995,-46.1963  L 134.989,-46.2943 L 134.981,-46.3921 L 134.97,-46.4896 L 134.957,-46.5869 L 134.941,-46.6838 L 134.923,-46.7803  L 134.903,-46.8764 L 134.88,-46.9719 L 134.855,-47.0668 L 134.828,-47.1611 L 134.798,-47.2547 L 134.766,-47.3475  L 134.732,-47.4396 L 134.696,-47.5307 L 134.657,-47.621 L 134.616,-47.7102 L 134.573,-47.7984 L 134.528,-47.8856  L 134.48,-47.9716 L 134.431,-48.0564 L 134.379,-48.14 L 134.326,-48.2223 L 134.27,-48.3032 L 134.213,-48.3828  L 134.153,-48.4609 L 134.092,-48.5376 L 134.029,-48.6127 L 133.964,-48.6862 L 133.897,-48.7581 L 133.828,-48.8284  L 133.758,-48.897 L 133.686,-48.9638 L 133.613,-49.0288 L 133.538,-49.092 L 133.461,-49.1534 L 133.383,-49.2128  L 133.303,-49.2703 L 133.222,-49.3259 L 133.14,-49.3794 L 133.056,-49.4309 L 132.972,-49.4803 L 132.886,-49.5277  L 132.798,-49.5729 L 132.71,-49.616 L 132.621,-49.6568 L 132.531,-49.6955 L 132.44,-49.732 L 132.348,-49.7662  L 132.255,-49.7981 L 132.161,-49.8278 L 132.067,-49.8551 L 131.972,-49.8801 L 131.876,-49.9028 L 131.78,-49.9231  L 131.684,-49.9411 L 131.587,-49.9567 L 131.49,-49.9699 L 131.392,-49.9807 L 131.294,-49.9892 L 131.196,-49.9952  L 131.098,-49.9988 L 131,-50 L 120,-50 L 120,-45 L 115,-45 L 115,-50  z M -115.5,-30 L -115.5,-40 L -110.5,-40 L -110.5,-30 z M 110.5,-30 L 110.5,-40 L 115.5,-40 L 115.5,-30 z M -115.5,-10 L -115.5,-20 L -110.5,-20 L -110.5,-10 z M 110.5,-10 L 110.5,-20 L 115.5,-20 L 115.5,-10 z M 119.838,18.296 L 119.677,18.2841 L 119.516,18.2643 L 119.356,18.2366 L 119.198,18.2011 L 119.12,18.1805  L 118.965,18.1335 L 118.812,18.0789 L 118.663,18.0169 L 118.589,17.9832 L 118.444,17.9104 L 118.373,17.8713  L 118.234,17.788 L 118.1,17.698 L 118.034,17.6506 L 117.906,17.5509 L 117.784,17.4451 L 117.667,17.3335  L 117.555,17.2162 L 117.449,17.0935 L 117.398,17.0303 L 117.302,16.9002 L 117.212,16.7655 L 117.169,16.6965  L 117.09,16.5556 L 117.052,16.4837 L 116.983,16.3373 L 116.921,16.1877 L 116.893,16.1117 L 116.842,15.9579  L 116.799,15.8018 L 116.763,15.6438 L 116.736,15.4842 L 116.716,15.3235 L 116.704,15.1619 L 116.7,15  L 116.704,14.8381 L 116.716,14.6765 L 116.736,14.5158 L 116.763,14.3562 L 116.799,14.1982 L 116.82,14.1199  L 116.867,13.9649 L 116.921,13.8123 L 116.983,13.6627 L 117.017,13.5891 L 117.09,13.4444 L 117.129,13.3734  L 117.212,13.2345 L 117.302,13.0998 L 117.349,13.0342 L 117.449,12.9065 L 117.555,12.7839 L 117.667,12.6665  L 117.784,12.5549 L 117.906,12.4491 L 117.97,12.3985 L 118.1,12.302 L 118.234,12.212 L 118.303,12.1695  L 118.444,12.0897 L 118.516,12.0524 L 118.663,11.9831 L 118.812,11.9211 L 118.888,11.8929 L 119.042,11.8421  L 119.198,11.7989 L 119.356,11.7634 L 119.516,11.7357 L 119.677,11.7159 L 119.838,11.704 L 120,11.7  L 120.162,11.704 L 120.323,11.7159 L 120.484,11.7357 L 120.644,11.7634 L 120.802,11.7989 L 120.88,11.8195  L 121.035,11.8666 L 121.188,11.9211 L 121.337,11.9831 L 121.411,12.0168 L 121.556,12.0897 L 121.627,12.1287  L 121.765,12.212 L 121.9,12.302 L 121.966,12.3494 L 122.093,12.4491 L 122.216,12.5549 L 122.333,12.6665  L 122.445,12.7839 L 122.551,12.9065 L 122.602,12.9697 L 122.698,13.0998 L 122.788,13.2345 L 122.83,13.3035  L 122.91,13.4444 L 122.948,13.5163 L 123.017,13.6627 L 123.079,13.8123 L 123.107,13.8883 L 123.158,14.0421  L 123.201,14.1982 L 123.237,14.3562 L 123.264,14.5158 L 123.284,14.6765 L 123.296,14.8381 L 123.3,15  L 123.296,15.1619 L 123.284,15.3235 L 123.264,15.4842 L 123.237,15.6438 L 123.201,15.8018 L 123.18,15.8802  L 123.133,16.0352 L 123.079,16.1877 L 123.017,16.3373 L 122.983,16.4109 L 122.91,16.5556 L 122.871,16.6266  L 122.788,16.7655 L 122.698,16.9002 L 122.651,16.9658 L 122.551,17.0935 L 122.445,17.2162 L 122.333,17.3335  L 122.216,17.4451 L 122.093,17.5509 L 122.03,17.6015 L 121.9,17.698 L 121.765,17.788 L 121.697,17.8305  L 121.556,17.9104 L 121.484,17.9476 L 121.337,18.0169 L 121.188,18.0789 L 121.112,18.1071 L 120.958,18.1579  L 120.802,18.2011 L 120.644,18.2366 L 120.484,18.2643 L 120.323,18.2841 L 120.162,18.296 L 120,18.3  z M 19.8381,18.296 L 19.6765,18.2841 L 19.5158,18.2643 L 19.3562,18.2366 L 19.1982,18.2011 L 19.1198,18.1805  L 18.9648,18.1335 L 18.8123,18.0789 L 18.6627,18.0169 L 18.5891,17.9832 L 18.4444,17.9104 L 18.3734,17.8713  L 18.2345,17.788 L 18.0998,17.698 L 18.0342,17.6506 L 17.9065,17.5509 L 17.7838,17.4451 L 17.6665,17.3335  L 17.5549,17.2162 L 17.4491,17.0935 L 17.3985,17.0303 L 17.302,16.9002 L 17.212,16.7655 L 17.1695,16.6965  L 17.0896,16.5556 L 17.0524,16.4837 L 16.9831,16.3373 L 16.9211,16.1877 L 16.8929,16.1117 L 16.8421,15.9579  L 16.7989,15.8018 L 16.7634,15.6438 L 16.7357,15.4842 L 16.7159,15.3235 L 16.704,15.1619 L 16.7,15  L 16.704,14.8381 L 16.7159,14.6765 L 16.7357,14.5158 L 16.7634,14.3562 L 16.7989,14.1982 L 16.8195,14.1199  L 16.8665,13.9649 L 16.9211,13.8123 L 16.9831,13.6627 L 17.0168,13.5891 L 17.0896,13.4444 L 17.1287,13.3734  L 17.212,13.2345 L 17.302,13.0998 L 17.3494,13.0342 L 17.4491,12.9065 L 17.5549,12.7839 L 17.6665,12.6665  L 17.7838,12.5549 L 17.9065,12.4491 L 17.9697,12.3985 L 18.0998,12.302 L 18.2345,12.212 L 18.3035,12.1695  L 18.4444,12.0897 L 18.5163,12.0524 L 18.6627,11.9831 L 18.8123,11.9211 L 18.8883,11.8929 L 19.0421,11.8421  L 19.1982,11.7989 L 19.3562,11.7634 L 19.5158,11.7357 L 19.6765,11.7159 L 19.8381,11.704 L 20,11.7  L 20.1619,11.704 L 20.3235,11.7159 L 20.4842,11.7357 L 20.6438,11.7634 L 20.8018,11.7989 L 20.8801,11.8195  L 21.0351,11.8666 L 21.1877,11.9211 L 21.3373,11.9831 L 21.4109,12.0168 L 21.5556,12.0897 L 21.6266,12.1287  L 21.7655,12.212 L 21.9002,12.302 L 21.9658,12.3494 L 22.0935,12.4491 L 22.2161,12.5549 L 22.3335,12.6665  L 22.4451,12.7839 L 22.5509,12.9065 L 22.6015,12.9697 L 22.698,13.0998 L 22.788,13.2345 L 22.8305,13.3035  L 22.9103,13.4444 L 22.9476,13.5163 L 23.0169,13.6627 L 23.0789,13.8123 L 23.1071,13.8883 L 23.1579,14.0421  L 23.2011,14.1982 L 23.2366,14.3562 L 23.2643,14.5158 L 23.2841,14.6765 L 23.296,14.8381 L 23.3,15  L 23.296,15.1619 L 23.2841,15.3235 L 23.2643,15.4842 L 23.2366,15.6438 L 23.2011,15.8018 L 23.1805,15.8802  L 23.1334,16.0352 L 23.0789,16.1877 L 23.0169,16.3373 L 22.9832,16.4109 L 22.9103,16.5556 L 22.8713,16.6266  L 22.788,16.7655 L 22.698,16.9002 L 22.6506,16.9658 L 22.5509,17.0935 L 22.4451,17.2162 L 22.3335,17.3335  L 22.2161,17.4451 L 22.0935,17.5509 L 22.0303,17.6015 L 21.9002,17.698 L 21.7655,17.788 L 21.6965,17.8305  L 21.5556,17.9104 L 21.4837,17.9476 L 21.3373,18.0169 L 21.1877,18.0789 L 21.1117,18.1071 L 20.9579,18.1579  L 20.8018,18.2011 L 20.6438,18.2366 L 20.4842,18.2643 L 20.3235,18.2841 L 20.1619,18.296 L 20,18.3  z M -20.1619,18.296 L -20.3235,18.2841 L -20.4842,18.2643 L -20.6438,18.2366 L -20.8018,18.2011 L -20.8801,18.1805  L -21.0351,18.1335 L -21.1877,18.0789 L -21.3373,18.0169 L -21.4109,17.9832 L -21.5556,17.9104 L -21.6266,17.8713  L -21.7655,17.788 L -21.9002,17.698 L -21.9658,17.6506 L -22.0935,17.5509 L -22.2161,17.4451 L -22.3335,17.3335  L -22.4451,17.2162 L -22.5509,17.0935 L -22.6015,17.0303 L -22.698,16.9002 L -22.788,16.7655 L -22.8305,16.6965  L -22.9103,16.5556 L -22.9476,16.4837 L -23.0169,16.3373 L -23.0789,16.1877 L -23.1071,16.1117 L -23.1579,15.9579  L -23.2011,15.8018 L -23.2366,15.6438 L -23.2643,15.4842 L -23.2841,15.3235 L -23.296,15.1619 L -23.3,15  L -23.296,14.8381 L -23.2841,14.6765 L -23.2643,14.5158 L -23.2366,14.3562 L -23.2011,14.1982 L -23.1805,14.1199  L -23.1334,13.9649 L -23.0789,13.8123 L -23.0169,13.6627 L -22.9832,13.5891 L -22.9103,13.4444 L -22.8713,13.3734  L -22.788,13.2345 L -22.698,13.0998 L -22.6506,13.0342 L -22.5509,12.9065 L -22.4451,12.7839 L -22.3335,12.6665  L -22.2161,12.5549 L -22.0935,12.4491 L -22.0303,12.3985 L -21.9002,12.302 L -21.7655,12.212 L -21.6965,12.1695  L -21.5556,12.0897 L -21.4837,12.0524 L -21.3373,11.9831 L -21.1877,11.9211 L -21.1117,11.8929 L -20.9579,11.8421  L -20.8018,11.7989 L -20.6438,11.7634 L -20.4842,11.7357 L -20.3235,11.7159 L -20.1619,11.704 L -20,11.7  L -19.8381,11.704 L -19.6765,11.7159 L -19.5158,11.7357 L -19.3562,11.7634 L -19.1982,11.7989 L -19.1198,11.8195  L -18.9648,11.8666 L -18.8123,11.9211 L -18.6627,11.9831 L -18.5891,12.0168 L -18.4444,12.0897 L -18.3734,12.1287  L -18.2345,12.212 L -18.0998,12.302 L -18.0342,12.3494 L -17.9065,12.4491 L -17.7838,12.5549 L -17.6665,12.6665  L -17.5549,12.7839 L -17.4491,12.9065 L -17.3985,12.9697 L -17.302,13.0998 L -17.212,13.2345 L -17.1695,13.3035  L -17.0896,13.4444 L -17.0524,13.5163 L -16.9831,13.6627 L -16.9211,13.8123 L -16.8929,13.8883 L -16.8421,14.0421  L -16.7989,14.1982 L -16.7634,14.3562 L -16.7357,14.5158 L -16.7159,14.6765 L -16.704,14.8381 L -16.7,15  L -16.704,15.1619 L -16.7159,15.3235 L -16.7357,15.4842 L -16.7634,15.6438 L -16.7989,15.8018 L -16.8195,15.8802  L -16.8665,16.0352 L -16.9211,16.1877 L -16.9831,16.3373 L -17.0168,16.4109 L -17.0896,16.5556 L -17.1287,16.6266  L -17.212,16.7655 L -17.302,16.9002 L -17.3494,16.9658 L -17.4491,17.0935 L -17.5549,17.2162 L -17.6665,17.3335  L -17.7838,17.4451 L -17.9065,17.5509 L -17.9697,17.6015 L -18.0998,17.698 L -18.2345,17.788 L -18.3035,17.8305  L -18.4444,17.9104 L -18.5163,17.9476 L -18.6627,18.0169 L -18.8123,18.0789 L -18.8883,18.1071 L -19.0421,18.1579  L -19.1982,18.2011 L -19.3562,18.2366 L -19.5158,18.2643 L -19.6765,18.2841 L -19.8381,18.296 L -20,18.3  z M -120.162,18.296 L -120.323,18.2841 L -120.484,18.2643 L -120.644,18.2366 L -120.802,18.2011 L -120.88,18.1805  L -121.035,18.1335 L -121.188,18.0789 L -121.337,18.0169 L -121.411,17.9832 L -121.556,17.9104 L -121.627,17.8713  L -121.765,17.788 L -121.9,17.698 L -121.966,17.6506 L -122.093,17.5509 L -122.216,17.4451 L -122.333,17.3335  L -122.445,17.2162 L -122.551,17.0935 L -122.602,17.0303 L -122.698,16.9002 L -122.788,16.7655 L -122.83,16.6965  L -122.91,16.5556 L -122.948,16.4837 L -123.017,16.3373 L -123.079,16.1877 L -123.107,16.1117 L -123.158,15.9579  L -123.201,15.8018 L -123.237,15.6438 L -123.264,15.4842 L -123.284,15.3235 L -123.296,15.1619 L -123.3,15  L -123.296,14.8381 L -123.284,14.6765 L -123.264,14.5158 L -123.237,14.3562 L -123.201,14.1982 L -123.18,14.1199  L -123.133,13.9649 L -123.079,13.8123 L -123.017,13.6627 L -122.983,13.5891 L -122.91,13.4444 L -122.871,13.3734  L -122.788,13.2345 L -122.698,13.0998 L -122.651,13.0342 L -122.551,12.9065 L -122.445,12.7839 L -122.333,12.6665  L -122.216,12.5549 L -122.093,12.4491 L -122.03,12.3985 L -121.9,12.302 L -121.765,12.212 L -121.697,12.1695  L -121.556,12.0897 L -121.484,12.0524 L -121.337,11.9831 L -121.188,11.9211 L -121.112,11.8929 L -120.958,11.8421  L -120.802,11.7989 L -120.644,11.7634 L -120.484,11.7357 L -120.323,11.7159 L -120.162,11.704 L -120,11.7  L -119.838,11.704 L -119.677,11.7159 L -119.516,11.7357 L -119.356,11.7634 L -119.198,11.7989 L -119.12,11.8195  L -118.965,11.8666 L -118.812,11.9211 L -118.663,11.9831 L -118.589,12.0168 L -118.444,12.0897 L -118.373,12.1287  L -118.234,12.212 L -118.1,12.302 L -118.034,12.3494 L -117.906,12.4491 L -117.784,12.5549 L -117.667,12.6665  L -117.555,12.7839 L -117.449,12.9065 L -117.398,12.9697 L -117.302,13.0998 L -117.212,13.2345 L -117.169,13.3035  L -117.09,13.4444 L -117.052,13.5163 L -116.983,13.6627 L -116.921,13.8123 L -116.893,13.8883 L -116.842,14.0421  L -116.799,14.1982 L -116.763,14.3562 L -116.736,14.5158 L -116.716,14.6765 L -116.704,14.8381 L -116.7,15  L -116.704,15.1619 L -116.716,15.3235 L -116.736,15.4842 L -116.763,15.6438 L -116.799,15.8018 L -116.82,15.8802  L -116.867,16.0352 L -116.921,16.1877 L -116.983,16.3373 L -117.017,16.4109 L -117.09,16.5556 L -117.129,16.6266  L -117.212,16.7655 L -117.302,16.9002 L -117.349,16.9658 L -117.449,17.0935 L -117.555,17.2162 L -117.667,17.3335  L -117.784,17.4451 L -117.906,17.5509 L -117.97,17.6015 L -118.1,17.698 L -118.234,17.788 L -118.303,17.8305  L -118.444,17.9104 L -118.516,17.9476 L -118.663,18.0169 L -118.812,18.0789 L -118.888,18.1071 L -119.042,18.1579  L -119.198,18.2011 L -119.356,18.2366 L -119.516,18.2643 L -119.677,18.2841 L -119.838,18.296 L -120,18.3  z "
     stroke="black"
     fill="lightgray"
     stroke-width="0.5"
     id="path4"
     style="fill:none;fill-opacity:1;stroke:#ff0000;stroke-opacity:1;stroke-width:0.01;stroke-miterlimit:4;stroke-dasharray:none" />
  <metadata
     id="metadata827">
    <rdf:RDF>
      <cc:Work
         rdf:about="">
        <dc:title>OpenSCAD Model</dc:title>
      </cc:Work>
    </rdf:RDF>
  </metadata>
  <text
     xml:space="preserve"
     style="font-style:normal;font-variant:normal;font-weight:normal;font-stretch:normal;font-size:5.64444px;line-height:1.25;font-family:Consolas;-inkscape-font-specification:Consolas;letter-spacing:0px;word-spacing:0px;fill:#000000;fill-opacity:1;stroke:none;stroke-width:0.264583"
     x="-43.344666"
     y="30.011576"
     id="text1547"
     transform="scale(-1)"><tspan
       sodipodi:role="line"
       id="tspan1545"
       style="font-style:normal;font-variant:normal;font-weight:normal;font-stretch:normal;font-size:5.64444px;font-family:Consolas;-inkscape-font-specification:Consolas;stroke-width:0.264583"
       x="-43.344666"
       y="30.011576">iMac top mount - v1.0 / 5mm</tspan></text>
</svg>
