<?xml version="1.0" encoding="UTF-8" standalone="no"?>
<svg
   width="24.000mm"
   height="140.000mm"
   version="1.1"
   viewBox="0 0 24.000 140.000"
   id="svg26"
   sodipodi:docname="PCIeSpacer_Trotec.svg"
   inkscape:version="1.1 (c68e22c387, 2021-05-23)"
   xmlns:inkscape="http://www.inkscape.org/namespaces/inkscape"
   xmlns:sodipodi="http://sodipodi.sourceforge.net/DTD/sodipodi-0.dtd"
   xmlns="http://www.w3.org/2000/svg"
   xmlns:svg="http://www.w3.org/2000/svg"
   xmlns:fpd="http://www.schaeffer-ag.de">
  <sodipodi:namedview
     id="namedview28"
     pagecolor="#ffffff"
     bordercolor="#666666"
     borderopacity="1.0"
     inkscape:pageshadow="2"
     inkscape:pageopacity="0.0"
     inkscape:pagecheckerboard="0"
     inkscape:document-units="mm"
     showgrid="false"
     inkscape:zoom="1.4230804"
     inkscape:cx="45.675565"
     inkscape:cy="264.56693"
     inkscape:window-width="1920"
     inkscape:window-height="1017"
     inkscape:window-x="754"
     inkscape:window-y="847"
     inkscape:window-maximized="1"
     inkscape:current-layer="svg26" />
  <desc
     id="desc2">Created with the Front Panel Designer by the export of the file 'PCIeSpacer.fpd'.</desc>
  <defs
     id="defs14">
    <pattern
       id="revside-fill"
       x="1"
       y="1"
       width="1.400"
       height="1.400"
       patternUnits="userSpaceOnUse">
      <line
         x1="0"
         y1="0"
         x2="1.400"
         y2="1.400"
         style="stroke-width:0.140; stroke:black; stroke-dasharray:none;"
         id="line4" />
      <line
         x1="0"
         y1="1.400"
         x2="1.400"
         y2="0"
         style="stroke-width:0.140; stroke:black; stroke-dasharray:none;"
         id="line6" />
    </pattern>
    <pattern
       id="revside-fill-silver"
       x="1"
       y="1"
       width="1.400"
       height="1.400"
       patternUnits="userSpaceOnUse">
      <line
         x1="0"
         y1="0"
         x2="1.400"
         y2="1.400"
         style="stroke-width:0.140; stroke:#e0e0e0; stroke-dasharray:none;"
         id="line9" />
      <line
         x1="0"
         y1="1.400"
         x2="1.400"
         y2="0"
         style="stroke-width:0.140; stroke:#e0e0e0; stroke-dasharray:none;"
         id="line11" />
    </pattern>
  </defs>
  <g
     transform="matrix(1,0,0,-1,0,140)"
     fill-rule="evenodd"
     style="fill:none;stroke:#ff0000;stroke-width:0.01;stroke-linecap:round;stroke-linejoin:round;stroke-miterlimit:4;stroke-dasharray:none;stroke-opacity:1"
     id="g24">
    <path
       d="m 15.5,135 a 2,2 0 1 0 4,0 2,2 0 1 0 -4,0"
       fill="#ffffff"
       fill-opacity="1"
       vector-effect="non-scaling-stroke"
       stroke="#000000"
       stroke-width="0.1mm"
       stroke-opacity="1"
       fpd:visible="front back"
       fpd:print_element="0"
       id="path18"
       style="fill:none;stroke:#ff0000;stroke-width:0.01;stroke-miterlimit:4;stroke-dasharray:none;stroke-opacity:1" />
    <path
       d="m 15.5,7 a 2,2 0 0 1 2,-2 v 0 a 2,2 0 0 1 2,2 v 6 a 2,2 0 0 1 -2,2 v 0 a 2,2 0 0 1 -2,-2 V 7"
       fill="#ffffff"
       fill-opacity="1"
       vector-effect="non-scaling-stroke"
       stroke="#000000"
       stroke-width="0.1mm"
       stroke-opacity="1"
       fpd:visible="front back"
       fpd:print_element="0"
       id="path20"
       style="fill:none;stroke:#ff0000;stroke-width:0.01;stroke-miterlimit:4;stroke-dasharray:none;stroke-opacity:1" />
    <path
       d="m 22,140 a 2,2 0 0 0 2,-2 V 2 A 2,2 0 0 0 22,0 H 2 A 2,2 0 0 0 0,2 v 136 a 2,2 0 0 0 2,2 h 20"
       fill="none"
       vector-effect="non-scaling-stroke"
       stroke="#000000"
       stroke-width="0.1mm"
       stroke-opacity="1"
       fpd:visible="front back"
       id="path22"
       style="fill:none;stroke:#ff0000;stroke-width:0.01;stroke-miterlimit:4;stroke-dasharray:none;stroke-opacity:1" />
  </g>
</svg>
