<?xml version="1.0" encoding="UTF-8" standalone="no"?>
<svg
   width="125.000mm"
   height="63.500mm"
   version="1.1"
   viewBox="0 0 125.000 63.500"
   id="svg34"
   sodipodi:docname="psu_plate_for_cutter.svg"
   inkscape:version="1.1 (c68e22c387, 2021-05-23)"
   xmlns:inkscape="http://www.inkscape.org/namespaces/inkscape"
   xmlns:sodipodi="http://sodipodi.sourceforge.net/DTD/sodipodi-0.dtd"
   xmlns="http://www.w3.org/2000/svg"
   xmlns:svg="http://www.w3.org/2000/svg">
  <sodipodi:namedview
     id="namedview36"
     pagecolor="#ffffff"
     bordercolor="#666666"
     borderopacity="1.0"
     inkscape:pageshadow="2"
     inkscape:pageopacity="0.0"
     inkscape:pagecheckerboard="0"
     inkscape:document-units="mm"
     showgrid="false"
     inkscape:zoom="1.8457333"
     inkscape:cx="236.22047"
     inkscape:cy="119.73561"
     inkscape:window-width="1620"
     inkscape:window-height="1018"
     inkscape:window-x="-6"
     inkscape:window-y="-6"
     inkscape:window-maximized="1"
     inkscape:current-layer="g32" />
  <desc
     id="desc2">Created with the Front Panel Designer by the export of the file 'psu_plate.fpd'.</desc>
  <defs
     id="defs14">
    <pattern
       id="revside-fill"
       x="1"
       y="1"
       width="1.250"
       height="1.250"
       patternUnits="userSpaceOnUse">
      <line
         x1="0"
         y1="0"
         x2="1.250"
         y2="1.250"
         style="stroke-width:0.125; stroke:black; stroke-dasharray:none;"
         id="line4" />
      <line
         x1="0"
         y1="1.250"
         x2="1.250"
         y2="0"
         style="stroke-width:0.125; stroke:black; stroke-dasharray:none;"
         id="line6" />
    </pattern>
    <pattern
       id="revside-fill-silver"
       x="1"
       y="1"
       width="1.250"
       height="1.250"
       patternUnits="userSpaceOnUse">
      <line
         x1="0"
         y1="0"
         x2="1.250"
         y2="1.250"
         style="stroke-width:0.125; stroke:#e0e0e0; stroke-dasharray:none;"
         id="line9" />
      <line
         x1="0"
         y1="1.250"
         x2="1.250"
         y2="0"
         style="stroke-width:0.125; stroke:#e0e0e0; stroke-dasharray:none;"
         id="line11" />
    </pattern>
  </defs>
  <g
     transform="matrix(1,0,0,-1,0,63.5)"
     fill-rule="evenodd"
     style="stroke-linecap:round;stroke-linejoin:round;stroke-opacity:1"
     id="g32">
    <path
       id="path18"
       style="stroke:#ff0000;stroke-width:0.03779528;stroke-miterlimit:4;stroke-dasharray:none;stroke-opacity:1;fill:#0000ff;fill-opacity:1"
       d="M 0,0 V 240 H 472.44141 V 0 Z m 16.917969,22.677734 a 5.76,5.76 0 0 0 11.519531,0 5.76,5.76 0 0 0 -11.519531,0 z m 427.085941,0 a 5.76,5.76 0 1 0 11.51953,0 5.76,5.76 0 1 0 -11.51953,0 z m -402.429691,0.1875 H 430.86523 a 5.6692912,5.6692912 0 0 1 5.66993,5.669922 V 211.8418 a 5.6692912,5.6692912 0 0 1 -5.66993,5.66992 H 41.574219 A 5.6692912,5.6692912 0 0 1 35.90625,211.8418 V 28.535156 a 5.6692912,5.6692912 0 0 1 5.667969,-5.669922 z m -24.65625,97.324216 a 5.76,5.76 0 0 0 11.519531,0 5.76,5.76 0 0 0 -11.519531,0 z m 0,97.13282 a 5.76,5.76 0 0 0 11.519531,0 5.76,5.76 0 0 0 -11.519531,0 z m 427.085941,0 a 5.76,5.76 0 1 0 11.51953,0 5.76,5.76 0 1 0 -11.51953,0 z"
       transform="matrix(0.26458333,0,0,-0.26458333,0,63.5)" />
  </g>
</svg>
